solid OpenSCAD_Model
  facet normal 0.000000 -1.000000 0.000000
    outer loop
      vertex -26.933333 1.100000 -14.900000
      vertex -26.933333 1.100000 -4.500000
      vertex -54.866667 1.100000 -4.500000
    endloop
  endfacet
  facet normal -0.000000 -1.000000 -0.000000
    outer loop
      vertex -49.666667 1.100000 -7.500000
      vertex -26.933333 1.100000 -14.900000
      vertex -54.866667 1.100000 -4.500000
    endloop
  endfacet
  facet normal 0.000000 -1.000000 -0.000000
    outer loop
      vertex -54.866667 1.100000 -14.900000
      vertex -51.386696 1.100000 -8.328322
      vertex -54.866667 1.100000 -4.500000
    endloop
  endfacet
  facet normal 0.000000 -1.000000 -0.000000
    outer loop
      vertex -51.386696 1.100000 -8.328322
      vertex -49.666667 1.100000 -7.500000
      vertex -54.866667 1.100000 -4.500000
    endloop
  endfacet
  facet normal -0.000000 -1.000000 -0.000000
    outer loop
      vertex -47.946638 1.100000 -8.328322
      vertex -26.933333 1.100000 -14.900000
      vertex -49.666667 1.100000 -7.500000
    endloop
  endfacet
  facet normal 0.000000 -1.000000 0.000000
    outer loop
      vertex -48.712123 1.100000 -11.682132
      vertex -50.621211 1.100000 -11.682132
      vertex -54.866667 1.100000 -14.900000
    endloop
  endfacet
  facet normal -0.000000 -1.000000 0.000000
    outer loop
      vertex -48.712123 1.100000 -11.682132
      vertex -26.933333 1.100000 -14.900000
      vertex -47.521826 1.100000 -10.189546
    endloop
  endfacet
  facet normal -0.000000 -1.000000 0.000000
    outer loop
      vertex -54.866667 1.100000 -14.900000
      vertex -26.933333 1.100000 -14.900000
      vertex -48.712123 1.100000 -11.682132
    endloop
  endfacet
  facet normal 0.000000 -1.000000 0.000000
    outer loop
      vertex -54.866667 1.100000 -14.900000
      vertex -51.811508 1.100000 -10.189546
      vertex -51.386696 1.100000 -8.328322
    endloop
  endfacet
  facet normal 0.000000 -1.000000 0.000000
    outer loop
      vertex -54.866667 1.100000 -14.900000
      vertex -50.621211 1.100000 -11.682132
      vertex -51.811508 1.100000 -10.189546
    endloop
  endfacet
  facet normal 0.000000 -1.000000 0.000000
    outer loop
      vertex -47.946638 1.100000 -8.328322
      vertex -47.521826 1.100000 -10.189546
      vertex -26.933333 1.100000 -14.900000
    endloop
  endfacet
  facet normal 0.000000 0.000000 -1.000000
    outer loop
      vertex -0.455407 4.132571 -14.900000
      vertex 11.400000 1.100000 -14.900000
      vertex -54.866667 13.500000 -14.900000
    endloop
  endfacet
  facet normal -0.000000 0.000000 -1.000000
    outer loop
      vertex 2.692011 5.569949 -14.900000
      vertex 11.400000 13.500000 -14.900000
      vertex 11.400000 1.100000 -14.900000
    endloop
  endfacet
  facet normal 0.000000 -0.000000 -1.000000
    outer loop
      vertex -44.795995 10.210822 -14.900000
      vertex -54.866667 13.500000 -14.900000
      vertex -43.011260 10.467429 -14.900000
    endloop
  endfacet
  facet normal 0.000000 0.000000 -1.000000
    outer loop
      vertex -16.533333 0.000000 -14.900000
      vertex -26.933333 0.000000 -14.900000
      vertex -26.933333 1.100000 -14.900000
    endloop
  endfacet
  facet normal 0.000000 0.000000 -1.000000
    outer loop
      vertex -41.371113 9.718399 -14.900000
      vertex -16.533333 1.100000 -14.900000
      vertex -16.533333 0.000000 -14.900000
    endloop
  endfacet
  facet normal 0.000000 0.000000 -1.000000
    outer loop
      vertex -46.158678 5.569949 -14.900000
      vertex -54.866667 1.100000 -14.900000
      vertex -54.866667 13.500000 -14.900000
    endloop
  endfacet
  facet normal 0.000000 0.000000 -1.000000
    outer loop
      vertex -44.795995 4.389178 -14.900000
      vertex -54.866667 1.100000 -14.900000
      vertex -46.158678 5.569949 -14.900000
    endloop
  endfacet
  facet normal 0.000000 0.000000 -1.000000
    outer loop
      vertex -46.666667 7.300000 -14.900000
      vertex -46.158678 5.569949 -14.900000
      vertex -54.866667 13.500000 -14.900000
    endloop
  endfacet
  facet normal 0.000000 0.000000 -1.000000
    outer loop
      vertex -40.396289 8.201544 -14.900000
      vertex -26.933333 1.100000 -14.900000
      vertex -40.396289 6.398456 -14.900000
    endloop
  endfacet
  facet normal 0.000000 -0.000000 -1.000000
    outer loop
      vertex -46.158678 9.030051 -14.900000
      vertex -54.866667 13.500000 -14.900000
      vertex -44.795995 10.210822 -14.900000
    endloop
  endfacet
  facet normal 0.000000 -0.000000 -1.000000
    outer loop
      vertex -2.095554 9.718399 -14.900000
      vertex -16.533333 13.500000 -14.900000
      vertex -0.455407 10.467429 -14.900000
    endloop
  endfacet
  facet normal 0.000000 0.000000 -1.000000
    outer loop
      vertex -16.533333 0.000000 -14.900000
      vertex -26.933333 1.100000 -14.900000
      vertex -40.396289 8.201544 -14.900000
    endloop
  endfacet
  facet normal 0.000000 0.000000 -1.000000
    outer loop
      vertex 11.400000 1.100000 -14.900000
      vertex -16.533333 1.100000 -14.900000
      vertex -41.371113 9.718399 -14.900000
    endloop
  endfacet
  facet normal 0.000000 0.000000 -1.000000
    outer loop
      vertex 11.400000 1.100000 -14.900000
      vertex -41.371113 9.718399 -14.900000
      vertex -43.011260 10.467429 -14.900000
    endloop
  endfacet
  facet normal 0.000000 0.000000 -1.000000
    outer loop
      vertex 11.400000 1.100000 -14.900000
      vertex -43.011260 10.467429 -14.900000
      vertex -54.866667 13.500000 -14.900000
    endloop
  endfacet
  facet normal 0.000000 -0.000000 -1.000000
    outer loop
      vertex -46.666667 7.300000 -14.900000
      vertex -54.866667 13.500000 -14.900000
      vertex -46.158678 9.030051 -14.900000
    endloop
  endfacet
  facet normal 0.000000 0.000000 -1.000000
    outer loop
      vertex -3.070378 6.398456 -14.900000
      vertex -16.533333 13.500000 -14.900000
      vertex -3.070378 8.201544 -14.900000
    endloop
  endfacet
  facet normal 0.000000 0.000000 -1.000000
    outer loop
      vertex -2.095554 4.881601 -14.900000
      vertex -26.933333 13.500000 -14.900000
      vertex -3.070378 6.398456 -14.900000
    endloop
  endfacet
  facet normal 0.000000 0.000000 -1.000000
    outer loop
      vertex -16.533333 13.500000 -14.900000
      vertex -3.070378 6.398456 -14.900000
      vertex -26.933333 13.500000 -14.900000
    endloop
  endfacet
  facet normal 0.000000 0.000000 -1.000000
    outer loop
      vertex 1.329328 4.389178 -14.900000
      vertex 11.400000 1.100000 -14.900000
      vertex -0.455407 4.132571 -14.900000
    endloop
  endfacet
  facet normal 0.000000 0.000000 -1.000000
    outer loop
      vertex -26.933333 13.500000 -14.900000
      vertex -2.095554 4.881601 -14.900000
      vertex -54.866667 13.500000 -14.900000
    endloop
  endfacet
  facet normal 0.000000 0.000000 -1.000000
    outer loop
      vertex -2.095554 4.881601 -14.900000
      vertex -0.455407 4.132571 -14.900000
      vertex -54.866667 13.500000 -14.900000
    endloop
  endfacet
  facet normal -0.000000 0.000000 -1.000000
    outer loop
      vertex 3.200000 7.300000 -14.900000
      vertex 11.400000 13.500000 -14.900000
      vertex 2.692011 5.569949 -14.900000
    endloop
  endfacet
  facet normal 0.000000 0.000000 -1.000000
    outer loop
      vertex 2.692011 5.569949 -14.900000
      vertex 11.400000 1.100000 -14.900000
      vertex 1.329328 4.389178 -14.900000
    endloop
  endfacet
  facet normal -0.000000 0.000000 -1.000000
    outer loop
      vertex 2.692011 9.030051 -14.900000
      vertex 11.400000 13.500000 -14.900000
      vertex 3.200000 7.300000 -14.900000
    endloop
  endfacet
  facet normal -0.000000 0.000000 -1.000000
    outer loop
      vertex 1.329328 10.210822 -14.900000
      vertex 11.400000 13.500000 -14.900000
      vertex 2.692011 9.030051 -14.900000
    endloop
  endfacet
  facet normal 0.000000 0.000000 -1.000000
    outer loop
      vertex -16.533333 13.500000 -14.900000
      vertex 11.400000 13.500000 -14.900000
      vertex 1.329328 10.210822 -14.900000
    endloop
  endfacet
  facet normal 0.000000 0.000000 -1.000000
    outer loop
      vertex -16.533333 13.500000 -14.900000
      vertex 1.329328 10.210822 -14.900000
      vertex -0.455407 10.467429 -14.900000
    endloop
  endfacet
  facet normal 0.000000 -0.000000 -1.000000
    outer loop
      vertex -3.070378 8.201544 -14.900000
      vertex -16.533333 13.500000 -14.900000
      vertex -2.095554 9.718399 -14.900000
    endloop
  endfacet
  facet normal 0.000000 0.000000 -1.000000
    outer loop
      vertex -54.866667 1.100000 -14.900000
      vertex -44.795995 4.389178 -14.900000
      vertex -43.011260 4.132571 -14.900000
    endloop
  endfacet
  facet normal 0.000000 0.000000 -1.000000
    outer loop
      vertex -41.371113 9.718399 -14.900000
      vertex -16.533333 0.000000 -14.900000
      vertex -40.396289 8.201544 -14.900000
    endloop
  endfacet
  facet normal -0.000000 0.000000 -1.000000
    outer loop
      vertex -41.371113 4.881601 -14.900000
      vertex -40.396289 6.398456 -14.900000
      vertex -26.933333 1.100000 -14.900000
    endloop
  endfacet
  facet normal -0.000000 0.000000 -1.000000
    outer loop
      vertex -43.011260 4.132571 -14.900000
      vertex -41.371113 4.881601 -14.900000
      vertex -26.933333 1.100000 -14.900000
    endloop
  endfacet
  facet normal -0.000000 0.000000 -1.000000
    outer loop
      vertex -54.866667 1.100000 -14.900000
      vertex -43.011260 4.132571 -14.900000
      vertex -26.933333 1.100000 -14.900000
    endloop
  endfacet
  facet normal -1.000000 -0.000000 -0.000000
    outer loop
      vertex -54.866667 1.100000 -14.900000
      vertex -54.866667 1.100000 -4.500000
      vertex -54.866667 13.500000 -14.900000
    endloop
  endfacet
  facet normal -1.000000 0.000000 0.000000
    outer loop
      vertex -54.866667 13.500000 -14.900000
      vertex -54.866667 1.100000 -4.500000
      vertex -54.866667 13.500000 -4.500000
    endloop
  endfacet
  facet normal -1.000000 0.000000 0.000000
    outer loop
      vertex -26.933333 1.100000 -4.500000
      vertex -26.933333 1.100000 -14.900000
      vertex -26.933333 0.000000 -4.500000
    endloop
  endfacet
  facet normal -1.000000 0.000000 0.000000
    outer loop
      vertex -26.933333 0.000000 -4.500000
      vertex -26.933333 1.100000 -14.900000
      vertex -26.933333 0.000000 -14.900000
    endloop
  endfacet
  facet normal 0.000000 -0.000000 1.000000
    outer loop
      vertex -26.933333 1.100000 -4.500000
      vertex -26.933333 0.000000 -4.500000
      vertex -16.533333 0.000000 -4.500000
    endloop
  endfacet
  facet normal 0.000000 0.000000 1.000000
    outer loop
      vertex -3.883767 8.257263 -4.500000
      vertex -26.933333 1.100000 -4.500000
      vertex -16.533333 1.100000 -4.500000
    endloop
  endfacet
  facet normal 0.000000 0.000000 1.000000
    outer loop
      vertex -16.533333 1.100000 -4.500000
      vertex -26.933333 1.100000 -4.500000
      vertex -16.533333 0.000000 -4.500000
    endloop
  endfacet
  facet normal 0.000000 0.000000 1.000000
    outer loop
      vertex -43.948814 11.270835 -4.500000
      vertex -42.048247 11.040065 -4.500000
      vertex -26.933333 13.500000 -4.500000
    endloop
  endfacet
  facet normal 0.000000 -0.000000 1.000000
    outer loop
      vertex 0.482147 3.329165 -4.500000
      vertex -16.533333 1.100000 -4.500000
      vertex 11.400000 1.100000 -4.500000
    endloop
  endfacet
  facet normal 0.000000 0.000000 1.000000
    outer loop
      vertex 0.482147 11.270835 -4.500000
      vertex 2.272259 10.591935 -4.500000
      vertex 11.400000 13.500000 -4.500000
    endloop
  endfacet
  facet normal 0.000000 -0.000000 1.000000
    outer loop
      vertex -26.933333 13.500000 -4.500000
      vertex -26.933333 1.100000 -4.500000
      vertex -16.533333 13.500000 -4.500000
    endloop
  endfacet
  facet normal 0.000000 0.000000 1.000000
    outer loop
      vertex -42.048247 11.040065 -4.500000
      vertex -26.933333 1.100000 -4.500000
      vertex -26.933333 13.500000 -4.500000
    endloop
  endfacet
  facet normal 0.000000 -0.000000 1.000000
    outer loop
      vertex -54.866667 13.500000 -4.500000
      vertex -54.866667 1.100000 -4.500000
      vertex -47.466667 7.300000 -4.500000
    endloop
  endfacet
  facet normal 0.000000 0.000000 1.000000
    outer loop
      vertex -47.008491 9.158893 -4.500000
      vertex -45.738926 10.591935 -4.500000
      vertex -54.866667 13.500000 -4.500000
    endloop
  endfacet
  facet normal 0.000000 0.000000 1.000000
    outer loop
      vertex -54.866667 13.500000 -4.500000
      vertex -47.466667 7.300000 -4.500000
      vertex -47.008491 9.158893 -4.500000
    endloop
  endfacet
  facet normal 0.000000 -0.000000 1.000000
    outer loop
      vertex -39.582900 8.257263 -4.500000
      vertex -39.582900 6.342737 -4.500000
      vertex -26.933333 1.100000 -4.500000
    endloop
  endfacet
  facet normal 0.000000 0.000000 1.000000
    outer loop
      vertex -54.866667 13.500000 -4.500000
      vertex -43.948814 11.270835 -4.500000
      vertex -26.933333 13.500000 -4.500000
    endloop
  endfacet
  facet normal 0.000000 0.000000 1.000000
    outer loop
      vertex -54.866667 13.500000 -4.500000
      vertex -45.738926 10.591935 -4.500000
      vertex -43.948814 11.270835 -4.500000
    endloop
  endfacet
  facet normal 0.000000 0.000000 1.000000
    outer loop
      vertex -40.472624 9.952491 -4.500000
      vertex -26.933333 1.100000 -4.500000
      vertex -42.048247 11.040065 -4.500000
    endloop
  endfacet
  facet normal 0.000000 0.000000 1.000000
    outer loop
      vertex -39.582900 8.257263 -4.500000
      vertex -26.933333 1.100000 -4.500000
      vertex -40.472624 9.952491 -4.500000
    endloop
  endfacet
  facet normal -0.000000 0.000000 1.000000
    outer loop
      vertex -43.948814 3.329165 -4.500000
      vertex -45.738926 4.008065 -4.500000
      vertex -54.866667 1.100000 -4.500000
    endloop
  endfacet
  facet normal -0.000000 0.000000 1.000000
    outer loop
      vertex 0.482147 3.329165 -4.500000
      vertex -1.418420 3.559935 -4.500000
      vertex -16.533333 1.100000 -4.500000
    endloop
  endfacet
  facet normal 0.000000 -0.000000 1.000000
    outer loop
      vertex -43.948814 3.329165 -4.500000
      vertex -54.866667 1.100000 -4.500000
      vertex -42.048247 3.559935 -4.500000
    endloop
  endfacet
  facet normal -0.000000 0.000000 1.000000
    outer loop
      vertex -3.883767 6.342737 -4.500000
      vertex -3.883767 8.257263 -4.500000
      vertex -16.533333 1.100000 -4.500000
    endloop
  endfacet
  facet normal 0.000000 -0.000000 1.000000
    outer loop
      vertex -47.008491 5.441107 -4.500000
      vertex -54.866667 1.100000 -4.500000
      vertex -45.738926 4.008065 -4.500000
    endloop
  endfacet
  facet normal 0.000000 -0.000000 1.000000
    outer loop
      vertex -47.466667 7.300000 -4.500000
      vertex -54.866667 1.100000 -4.500000
      vertex -47.008491 5.441107 -4.500000
    endloop
  endfacet
  facet normal -0.000000 0.000000 1.000000
    outer loop
      vertex -2.994043 4.647509 -4.500000
      vertex -3.883767 6.342737 -4.500000
      vertex -16.533333 1.100000 -4.500000
    endloop
  endfacet
  facet normal 0.000000 0.000000 1.000000
    outer loop
      vertex 2.272259 10.591935 -4.500000
      vertex 3.541824 9.158893 -4.500000
      vertex 11.400000 13.500000 -4.500000
    endloop
  endfacet
  facet normal 0.000000 -0.000000 1.000000
    outer loop
      vertex -16.533333 13.500000 -4.500000
      vertex -26.933333 1.100000 -4.500000
      vertex -2.994043 9.952491 -4.500000
    endloop
  endfacet
  facet normal 0.000000 0.000000 1.000000
    outer loop
      vertex -16.533333 13.500000 -4.500000
      vertex -1.418420 11.040065 -4.500000
      vertex 11.400000 13.500000 -4.500000
    endloop
  endfacet
  facet normal 0.000000 0.000000 1.000000
    outer loop
      vertex -16.533333 13.500000 -4.500000
      vertex -2.994043 9.952491 -4.500000
      vertex -1.418420 11.040065 -4.500000
    endloop
  endfacet
  facet normal 0.000000 0.000000 1.000000
    outer loop
      vertex -1.418420 11.040065 -4.500000
      vertex 0.482147 11.270835 -4.500000
      vertex 11.400000 13.500000 -4.500000
    endloop
  endfacet
  facet normal 0.000000 0.000000 1.000000
    outer loop
      vertex 11.400000 13.500000 -4.500000
      vertex 3.541824 9.158893 -4.500000
      vertex 11.400000 1.100000 -4.500000
    endloop
  endfacet
  facet normal 0.000000 0.000000 1.000000
    outer loop
      vertex 3.541824 9.158893 -4.500000
      vertex 4.000000 7.300000 -4.500000
      vertex 11.400000 1.100000 -4.500000
    endloop
  endfacet
  facet normal 0.000000 -0.000000 1.000000
    outer loop
      vertex 4.000000 7.300000 -4.500000
      vertex 3.541824 5.441107 -4.500000
      vertex 11.400000 1.100000 -4.500000
    endloop
  endfacet
  facet normal 0.000000 -0.000000 1.000000
    outer loop
      vertex 3.541824 5.441107 -4.500000
      vertex 2.272259 4.008065 -4.500000
      vertex 11.400000 1.100000 -4.500000
    endloop
  endfacet
  facet normal 0.000000 -0.000000 1.000000
    outer loop
      vertex 2.272259 4.008065 -4.500000
      vertex 0.482147 3.329165 -4.500000
      vertex 11.400000 1.100000 -4.500000
    endloop
  endfacet
  facet normal -0.000000 0.000000 1.000000
    outer loop
      vertex -1.418420 3.559935 -4.500000
      vertex -2.994043 4.647509 -4.500000
      vertex -16.533333 1.100000 -4.500000
    endloop
  endfacet
  facet normal -0.000000 0.000000 1.000000
    outer loop
      vertex -3.883767 8.257263 -4.500000
      vertex -2.994043 9.952491 -4.500000
      vertex -26.933333 1.100000 -4.500000
    endloop
  endfacet
  facet normal 0.000000 0.000000 1.000000
    outer loop
      vertex -40.472624 4.647509 -4.500000
      vertex -26.933333 1.100000 -4.500000
      vertex -39.582900 6.342737 -4.500000
    endloop
  endfacet
  facet normal 0.000000 0.000000 1.000000
    outer loop
      vertex -42.048247 3.559935 -4.500000
      vertex -26.933333 1.100000 -4.500000
      vertex -40.472624 4.647509 -4.500000
    endloop
  endfacet
  facet normal 0.000000 0.000000 1.000000
    outer loop
      vertex -54.866667 1.100000 -4.500000
      vertex -26.933333 1.100000 -4.500000
      vertex -42.048247 3.559935 -4.500000
    endloop
  endfacet
  facet normal 0.433884 0.000000 -0.900969
    outer loop
      vertex -49.666667 13.500000 -7.500000
      vertex -49.666667 1.100000 -7.500000
      vertex -51.386696 13.500000 -8.328322
    endloop
  endfacet
  facet normal 0.433884 0.000000 -0.900969
    outer loop
      vertex -51.386696 13.500000 -8.328322
      vertex -49.666667 1.100000 -7.500000
      vertex -51.386696 1.100000 -8.328322
    endloop
  endfacet
  facet normal 0.974928 0.000000 -0.222521
    outer loop
      vertex -51.811508 13.500000 -10.189546
      vertex -51.386696 13.500000 -8.328322
      vertex -51.386696 1.100000 -8.328322
    endloop
  endfacet
  facet normal 0.974928 0.000000 -0.222521
    outer loop
      vertex -51.811508 1.100000 -10.189546
      vertex -51.811508 13.500000 -10.189546
      vertex -51.386696 1.100000 -8.328322
    endloop
  endfacet
  facet normal 0.781832 -0.000000 0.623490
    outer loop
      vertex -50.621211 1.100000 -11.682132
      vertex -50.621211 13.500000 -11.682132
      vertex -51.811508 13.500000 -10.189546
    endloop
  endfacet
  facet normal 0.781832 0.000000 0.623490
    outer loop
      vertex -51.811508 1.100000 -10.189546
      vertex -50.621211 1.100000 -11.682132
      vertex -51.811508 13.500000 -10.189546
    endloop
  endfacet
  facet normal 0.000000 -0.000000 1.000000
    outer loop
      vertex -48.712123 1.100000 -11.682132
      vertex -48.712123 13.500000 -11.682132
      vertex -50.621211 13.500000 -11.682132
    endloop
  endfacet
  facet normal 0.000000 -0.000000 1.000000
    outer loop
      vertex -50.621211 1.100000 -11.682132
      vertex -48.712123 1.100000 -11.682132
      vertex -50.621211 13.500000 -11.682132
    endloop
  endfacet
  facet normal -0.781832 0.000000 0.623490
    outer loop
      vertex -47.521826 13.500000 -10.189546
      vertex -48.712123 13.500000 -11.682132
      vertex -47.521826 1.100000 -10.189546
    endloop
  endfacet
  facet normal -0.781832 -0.000000 0.623490
    outer loop
      vertex -47.521826 1.100000 -10.189546
      vertex -48.712123 13.500000 -11.682132
      vertex -48.712123 1.100000 -11.682132
    endloop
  endfacet
  facet normal -0.974928 0.000000 -0.222521
    outer loop
      vertex -47.521826 13.500000 -10.189546
      vertex -47.521826 1.100000 -10.189546
      vertex -47.946638 13.500000 -8.328322
    endloop
  endfacet
  facet normal -0.974928 0.000000 -0.222521
    outer loop
      vertex -47.946638 13.500000 -8.328322
      vertex -47.521826 1.100000 -10.189546
      vertex -47.946638 1.100000 -8.328322
    endloop
  endfacet
  facet normal -0.433884 0.000000 -0.900969
    outer loop
      vertex -47.946638 13.500000 -8.328322
      vertex -47.946638 1.100000 -8.328322
      vertex -49.666667 13.500000 -7.500000
    endloop
  endfacet
  facet normal -0.433884 0.000000 -0.900969
    outer loop
      vertex -49.666667 13.500000 -7.500000
      vertex -47.946638 1.100000 -8.328322
      vertex -49.666667 1.100000 -7.500000
    endloop
  endfacet
  facet normal 0.000000 1.000000 0.000000
    outer loop
      vertex -26.933333 13.500000 -4.500000
      vertex -26.933333 13.500000 -14.900000
      vertex -54.866667 13.500000 -4.500000
    endloop
  endfacet
  facet normal 0.000000 1.000000 -0.000000
    outer loop
      vertex -50.621211 13.500000 -11.682132
      vertex -26.933333 13.500000 -14.900000
      vertex -54.866667 13.500000 -14.900000
    endloop
  endfacet
  facet normal 0.000000 1.000000 0.000000
    outer loop
      vertex -51.386696 13.500000 -8.328322
      vertex -54.866667 13.500000 -4.500000
      vertex -49.666667 13.500000 -7.500000
    endloop
  endfacet
  facet normal 0.000000 1.000000 -0.000000
    outer loop
      vertex -54.866667 13.500000 -4.500000
      vertex -51.811508 13.500000 -10.189546
      vertex -54.866667 13.500000 -14.900000
    endloop
  endfacet
  facet normal 0.000000 1.000000 -0.000000
    outer loop
      vertex -48.712123 13.500000 -11.682132
      vertex -26.933333 13.500000 -14.900000
      vertex -50.621211 13.500000 -11.682132
    endloop
  endfacet
  facet normal 0.000000 1.000000 -0.000000
    outer loop
      vertex -51.811508 13.500000 -10.189546
      vertex -50.621211 13.500000 -11.682132
      vertex -54.866667 13.500000 -14.900000
    endloop
  endfacet
  facet normal 0.000000 1.000000 0.000000
    outer loop
      vertex -47.946638 13.500000 -8.328322
      vertex -26.933333 13.500000 -14.900000
      vertex -47.521826 13.500000 -10.189546
    endloop
  endfacet
  facet normal 0.000000 1.000000 0.000000
    outer loop
      vertex -54.866667 13.500000 -4.500000
      vertex -26.933333 13.500000 -14.900000
      vertex -47.946638 13.500000 -8.328322
    endloop
  endfacet
  facet normal 0.000000 1.000000 0.000000
    outer loop
      vertex -54.866667 13.500000 -4.500000
      vertex -47.946638 13.500000 -8.328322
      vertex -49.666667 13.500000 -7.500000
    endloop
  endfacet
  facet normal 0.000000 1.000000 0.000000
    outer loop
      vertex -54.866667 13.500000 -4.500000
      vertex -51.386696 13.500000 -8.328322
      vertex -51.811508 13.500000 -10.189546
    endloop
  endfacet
  facet normal 0.000000 1.000000 -0.000000
    outer loop
      vertex -47.521826 13.500000 -10.189546
      vertex -26.933333 13.500000 -14.900000
      vertex -48.712123 13.500000 -11.682132
    endloop
  endfacet
  facet normal 0.000000 -1.000000 -0.000000
    outer loop
      vertex -21.733333 0.000000 -7.500000
      vertex -16.533333 0.000000 -4.500000
      vertex -26.933333 0.000000 -4.500000
    endloop
  endfacet
  facet normal 0.000000 -1.000000 -0.000000
    outer loop
      vertex -26.933333 0.000000 -14.900000
      vertex -23.453362 0.000000 -8.328322
      vertex -26.933333 0.000000 -4.500000
    endloop
  endfacet
  facet normal 0.000000 -1.000000 -0.000000
    outer loop
      vertex -20.013304 0.000000 -8.328322
      vertex -16.533333 0.000000 -4.500000
      vertex -21.733333 0.000000 -7.500000
    endloop
  endfacet
  facet normal 0.000000 -1.000000 0.000000
    outer loop
      vertex -16.533333 0.000000 -14.900000
      vertex -16.533333 0.000000 -4.500000
      vertex -20.013304 0.000000 -8.328322
    endloop
  endfacet
  facet normal 0.000000 -1.000000 0.000000
    outer loop
      vertex -16.533333 0.000000 -14.900000
      vertex -20.013304 0.000000 -8.328322
      vertex -19.588492 0.000000 -10.189546
    endloop
  endfacet
  facet normal -0.000000 -1.000000 0.000000
    outer loop
      vertex -26.933333 0.000000 -14.900000
      vertex -16.533333 0.000000 -14.900000
      vertex -20.778789 0.000000 -11.682132
    endloop
  endfacet
  facet normal 0.000000 -1.000000 0.000000
    outer loop
      vertex -26.933333 0.000000 -14.900000
      vertex -20.778789 0.000000 -11.682132
      vertex -21.733333 0.000000 -11.682132
    endloop
  endfacet
  facet normal 0.000000 -1.000000 0.000000
    outer loop
      vertex -26.933333 0.000000 -14.900000
      vertex -21.733333 0.000000 -11.682132
      vertex -22.687877 0.000000 -11.682132
    endloop
  endfacet
  facet normal 0.000000 -1.000000 0.000000
    outer loop
      vertex -26.933333 0.000000 -14.900000
      vertex -23.878174 0.000000 -10.189546
      vertex -23.453362 0.000000 -8.328322
    endloop
  endfacet
  facet normal 0.000000 -1.000000 0.000000
    outer loop
      vertex -26.933333 0.000000 -14.900000
      vertex -22.687877 0.000000 -11.682132
      vertex -23.878174 0.000000 -10.189546
    endloop
  endfacet
  facet normal 0.000000 -1.000000 -0.000000
    outer loop
      vertex -23.453362 0.000000 -8.328322
      vertex -21.733333 0.000000 -7.500000
      vertex -26.933333 0.000000 -4.500000
    endloop
  endfacet
  facet normal 0.000000 -1.000000 0.000000
    outer loop
      vertex -19.588492 0.000000 -10.189546
      vertex -20.778789 0.000000 -11.682132
      vertex -16.533333 0.000000 -14.900000
    endloop
  endfacet
  facet normal 1.000000 0.000000 0.000000
    outer loop
      vertex -16.533333 1.100000 -14.900000
      vertex -16.533333 1.100000 -4.500000
      vertex -16.533333 0.000000 -4.500000
    endloop
  endfacet
  facet normal 1.000000 0.000000 0.000000
    outer loop
      vertex -16.533333 0.000000 -14.900000
      vertex -16.533333 1.100000 -14.900000
      vertex -16.533333 0.000000 -4.500000
    endloop
  endfacet
  facet normal 0.000000 -1.000000 -0.000000
    outer loop
      vertex 4.479971 1.100000 -8.328322
      vertex 11.400000 1.100000 -4.500000
      vertex -16.533333 1.100000 -4.500000
    endloop
  endfacet
  facet normal -0.000000 -1.000000 -0.000000
    outer loop
      vertex -16.533333 1.100000 -14.900000
      vertex 11.400000 1.100000 -14.900000
      vertex -16.533333 1.100000 -4.500000
    endloop
  endfacet
  facet normal 0.000000 -1.000000 -0.000000
    outer loop
      vertex 4.055159 1.100000 -10.189546
      vertex 4.479971 1.100000 -8.328322
      vertex -16.533333 1.100000 -4.500000
    endloop
  endfacet
  facet normal 0.000000 -1.000000 -0.000000
    outer loop
      vertex 6.200000 1.100000 -7.500000
      vertex 11.400000 1.100000 -4.500000
      vertex 4.479971 1.100000 -8.328322
    endloop
  endfacet
  facet normal 0.000000 -1.000000 0.000000
    outer loop
      vertex 5.245456 1.100000 -11.682132
      vertex 4.055159 1.100000 -10.189546
      vertex -16.533333 1.100000 -4.500000
    endloop
  endfacet
  facet normal 0.000000 -1.000000 -0.000000
    outer loop
      vertex 7.920029 1.100000 -8.328322
      vertex 11.400000 1.100000 -4.500000
      vertex 6.200000 1.100000 -7.500000
    endloop
  endfacet
  facet normal 0.000000 -1.000000 0.000000
    outer loop
      vertex 11.400000 1.100000 -14.900000
      vertex 11.400000 1.100000 -4.500000
      vertex 7.920029 1.100000 -8.328322
    endloop
  endfacet
  facet normal 0.000000 -1.000000 0.000000
    outer loop
      vertex 11.400000 1.100000 -14.900000
      vertex 7.920029 1.100000 -8.328322
      vertex 8.344841 1.100000 -10.189546
    endloop
  endfacet
  facet normal 0.000000 -1.000000 0.000000
    outer loop
      vertex 11.400000 1.100000 -14.900000
      vertex 5.245456 1.100000 -11.682132
      vertex -16.533333 1.100000 -4.500000
    endloop
  endfacet
  facet normal 0.000000 -1.000000 0.000000
    outer loop
      vertex 11.400000 1.100000 -14.900000
      vertex 7.154544 1.100000 -11.682132
      vertex 5.245456 1.100000 -11.682132
    endloop
  endfacet
  facet normal 0.000000 -1.000000 0.000000
    outer loop
      vertex 8.344841 1.100000 -10.189546
      vertex 7.154544 1.100000 -11.682132
      vertex 11.400000 1.100000 -14.900000
    endloop
  endfacet
  facet normal 1.000000 0.000000 0.000000
    outer loop
      vertex 11.400000 13.500000 -14.900000
      vertex 11.400000 13.500000 -4.500000
      vertex 11.400000 1.100000 -4.500000
    endloop
  endfacet
  facet normal 1.000000 0.000000 0.000000
    outer loop
      vertex 11.400000 1.100000 -14.900000
      vertex 11.400000 13.500000 -14.900000
      vertex 11.400000 1.100000 -4.500000
    endloop
  endfacet
  facet normal -0.000000 1.000000 -0.000000
    outer loop
      vertex 5.245456 13.500000 -11.682132
      vertex 11.400000 13.500000 -14.900000
      vertex -16.533333 13.500000 -4.500000
    endloop
  endfacet
  facet normal 0.000000 1.000000 -0.000000
    outer loop
      vertex -16.533333 13.500000 -4.500000
      vertex 11.400000 13.500000 -14.900000
      vertex -16.533333 13.500000 -14.900000
    endloop
  endfacet
  facet normal 0.000000 1.000000 0.000000
    outer loop
      vertex 7.920029 13.500000 -8.328322
      vertex 11.400000 13.500000 -4.500000
      vertex 8.344841 13.500000 -10.189546
    endloop
  endfacet
  facet normal -0.000000 1.000000 0.000000
    outer loop
      vertex 4.479971 13.500000 -8.328322
      vertex 4.055159 13.500000 -10.189546
      vertex -16.533333 13.500000 -4.500000
    endloop
  endfacet
  facet normal -0.000000 1.000000 -0.000000
    outer loop
      vertex 4.055159 13.500000 -10.189546
      vertex 5.245456 13.500000 -11.682132
      vertex -16.533333 13.500000 -4.500000
    endloop
  endfacet
  facet normal 0.000000 1.000000 -0.000000
    outer loop
      vertex 8.344841 13.500000 -10.189546
      vertex 11.400000 13.500000 -14.900000
      vertex 7.154544 13.500000 -11.682132
    endloop
  endfacet
  facet normal 0.000000 1.000000 0.000000
    outer loop
      vertex 11.400000 13.500000 -4.500000
      vertex 11.400000 13.500000 -14.900000
      vertex 8.344841 13.500000 -10.189546
    endloop
  endfacet
  facet normal 0.000000 1.000000 0.000000
    outer loop
      vertex 6.200000 13.500000 -7.500000
      vertex 11.400000 13.500000 -4.500000
      vertex 7.920029 13.500000 -8.328322
    endloop
  endfacet
  facet normal 0.000000 1.000000 0.000000
    outer loop
      vertex 11.400000 13.500000 -4.500000
      vertex 6.200000 13.500000 -7.500000
      vertex -16.533333 13.500000 -4.500000
    endloop
  endfacet
  facet normal -0.000000 1.000000 0.000000
    outer loop
      vertex 6.200000 13.500000 -7.500000
      vertex 4.479971 13.500000 -8.328322
      vertex -16.533333 13.500000 -4.500000
    endloop
  endfacet
  facet normal 0.000000 1.000000 -0.000000
    outer loop
      vertex 7.154544 13.500000 -11.682132
      vertex 11.400000 13.500000 -14.900000
      vertex 5.245456 13.500000 -11.682132
    endloop
  endfacet
  facet normal 0.000000 1.000000 0.000000
    outer loop
      vertex -23.453362 13.500000 -8.328322
      vertex -26.933333 13.500000 -4.500000
      vertex -21.733333 13.500000 -7.500000
    endloop
  endfacet
  facet normal 0.000000 1.000000 -0.000000
    outer loop
      vertex -22.687877 13.500000 -11.682132
      vertex -16.533333 13.500000 -14.900000
      vertex -26.933333 13.500000 -14.900000
    endloop
  endfacet
  facet normal 0.000000 1.000000 -0.000000
    outer loop
      vertex -19.588492 13.500000 -10.189546
      vertex -16.533333 13.500000 -14.900000
      vertex -20.778789 13.500000 -11.682132
    endloop
  endfacet
  facet normal 0.000000 1.000000 -0.000000
    outer loop
      vertex -26.933333 13.500000 -4.500000
      vertex -23.878174 13.500000 -10.189546
      vertex -26.933333 13.500000 -14.900000
    endloop
  endfacet
  facet normal 0.000000 1.000000 -0.000000
    outer loop
      vertex -21.733333 13.500000 -11.682132
      vertex -16.533333 13.500000 -14.900000
      vertex -22.687877 13.500000 -11.682132
    endloop
  endfacet
  facet normal 0.000000 1.000000 -0.000000
    outer loop
      vertex -23.878174 13.500000 -10.189546
      vertex -22.687877 13.500000 -11.682132
      vertex -26.933333 13.500000 -14.900000
    endloop
  endfacet
  facet normal 0.000000 1.000000 -0.000000
    outer loop
      vertex -20.778789 13.500000 -11.682132
      vertex -16.533333 13.500000 -14.900000
      vertex -21.733333 13.500000 -11.682132
    endloop
  endfacet
  facet normal 0.000000 1.000000 0.000000
    outer loop
      vertex -16.533333 13.500000 -4.500000
      vertex -16.533333 13.500000 -14.900000
      vertex -19.588492 13.500000 -10.189546
    endloop
  endfacet
  facet normal 0.000000 1.000000 0.000000
    outer loop
      vertex -16.533333 13.500000 -4.500000
      vertex -19.588492 13.500000 -10.189546
      vertex -20.013304 13.500000 -8.328322
    endloop
  endfacet
  facet normal 0.000000 1.000000 0.000000
    outer loop
      vertex -16.533333 13.500000 -4.500000
      vertex -20.013304 13.500000 -8.328322
      vertex -26.933333 13.500000 -4.500000
    endloop
  endfacet
  facet normal 0.000000 1.000000 0.000000
    outer loop
      vertex -20.013304 13.500000 -8.328322
      vertex -21.733333 13.500000 -7.500000
      vertex -26.933333 13.500000 -4.500000
    endloop
  endfacet
  facet normal 0.000000 1.000000 0.000000
    outer loop
      vertex -23.878174 13.500000 -10.189546
      vertex -26.933333 13.500000 -4.500000
      vertex -23.453362 13.500000 -8.328322
    endloop
  endfacet
  facet normal 0.959493 0.281733 0.000000
    outer loop
      vertex -46.666667 7.300000 -4.500000
      vertex -46.158678 5.569949 -4.500000
      vertex -46.158678 5.569949 -14.900000
    endloop
  endfacet
  facet normal 0.959493 0.281733 0.000000
    outer loop
      vertex -46.666667 7.300000 -14.900000
      vertex -46.666667 7.300000 -4.500000
      vertex -46.158678 5.569949 -14.900000
    endloop
  endfacet
  facet normal 0.654861 0.755750 -0.000000
    outer loop
      vertex -44.795995 4.389178 -4.500000
      vertex -44.795995 4.389178 -14.900000
      vertex -46.158678 5.569949 -4.500000
    endloop
  endfacet
  facet normal 0.654861 0.755750 -0.000000
    outer loop
      vertex -46.158678 5.569949 -4.500000
      vertex -44.795995 4.389178 -14.900000
      vertex -46.158678 5.569949 -14.900000
    endloop
  endfacet
  facet normal 0.959493 -0.281733 0.000000
    outer loop
      vertex -46.158678 9.030051 -14.900000
      vertex -46.158678 9.030051 -4.500000
      vertex -46.666667 7.300000 -4.500000
    endloop
  endfacet
  facet normal 0.959493 -0.281733 0.000000
    outer loop
      vertex -46.666667 7.300000 -14.900000
      vertex -46.158678 9.030051 -14.900000
      vertex -46.666667 7.300000 -4.500000
    endloop
  endfacet
  facet normal 0.654861 -0.755750 0.000000
    outer loop
      vertex -44.795995 10.210822 -14.900000
      vertex -44.795995 10.210822 -4.500000
      vertex -46.158678 9.030051 -4.500000
    endloop
  endfacet
  facet normal 0.654861 -0.755750 0.000000
    outer loop
      vertex -46.158678 9.030051 -14.900000
      vertex -44.795995 10.210822 -14.900000
      vertex -46.158678 9.030051 -4.500000
    endloop
  endfacet
  facet normal 0.142315 -0.989821 0.000000
    outer loop
      vertex -43.011260 10.467429 -14.900000
      vertex -43.011260 10.467429 -4.500000
      vertex -44.795995 10.210822 -4.500000
    endloop
  endfacet
  facet normal 0.142315 -0.989821 0.000000
    outer loop
      vertex -44.795995 10.210822 -14.900000
      vertex -43.011260 10.467429 -14.900000
      vertex -44.795995 10.210822 -4.500000
    endloop
  endfacet
  facet normal -0.415415 -0.909632 -0.000000
    outer loop
      vertex -41.371113 9.718399 -14.900000
      vertex -41.371113 9.718399 -4.500000
      vertex -43.011260 10.467429 -4.500000
    endloop
  endfacet
  facet normal -0.415415 -0.909632 -0.000000
    outer loop
      vertex -43.011260 10.467429 -14.900000
      vertex -41.371113 9.718399 -14.900000
      vertex -43.011260 10.467429 -4.500000
    endloop
  endfacet
  facet normal -0.841253 -0.540641 0.000000
    outer loop
      vertex -40.396289 8.201544 -4.500000
      vertex -41.371113 9.718399 -4.500000
      vertex -40.396289 8.201544 -14.900000
    endloop
  endfacet
  facet normal -0.841253 -0.540641 0.000000
    outer loop
      vertex -40.396289 8.201544 -14.900000
      vertex -41.371113 9.718399 -4.500000
      vertex -41.371113 9.718399 -14.900000
    endloop
  endfacet
  facet normal -1.000000 0.000000 0.000000
    outer loop
      vertex -40.396289 8.201544 -4.500000
      vertex -40.396289 8.201544 -14.900000
      vertex -40.396289 6.398456 -4.500000
    endloop
  endfacet
  facet normal -1.000000 0.000000 0.000000
    outer loop
      vertex -40.396289 6.398456 -4.500000
      vertex -40.396289 8.201544 -14.900000
      vertex -40.396289 6.398456 -14.900000
    endloop
  endfacet
  facet normal -0.841253 0.540641 0.000000
    outer loop
      vertex -40.396289 6.398456 -4.500000
      vertex -40.396289 6.398456 -14.900000
      vertex -41.371113 4.881601 -4.500000
    endloop
  endfacet
  facet normal -0.841253 0.540641 0.000000
    outer loop
      vertex -41.371113 4.881601 -4.500000
      vertex -40.396289 6.398456 -14.900000
      vertex -41.371113 4.881601 -14.900000
    endloop
  endfacet
  facet normal -0.415415 0.909632 0.000000
    outer loop
      vertex -41.371113 4.881601 -4.500000
      vertex -41.371113 4.881601 -14.900000
      vertex -43.011260 4.132571 -4.500000
    endloop
  endfacet
  facet normal -0.415415 0.909632 0.000000
    outer loop
      vertex -43.011260 4.132571 -4.500000
      vertex -41.371113 4.881601 -14.900000
      vertex -43.011260 4.132571 -14.900000
    endloop
  endfacet
  facet normal 0.142315 0.989821 -0.000000
    outer loop
      vertex -43.011260 4.132571 -4.500000
      vertex -43.011260 4.132571 -14.900000
      vertex -44.795995 4.389178 -4.500000
    endloop
  endfacet
  facet normal 0.142315 0.989821 -0.000000
    outer loop
      vertex -44.795995 4.389178 -4.500000
      vertex -43.011260 4.132571 -14.900000
      vertex -44.795995 4.389178 -14.900000
    endloop
  endfacet
  facet normal 0.841253 0.540641 0.000000
    outer loop
      vertex -2.095554 4.881601 -14.900000
      vertex -3.070378 6.398456 -14.900000
      vertex -3.070378 6.398456 -4.500000
    endloop
  endfacet
  facet normal 0.841253 0.540641 -0.000000
    outer loop
      vertex -2.095554 4.881601 -4.500000
      vertex -2.095554 4.881601 -14.900000
      vertex -3.070378 6.398456 -4.500000
    endloop
  endfacet
  facet normal 1.000000 0.000000 -0.000000
    outer loop
      vertex -3.070378 6.398456 -4.500000
      vertex -3.070378 6.398456 -14.900000
      vertex -3.070378 8.201544 -14.900000
    endloop
  endfacet
  facet normal 1.000000 0.000000 0.000000
    outer loop
      vertex -3.070378 8.201544 -4.500000
      vertex -3.070378 6.398456 -4.500000
      vertex -3.070378 8.201544 -14.900000
    endloop
  endfacet
  facet normal 0.841253 -0.540641 0.000000
    outer loop
      vertex -3.070378 8.201544 -4.500000
      vertex -3.070378 8.201544 -14.900000
      vertex -2.095554 9.718399 -14.900000
    endloop
  endfacet
  facet normal 0.841253 -0.540641 0.000000
    outer loop
      vertex -2.095554 9.718399 -4.500000
      vertex -3.070378 8.201544 -4.500000
      vertex -2.095554 9.718399 -14.900000
    endloop
  endfacet
  facet normal 0.415415 -0.909632 0.000000
    outer loop
      vertex -2.095554 9.718399 -4.500000
      vertex -2.095554 9.718399 -14.900000
      vertex -0.455407 10.467429 -14.900000
    endloop
  endfacet
  facet normal 0.415415 -0.909632 0.000000
    outer loop
      vertex -0.455407 10.467429 -4.500000
      vertex -2.095554 9.718399 -4.500000
      vertex -0.455407 10.467429 -14.900000
    endloop
  endfacet
  facet normal -0.142315 -0.989821 0.000000
    outer loop
      vertex -0.455407 10.467429 -4.500000
      vertex -0.455407 10.467429 -14.900000
      vertex 1.329328 10.210822 -14.900000
    endloop
  endfacet
  facet normal -0.142315 -0.989821 0.000000
    outer loop
      vertex 1.329328 10.210822 -4.500000
      vertex -0.455407 10.467429 -4.500000
      vertex 1.329328 10.210822 -14.900000
    endloop
  endfacet
  facet normal -0.654861 -0.755750 0.000000
    outer loop
      vertex 1.329328 10.210822 -4.500000
      vertex 1.329328 10.210822 -14.900000
      vertex 2.692011 9.030051 -14.900000
    endloop
  endfacet
  facet normal -0.654861 -0.755750 0.000000
    outer loop
      vertex 2.692011 9.030051 -4.500000
      vertex 1.329328 10.210822 -4.500000
      vertex 2.692011 9.030051 -14.900000
    endloop
  endfacet
  facet normal -0.959493 -0.281733 -0.000000
    outer loop
      vertex 2.692011 9.030051 -14.900000
      vertex 3.200000 7.300000 -14.900000
      vertex 2.692011 9.030051 -4.500000
    endloop
  endfacet
  facet normal -0.959493 -0.281733 0.000000
    outer loop
      vertex 2.692011 9.030051 -4.500000
      vertex 3.200000 7.300000 -14.900000
      vertex 3.200000 7.300000 -4.500000
    endloop
  endfacet
  facet normal -0.959493 0.281733 0.000000
    outer loop
      vertex 2.692011 5.569949 -14.900000
      vertex 2.692011 5.569949 -4.500000
      vertex 3.200000 7.300000 -14.900000
    endloop
  endfacet
  facet normal -0.959493 0.281733 0.000000
    outer loop
      vertex 3.200000 7.300000 -14.900000
      vertex 2.692011 5.569949 -4.500000
      vertex 3.200000 7.300000 -4.500000
    endloop
  endfacet
  facet normal -0.654861 0.755750 0.000000
    outer loop
      vertex 1.329328 4.389178 -14.900000
      vertex 1.329328 4.389178 -4.500000
      vertex 2.692011 5.569949 -14.900000
    endloop
  endfacet
  facet normal -0.654861 0.755750 0.000000
    outer loop
      vertex 2.692011 5.569949 -14.900000
      vertex 1.329328 4.389178 -4.500000
      vertex 2.692011 5.569949 -4.500000
    endloop
  endfacet
  facet normal -0.142315 0.989821 0.000000
    outer loop
      vertex -0.455407 4.132571 -14.900000
      vertex -0.455407 4.132571 -4.500000
      vertex 1.329328 4.389178 -14.900000
    endloop
  endfacet
  facet normal -0.142315 0.989821 0.000000
    outer loop
      vertex 1.329328 4.389178 -14.900000
      vertex -0.455407 4.132571 -4.500000
      vertex 1.329328 4.389178 -4.500000
    endloop
  endfacet
  facet normal 0.415415 0.909632 0.000000
    outer loop
      vertex -2.095554 4.881601 -14.900000
      vertex -2.095554 4.881601 -4.500000
      vertex -0.455407 4.132571 -14.900000
    endloop
  endfacet
  facet normal 0.415415 0.909632 0.000000
    outer loop
      vertex -0.455407 4.132571 -14.900000
      vertex -2.095554 4.881601 -4.500000
      vertex -0.455407 4.132571 -4.500000
    endloop
  endfacet
  facet normal 0.433884 0.000000 -0.900969
    outer loop
      vertex -21.733333 13.500000 -7.500000
      vertex -21.733333 0.000000 -7.500000
      vertex -23.453362 13.500000 -8.328322
    endloop
  endfacet
  facet normal 0.433884 0.000000 -0.900969
    outer loop
      vertex -23.453362 13.500000 -8.328322
      vertex -21.733333 0.000000 -7.500000
      vertex -23.453362 0.000000 -8.328322
    endloop
  endfacet
  facet normal 0.974928 -0.000000 -0.222521
    outer loop
      vertex -23.878174 0.000000 -10.189546
      vertex -23.878174 13.500000 -10.189546
      vertex -23.453362 13.500000 -8.328322
    endloop
  endfacet
  facet normal 0.974928 0.000000 -0.222521
    outer loop
      vertex -23.453362 0.000000 -8.328322
      vertex -23.878174 0.000000 -10.189546
      vertex -23.453362 13.500000 -8.328322
    endloop
  endfacet
  facet normal 0.000000 -0.000000 1.000000
    outer loop
      vertex -21.733333 13.500000 -11.682132
      vertex -22.687877 13.500000 -11.682132
      vertex -21.733333 0.000000 -11.682132
    endloop
  endfacet
  facet normal 0.000000 -0.000000 1.000000
    outer loop
      vertex -21.733333 0.000000 -11.682132
      vertex -22.687877 13.500000 -11.682132
      vertex -22.687877 0.000000 -11.682132
    endloop
  endfacet
  facet normal 0.000000 -0.000000 1.000000
    outer loop
      vertex -21.733333 0.000000 -11.682132
      vertex -20.778789 0.000000 -11.682132
      vertex -21.733333 13.500000 -11.682132
    endloop
  endfacet
  facet normal 0.000000 -0.000000 1.000000
    outer loop
      vertex -21.733333 13.500000 -11.682132
      vertex -20.778789 0.000000 -11.682132
      vertex -20.778789 13.500000 -11.682132
    endloop
  endfacet
  facet normal -0.974928 0.000000 -0.222521
    outer loop
      vertex -20.013304 13.500000 -8.328322
      vertex -19.588492 13.500000 -10.189546
      vertex -20.013304 0.000000 -8.328322
    endloop
  endfacet
  facet normal -0.974928 -0.000000 -0.222521
    outer loop
      vertex -20.013304 0.000000 -8.328322
      vertex -19.588492 13.500000 -10.189546
      vertex -19.588492 0.000000 -10.189546
    endloop
  endfacet
  facet normal -0.433884 -0.000000 -0.900969
    outer loop
      vertex -21.733333 0.000000 -7.500000
      vertex -21.733333 13.500000 -7.500000
      vertex -20.013304 0.000000 -8.328322
    endloop
  endfacet
  facet normal -0.433884 -0.000000 -0.900969
    outer loop
      vertex -20.013304 0.000000 -8.328322
      vertex -21.733333 13.500000 -7.500000
      vertex -20.013304 13.500000 -8.328322
    endloop
  endfacet
  facet normal 0.433884 0.000000 -0.900969
    outer loop
      vertex 4.479971 13.500000 -8.328322
      vertex 6.200000 13.500000 -7.500000
      vertex 4.479971 1.100000 -8.328322
    endloop
  endfacet
  facet normal 0.433884 0.000000 -0.900969
    outer loop
      vertex 4.479971 1.100000 -8.328322
      vertex 6.200000 13.500000 -7.500000
      vertex 6.200000 1.100000 -7.500000
    endloop
  endfacet
  facet normal 0.974928 0.000000 -0.222521
    outer loop
      vertex 4.055159 1.100000 -10.189546
      vertex 4.055159 13.500000 -10.189546
      vertex 4.479971 13.500000 -8.328322
    endloop
  endfacet
  facet normal 0.974928 0.000000 -0.222521
    outer loop
      vertex 4.479971 1.100000 -8.328322
      vertex 4.055159 1.100000 -10.189546
      vertex 4.479971 13.500000 -8.328322
    endloop
  endfacet
  facet normal 0.781832 0.000000 0.623490
    outer loop
      vertex 5.245456 13.500000 -11.682132
      vertex 4.055159 13.500000 -10.189546
      vertex 4.055159 1.100000 -10.189546
    endloop
  endfacet
  facet normal 0.781832 -0.000000 0.623490
    outer loop
      vertex 5.245456 1.100000 -11.682132
      vertex 5.245456 13.500000 -11.682132
      vertex 4.055159 1.100000 -10.189546
    endloop
  endfacet
  facet normal 0.000000 -0.000000 1.000000
    outer loop
      vertex 7.154544 13.500000 -11.682132
      vertex 5.245456 13.500000 -11.682132
      vertex 5.245456 1.100000 -11.682132
    endloop
  endfacet
  facet normal 0.000000 -0.000000 1.000000
    outer loop
      vertex 7.154544 1.100000 -11.682132
      vertex 7.154544 13.500000 -11.682132
      vertex 5.245456 1.100000 -11.682132
    endloop
  endfacet
  facet normal -0.781832 -0.000000 0.623490
    outer loop
      vertex 7.154544 13.500000 -11.682132
      vertex 7.154544 1.100000 -11.682132
      vertex 8.344841 13.500000 -10.189546
    endloop
  endfacet
  facet normal -0.781832 0.000000 0.623490
    outer loop
      vertex 8.344841 13.500000 -10.189546
      vertex 7.154544 1.100000 -11.682132
      vertex 8.344841 1.100000 -10.189546
    endloop
  endfacet
  facet normal -0.974928 -0.000000 -0.222521
    outer loop
      vertex 7.920029 13.500000 -8.328322
      vertex 8.344841 13.500000 -10.189546
      vertex 7.920029 1.100000 -8.328322
    endloop
  endfacet
  facet normal -0.974928 0.000000 -0.222521
    outer loop
      vertex 7.920029 1.100000 -8.328322
      vertex 8.344841 13.500000 -10.189546
      vertex 8.344841 1.100000 -10.189546
    endloop
  endfacet
  facet normal -0.433884 -0.000000 -0.900969
    outer loop
      vertex 6.200000 13.500000 -7.500000
      vertex 7.920029 13.500000 -8.328322
      vertex 6.200000 1.100000 -7.500000
    endloop
  endfacet
  facet normal -0.433884 -0.000000 -0.900969
    outer loop
      vertex 6.200000 1.100000 -7.500000
      vertex 7.920029 13.500000 -8.328322
      vertex 7.920029 1.100000 -8.328322
    endloop
  endfacet
  facet normal 0.781832 -0.000000 0.623490
    outer loop
      vertex -22.687877 0.000000 -11.682132
      vertex -22.687877 13.500000 -11.682132
      vertex -23.878174 13.500000 -10.189546
    endloop
  endfacet
  facet normal 0.781832 -0.000000 0.623490
    outer loop
      vertex -23.878174 0.000000 -10.189546
      vertex -22.687877 0.000000 -11.682132
      vertex -23.878174 13.500000 -10.189546
    endloop
  endfacet
  facet normal -0.781832 -0.000000 0.623490
    outer loop
      vertex -20.778789 13.500000 -11.682132
      vertex -20.778789 0.000000 -11.682132
      vertex -19.588492 13.500000 -10.189546
    endloop
  endfacet
  facet normal -0.781832 -0.000000 0.623490
    outer loop
      vertex -19.588492 13.500000 -10.189546
      vertex -20.778789 0.000000 -11.682132
      vertex -19.588492 0.000000 -10.189546
    endloop
  endfacet
  facet normal 0.000000 0.000000 1.000000
    outer loop
      vertex -47.008491 5.441107 -4.500000
      vertex -45.738926 4.008065 -4.500000
      vertex -43.948814 3.329165 -4.500000
    endloop
  endfacet
  facet normal -0.000000 -0.000000 1.000000
    outer loop
      vertex -44.795995 4.389178 -4.500000
      vertex -47.008491 5.441107 -4.500000
      vertex -43.948814 3.329165 -4.500000
    endloop
  endfacet
  facet normal -0.000000 -0.000000 1.000000
    outer loop
      vertex -43.011260 4.132571 -4.500000
      vertex -44.795995 4.389178 -4.500000
      vertex -42.048247 3.559935 -4.500000
    endloop
  endfacet
  facet normal 0.000000 -0.000000 1.000000
    outer loop
      vertex -41.371113 4.881601 -4.500000
      vertex -43.011260 4.132571 -4.500000
      vertex -40.472624 4.647509 -4.500000
    endloop
  endfacet
  facet normal 0.000000 0.000000 1.000000
    outer loop
      vertex -44.795995 4.389178 -4.500000
      vertex -46.158678 5.569949 -4.500000
      vertex -47.008491 5.441107 -4.500000
    endloop
  endfacet
  facet normal 0.000000 0.000000 1.000000
    outer loop
      vertex -44.795995 10.210822 -4.500000
      vertex -43.011260 10.467429 -4.500000
      vertex -43.948814 11.270835 -4.500000
    endloop
  endfacet
  facet normal 0.000000 0.000000 1.000000
    outer loop
      vertex -47.466667 7.300000 -4.500000
      vertex -47.008491 5.441107 -4.500000
      vertex -47.008491 9.158893 -4.500000
    endloop
  endfacet
  facet normal 0.000000 0.000000 1.000000
    outer loop
      vertex -47.008491 9.158893 -4.500000
      vertex -46.666667 7.300000 -4.500000
      vertex -45.738926 10.591935 -4.500000
    endloop
  endfacet
  facet normal 0.000000 -0.000000 1.000000
    outer loop
      vertex -47.008491 9.158893 -4.500000
      vertex -47.008491 5.441107 -4.500000
      vertex -46.666667 7.300000 -4.500000
    endloop
  endfacet
  facet normal 0.000000 0.000000 1.000000
    outer loop
      vertex -46.666667 7.300000 -4.500000
      vertex -46.158678 9.030051 -4.500000
      vertex -45.738926 10.591935 -4.500000
    endloop
  endfacet
  facet normal 0.000000 0.000000 1.000000
    outer loop
      vertex -45.738926 10.591935 -4.500000
      vertex -44.795995 10.210822 -4.500000
      vertex -43.948814 11.270835 -4.500000
    endloop
  endfacet
  facet normal 0.000000 -0.000000 1.000000
    outer loop
      vertex -40.396289 8.201544 -4.500000
      vertex -40.396289 6.398456 -4.500000
      vertex -39.582900 8.257263 -4.500000
    endloop
  endfacet
  facet normal 0.000000 0.000000 1.000000
    outer loop
      vertex -43.948814 11.270835 -4.500000
      vertex -43.011260 10.467429 -4.500000
      vertex -42.048247 11.040065 -4.500000
    endloop
  endfacet
  facet normal 0.000000 0.000000 1.000000
    outer loop
      vertex -42.048247 11.040065 -4.500000
      vertex -41.371113 9.718399 -4.500000
      vertex -40.472624 9.952491 -4.500000
    endloop
  endfacet
  facet normal 0.000000 0.000000 1.000000
    outer loop
      vertex -40.472624 9.952491 -4.500000
      vertex -40.396289 8.201544 -4.500000
      vertex -39.582900 8.257263 -4.500000
    endloop
  endfacet
  facet normal 0.000000 0.000000 1.000000
    outer loop
      vertex -39.582900 8.257263 -4.500000
      vertex -40.396289 6.398456 -4.500000
      vertex -39.582900 6.342737 -4.500000
    endloop
  endfacet
  facet normal 0.000000 0.000000 1.000000
    outer loop
      vertex -39.582900 6.342737 -4.500000
      vertex -41.371113 4.881601 -4.500000
      vertex -40.472624 4.647509 -4.500000
    endloop
  endfacet
  facet normal 0.000000 0.000000 1.000000
    outer loop
      vertex -40.472624 4.647509 -4.500000
      vertex -43.011260 4.132571 -4.500000
      vertex -42.048247 3.559935 -4.500000
    endloop
  endfacet
  facet normal -0.000000 0.000000 1.000000
    outer loop
      vertex -42.048247 3.559935 -4.500000
      vertex -44.795995 4.389178 -4.500000
      vertex -43.948814 3.329165 -4.500000
    endloop
  endfacet
  facet normal 0.000000 0.000000 1.000000
    outer loop
      vertex -46.158678 9.030051 -4.500000
      vertex -44.795995 10.210822 -4.500000
      vertex -45.738926 10.591935 -4.500000
    endloop
  endfacet
  facet normal 0.000000 0.000000 1.000000
    outer loop
      vertex -43.011260 10.467429 -4.500000
      vertex -41.371113 9.718399 -4.500000
      vertex -42.048247 11.040065 -4.500000
    endloop
  endfacet
  facet normal 0.000000 0.000000 1.000000
    outer loop
      vertex -41.371113 9.718399 -4.500000
      vertex -40.396289 8.201544 -4.500000
      vertex -40.472624 9.952491 -4.500000
    endloop
  endfacet
  facet normal 0.000000 -0.000000 1.000000
    outer loop
      vertex -40.396289 6.398456 -4.500000
      vertex -41.371113 4.881601 -4.500000
      vertex -39.582900 6.342737 -4.500000
    endloop
  endfacet
  facet normal -0.000000 0.000000 1.000000
    outer loop
      vertex -46.158678 5.569949 -4.500000
      vertex -46.666667 7.300000 -4.500000
      vertex -47.008491 5.441107 -4.500000
    endloop
  endfacet
  facet normal 0.000000 -0.000000 1.000000
    outer loop
      vertex -3.883767 8.257263 -4.500000
      vertex -3.883767 6.342737 -4.500000
      vertex -2.994043 4.647509 -4.500000
    endloop
  endfacet
  facet normal 0.000000 0.000000 1.000000
    outer loop
      vertex 2.692011 5.569949 -4.500000
      vertex 1.329328 4.389178 -4.500000
      vertex 2.272259 4.008065 -4.500000
    endloop
  endfacet
  facet normal -0.000000 -0.000000 1.000000
    outer loop
      vertex -3.070378 6.398456 -4.500000
      vertex -3.883767 8.257263 -4.500000
      vertex -2.994043 4.647509 -4.500000
    endloop
  endfacet
  facet normal 0.000000 0.000000 1.000000
    outer loop
      vertex 2.692011 9.030051 -4.500000
      vertex 3.200000 7.300000 -4.500000
      vertex 4.000000 7.300000 -4.500000
    endloop
  endfacet
  facet normal 0.000000 0.000000 1.000000
    outer loop
      vertex -2.095554 9.718399 -4.500000
      vertex -0.455407 10.467429 -4.500000
      vertex 0.482147 11.270835 -4.500000
    endloop
  endfacet
  facet normal 0.000000 0.000000 1.000000
    outer loop
      vertex 1.329328 10.210822 -4.500000
      vertex 2.692011 9.030051 -4.500000
      vertex 3.541824 9.158893 -4.500000
    endloop
  endfacet
  facet normal 0.000000 -0.000000 1.000000
    outer loop
      vertex -2.994043 9.952491 -4.500000
      vertex -3.883767 8.257263 -4.500000
      vertex -1.418420 11.040065 -4.500000
    endloop
  endfacet
  facet normal 0.000000 0.000000 1.000000
    outer loop
      vertex -1.418420 3.559935 -4.500000
      vertex -3.070378 6.398456 -4.500000
      vertex -2.994043 4.647509 -4.500000
    endloop
  endfacet
  facet normal 0.000000 -0.000000 1.000000
    outer loop
      vertex 3.200000 7.300000 -4.500000
      vertex 2.692011 5.569949 -4.500000
      vertex 3.541824 5.441107 -4.500000
    endloop
  endfacet
  facet normal 0.000000 -0.000000 1.000000
    outer loop
      vertex -1.418420 11.040065 -4.500000
      vertex -2.095554 9.718399 -4.500000
      vertex 0.482147 11.270835 -4.500000
    endloop
  endfacet
  facet normal 0.000000 0.000000 1.000000
    outer loop
      vertex -1.418420 11.040065 -4.500000
      vertex -3.883767 8.257263 -4.500000
      vertex -2.095554 9.718399 -4.500000
    endloop
  endfacet
  facet normal 0.000000 -0.000000 1.000000
    outer loop
      vertex 0.482147 11.270835 -4.500000
      vertex -0.455407 10.467429 -4.500000
      vertex 2.272259 10.591935 -4.500000
    endloop
  endfacet
  facet normal 0.000000 0.000000 1.000000
    outer loop
      vertex -0.455407 10.467429 -4.500000
      vertex 1.329328 10.210822 -4.500000
      vertex 2.272259 10.591935 -4.500000
    endloop
  endfacet
  facet normal 0.000000 -0.000000 1.000000
    outer loop
      vertex 2.272259 10.591935 -4.500000
      vertex 1.329328 10.210822 -4.500000
      vertex 3.541824 9.158893 -4.500000
    endloop
  endfacet
  facet normal 0.000000 -0.000000 1.000000
    outer loop
      vertex 3.541824 9.158893 -4.500000
      vertex 2.692011 9.030051 -4.500000
      vertex 4.000000 7.300000 -4.500000
    endloop
  endfacet
  facet normal 0.000000 0.000000 1.000000
    outer loop
      vertex 4.000000 7.300000 -4.500000
      vertex 3.200000 7.300000 -4.500000
      vertex 3.541824 5.441107 -4.500000
    endloop
  endfacet
  facet normal -0.000000 0.000000 1.000000
    outer loop
      vertex 3.541824 5.441107 -4.500000
      vertex 2.692011 5.569949 -4.500000
      vertex 2.272259 4.008065 -4.500000
    endloop
  endfacet
  facet normal -0.000000 0.000000 1.000000
    outer loop
      vertex 2.272259 4.008065 -4.500000
      vertex 1.329328 4.389178 -4.500000
      vertex 0.482147 3.329165 -4.500000
    endloop
  endfacet
  facet normal 0.000000 0.000000 1.000000
    outer loop
      vertex -3.070378 8.201544 -4.500000
      vertex -2.095554 9.718399 -4.500000
      vertex -3.883767 8.257263 -4.500000
    endloop
  endfacet
  facet normal 0.000000 0.000000 1.000000
    outer loop
      vertex 0.482147 3.329165 -4.500000
      vertex -0.455407 4.132571 -4.500000
      vertex -1.418420 3.559935 -4.500000
    endloop
  endfacet
  facet normal -0.000000 0.000000 1.000000
    outer loop
      vertex -0.455407 4.132571 -4.500000
      vertex -2.095554 4.881601 -4.500000
      vertex -1.418420 3.559935 -4.500000
    endloop
  endfacet
  facet normal -0.000000 -0.000000 1.000000
    outer loop
      vertex -2.095554 4.881601 -4.500000
      vertex -3.070378 6.398456 -4.500000
      vertex -1.418420 3.559935 -4.500000
    endloop
  endfacet
  facet normal 0.000000 0.000000 1.000000
    outer loop
      vertex 1.329328 4.389178 -4.500000
      vertex -0.455407 4.132571 -4.500000
      vertex 0.482147 3.329165 -4.500000
    endloop
  endfacet
  facet normal 0.000000 0.000000 1.000000
    outer loop
      vertex -3.070378 6.398456 -4.500000
      vertex -3.070378 8.201544 -4.500000
      vertex -3.883767 8.257263 -4.500000
    endloop
  endfacet
endsolid OpenSCAD_Model
