solid OpenSCAD_Model
  facet normal 0.000000 0.500000 -0.866025
    outer loop
      vertex 4.110955 19.725183 28.344322
      vertex 9.525000 32.429503 35.679165
      vertex 4.500000 18.140084 27.429165
    endloop
  endfacet
  facet normal -0.000000 0.500000 -0.866025
    outer loop
      vertex -4.401664 17.329828 26.961363
      vertex -9.525000 7.500000 21.286110
      vertex -9.525000 32.429503 35.679165
    endloop
  endfacet
  facet normal 0.000000 0.500000 -0.866025
    outer loop
      vertex -3.640576 15.849417 26.106648
      vertex -9.525000 7.500000 21.286110
      vertex -4.401664 17.329828 26.961363
    endloop
  endfacet
  facet normal 0.000000 0.500000 -0.866025
    outer loop
      vertex -4.401664 18.950340 27.896966
      vertex -4.401664 17.329828 26.961363
      vertex -9.525000 32.429503 35.679165
    endloop
  endfacet
  facet normal -0.000000 0.500000 -0.866025
    outer loop
      vertex 9.525000 7.500000 21.286110
      vertex -9.525000 7.500000 21.286110
      vertex -2.250000 14.765084 25.480608
    endloop
  endfacet
  facet normal -0.000000 0.500000 -0.866025
    outer loop
      vertex 9.525000 7.500000 21.286110
      vertex -2.250000 14.765084 25.480608
      vertex -0.470378 14.264318 25.191490
    endloop
  endfacet
  facet normal -0.000000 0.500000 -0.866025
    outer loop
      vertex 9.525000 7.500000 21.286110
      vertex -0.470378 14.264318 25.191490
      vertex 1.390576 14.433708 25.289288
    endloop
  endfacet
  facet normal 0.000000 0.500000 -0.866025
    outer loop
      vertex 9.525000 7.500000 21.286110
      vertex 1.390576 14.433708 25.289288
      vertex 3.011088 15.243963 25.757089
    endloop
  endfacet
  facet normal -0.000000 0.500000 -0.866025
    outer loop
      vertex 9.525000 7.500000 21.286110
      vertex 3.011088 15.243963 25.757089
      vertex 4.110955 16.554984 26.514007
    endloop
  endfacet
  facet normal 0.000000 0.500000 -0.866025
    outer loop
      vertex 9.525000 7.500000 21.286110
      vertex 4.110955 16.554984 26.514007
      vertex 9.525000 32.429503 35.679165
    endloop
  endfacet
  facet normal -0.000000 0.500000 -0.866025
    outer loop
      vertex 4.110955 16.554984 26.514007
      vertex 4.500000 18.140084 27.429165
      vertex 9.525000 32.429503 35.679165
    endloop
  endfacet
  facet normal 0.000000 0.500000 -0.866025
    outer loop
      vertex 3.011088 21.036204 29.101241
      vertex 9.525000 32.429503 35.679165
      vertex 4.110955 19.725183 28.344322
    endloop
  endfacet
  facet normal -0.000000 0.500000 -0.866025
    outer loop
      vertex 1.390576 21.846459 29.569042
      vertex 9.525000 32.429503 35.679165
      vertex 3.011088 21.036204 29.101241
    endloop
  endfacet
  facet normal 0.000000 0.500000 -0.866025
    outer loop
      vertex 9.525000 32.429503 35.679165
      vertex -0.470378 22.015849 29.666839
      vertex -9.525000 32.429503 35.679165
    endloop
  endfacet
  facet normal -0.000000 0.500000 -0.866025
    outer loop
      vertex -0.470378 22.015849 29.666839
      vertex -2.250000 21.515083 29.377722
      vertex -9.525000 32.429503 35.679165
    endloop
  endfacet
  facet normal 0.000000 0.500000 -0.866025
    outer loop
      vertex -2.250000 21.515083 29.377722
      vertex -3.640576 20.430750 28.751682
      vertex -9.525000 32.429503 35.679165
    endloop
  endfacet
  facet normal 0.000000 0.500000 -0.866025
    outer loop
      vertex -3.640576 20.430750 28.751682
      vertex -4.401664 18.950340 27.896966
      vertex -9.525000 32.429503 35.679165
    endloop
  endfacet
  facet normal 0.000000 0.500000 -0.866025
    outer loop
      vertex -2.250000 14.765084 25.480608
      vertex -9.525000 7.500000 21.286110
      vertex -3.640576 15.849417 26.106648
    endloop
  endfacet
  facet normal 0.000000 0.500000 -0.866025
    outer loop
      vertex -0.470378 22.015849 29.666839
      vertex 9.525000 32.429503 35.679165
      vertex 1.390576 21.846459 29.569042
    endloop
  endfacet
  facet normal 0.000000 0.866025 0.500000
    outer loop
      vertex -9.525000 32.429503 35.679165
      vertex -9.525000 24.929503 48.669546
      vertex 9.525000 32.429503 35.679165
    endloop
  endfacet
  facet normal 0.000000 0.866025 0.500000
    outer loop
      vertex 9.525000 32.429503 35.679165
      vertex -9.525000 24.929503 48.669546
      vertex 9.525000 24.929503 48.669546
    endloop
  endfacet
  facet normal -1.000000 -0.000000 0.000000
    outer loop
      vertex -9.525000 4.279754 -1.390576
      vertex -9.525000 7.500000 21.286110
      vertex -9.525000 7.500000 -7.500000
    endloop
  endfacet
  facet normal -1.000000 0.000000 0.000000
    outer loop
      vertex -9.525000 -4.279754 -1.390576
      vertex -9.525000 -7.500000 -7.500000
      vertex -9.525000 -4.475349 0.470378
    endloop
  endfacet
  facet normal -1.000000 -0.000000 0.000000
    outer loop
      vertex -9.525000 18.287198 40.674356
      vertex -9.525000 7.500000 21.286110
      vertex -9.525000 -7.500000 29.946364
    endloop
  endfacet
  facet normal -1.000000 0.000000 0.000000
    outer loop
      vertex -9.525000 32.429503 35.679165
      vertex -9.525000 7.500000 21.286110
      vertex -9.525000 25.528464 35.413268
    endloop
  endfacet
  facet normal -1.000000 0.000000 0.000000
    outer loop
      vertex -9.525000 32.429503 35.679165
      vertex -9.525000 25.528464 35.413268
      vertex -9.525000 26.464066 37.033780
    endloop
  endfacet
  facet normal -1.000000 0.000000 0.000000
    outer loop
      vertex -9.525000 32.429503 35.679165
      vertex -9.525000 26.464066 37.033780
      vertex -9.525000 26.659661 38.894734
    endloop
  endfacet
  facet normal -1.000000 0.000000 0.000000
    outer loop
      vertex -9.525000 32.429503 35.679165
      vertex -9.525000 26.659661 38.894734
      vertex -9.525000 24.929503 48.669546
    endloop
  endfacet
  facet normal -1.000000 0.000000 0.000000
    outer loop
      vertex -9.525000 26.659661 38.894734
      vertex -9.525000 26.081426 40.674356
      vertex -9.525000 24.929503 48.669546
    endloop
  endfacet
  facet normal -1.000000 -0.000000 0.000000
    outer loop
      vertex -9.525000 3.897114 2.250000
      vertex -9.525000 7.500000 21.286110
      vertex -9.525000 4.475349 0.470378
    endloop
  endfacet
  facet normal -1.000000 0.000000 0.000000
    outer loop
      vertex -9.525000 19.539278 42.064932
      vertex -9.525000 24.929503 48.669546
      vertex -9.525000 21.248709 42.826020
    endloop
  endfacet
  facet normal -1.000000 0.000000 0.000000
    outer loop
      vertex -9.525000 20.353997 34.313401
      vertex -9.525000 7.500000 21.286110
      vertex -9.525000 18.840160 35.413268
    endloop
  endfacet
  facet normal -1.000000 0.000000 -0.000000
    outer loop
      vertex -9.525000 24.829346 42.064932
      vertex -9.525000 23.119915 42.826020
      vertex -9.525000 24.929503 48.669546
    endloop
  endfacet
  facet normal -1.000000 0.000000 0.000000
    outer loop
      vertex -9.525000 18.840160 35.413268
      vertex -9.525000 7.500000 21.286110
      vertex -9.525000 17.904558 37.033780
    endloop
  endfacet
  facet normal -1.000000 0.000000 -0.000000
    outer loop
      vertex -9.525000 23.119915 42.826020
      vertex -9.525000 21.248709 42.826020
      vertex -9.525000 24.929503 48.669546
    endloop
  endfacet
  facet normal -1.000000 0.000000 0.000000
    outer loop
      vertex -9.525000 17.904558 37.033780
      vertex -9.525000 7.500000 21.286110
      vertex -9.525000 17.708963 38.894734
    endloop
  endfacet
  facet normal -1.000000 -0.000000 0.000000
    outer loop
      vertex -9.525000 24.929503 48.669546
      vertex -9.525000 19.539278 42.064932
      vertex -9.525000 -7.500000 29.946364
    endloop
  endfacet
  facet normal -1.000000 -0.000000 0.000000
    outer loop
      vertex -9.525000 19.539278 42.064932
      vertex -9.525000 18.287198 40.674356
      vertex -9.525000 -7.500000 29.946364
    endloop
  endfacet
  facet normal -1.000000 0.000000 -0.000000
    outer loop
      vertex -9.525000 17.708963 38.894734
      vertex -9.525000 7.500000 21.286110
      vertex -9.525000 18.287198 40.674356
    endloop
  endfacet
  facet normal -1.000000 0.000000 0.000000
    outer loop
      vertex -9.525000 22.184312 33.924356
      vertex -9.525000 7.500000 21.286110
      vertex -9.525000 20.353997 34.313401
    endloop
  endfacet
  facet normal -1.000000 0.000000 0.000000
    outer loop
      vertex -9.525000 24.014627 34.313401
      vertex -9.525000 7.500000 21.286110
      vertex -9.525000 22.184312 33.924356
    endloop
  endfacet
  facet normal -1.000000 0.000000 0.000000
    outer loop
      vertex -9.525000 25.528464 35.413268
      vertex -9.525000 7.500000 21.286110
      vertex -9.525000 24.014627 34.313401
    endloop
  endfacet
  facet normal -1.000000 0.000000 0.000000
    outer loop
      vertex -9.525000 -2.645034 3.640576
      vertex -9.525000 7.500000 21.286110
      vertex -9.525000 -0.935603 4.401664
    endloop
  endfacet
  facet normal -1.000000 -0.000000 0.000000
    outer loop
      vertex -9.525000 1.830315 -4.110955
      vertex -9.525000 3.344152 -3.011088
      vertex -9.525000 7.500000 -7.500000
    endloop
  endfacet
  facet normal -1.000000 -0.000000 0.000000
    outer loop
      vertex -9.525000 4.475349 0.470378
      vertex -9.525000 7.500000 21.286110
      vertex -9.525000 4.279754 -1.390576
    endloop
  endfacet
  facet normal -1.000000 -0.000000 0.000000
    outer loop
      vertex -9.525000 3.344152 -3.011088
      vertex -9.525000 4.279754 -1.390576
      vertex -9.525000 7.500000 -7.500000
    endloop
  endfacet
  facet normal -1.000000 0.000000 0.000000
    outer loop
      vertex -9.525000 -3.344152 -3.011088
      vertex -9.525000 -7.500000 -7.500000
      vertex -9.525000 -4.279754 -1.390576
    endloop
  endfacet
  facet normal -1.000000 -0.000000 0.000000
    outer loop
      vertex -9.525000 2.645034 3.640576
      vertex -9.525000 7.500000 21.286110
      vertex -9.525000 3.897114 2.250000
    endloop
  endfacet
  facet normal -1.000000 -0.000000 0.000000
    outer loop
      vertex -9.525000 0.935603 4.401664
      vertex -9.525000 7.500000 21.286110
      vertex -9.525000 2.645034 3.640576
    endloop
  endfacet
  facet normal -1.000000 -0.000000 0.000000
    outer loop
      vertex -9.525000 -0.935603 4.401664
      vertex -9.525000 7.500000 21.286110
      vertex -9.525000 0.935603 4.401664
    endloop
  endfacet
  facet normal -1.000000 -0.000000 0.000000
    outer loop
      vertex -9.525000 -7.500000 29.946364
      vertex -9.525000 7.500000 21.286110
      vertex -9.525000 -2.645034 3.640576
    endloop
  endfacet
  facet normal -1.000000 -0.000000 0.000000
    outer loop
      vertex -9.525000 -7.500000 29.946364
      vertex -9.525000 -2.645034 3.640576
      vertex -9.525000 -3.897114 2.250000
    endloop
  endfacet
  facet normal -1.000000 -0.000000 0.000000
    outer loop
      vertex -9.525000 -7.500000 29.946364
      vertex -9.525000 -3.897114 2.250000
      vertex -9.525000 -7.500000 -7.500000
    endloop
  endfacet
  facet normal -1.000000 0.000000 0.000000
    outer loop
      vertex -9.525000 -3.897114 2.250000
      vertex -9.525000 -4.475349 0.470378
      vertex -9.525000 -7.500000 -7.500000
    endloop
  endfacet
  facet normal -1.000000 0.000000 0.000000
    outer loop
      vertex -9.525000 -1.830315 -4.110955
      vertex -9.525000 -7.500000 -7.500000
      vertex -9.525000 -3.344152 -3.011088
    endloop
  endfacet
  facet normal -1.000000 0.000000 0.000000
    outer loop
      vertex -9.525000 0.000000 -4.500000
      vertex -9.525000 -7.500000 -7.500000
      vertex -9.525000 -1.830315 -4.110955
    endloop
  endfacet
  facet normal -1.000000 0.000000 0.000000
    outer loop
      vertex -9.525000 -7.500000 -7.500000
      vertex -9.525000 0.000000 -4.500000
      vertex -9.525000 7.500000 -7.500000
    endloop
  endfacet
  facet normal -1.000000 -0.000000 0.000000
    outer loop
      vertex -9.525000 0.000000 -4.500000
      vertex -9.525000 1.830315 -4.110955
      vertex -9.525000 7.500000 -7.500000
    endloop
  endfacet
  facet normal -1.000000 -0.000000 0.000000
    outer loop
      vertex -9.525000 24.829346 42.064932
      vertex -9.525000 24.929503 48.669546
      vertex -9.525000 26.081426 40.674356
    endloop
  endfacet
  facet normal 1.000000 0.000000 0.000000
    outer loop
      vertex 9.525000 26.081426 40.674356
      vertex 9.525000 32.429503 35.679165
      vertex 9.525000 24.929503 48.669546
    endloop
  endfacet
  facet normal 1.000000 0.000000 -0.000000
    outer loop
      vertex 9.525000 -3.897114 2.250000
      vertex 9.525000 7.500000 21.286110
      vertex 9.525000 -7.500000 29.946364
    endloop
  endfacet
  facet normal 1.000000 0.000000 0.000000
    outer loop
      vertex 9.525000 25.528464 35.413268
      vertex 9.525000 32.429503 35.679165
      vertex 9.525000 26.464066 37.033780
    endloop
  endfacet
  facet normal 1.000000 0.000000 0.000000
    outer loop
      vertex 9.525000 7.500000 21.286110
      vertex 9.525000 32.429503 35.679165
      vertex 9.525000 25.528464 35.413268
    endloop
  endfacet
  facet normal 1.000000 0.000000 0.000000
    outer loop
      vertex 9.525000 7.500000 21.286110
      vertex 9.525000 25.528464 35.413268
      vertex 9.525000 24.014627 34.313401
    endloop
  endfacet
  facet normal 1.000000 0.000000 0.000000
    outer loop
      vertex 9.525000 24.829346 42.064932
      vertex 9.525000 26.081426 40.674356
      vertex 9.525000 24.929503 48.669546
    endloop
  endfacet
  facet normal 1.000000 0.000000 0.000000
    outer loop
      vertex 9.525000 23.119915 42.826020
      vertex 9.525000 24.829346 42.064932
      vertex 9.525000 24.929503 48.669546
    endloop
  endfacet
  facet normal 1.000000 0.000000 0.000000
    outer loop
      vertex 9.525000 7.500000 21.286110
      vertex 9.525000 22.184312 33.924356
      vertex 9.525000 20.353997 34.313401
    endloop
  endfacet
  facet normal 1.000000 -0.000000 0.000000
    outer loop
      vertex 9.525000 0.000000 -4.500000
      vertex 9.525000 -1.830315 -4.110955
      vertex 9.525000 -7.500000 -7.500000
    endloop
  endfacet
  facet normal 1.000000 0.000000 0.000000
    outer loop
      vertex 9.525000 7.500000 21.286110
      vertex 9.525000 20.353997 34.313401
      vertex 9.525000 18.840160 35.413268
    endloop
  endfacet
  facet normal 1.000000 0.000000 0.000000
    outer loop
      vertex 9.525000 7.500000 21.286110
      vertex 9.525000 18.840160 35.413268
      vertex 9.525000 17.904558 37.033780
    endloop
  endfacet
  facet normal 1.000000 0.000000 -0.000000
    outer loop
      vertex 9.525000 -7.500000 29.946364
      vertex 9.525000 7.500000 21.286110
      vertex 9.525000 17.708963 38.894734
    endloop
  endfacet
  facet normal 1.000000 0.000000 -0.000000
    outer loop
      vertex 9.525000 -7.500000 29.946364
      vertex 9.525000 18.287198 40.674356
      vertex 9.525000 24.929503 48.669546
    endloop
  endfacet
  facet normal 1.000000 0.000000 -0.000000
    outer loop
      vertex 9.525000 -7.500000 29.946364
      vertex 9.525000 17.708963 38.894734
      vertex 9.525000 18.287198 40.674356
    endloop
  endfacet
  facet normal 1.000000 0.000000 0.000000
    outer loop
      vertex 9.525000 18.287198 40.674356
      vertex 9.525000 19.539278 42.064932
      vertex 9.525000 24.929503 48.669546
    endloop
  endfacet
  facet normal 1.000000 0.000000 0.000000
    outer loop
      vertex 9.525000 19.539278 42.064932
      vertex 9.525000 21.248709 42.826020
      vertex 9.525000 24.929503 48.669546
    endloop
  endfacet
  facet normal 1.000000 0.000000 0.000000
    outer loop
      vertex 9.525000 26.659661 38.894734
      vertex 9.525000 32.429503 35.679165
      vertex 9.525000 26.081426 40.674356
    endloop
  endfacet
  facet normal 1.000000 0.000000 0.000000
    outer loop
      vertex 9.525000 26.464066 37.033780
      vertex 9.525000 32.429503 35.679165
      vertex 9.525000 26.659661 38.894734
    endloop
  endfacet
  facet normal 1.000000 -0.000000 0.000000
    outer loop
      vertex 9.525000 -3.344152 -3.011088
      vertex 9.525000 -4.279754 -1.390576
      vertex 9.525000 -7.500000 -7.500000
    endloop
  endfacet
  facet normal 1.000000 -0.000000 0.000000
    outer loop
      vertex 9.525000 -4.279754 -1.390576
      vertex 9.525000 -4.475349 0.470378
      vertex 9.525000 -7.500000 -7.500000
    endloop
  endfacet
  facet normal 1.000000 0.000000 0.000000
    outer loop
      vertex 9.525000 7.500000 -7.500000
      vertex 9.525000 4.279754 -1.390576
      vertex 9.525000 3.344152 -3.011088
    endloop
  endfacet
  facet normal 1.000000 -0.000000 0.000000
    outer loop
      vertex 9.525000 7.500000 -7.500000
      vertex 9.525000 1.830315 -4.110955
      vertex 9.525000 -7.500000 -7.500000
    endloop
  endfacet
  facet normal 1.000000 0.000000 0.000000
    outer loop
      vertex 9.525000 7.500000 -7.500000
      vertex 9.525000 3.344152 -3.011088
      vertex 9.525000 1.830315 -4.110955
    endloop
  endfacet
  facet normal 1.000000 0.000000 0.000000
    outer loop
      vertex 9.525000 1.830315 -4.110955
      vertex 9.525000 0.000000 -4.500000
      vertex 9.525000 -7.500000 -7.500000
    endloop
  endfacet
  facet normal 1.000000 -0.000000 0.000000
    outer loop
      vertex 9.525000 -1.830315 -4.110955
      vertex 9.525000 -3.344152 -3.011088
      vertex 9.525000 -7.500000 -7.500000
    endloop
  endfacet
  facet normal 1.000000 0.000000 -0.000000
    outer loop
      vertex 9.525000 -7.500000 -7.500000
      vertex 9.525000 -4.475349 0.470378
      vertex 9.525000 -7.500000 29.946364
    endloop
  endfacet
  facet normal 1.000000 0.000000 -0.000000
    outer loop
      vertex 9.525000 -4.475349 0.470378
      vertex 9.525000 -3.897114 2.250000
      vertex 9.525000 -7.500000 29.946364
    endloop
  endfacet
  facet normal 1.000000 0.000000 0.000000
    outer loop
      vertex 9.525000 -2.645034 3.640576
      vertex 9.525000 -0.935603 4.401664
      vertex 9.525000 7.500000 21.286110
    endloop
  endfacet
  facet normal 1.000000 0.000000 0.000000
    outer loop
      vertex 9.525000 -3.897114 2.250000
      vertex 9.525000 -2.645034 3.640576
      vertex 9.525000 7.500000 21.286110
    endloop
  endfacet
  facet normal 1.000000 -0.000000 0.000000
    outer loop
      vertex 9.525000 17.904558 37.033780
      vertex 9.525000 17.708963 38.894734
      vertex 9.525000 7.500000 21.286110
    endloop
  endfacet
  facet normal 1.000000 0.000000 0.000000
    outer loop
      vertex 9.525000 24.014627 34.313401
      vertex 9.525000 22.184312 33.924356
      vertex 9.525000 7.500000 21.286110
    endloop
  endfacet
  facet normal 1.000000 0.000000 0.000000
    outer loop
      vertex 9.525000 21.248709 42.826020
      vertex 9.525000 23.119915 42.826020
      vertex 9.525000 24.929503 48.669546
    endloop
  endfacet
  facet normal 1.000000 0.000000 0.000000
    outer loop
      vertex 9.525000 7.500000 -7.500000
      vertex 9.525000 4.475349 0.470378
      vertex 9.525000 4.279754 -1.390576
    endloop
  endfacet
  facet normal 1.000000 0.000000 0.000000
    outer loop
      vertex 9.525000 7.500000 -7.500000
      vertex 9.525000 3.897114 2.250000
      vertex 9.525000 4.475349 0.470378
    endloop
  endfacet
  facet normal 1.000000 -0.000000 0.000000
    outer loop
      vertex 9.525000 0.935603 4.401664
      vertex 9.525000 7.500000 21.286110
      vertex 9.525000 -0.935603 4.401664
    endloop
  endfacet
  facet normal 1.000000 0.000000 0.000000
    outer loop
      vertex 9.525000 2.645034 3.640576
      vertex 9.525000 7.500000 21.286110
      vertex 9.525000 0.935603 4.401664
    endloop
  endfacet
  facet normal 1.000000 0.000000 0.000000
    outer loop
      vertex 9.525000 3.897114 2.250000
      vertex 9.525000 7.500000 21.286110
      vertex 9.525000 2.645034 3.640576
    endloop
  endfacet
  facet normal 1.000000 0.000000 0.000000
    outer loop
      vertex 9.525000 7.500000 -7.500000
      vertex 9.525000 7.500000 21.286110
      vertex 9.525000 3.897114 2.250000
    endloop
  endfacet
  facet normal -0.000000 1.000000 -0.000000
    outer loop
      vertex 4.110955 7.500000 10.830315
      vertex 9.525000 7.500000 21.286110
      vertex 4.500000 7.500000 9.000000
    endloop
  endfacet
  facet normal -0.000000 1.000000 -0.000000
    outer loop
      vertex -3.640576 7.500000 6.354966
      vertex 9.525000 7.500000 -7.500000
      vertex -9.525000 7.500000 -7.500000
    endloop
  endfacet
  facet normal -0.000000 1.000000 -0.000000
    outer loop
      vertex 3.011088 7.500000 5.655848
      vertex 9.525000 7.500000 -7.500000
      vertex 1.390576 7.500000 4.720246
    endloop
  endfacet
  facet normal 0.000000 1.000000 -0.000000
    outer loop
      vertex -9.525000 7.500000 21.286110
      vertex -4.401664 7.500000 8.064397
      vertex -9.525000 7.500000 -7.500000
    endloop
  endfacet
  facet normal 0.000000 1.000000 -0.000000
    outer loop
      vertex -2.250000 7.500000 5.102886
      vertex 9.525000 7.500000 -7.500000
      vertex -3.640576 7.500000 6.354966
    endloop
  endfacet
  facet normal -0.000000 1.000000 -0.000000
    outer loop
      vertex -4.401664 7.500000 8.064397
      vertex -3.640576 7.500000 6.354966
      vertex -9.525000 7.500000 -7.500000
    endloop
  endfacet
  facet normal 0.000000 1.000000 -0.000000
    outer loop
      vertex 1.390576 7.500000 4.720246
      vertex 9.525000 7.500000 -7.500000
      vertex -0.470378 7.500000 4.524651
    endloop
  endfacet
  facet normal 0.000000 1.000000 -0.000000
    outer loop
      vertex 4.110955 7.500000 7.169685
      vertex 9.525000 7.500000 -7.500000
      vertex 3.011088 7.500000 5.655848
    endloop
  endfacet
  facet normal -0.000000 1.000000 -0.000000
    outer loop
      vertex 9.525000 7.500000 21.286110
      vertex 9.525000 7.500000 -7.500000
      vertex 4.110955 7.500000 7.169685
    endloop
  endfacet
  facet normal 0.000000 1.000000 -0.000000
    outer loop
      vertex 9.525000 7.500000 21.286110
      vertex 4.110955 7.500000 7.169685
      vertex 4.500000 7.500000 9.000000
    endloop
  endfacet
  facet normal -0.000000 1.000000 -0.000000
    outer loop
      vertex -0.470378 7.500000 13.475349
      vertex -9.525000 7.500000 21.286110
      vertex 1.390576 7.500000 13.279754
    endloop
  endfacet
  facet normal -0.000000 1.000000 -0.000000
    outer loop
      vertex 9.525000 7.500000 21.286110
      vertex 4.110955 7.500000 10.830315
      vertex 3.011088 7.500000 12.344152
    endloop
  endfacet
  facet normal -0.000000 1.000000 -0.000000
    outer loop
      vertex 9.525000 7.500000 21.286110
      vertex 3.011088 7.500000 12.344152
      vertex -9.525000 7.500000 21.286110
    endloop
  endfacet
  facet normal 0.000000 1.000000 -0.000000
    outer loop
      vertex 3.011088 7.500000 12.344152
      vertex 1.390576 7.500000 13.279754
      vertex -9.525000 7.500000 21.286110
    endloop
  endfacet
  facet normal -0.000000 1.000000 -0.000000
    outer loop
      vertex -3.640576 7.500000 11.645034
      vertex -9.525000 7.500000 21.286110
      vertex -2.250000 7.500000 12.897114
    endloop
  endfacet
  facet normal -0.000000 1.000000 -0.000000
    outer loop
      vertex -0.470378 7.500000 13.475349
      vertex -2.250000 7.500000 12.897114
      vertex -9.525000 7.500000 21.286110
    endloop
  endfacet
  facet normal 0.000000 1.000000 -0.000000
    outer loop
      vertex -4.401664 7.500000 9.935603
      vertex -9.525000 7.500000 21.286110
      vertex -3.640576 7.500000 11.645034
    endloop
  endfacet
  facet normal -0.000000 1.000000 -0.000000
    outer loop
      vertex -9.525000 7.500000 21.286110
      vertex -4.401664 7.500000 9.935603
      vertex -4.401664 7.500000 8.064397
    endloop
  endfacet
  facet normal -0.000000 1.000000 -0.000000
    outer loop
      vertex -0.470378 7.500000 4.524651
      vertex 9.525000 7.500000 -7.500000
      vertex -2.250000 7.500000 5.102886
    endloop
  endfacet
  facet normal 0.913545 0.352244 0.203368
    outer loop
      vertex -3.640576 8.349417 39.097029
      vertex -3.640576 15.849417 26.106648
      vertex -4.401664 17.329828 26.961363
    endloop
  endfacet
  facet normal 0.913545 0.352244 0.203368
    outer loop
      vertex -4.401664 9.829828 39.951744
      vertex -3.640576 8.349417 39.097029
      vertex -4.401664 17.329828 26.961363
    endloop
  endfacet
  facet normal 1.000000 0.000000 0.000000
    outer loop
      vertex -4.401664 17.329828 26.961363
      vertex -4.401664 18.950340 27.896966
      vertex -4.401664 11.450340 40.887347
    endloop
  endfacet
  facet normal 1.000000 0.000000 0.000000
    outer loop
      vertex -4.401664 9.829828 39.951744
      vertex -4.401664 17.329828 26.961363
      vertex -4.401664 11.450340 40.887347
    endloop
  endfacet
  facet normal 0.913545 -0.352244 -0.203368
    outer loop
      vertex -4.401664 18.950340 27.896966
      vertex -3.640576 20.430750 28.751682
      vertex -3.640576 12.930750 41.742063
    endloop
  endfacet
  facet normal 0.913545 -0.352244 -0.203368
    outer loop
      vertex -4.401664 11.450340 40.887347
      vertex -4.401664 18.950340 27.896966
      vertex -3.640576 12.930750 41.742063
    endloop
  endfacet
  facet normal 0.669131 -0.643582 -0.371572
    outer loop
      vertex -3.640576 20.430750 28.751682
      vertex -2.250000 21.515083 29.377722
      vertex -2.250000 14.015083 42.368103
    endloop
  endfacet
  facet normal 0.669131 -0.643582 -0.371572
    outer loop
      vertex -3.640576 12.930750 41.742063
      vertex -3.640576 20.430750 28.751682
      vertex -2.250000 14.015083 42.368103
    endloop
  endfacet
  facet normal 0.309017 -0.823639 -0.475528
    outer loop
      vertex -2.250000 21.515083 29.377722
      vertex -0.470378 22.015849 29.666839
      vertex -0.470378 14.515849 42.657220
    endloop
  endfacet
  facet normal 0.309017 -0.823639 -0.475528
    outer loop
      vertex -2.250000 14.015083 42.368103
      vertex -2.250000 21.515083 29.377722
      vertex -0.470378 14.515849 42.657220
    endloop
  endfacet
  facet normal -0.104529 -0.861281 -0.497261
    outer loop
      vertex -0.470378 22.015849 29.666839
      vertex 1.390576 21.846459 29.569042
      vertex 1.390576 14.346459 42.559423
    endloop
  endfacet
  facet normal -0.104529 -0.861281 -0.497261
    outer loop
      vertex -0.470378 14.515849 42.657220
      vertex -0.470378 22.015849 29.666839
      vertex 1.390576 14.346459 42.559423
    endloop
  endfacet
  facet normal -0.500000 -0.750000 -0.433013
    outer loop
      vertex 1.390576 21.846459 29.569042
      vertex 3.011088 21.036204 29.101241
      vertex 3.011088 13.536204 42.091622
    endloop
  endfacet
  facet normal -0.500000 -0.750000 -0.433013
    outer loop
      vertex 1.390576 14.346459 42.559423
      vertex 1.390576 21.846459 29.569042
      vertex 3.011088 13.536204 42.091622
    endloop
  endfacet
  facet normal -0.809017 -0.509037 -0.293893
    outer loop
      vertex 4.110955 19.725183 28.344322
      vertex 4.110955 12.225183 41.334703
      vertex 3.011088 21.036204 29.101241
    endloop
  endfacet
  facet normal -0.809017 -0.509037 -0.293893
    outer loop
      vertex 3.011088 21.036204 29.101241
      vertex 4.110955 12.225183 41.334703
      vertex 3.011088 13.536204 42.091622
    endloop
  endfacet
  facet normal -0.978148 -0.180057 -0.103956
    outer loop
      vertex 4.500000 18.140084 27.429165
      vertex 4.500000 10.640084 40.419546
      vertex 4.110955 19.725183 28.344322
    endloop
  endfacet
  facet normal -0.978148 -0.180057 -0.103956
    outer loop
      vertex 4.110955 19.725183 28.344322
      vertex 4.500000 10.640084 40.419546
      vertex 4.110955 12.225183 41.334703
    endloop
  endfacet
  facet normal -0.978148 0.180057 0.103956
    outer loop
      vertex 4.500000 18.140084 27.429165
      vertex 4.110955 16.554984 26.514007
      vertex 4.500000 10.640084 40.419546
    endloop
  endfacet
  facet normal -0.978148 0.180057 0.103956
    outer loop
      vertex 4.500000 10.640084 40.419546
      vertex 4.110955 16.554984 26.514007
      vertex 4.110955 9.054984 39.504388
    endloop
  endfacet
  facet normal -0.809017 0.509037 0.293893
    outer loop
      vertex 4.110955 16.554984 26.514007
      vertex 3.011088 15.243963 25.757089
      vertex 4.110955 9.054984 39.504388
    endloop
  endfacet
  facet normal -0.809017 0.509037 0.293893
    outer loop
      vertex 4.110955 9.054984 39.504388
      vertex 3.011088 15.243963 25.757089
      vertex 3.011088 7.743963 38.747470
    endloop
  endfacet
  facet normal -0.500000 0.750000 0.433013
    outer loop
      vertex 3.011088 15.243963 25.757089
      vertex 1.390576 14.433708 25.289288
      vertex 3.011088 7.743963 38.747470
    endloop
  endfacet
  facet normal -0.500000 0.750000 0.433013
    outer loop
      vertex 3.011088 7.743963 38.747470
      vertex 1.390576 14.433708 25.289288
      vertex 1.390576 6.933708 38.279669
    endloop
  endfacet
  facet normal -0.104529 0.861281 0.497261
    outer loop
      vertex 1.390576 14.433708 25.289288
      vertex -0.470378 14.264318 25.191490
      vertex 1.390576 6.933708 38.279669
    endloop
  endfacet
  facet normal -0.104529 0.861281 0.497261
    outer loop
      vertex 1.390576 6.933708 38.279669
      vertex -0.470378 14.264318 25.191490
      vertex -0.470378 6.764318 38.181871
    endloop
  endfacet
  facet normal 0.309017 0.823639 0.475528
    outer loop
      vertex -0.470378 14.264318 25.191490
      vertex -2.250000 14.765084 25.480608
      vertex -0.470378 6.764318 38.181871
    endloop
  endfacet
  facet normal 0.309017 0.823639 0.475528
    outer loop
      vertex -0.470378 6.764318 38.181871
      vertex -2.250000 14.765084 25.480608
      vertex -2.250000 7.265084 38.470989
    endloop
  endfacet
  facet normal 0.669131 0.643582 0.371572
    outer loop
      vertex -2.250000 7.265084 38.470989
      vertex -2.250000 14.765084 25.480608
      vertex -3.640576 15.849417 26.106648
    endloop
  endfacet
  facet normal 0.669131 0.643582 0.371572
    outer loop
      vertex -3.640576 8.349417 39.097029
      vertex -2.250000 7.265084 38.470989
      vertex -3.640576 15.849417 26.106648
    endloop
  endfacet
  facet normal 0.000000 -0.500000 0.866025
    outer loop
      vertex -4.401664 9.829828 39.951744
      vertex -9.525000 24.929503 48.669546
      vertex -9.525000 -7.500000 29.946364
    endloop
  endfacet
  facet normal -0.000000 -0.500000 0.866025
    outer loop
      vertex -3.640576 8.349417 39.097029
      vertex -4.401664 9.829828 39.951744
      vertex -9.525000 -7.500000 29.946364
    endloop
  endfacet
  facet normal 0.000000 -0.500000 0.866025
    outer loop
      vertex -4.401664 11.450340 40.887347
      vertex -9.525000 24.929503 48.669546
      vertex -4.401664 9.829828 39.951744
    endloop
  endfacet
  facet normal -0.000000 -0.500000 0.866025
    outer loop
      vertex -3.640576 12.930750 41.742063
      vertex -9.525000 24.929503 48.669546
      vertex -4.401664 11.450340 40.887347
    endloop
  endfacet
  facet normal 0.000000 -0.500000 0.866025
    outer loop
      vertex 9.525000 24.929503 48.669546
      vertex -9.525000 24.929503 48.669546
      vertex -3.640576 12.930750 41.742063
    endloop
  endfacet
  facet normal -0.000000 -0.500000 0.866025
    outer loop
      vertex -0.470378 14.515849 42.657220
      vertex 1.390576 14.346459 42.559423
      vertex 9.525000 24.929503 48.669546
    endloop
  endfacet
  facet normal -0.000000 -0.500000 0.866025
    outer loop
      vertex 9.525000 24.929503 48.669546
      vertex -3.640576 12.930750 41.742063
      vertex -2.250000 14.015083 42.368103
    endloop
  endfacet
  facet normal -0.000000 -0.500000 0.866025
    outer loop
      vertex 1.390576 14.346459 42.559423
      vertex 3.011088 13.536204 42.091622
      vertex 9.525000 24.929503 48.669546
    endloop
  endfacet
  facet normal 0.000000 -0.500000 0.866025
    outer loop
      vertex 4.500000 10.640084 40.419546
      vertex 4.110955 9.054984 39.504388
      vertex 9.525000 -7.500000 29.946364
    endloop
  endfacet
  facet normal 0.000000 -0.500000 0.866025
    outer loop
      vertex 4.110955 12.225183 41.334703
      vertex 9.525000 24.929503 48.669546
      vertex 3.011088 13.536204 42.091622
    endloop
  endfacet
  facet normal 0.000000 -0.500000 0.866025
    outer loop
      vertex 9.525000 -7.500000 29.946364
      vertex 9.525000 24.929503 48.669546
      vertex 4.110955 12.225183 41.334703
    endloop
  endfacet
  facet normal -0.000000 -0.500000 0.866025
    outer loop
      vertex 9.525000 -7.500000 29.946364
      vertex 4.110955 12.225183 41.334703
      vertex 4.500000 10.640084 40.419546
    endloop
  endfacet
  facet normal 0.000000 -0.500000 0.866025
    outer loop
      vertex 9.525000 -7.500000 29.946364
      vertex 4.110955 9.054984 39.504388
      vertex -9.525000 -7.500000 29.946364
    endloop
  endfacet
  facet normal -0.000000 -0.500000 0.866025
    outer loop
      vertex 4.110955 9.054984 39.504388
      vertex 3.011088 7.743963 38.747470
      vertex -9.525000 -7.500000 29.946364
    endloop
  endfacet
  facet normal -0.000000 -0.500000 0.866025
    outer loop
      vertex 3.011088 7.743963 38.747470
      vertex 1.390576 6.933708 38.279669
      vertex -9.525000 -7.500000 29.946364
    endloop
  endfacet
  facet normal 0.000000 -0.500000 0.866025
    outer loop
      vertex 1.390576 6.933708 38.279669
      vertex -0.470378 6.764318 38.181871
      vertex -9.525000 -7.500000 29.946364
    endloop
  endfacet
  facet normal 0.000000 -0.500000 0.866025
    outer loop
      vertex -2.250000 7.265084 38.470989
      vertex -3.640576 8.349417 39.097029
      vertex -9.525000 -7.500000 29.946364
    endloop
  endfacet
  facet normal 0.000000 -0.500000 0.866025
    outer loop
      vertex -2.250000 14.015083 42.368103
      vertex -0.470378 14.515849 42.657220
      vertex 9.525000 24.929503 48.669546
    endloop
  endfacet
  facet normal 0.000000 -0.500000 0.866025
    outer loop
      vertex -0.470378 6.764318 38.181871
      vertex -2.250000 7.265084 38.470989
      vertex -9.525000 -7.500000 29.946364
    endloop
  endfacet
  facet normal 0.000000 -1.000000 0.000000
    outer loop
      vertex -2.250000 -7.500000 5.102886
      vertex -9.525000 -7.500000 -7.500000
      vertex 9.525000 -7.500000 -7.500000
    endloop
  endfacet
  facet normal -0.000000 -1.000000 0.000000
    outer loop
      vertex 4.500000 -7.500000 9.000000
      vertex 4.110955 -7.500000 7.169685
      vertex 9.525000 -7.500000 -7.500000
    endloop
  endfacet
  facet normal 0.000000 -1.000000 0.000000
    outer loop
      vertex -9.525000 -7.500000 29.946364
      vertex -9.525000 -7.500000 -7.500000
      vertex -4.401664 -7.500000 8.064397
    endloop
  endfacet
  facet normal 0.000000 -1.000000 0.000000
    outer loop
      vertex -0.470378 -7.500000 4.524651
      vertex -2.250000 -7.500000 5.102886
      vertex 9.525000 -7.500000 -7.500000
    endloop
  endfacet
  facet normal -0.000000 -1.000000 0.000000
    outer loop
      vertex -9.525000 -7.500000 29.946364
      vertex -4.401664 -7.500000 8.064397
      vertex -4.401664 -7.500000 9.935603
    endloop
  endfacet
  facet normal 0.000000 -1.000000 0.000000
    outer loop
      vertex -9.525000 -7.500000 29.946364
      vertex -4.401664 -7.500000 9.935603
      vertex -3.640576 -7.500000 11.645034
    endloop
  endfacet
  facet normal 0.000000 -1.000000 0.000000
    outer loop
      vertex 4.110955 -7.500000 7.169685
      vertex 3.011088 -7.500000 5.655848
      vertex 9.525000 -7.500000 -7.500000
    endloop
  endfacet
  facet normal 0.000000 -1.000000 0.000000
    outer loop
      vertex -9.525000 -7.500000 29.946364
      vertex -3.640576 -7.500000 11.645034
      vertex -2.250000 -7.500000 12.897114
    endloop
  endfacet
  facet normal 0.000000 -1.000000 0.000000
    outer loop
      vertex 3.011088 -7.500000 5.655848
      vertex 1.390576 -7.500000 4.720246
      vertex 9.525000 -7.500000 -7.500000
    endloop
  endfacet
  facet normal 0.000000 -1.000000 0.000000
    outer loop
      vertex 9.525000 -7.500000 29.946364
      vertex -9.525000 -7.500000 29.946364
      vertex -0.470378 -7.500000 13.475349
    endloop
  endfacet
  facet normal -0.000000 -1.000000 0.000000
    outer loop
      vertex 1.390576 -7.500000 4.720246
      vertex -0.470378 -7.500000 4.524651
      vertex 9.525000 -7.500000 -7.500000
    endloop
  endfacet
  facet normal 0.000000 -1.000000 0.000000
    outer loop
      vertex 9.525000 -7.500000 29.946364
      vertex -0.470378 -7.500000 13.475349
      vertex 1.390576 -7.500000 13.279754
    endloop
  endfacet
  facet normal 0.000000 -1.000000 0.000000
    outer loop
      vertex 9.525000 -7.500000 29.946364
      vertex 1.390576 -7.500000 13.279754
      vertex 3.011088 -7.500000 12.344152
    endloop
  endfacet
  facet normal 0.000000 -1.000000 0.000000
    outer loop
      vertex 9.525000 -7.500000 29.946364
      vertex 4.110955 -7.500000 10.830315
      vertex 9.525000 -7.500000 -7.500000
    endloop
  endfacet
  facet normal -0.000000 -1.000000 0.000000
    outer loop
      vertex 9.525000 -7.500000 29.946364
      vertex 3.011088 -7.500000 12.344152
      vertex 4.110955 -7.500000 10.830315
    endloop
  endfacet
  facet normal 0.000000 -1.000000 0.000000
    outer loop
      vertex 4.110955 -7.500000 10.830315
      vertex 4.500000 -7.500000 9.000000
      vertex 9.525000 -7.500000 -7.500000
    endloop
  endfacet
  facet normal -0.000000 -1.000000 0.000000
    outer loop
      vertex -3.640576 -7.500000 6.354966
      vertex -9.525000 -7.500000 -7.500000
      vertex -2.250000 -7.500000 5.102886
    endloop
  endfacet
  facet normal -0.000000 -1.000000 0.000000
    outer loop
      vertex -4.401664 -7.500000 8.064397
      vertex -9.525000 -7.500000 -7.500000
      vertex -3.640576 -7.500000 6.354966
    endloop
  endfacet
  facet normal -0.000000 -1.000000 0.000000
    outer loop
      vertex -2.250000 -7.500000 12.897114
      vertex -0.470378 -7.500000 13.475349
      vertex -9.525000 -7.500000 29.946364
    endloop
  endfacet
  facet normal -0.000000 0.000000 -1.000000
    outer loop
      vertex -9.525000 7.500000 -7.500000
      vertex 9.525000 7.500000 -7.500000
      vertex -9.525000 -7.500000 -7.500000
    endloop
  endfacet
  facet normal -0.000000 0.000000 -1.000000
    outer loop
      vertex -9.525000 -7.500000 -7.500000
      vertex 9.525000 7.500000 -7.500000
      vertex 9.525000 -7.500000 -7.500000
    endloop
  endfacet
  facet normal 0.000000 -0.587785 0.809017
    outer loop
      vertex -9.525000 24.014627 34.313401
      vertex 9.525000 24.014627 34.313401
      vertex 9.525000 25.528464 35.413268
    endloop
  endfacet
  facet normal 0.000000 -0.587785 0.809017
    outer loop
      vertex -9.525000 25.528464 35.413268
      vertex -9.525000 24.014627 34.313401
      vertex 9.525000 25.528464 35.413268
    endloop
  endfacet
  facet normal 0.000000 -0.866026 0.500000
    outer loop
      vertex 9.525000 25.528464 35.413268
      vertex 9.525000 26.464066 37.033780
      vertex -9.525000 26.464066 37.033780
    endloop
  endfacet
  facet normal 0.000000 -0.866026 0.500000
    outer loop
      vertex -9.525000 25.528464 35.413268
      vertex 9.525000 25.528464 35.413268
      vertex -9.525000 26.464066 37.033780
    endloop
  endfacet
  facet normal -0.000000 -0.207911 0.978148
    outer loop
      vertex -9.525000 22.184312 33.924356
      vertex 9.525000 22.184312 33.924356
      vertex 9.525000 24.014627 34.313401
    endloop
  endfacet
  facet normal 0.000000 -0.207911 0.978148
    outer loop
      vertex -9.525000 24.014627 34.313401
      vertex -9.525000 22.184312 33.924356
      vertex 9.525000 24.014627 34.313401
    endloop
  endfacet
  facet normal 0.000000 0.207911 0.978148
    outer loop
      vertex -9.525000 20.353997 34.313401
      vertex 9.525000 20.353997 34.313401
      vertex 9.525000 22.184312 33.924356
    endloop
  endfacet
  facet normal -0.000000 0.207911 0.978148
    outer loop
      vertex -9.525000 22.184312 33.924356
      vertex -9.525000 20.353997 34.313401
      vertex 9.525000 22.184312 33.924356
    endloop
  endfacet
  facet normal 0.000000 0.587785 0.809017
    outer loop
      vertex -9.525000 18.840160 35.413268
      vertex 9.525000 18.840160 35.413268
      vertex 9.525000 20.353997 34.313401
    endloop
  endfacet
  facet normal 0.000000 0.587785 0.809017
    outer loop
      vertex -9.525000 20.353997 34.313401
      vertex -9.525000 18.840160 35.413268
      vertex 9.525000 20.353997 34.313401
    endloop
  endfacet
  facet normal -0.000000 0.866026 0.500000
    outer loop
      vertex 9.525000 17.904558 37.033780
      vertex 9.525000 18.840160 35.413268
      vertex -9.525000 17.904558 37.033780
    endloop
  endfacet
  facet normal 0.000000 0.866026 0.500000
    outer loop
      vertex -9.525000 17.904558 37.033780
      vertex 9.525000 18.840160 35.413268
      vertex -9.525000 18.840160 35.413268
    endloop
  endfacet
  facet normal -0.000000 0.994522 0.104529
    outer loop
      vertex 9.525000 17.708963 38.894734
      vertex 9.525000 17.904558 37.033780
      vertex -9.525000 17.708963 38.894734
    endloop
  endfacet
  facet normal 0.000000 0.994522 0.104529
    outer loop
      vertex -9.525000 17.708963 38.894734
      vertex 9.525000 17.904558 37.033780
      vertex -9.525000 17.904558 37.033780
    endloop
  endfacet
  facet normal 0.000000 0.951056 -0.309017
    outer loop
      vertex 9.525000 18.287198 40.674356
      vertex 9.525000 17.708963 38.894734
      vertex -9.525000 18.287198 40.674356
    endloop
  endfacet
  facet normal 0.000000 0.951056 -0.309017
    outer loop
      vertex -9.525000 18.287198 40.674356
      vertex 9.525000 17.708963 38.894734
      vertex -9.525000 17.708963 38.894734
    endloop
  endfacet
  facet normal 0.000000 0.743145 -0.669131
    outer loop
      vertex 9.525000 18.287198 40.674356
      vertex -9.525000 18.287198 40.674356
      vertex 9.525000 19.539278 42.064932
    endloop
  endfacet
  facet normal 0.000000 0.743145 -0.669131
    outer loop
      vertex 9.525000 19.539278 42.064932
      vertex -9.525000 18.287198 40.674356
      vertex -9.525000 19.539278 42.064932
    endloop
  endfacet
  facet normal 0.000000 0.406737 -0.913545
    outer loop
      vertex 9.525000 19.539278 42.064932
      vertex -9.525000 19.539278 42.064932
      vertex 9.525000 21.248709 42.826020
    endloop
  endfacet
  facet normal 0.000000 0.406737 -0.913545
    outer loop
      vertex 9.525000 21.248709 42.826020
      vertex -9.525000 19.539278 42.064932
      vertex -9.525000 21.248709 42.826020
    endloop
  endfacet
  facet normal 0.000000 0.000000 -1.000000
    outer loop
      vertex 9.525000 21.248709 42.826020
      vertex -9.525000 21.248709 42.826020
      vertex 9.525000 23.119915 42.826020
    endloop
  endfacet
  facet normal 0.000000 0.000000 -1.000000
    outer loop
      vertex 9.525000 23.119915 42.826020
      vertex -9.525000 21.248709 42.826020
      vertex -9.525000 23.119915 42.826020
    endloop
  endfacet
  facet normal 0.000000 -0.406737 -0.913545
    outer loop
      vertex 9.525000 23.119915 42.826020
      vertex -9.525000 23.119915 42.826020
      vertex 9.525000 24.829346 42.064932
    endloop
  endfacet
  facet normal 0.000000 -0.406737 -0.913545
    outer loop
      vertex 9.525000 24.829346 42.064932
      vertex -9.525000 23.119915 42.826020
      vertex -9.525000 24.829346 42.064932
    endloop
  endfacet
  facet normal 0.000000 -0.743145 -0.669131
    outer loop
      vertex 9.525000 26.081426 40.674356
      vertex 9.525000 24.829346 42.064932
      vertex -9.525000 24.829346 42.064932
    endloop
  endfacet
  facet normal 0.000000 -0.743145 -0.669131
    outer loop
      vertex -9.525000 26.081426 40.674356
      vertex 9.525000 26.081426 40.674356
      vertex -9.525000 24.829346 42.064932
    endloop
  endfacet
  facet normal 0.000000 -0.951056 -0.309017
    outer loop
      vertex 9.525000 26.659661 38.894734
      vertex 9.525000 26.081426 40.674356
      vertex -9.525000 26.081426 40.674356
    endloop
  endfacet
  facet normal -0.000000 -0.951056 -0.309017
    outer loop
      vertex -9.525000 26.659661 38.894734
      vertex 9.525000 26.659661 38.894734
      vertex -9.525000 26.081426 40.674356
    endloop
  endfacet
  facet normal 0.000000 -0.994522 0.104529
    outer loop
      vertex 9.525000 26.464066 37.033780
      vertex 9.525000 26.659661 38.894734
      vertex -9.525000 26.659661 38.894734
    endloop
  endfacet
  facet normal 0.000000 -0.994522 0.104529
    outer loop
      vertex -9.525000 26.464066 37.033780
      vertex 9.525000 26.464066 37.033780
      vertex -9.525000 26.659661 38.894734
    endloop
  endfacet
  facet normal -0.000000 -0.866026 0.500000
    outer loop
      vertex 9.525000 3.344152 -3.011088
      vertex 9.525000 4.279754 -1.390576
      vertex -9.525000 4.279754 -1.390576
    endloop
  endfacet
  facet normal -0.000000 -0.866026 0.500000
    outer loop
      vertex -9.525000 3.344152 -3.011088
      vertex 9.525000 3.344152 -3.011088
      vertex -9.525000 4.279754 -1.390576
    endloop
  endfacet
  facet normal -0.000000 -0.587785 0.809017
    outer loop
      vertex -9.525000 1.830315 -4.110955
      vertex 9.525000 1.830315 -4.110955
      vertex 9.525000 3.344152 -3.011088
    endloop
  endfacet
  facet normal -0.000000 -0.587785 0.809017
    outer loop
      vertex -9.525000 3.344152 -3.011088
      vertex -9.525000 1.830315 -4.110955
      vertex 9.525000 3.344152 -3.011088
    endloop
  endfacet
  facet normal -0.000000 -0.207911 0.978148
    outer loop
      vertex -9.525000 0.000000 -4.500000
      vertex 9.525000 0.000000 -4.500000
      vertex 9.525000 1.830315 -4.110955
    endloop
  endfacet
  facet normal -0.000000 -0.207911 0.978148
    outer loop
      vertex -9.525000 1.830315 -4.110955
      vertex -9.525000 0.000000 -4.500000
      vertex 9.525000 1.830315 -4.110955
    endloop
  endfacet
  facet normal -0.000000 0.207911 0.978148
    outer loop
      vertex -9.525000 -1.830315 -4.110955
      vertex 9.525000 -1.830315 -4.110955
      vertex 9.525000 0.000000 -4.500000
    endloop
  endfacet
  facet normal -0.000000 0.207911 0.978148
    outer loop
      vertex -9.525000 0.000000 -4.500000
      vertex -9.525000 -1.830315 -4.110955
      vertex 9.525000 0.000000 -4.500000
    endloop
  endfacet
  facet normal -0.000000 0.587785 0.809017
    outer loop
      vertex -9.525000 -3.344152 -3.011088
      vertex 9.525000 -3.344152 -3.011088
      vertex 9.525000 -1.830315 -4.110955
    endloop
  endfacet
  facet normal -0.000000 0.587785 0.809017
    outer loop
      vertex -9.525000 -1.830315 -4.110955
      vertex -9.525000 -3.344152 -3.011088
      vertex 9.525000 -1.830315 -4.110955
    endloop
  endfacet
  facet normal -0.000000 0.866026 0.500000
    outer loop
      vertex 9.525000 -4.279754 -1.390576
      vertex 9.525000 -3.344152 -3.011088
      vertex -9.525000 -4.279754 -1.390576
    endloop
  endfacet
  facet normal -0.000000 0.866026 0.500000
    outer loop
      vertex -9.525000 -4.279754 -1.390576
      vertex 9.525000 -3.344152 -3.011088
      vertex -9.525000 -3.344152 -3.011088
    endloop
  endfacet
  facet normal -0.000000 0.994522 0.104529
    outer loop
      vertex 9.525000 -4.475349 0.470378
      vertex 9.525000 -4.279754 -1.390576
      vertex -9.525000 -4.475349 0.470378
    endloop
  endfacet
  facet normal -0.000000 0.994522 0.104529
    outer loop
      vertex -9.525000 -4.475349 0.470378
      vertex 9.525000 -4.279754 -1.390576
      vertex -9.525000 -4.279754 -1.390576
    endloop
  endfacet
  facet normal 0.000000 0.951056 -0.309017
    outer loop
      vertex 9.525000 -3.897114 2.250000
      vertex 9.525000 -4.475349 0.470378
      vertex -9.525000 -3.897114 2.250000
    endloop
  endfacet
  facet normal 0.000000 0.951056 -0.309017
    outer loop
      vertex -9.525000 -3.897114 2.250000
      vertex 9.525000 -4.475349 0.470378
      vertex -9.525000 -4.475349 0.470378
    endloop
  endfacet
  facet normal 0.000000 0.743145 -0.669131
    outer loop
      vertex 9.525000 -3.897114 2.250000
      vertex -9.525000 -3.897114 2.250000
      vertex 9.525000 -2.645034 3.640576
    endloop
  endfacet
  facet normal 0.000000 0.743145 -0.669131
    outer loop
      vertex 9.525000 -2.645034 3.640576
      vertex -9.525000 -3.897114 2.250000
      vertex -9.525000 -2.645034 3.640576
    endloop
  endfacet
  facet normal 0.000000 0.406737 -0.913545
    outer loop
      vertex 9.525000 -2.645034 3.640576
      vertex -9.525000 -2.645034 3.640576
      vertex 9.525000 -0.935603 4.401664
    endloop
  endfacet
  facet normal 0.000000 0.406737 -0.913545
    outer loop
      vertex 9.525000 -0.935603 4.401664
      vertex -9.525000 -2.645034 3.640576
      vertex -9.525000 -0.935603 4.401664
    endloop
  endfacet
  facet normal 0.000000 0.000000 -1.000000
    outer loop
      vertex 9.525000 -0.935603 4.401664
      vertex -9.525000 -0.935603 4.401664
      vertex 9.525000 0.935603 4.401664
    endloop
  endfacet
  facet normal 0.000000 0.000000 -1.000000
    outer loop
      vertex 9.525000 0.935603 4.401664
      vertex -9.525000 -0.935603 4.401664
      vertex -9.525000 0.935603 4.401664
    endloop
  endfacet
  facet normal 0.000000 -0.406737 -0.913545
    outer loop
      vertex 9.525000 0.935603 4.401664
      vertex -9.525000 0.935603 4.401664
      vertex 9.525000 2.645034 3.640576
    endloop
  endfacet
  facet normal 0.000000 -0.406737 -0.913545
    outer loop
      vertex 9.525000 2.645034 3.640576
      vertex -9.525000 0.935603 4.401664
      vertex -9.525000 2.645034 3.640576
    endloop
  endfacet
  facet normal 0.000000 -0.743145 -0.669131
    outer loop
      vertex 9.525000 3.897114 2.250000
      vertex 9.525000 2.645034 3.640576
      vertex -9.525000 2.645034 3.640576
    endloop
  endfacet
  facet normal 0.000000 -0.743145 -0.669131
    outer loop
      vertex -9.525000 3.897114 2.250000
      vertex 9.525000 3.897114 2.250000
      vertex -9.525000 2.645034 3.640576
    endloop
  endfacet
  facet normal 0.000000 -0.951056 -0.309017
    outer loop
      vertex 9.525000 4.475349 0.470378
      vertex 9.525000 3.897114 2.250000
      vertex -9.525000 3.897114 2.250000
    endloop
  endfacet
  facet normal 0.000000 -0.951056 -0.309017
    outer loop
      vertex -9.525000 4.475349 0.470378
      vertex 9.525000 4.475349 0.470378
      vertex -9.525000 3.897114 2.250000
    endloop
  endfacet
  facet normal -0.000000 -0.994522 0.104529
    outer loop
      vertex 9.525000 4.279754 -1.390576
      vertex 9.525000 4.475349 0.470378
      vertex -9.525000 4.475349 0.470378
    endloop
  endfacet
  facet normal -0.000000 -0.994522 0.104529
    outer loop
      vertex -9.525000 4.279754 -1.390576
      vertex 9.525000 4.279754 -1.390576
      vertex -9.525000 4.475349 0.470378
    endloop
  endfacet
  facet normal 0.913545 0.000000 0.406737
    outer loop
      vertex -3.640576 -7.500000 6.354966
      vertex -3.640576 7.500000 6.354966
      vertex -4.401664 7.500000 8.064397
    endloop
  endfacet
  facet normal 0.913545 0.000000 0.406737
    outer loop
      vertex -4.401664 -7.500000 8.064397
      vertex -3.640576 -7.500000 6.354966
      vertex -4.401664 7.500000 8.064397
    endloop
  endfacet
  facet normal 1.000000 0.000000 0.000000
    outer loop
      vertex -4.401664 7.500000 8.064397
      vertex -4.401664 7.500000 9.935603
      vertex -4.401664 -7.500000 9.935603
    endloop
  endfacet
  facet normal 1.000000 0.000000 0.000000
    outer loop
      vertex -4.401664 -7.500000 8.064397
      vertex -4.401664 7.500000 8.064397
      vertex -4.401664 -7.500000 9.935603
    endloop
  endfacet
  facet normal 0.913545 0.000000 -0.406737
    outer loop
      vertex -4.401664 7.500000 9.935603
      vertex -3.640576 7.500000 11.645034
      vertex -3.640576 -7.500000 11.645034
    endloop
  endfacet
  facet normal 0.913545 -0.000000 -0.406737
    outer loop
      vertex -4.401664 -7.500000 9.935603
      vertex -4.401664 7.500000 9.935603
      vertex -3.640576 -7.500000 11.645034
    endloop
  endfacet
  facet normal 0.669131 -0.000000 -0.743145
    outer loop
      vertex -2.250000 7.500000 12.897114
      vertex -2.250000 -7.500000 12.897114
      vertex -3.640576 7.500000 11.645034
    endloop
  endfacet
  facet normal 0.669131 0.000000 -0.743145
    outer loop
      vertex -3.640576 7.500000 11.645034
      vertex -2.250000 -7.500000 12.897114
      vertex -3.640576 -7.500000 11.645034
    endloop
  endfacet
  facet normal 0.309017 -0.000000 -0.951056
    outer loop
      vertex -0.470378 7.500000 13.475349
      vertex -0.470378 -7.500000 13.475349
      vertex -2.250000 7.500000 12.897114
    endloop
  endfacet
  facet normal 0.309017 -0.000000 -0.951056
    outer loop
      vertex -2.250000 7.500000 12.897114
      vertex -0.470378 -7.500000 13.475349
      vertex -2.250000 -7.500000 12.897114
    endloop
  endfacet
  facet normal -0.104529 0.000000 -0.994522
    outer loop
      vertex 1.390576 7.500000 13.279754
      vertex 1.390576 -7.500000 13.279754
      vertex -0.470378 7.500000 13.475349
    endloop
  endfacet
  facet normal -0.104529 -0.000000 -0.994522
    outer loop
      vertex -0.470378 7.500000 13.475349
      vertex 1.390576 -7.500000 13.279754
      vertex -0.470378 -7.500000 13.475349
    endloop
  endfacet
  facet normal -0.500000 -0.000000 -0.866026
    outer loop
      vertex 3.011088 7.500000 12.344152
      vertex 3.011088 -7.500000 12.344152
      vertex 1.390576 7.500000 13.279754
    endloop
  endfacet
  facet normal -0.500000 0.000000 -0.866026
    outer loop
      vertex 1.390576 7.500000 13.279754
      vertex 3.011088 -7.500000 12.344152
      vertex 1.390576 -7.500000 13.279754
    endloop
  endfacet
  facet normal -0.809017 0.000000 -0.587785
    outer loop
      vertex 4.110955 7.500000 10.830315
      vertex 4.110955 -7.500000 10.830315
      vertex 3.011088 7.500000 12.344152
    endloop
  endfacet
  facet normal -0.809017 -0.000000 -0.587785
    outer loop
      vertex 3.011088 7.500000 12.344152
      vertex 4.110955 -7.500000 10.830315
      vertex 3.011088 -7.500000 12.344152
    endloop
  endfacet
  facet normal -0.978148 -0.000000 -0.207911
    outer loop
      vertex 4.500000 7.500000 9.000000
      vertex 4.500000 -7.500000 9.000000
      vertex 4.110955 7.500000 10.830315
    endloop
  endfacet
  facet normal -0.978148 0.000000 -0.207911
    outer loop
      vertex 4.110955 7.500000 10.830315
      vertex 4.500000 -7.500000 9.000000
      vertex 4.110955 -7.500000 10.830315
    endloop
  endfacet
  facet normal -0.978148 0.000000 0.207911
    outer loop
      vertex 4.500000 7.500000 9.000000
      vertex 4.110955 7.500000 7.169685
      vertex 4.500000 -7.500000 9.000000
    endloop
  endfacet
  facet normal -0.978148 0.000000 0.207911
    outer loop
      vertex 4.500000 -7.500000 9.000000
      vertex 4.110955 7.500000 7.169685
      vertex 4.110955 -7.500000 7.169685
    endloop
  endfacet
  facet normal -0.809017 0.000000 0.587785
    outer loop
      vertex 4.110955 7.500000 7.169685
      vertex 3.011088 7.500000 5.655848
      vertex 4.110955 -7.500000 7.169685
    endloop
  endfacet
  facet normal -0.809017 0.000000 0.587785
    outer loop
      vertex 4.110955 -7.500000 7.169685
      vertex 3.011088 7.500000 5.655848
      vertex 3.011088 -7.500000 5.655848
    endloop
  endfacet
  facet normal -0.500000 0.000000 0.866026
    outer loop
      vertex 3.011088 -7.500000 5.655848
      vertex 3.011088 7.500000 5.655848
      vertex 1.390576 7.500000 4.720246
    endloop
  endfacet
  facet normal -0.500000 0.000000 0.866026
    outer loop
      vertex 1.390576 -7.500000 4.720246
      vertex 3.011088 -7.500000 5.655848
      vertex 1.390576 7.500000 4.720246
    endloop
  endfacet
  facet normal -0.104529 0.000000 0.994522
    outer loop
      vertex 1.390576 -7.500000 4.720246
      vertex 1.390576 7.500000 4.720246
      vertex -0.470378 7.500000 4.524651
    endloop
  endfacet
  facet normal -0.104529 0.000000 0.994522
    outer loop
      vertex -0.470378 -7.500000 4.524651
      vertex 1.390576 -7.500000 4.720246
      vertex -0.470378 7.500000 4.524651
    endloop
  endfacet
  facet normal 0.309017 0.000000 0.951056
    outer loop
      vertex -0.470378 -7.500000 4.524651
      vertex -0.470378 7.500000 4.524651
      vertex -2.250000 7.500000 5.102886
    endloop
  endfacet
  facet normal 0.309017 0.000000 0.951056
    outer loop
      vertex -2.250000 -7.500000 5.102886
      vertex -0.470378 -7.500000 4.524651
      vertex -2.250000 7.500000 5.102886
    endloop
  endfacet
  facet normal 0.669131 0.000000 0.743145
    outer loop
      vertex -2.250000 -7.500000 5.102886
      vertex -2.250000 7.500000 5.102886
      vertex -3.640576 7.500000 6.354966
    endloop
  endfacet
  facet normal 0.669131 0.000000 0.743145
    outer loop
      vertex -3.640576 -7.500000 6.354966
      vertex -2.250000 -7.500000 5.102886
      vertex -3.640576 7.500000 6.354966
    endloop
  endfacet
  facet normal -1.000000 -0.000000 -0.000000
    outer loop
      vertex -9.525000 -7.500000 -22.500000
      vertex -9.525000 -7.500000 -7.500000
      vertex -9.525000 7.500000 -22.500000
    endloop
  endfacet
  facet normal -1.000000 0.000000 0.000000
    outer loop
      vertex -9.525000 7.500000 -22.500000
      vertex -9.525000 -7.500000 -7.500000
      vertex -9.525000 7.500000 -7.500000
    endloop
  endfacet
  facet normal 0.000000 -1.000000 0.000000
    outer loop
      vertex -9.525000 -7.500000 -7.500000
      vertex -9.525000 -7.500000 -22.500000
      vertex 9.525000 -7.500000 -22.500000
    endloop
  endfacet
  facet normal 0.000000 -1.000000 0.000000
    outer loop
      vertex 9.525000 -7.500000 -7.500000
      vertex -9.525000 -7.500000 -7.500000
      vertex 9.525000 -7.500000 -22.500000
    endloop
  endfacet
  facet normal -0.000000 -0.000000 -1.000000
    outer loop
      vertex -9.525000 -7.500000 -22.500000
      vertex -9.525000 7.500000 -22.500000
      vertex 9.525000 -7.500000 -22.500000
    endloop
  endfacet
  facet normal 0.000000 0.000000 -1.000000
    outer loop
      vertex 9.525000 -7.500000 -22.500000
      vertex -9.525000 7.500000 -22.500000
      vertex 9.525000 7.500000 -22.500000
    endloop
  endfacet
  facet normal 0.000000 1.000000 0.000000
    outer loop
      vertex -9.525000 7.500000 -22.500000
      vertex -9.525000 7.500000 -7.500000
      vertex 9.525000 7.500000 -22.500000
    endloop
  endfacet
  facet normal 0.000000 1.000000 0.000000
    outer loop
      vertex 9.525000 7.500000 -22.500000
      vertex -9.525000 7.500000 -7.500000
      vertex 9.525000 7.500000 -7.500000
    endloop
  endfacet
  facet normal 0.000000 -0.000000 1.000000
    outer loop
      vertex -9.525000 7.500000 -7.500000
      vertex -9.525000 -7.500000 -7.500000
      vertex 9.525000 -7.500000 -7.500000
    endloop
  endfacet
  facet normal 0.000000 0.000000 1.000000
    outer loop
      vertex 9.525000 7.500000 -7.500000
      vertex -9.525000 7.500000 -7.500000
      vertex 9.525000 -7.500000 -7.500000
    endloop
  endfacet
  facet normal 1.000000 0.000000 -0.000000
    outer loop
      vertex 9.525000 -7.500000 -7.500000
      vertex 9.525000 -7.500000 -22.500000
      vertex 9.525000 7.500000 -22.500000
    endloop
  endfacet
  facet normal 1.000000 0.000000 0.000000
    outer loop
      vertex 9.525000 7.500000 -7.500000
      vertex 9.525000 -7.500000 -7.500000
      vertex 9.525000 7.500000 -22.500000
    endloop
  endfacet
endsolid OpenSCAD_Model
