solid OpenSCAD_Model
  facet normal -1.000000 -0.000000 -0.000000
    outer loop
      vertex -9.525000 -89.064397 4.401664
      vertex -9.525000 -97.500000 7.500000
      vertex -9.525000 -8.533105 -7.500000
    endloop
  endfacet
  facet normal -1.000000 0.000000 0.000000
    outer loop
      vertex -9.525000 -8.533105 -7.500000
      vertex -9.525000 -97.500000 7.500000
      vertex -9.525000 -20.174693 7.500000
    endloop
  endfacet
  facet normal -1.000000 0.000000 -0.000000
    outer loop
      vertex -9.525000 -8.220029 -6.128322
      vertex -9.525000 -20.174693 7.500000
      vertex -9.525000 -4.192190 -1.727502
    endloop
  endfacet
  facet normal -1.000000 -0.000000 0.000000
    outer loop
      vertex -9.525000 -4.466895 -7.500000
      vertex -9.525000 -4.192190 -1.727502
      vertex -9.525000 -4.192190 -7.500000
    endloop
  endfacet
  facet normal -1.000000 -0.000000 0.000000
    outer loop
      vertex -9.525000 -4.779971 -6.128322
      vertex -9.525000 -4.192190 -1.727502
      vertex -9.525000 -4.466895 -7.500000
    endloop
  endfacet
  facet normal -1.000000 -0.000000 0.000000
    outer loop
      vertex -9.525000 -6.500000 -5.300000
      vertex -9.525000 -4.192190 -1.727502
      vertex -9.525000 -4.779971 -6.128322
    endloop
  endfacet
  facet normal -1.000000 0.000000 -0.000000
    outer loop
      vertex -9.525000 -8.533105 -7.500000
      vertex -9.525000 -20.174693 7.500000
      vertex -9.525000 -8.220029 -6.128322
    endloop
  endfacet
  facet normal -1.000000 0.000000 0.000000
    outer loop
      vertex -9.525000 -88.169685 -4.110955
      vertex -9.525000 -8.533105 -7.500000
      vertex -9.525000 -90.000000 -4.500000
    endloop
  endfacet
  facet normal -1.000000 0.000000 -0.000000
    outer loop
      vertex -9.525000 -97.500000 -7.500000
      vertex -9.525000 -97.500000 7.500000
      vertex -9.525000 -94.475349 0.470378
    endloop
  endfacet
  facet normal -1.000000 0.000000 0.000000
    outer loop
      vertex -9.525000 -97.500000 -7.500000
      vertex -9.525000 -94.475349 0.470378
      vertex -9.525000 -94.279754 -1.390576
    endloop
  endfacet
  facet normal -1.000000 0.000000 0.000000
    outer loop
      vertex -9.525000 -97.500000 -7.500000
      vertex -9.525000 -94.279754 -1.390576
      vertex -9.525000 -93.344152 -3.011088
    endloop
  endfacet
  facet normal -1.000000 0.000000 0.000000
    outer loop
      vertex -9.525000 -97.500000 -7.500000
      vertex -9.525000 -93.344152 -3.011088
      vertex -9.525000 -91.830315 -4.110955
    endloop
  endfacet
  facet normal -1.000000 0.000000 0.000000
    outer loop
      vertex -9.525000 -97.500000 -7.500000
      vertex -9.525000 -91.830315 -4.110955
      vertex -9.525000 -90.000000 -4.500000
    endloop
  endfacet
  facet normal -1.000000 -0.000000 0.000000
    outer loop
      vertex -9.525000 -97.500000 -7.500000
      vertex -9.525000 -90.000000 -4.500000
      vertex -9.525000 -8.533105 -7.500000
    endloop
  endfacet
  facet normal -1.000000 0.000000 0.000000
    outer loop
      vertex -9.525000 -86.655848 -3.011088
      vertex -9.525000 -8.533105 -7.500000
      vertex -9.525000 -88.169685 -4.110955
    endloop
  endfacet
  facet normal -1.000000 0.000000 0.000000
    outer loop
      vertex -9.525000 -85.720246 -1.390576
      vertex -9.525000 -8.533105 -7.500000
      vertex -9.525000 -86.655848 -3.011088
    endloop
  endfacet
  facet normal -1.000000 0.000000 0.000000
    outer loop
      vertex -9.525000 -85.524651 0.470378
      vertex -9.525000 -8.533105 -7.500000
      vertex -9.525000 -85.720246 -1.390576
    endloop
  endfacet
  facet normal -1.000000 -0.000000 -0.000000
    outer loop
      vertex -9.525000 -90.935603 4.401664
      vertex -9.525000 -97.500000 7.500000
      vertex -9.525000 -89.064397 4.401664
    endloop
  endfacet
  facet normal -1.000000 0.000000 -0.000000
    outer loop
      vertex -9.525000 -92.645034 3.640576
      vertex -9.525000 -97.500000 7.500000
      vertex -9.525000 -90.935603 4.401664
    endloop
  endfacet
  facet normal -1.000000 -0.000000 -0.000000
    outer loop
      vertex -9.525000 -85.524651 0.470378
      vertex -9.525000 -86.102886 2.250000
      vertex -9.525000 -8.533105 -7.500000
    endloop
  endfacet
  facet normal -1.000000 -0.000000 -0.000000
    outer loop
      vertex -9.525000 -86.102886 2.250000
      vertex -9.525000 -87.354966 3.640576
      vertex -9.525000 -8.533105 -7.500000
    endloop
  endfacet
  facet normal -1.000000 -0.000000 -0.000000
    outer loop
      vertex -9.525000 -87.354966 3.640576
      vertex -9.525000 -89.064397 4.401664
      vertex -9.525000 -8.533105 -7.500000
    endloop
  endfacet
  facet normal -1.000000 0.000000 -0.000000
    outer loop
      vertex -9.525000 -93.897114 2.250000
      vertex -9.525000 -97.500000 7.500000
      vertex -9.525000 -92.645034 3.640576
    endloop
  endfacet
  facet normal -1.000000 0.000000 -0.000000
    outer loop
      vertex -9.525000 -94.475349 0.470378
      vertex -9.525000 -97.500000 7.500000
      vertex -9.525000 -93.897114 2.250000
    endloop
  endfacet
  facet normal -1.000000 0.000000 0.000000
    outer loop
      vertex -9.525000 -8.220029 -6.128322
      vertex -9.525000 -4.192190 -1.727502
      vertex -9.525000 -6.500000 -5.300000
    endloop
  endfacet
  facet normal 0.000000 -1.000000 0.000000
    outer loop
      vertex -9.525000 -97.500000 7.500000
      vertex -9.525000 -97.500000 -7.500000
      vertex 9.525000 -97.500000 -7.500000
    endloop
  endfacet
  facet normal 0.000000 -1.000000 0.000000
    outer loop
      vertex 9.525000 -97.500000 7.500000
      vertex -9.525000 -97.500000 7.500000
      vertex 9.525000 -97.500000 -7.500000
    endloop
  endfacet
  facet normal 0.000000 0.000000 -1.000000
    outer loop
      vertex 9.525000 -24.193931 -7.500000
      vertex 9.525000 -97.500000 -7.500000
      vertex -9.525000 -24.193931 -7.500000
    endloop
  endfacet
  facet normal 0.000000 -0.000000 -0.000000
    outer loop
      vertex -9.525000 -97.500000 -7.500000
      vertex -9.525000 -8.533105 -7.500000
      vertex -9.525000 -24.193931 -7.500000
    endloop
  endfacet
  facet normal -0.000000 0.000000 -1.000000
    outer loop
      vertex -9.525000 -97.500000 -7.500000
      vertex -9.525000 -24.193931 -7.500000
      vertex 9.525000 -97.500000 -7.500000
    endloop
  endfacet
  facet normal -0.000000 0.974928 -0.222521
    outer loop
      vertex 9.525000 -8.220029 -6.128322
      vertex 9.525000 -8.644841 -7.989546
      vertex -9.525000 -8.220029 -6.128322
    endloop
  endfacet
  facet normal -0.000000 0.974928 -0.222521
    outer loop
      vertex -9.525000 -8.533105 -7.500000
      vertex 9.525000 -8.644841 -7.989546
      vertex -9.525000 -8.644841 -7.989546
    endloop
  endfacet
  facet normal -0.000000 0.974928 -0.222521
    outer loop
      vertex -9.525000 -8.220029 -6.128322
      vertex 9.525000 -8.644841 -7.989546
      vertex -9.525000 -8.533105 -7.500000
    endloop
  endfacet
  facet normal -0.000000 0.433884 -0.900969
    outer loop
      vertex 9.525000 -6.500000 -5.300000
      vertex 9.525000 -8.220029 -6.128322
      vertex -9.525000 -6.500000 -5.300000
    endloop
  endfacet
  facet normal -0.000000 0.433884 -0.900969
    outer loop
      vertex -9.525000 -6.500000 -5.300000
      vertex 9.525000 -8.220029 -6.128322
      vertex -9.525000 -8.220029 -6.128322
    endloop
  endfacet
  facet normal -0.000000 -0.433884 -0.900969
    outer loop
      vertex 9.525000 -4.779971 -6.128322
      vertex 9.525000 -6.500000 -5.300000
      vertex -9.525000 -4.779971 -6.128322
    endloop
  endfacet
  facet normal -0.000000 -0.433884 -0.900969
    outer loop
      vertex -9.525000 -4.779971 -6.128322
      vertex 9.525000 -6.500000 -5.300000
      vertex -9.525000 -6.500000 -5.300000
    endloop
  endfacet
  facet normal -0.000000 -0.974928 -0.222521
    outer loop
      vertex 9.525000 -4.355159 -7.989546
      vertex -9.525000 -4.466895 -7.500000
      vertex -9.525000 -4.355159 -7.989546
    endloop
  endfacet
  facet normal -0.000000 -0.974928 -0.222521
    outer loop
      vertex 9.525000 -4.779971 -6.128322
      vertex -9.525000 -4.466895 -7.500000
      vertex 9.525000 -4.355159 -7.989546
    endloop
  endfacet
  facet normal -0.000000 -0.974928 -0.222521
    outer loop
      vertex -9.525000 -4.779971 -6.128322
      vertex -9.525000 -4.466895 -7.500000
      vertex 9.525000 -4.779971 -6.128322
    endloop
  endfacet
  facet normal 0.000000 1.000000 0.000000
    outer loop
      vertex -7.843160 -4.192190 -1.727502
      vertex -7.843160 -4.192190 -19.048010
      vertex -9.525000 -4.192190 -1.727502
    endloop
  endfacet
  facet normal 0.000000 1.000000 0.000000
    outer loop
      vertex -9.525000 -4.192190 -7.500000
      vertex -7.843160 -4.192190 -19.048010
      vertex -9.525000 -4.192190 -19.048010
    endloop
  endfacet
  facet normal 0.000000 1.000000 0.000000
    outer loop
      vertex -9.525000 -4.192190 -1.727502
      vertex -7.843160 -4.192190 -19.048010
      vertex -9.525000 -4.192190 -7.500000
    endloop
  endfacet
  facet normal -0.000000 0.500000 0.866025
    outer loop
      vertex 1.390576 -6.933708 -0.144686
      vertex 9.525000 0.000000 -4.147864
      vertex -4.500000 0.000000 -4.147864
    endloop
  endfacet
  facet normal 0.000000 0.500000 0.866025
    outer loop
      vertex 4.110955 -12.225183 2.910348
      vertex 3.011088 -13.536204 3.667267
      vertex 9.525000 -20.174693 7.500000
    endloop
  endfacet
  facet normal -0.000000 0.500000 0.866025
    outer loop
      vertex -2.250000 -7.265084 0.046634
      vertex -0.470378 -6.764317 -0.242484
      vertex -4.925834 -1.865700 -3.070702
    endloop
  endfacet
  facet normal -0.000000 0.500000 0.866025
    outer loop
      vertex -9.525000 -20.174693 7.500000
      vertex -4.401664 -9.829827 1.527389
      vertex -9.525000 -4.192190 -1.727502
    endloop
  endfacet
  facet normal -0.000000 0.500000 0.866025
    outer loop
      vertex -9.525000 -4.192190 -1.727502
      vertex -3.640576 -8.349417 0.672674
      vertex -7.843160 -4.192190 -1.727502
    endloop
  endfacet
  facet normal -0.000000 0.500000 0.866025
    outer loop
      vertex -6.118994 -3.361875 -2.206885
      vertex -2.250000 -7.265084 0.046634
      vertex -4.925834 -1.865700 -3.070702
    endloop
  endfacet
  facet normal -0.000000 0.500000 0.866025
    outer loop
      vertex -4.925834 -1.865700 -3.070702
      vertex -0.470378 -6.764317 -0.242484
      vertex -4.500000 0.000000 -4.147864
    endloop
  endfacet
  facet normal -0.000000 0.500000 0.866025
    outer loop
      vertex 3.011088 -13.536204 3.667267
      vertex 1.390576 -14.346459 4.135068
      vertex 9.525000 -20.174693 7.500000
    endloop
  endfacet
  facet normal 0.000000 0.500000 0.866025
    outer loop
      vertex 3.011088 -7.743963 0.323115
      vertex 9.525000 0.000000 -4.147864
      vertex 1.390576 -6.933708 -0.144686
    endloop
  endfacet
  facet normal -0.000000 0.500000 0.866025
    outer loop
      vertex 4.110955 -9.054984 1.080033
      vertex 9.525000 0.000000 -4.147864
      vertex 3.011088 -7.743963 0.323115
    endloop
  endfacet
  facet normal -0.000000 0.500000 0.866025
    outer loop
      vertex 4.500000 -10.640083 1.995191
      vertex 4.110955 -12.225183 2.910348
      vertex 9.525000 -20.174693 7.500000
    endloop
  endfacet
  facet normal 0.000000 0.500000 0.866025
    outer loop
      vertex 9.525000 -20.174693 7.500000
      vertex 9.525000 0.000000 -4.147864
      vertex 4.110955 -9.054984 1.080033
    endloop
  endfacet
  facet normal 0.000000 0.500000 0.866025
    outer loop
      vertex 4.110955 -9.054984 1.080033
      vertex 4.500000 -10.640083 1.995191
      vertex 9.525000 -20.174693 7.500000
    endloop
  endfacet
  facet normal -0.000000 0.500000 0.866025
    outer loop
      vertex -0.470378 -6.764317 -0.242484
      vertex 1.390576 -6.933708 -0.144686
      vertex -4.500000 0.000000 -4.147864
    endloop
  endfacet
  facet normal 0.000000 0.500000 0.866025
    outer loop
      vertex -9.525000 -20.174693 7.500000
      vertex 9.525000 -20.174693 7.500000
      vertex 1.390576 -14.346459 4.135068
    endloop
  endfacet
  facet normal 0.000000 0.500000 0.866025
    outer loop
      vertex -9.525000 -20.174693 7.500000
      vertex 1.390576 -14.346459 4.135068
      vertex -0.470378 -14.515849 4.232865
    endloop
  endfacet
  facet normal -0.000000 0.500000 0.866025
    outer loop
      vertex -9.525000 -20.174693 7.500000
      vertex -0.470378 -14.515849 4.232865
      vertex -2.250000 -14.015083 3.943748
    endloop
  endfacet
  facet normal 0.000000 0.500000 0.866025
    outer loop
      vertex -9.525000 -20.174693 7.500000
      vertex -2.250000 -14.015083 3.943748
      vertex -3.640576 -12.930750 3.317708
    endloop
  endfacet
  facet normal 0.000000 0.500000 0.866025
    outer loop
      vertex -9.525000 -20.174693 7.500000
      vertex -4.401664 -11.450339 2.462992
      vertex -4.401664 -9.829827 1.527389
    endloop
  endfacet
  facet normal 0.000000 0.500000 0.866025
    outer loop
      vertex -9.525000 -20.174693 7.500000
      vertex -3.640576 -12.930750 3.317708
      vertex -4.401664 -11.450339 2.462992
    endloop
  endfacet
  facet normal -0.000000 0.500000 0.866025
    outer loop
      vertex -4.401664 -9.829827 1.527389
      vertex -3.640576 -8.349417 0.672674
      vertex -9.525000 -4.192190 -1.727502
    endloop
  endfacet
  facet normal -0.000000 0.500000 0.866025
    outer loop
      vertex -3.640576 -8.349417 0.672674
      vertex -6.118994 -3.361875 -2.206885
      vertex -7.843160 -4.192190 -1.727502
    endloop
  endfacet
  facet normal 0.000000 0.500000 0.866025
    outer loop
      vertex -3.640576 -8.349417 0.672674
      vertex -2.250000 -7.265084 0.046634
      vertex -6.118994 -3.361875 -2.206885
    endloop
  endfacet
  facet normal 0.000000 -0.000000 1.000000
    outer loop
      vertex -9.525000 -20.174693 7.500000
      vertex -9.525000 -97.500000 7.500000
      vertex 9.525000 -97.500000 7.500000
    endloop
  endfacet
  facet normal 0.000000 0.000000 1.000000
    outer loop
      vertex 9.525000 -20.174693 7.500000
      vertex -9.525000 -20.174693 7.500000
      vertex 9.525000 -97.500000 7.500000
    endloop
  endfacet
  facet normal 0.000000 0.951056 -0.309017
    outer loop
      vertex 9.525000 -93.897114 2.250000
      vertex 9.525000 -94.475349 0.470378
      vertex -9.525000 -93.897114 2.250000
    endloop
  endfacet
  facet normal 0.000000 0.951056 -0.309017
    outer loop
      vertex -9.525000 -93.897114 2.250000
      vertex 9.525000 -94.475349 0.470378
      vertex -9.525000 -94.475349 0.470378
    endloop
  endfacet
  facet normal -0.000000 0.994522 0.104529
    outer loop
      vertex 9.525000 -94.279754 -1.390576
      vertex -9.525000 -94.279754 -1.390576
      vertex 9.525000 -94.475349 0.470378
    endloop
  endfacet
  facet normal -0.000000 0.994522 0.104529
    outer loop
      vertex 9.525000 -94.475349 0.470378
      vertex -9.525000 -94.279754 -1.390576
      vertex -9.525000 -94.475349 0.470378
    endloop
  endfacet
  facet normal 0.000000 0.743145 -0.669131
    outer loop
      vertex 9.525000 -92.645034 3.640576
      vertex 9.525000 -93.897114 2.250000
      vertex -9.525000 -92.645034 3.640576
    endloop
  endfacet
  facet normal 0.000000 0.743145 -0.669131
    outer loop
      vertex -9.525000 -92.645034 3.640576
      vertex 9.525000 -93.897114 2.250000
      vertex -9.525000 -93.897114 2.250000
    endloop
  endfacet
  facet normal 0.000000 0.406737 -0.913545
    outer loop
      vertex 9.525000 -90.935603 4.401664
      vertex 9.525000 -92.645034 3.640576
      vertex -9.525000 -90.935603 4.401664
    endloop
  endfacet
  facet normal 0.000000 0.406737 -0.913545
    outer loop
      vertex -9.525000 -90.935603 4.401664
      vertex 9.525000 -92.645034 3.640576
      vertex -9.525000 -92.645034 3.640576
    endloop
  endfacet
  facet normal 0.000000 0.000000 -1.000000
    outer loop
      vertex 9.525000 -89.064397 4.401664
      vertex 9.525000 -90.935603 4.401664
      vertex -9.525000 -89.064397 4.401664
    endloop
  endfacet
  facet normal 0.000000 0.000000 -1.000000
    outer loop
      vertex -9.525000 -89.064397 4.401664
      vertex 9.525000 -90.935603 4.401664
      vertex -9.525000 -90.935603 4.401664
    endloop
  endfacet
  facet normal 0.000000 -0.406737 -0.913545
    outer loop
      vertex 9.525000 -87.354966 3.640576
      vertex 9.525000 -89.064397 4.401664
      vertex -9.525000 -87.354966 3.640576
    endloop
  endfacet
  facet normal 0.000000 -0.406737 -0.913545
    outer loop
      vertex -9.525000 -87.354966 3.640576
      vertex 9.525000 -89.064397 4.401664
      vertex -9.525000 -89.064397 4.401664
    endloop
  endfacet
  facet normal 0.000000 -0.743145 -0.669131
    outer loop
      vertex -9.525000 -86.102886 2.250000
      vertex 9.525000 -86.102886 2.250000
      vertex 9.525000 -87.354966 3.640576
    endloop
  endfacet
  facet normal 0.000000 -0.743145 -0.669131
    outer loop
      vertex -9.525000 -87.354966 3.640576
      vertex -9.525000 -86.102886 2.250000
      vertex 9.525000 -87.354966 3.640576
    endloop
  endfacet
  facet normal 0.000000 -0.951056 -0.309017
    outer loop
      vertex -9.525000 -85.524651 0.470378
      vertex 9.525000 -85.524651 0.470378
      vertex 9.525000 -86.102886 2.250000
    endloop
  endfacet
  facet normal 0.000000 -0.951056 -0.309017
    outer loop
      vertex -9.525000 -86.102886 2.250000
      vertex -9.525000 -85.524651 0.470378
      vertex 9.525000 -86.102886 2.250000
    endloop
  endfacet
  facet normal -0.000000 -0.994522 0.104529
    outer loop
      vertex 9.525000 -85.720246 -1.390576
      vertex 9.525000 -85.524651 0.470378
      vertex -9.525000 -85.524651 0.470378
    endloop
  endfacet
  facet normal -0.000000 -0.994522 0.104529
    outer loop
      vertex -9.525000 -85.720246 -1.390576
      vertex 9.525000 -85.720246 -1.390576
      vertex -9.525000 -85.524651 0.470378
    endloop
  endfacet
  facet normal -0.000000 -0.866026 0.500000
    outer loop
      vertex 9.525000 -86.655848 -3.011088
      vertex 9.525000 -85.720246 -1.390576
      vertex -9.525000 -85.720246 -1.390576
    endloop
  endfacet
  facet normal -0.000000 -0.866026 0.500000
    outer loop
      vertex -9.525000 -86.655848 -3.011088
      vertex 9.525000 -86.655848 -3.011088
      vertex -9.525000 -85.720246 -1.390576
    endloop
  endfacet
  facet normal -0.000000 -0.587785 0.809017
    outer loop
      vertex 9.525000 -88.169685 -4.110955
      vertex 9.525000 -86.655848 -3.011088
      vertex -9.525000 -86.655848 -3.011088
    endloop
  endfacet
  facet normal -0.000000 -0.587785 0.809017
    outer loop
      vertex -9.525000 -88.169685 -4.110955
      vertex 9.525000 -88.169685 -4.110955
      vertex -9.525000 -86.655848 -3.011088
    endloop
  endfacet
  facet normal -0.000000 -0.207911 0.978148
    outer loop
      vertex 9.525000 -90.000000 -4.500000
      vertex 9.525000 -88.169685 -4.110955
      vertex -9.525000 -88.169685 -4.110955
    endloop
  endfacet
  facet normal -0.000000 -0.207911 0.978148
    outer loop
      vertex -9.525000 -90.000000 -4.500000
      vertex 9.525000 -90.000000 -4.500000
      vertex -9.525000 -88.169685 -4.110955
    endloop
  endfacet
  facet normal -0.000000 0.207911 0.978148
    outer loop
      vertex 9.525000 -91.830315 -4.110955
      vertex 9.525000 -90.000000 -4.500000
      vertex -9.525000 -90.000000 -4.500000
    endloop
  endfacet
  facet normal -0.000000 0.207911 0.978148
    outer loop
      vertex -9.525000 -91.830315 -4.110955
      vertex 9.525000 -91.830315 -4.110955
      vertex -9.525000 -90.000000 -4.500000
    endloop
  endfacet
  facet normal -0.000000 0.587785 0.809017
    outer loop
      vertex 9.525000 -93.344152 -3.011088
      vertex 9.525000 -91.830315 -4.110955
      vertex -9.525000 -91.830315 -4.110955
    endloop
  endfacet
  facet normal -0.000000 0.587785 0.809017
    outer loop
      vertex -9.525000 -93.344152 -3.011088
      vertex 9.525000 -93.344152 -3.011088
      vertex -9.525000 -91.830315 -4.110955
    endloop
  endfacet
  facet normal -0.000000 0.866026 0.500000
    outer loop
      vertex 9.525000 -93.344152 -3.011088
      vertex -9.525000 -93.344152 -3.011088
      vertex 9.525000 -94.279754 -1.390576
    endloop
  endfacet
  facet normal -0.000000 0.866026 0.500000
    outer loop
      vertex 9.525000 -94.279754 -1.390576
      vertex -9.525000 -93.344152 -3.011088
      vertex -9.525000 -94.279754 -1.390576
    endloop
  endfacet
  facet normal 1.000000 0.000000 -0.000000
    outer loop
      vertex 9.525000 -88.169685 -4.110955
      vertex 9.525000 -97.500000 -7.500000
      vertex 9.525000 -24.193931 -7.500000
    endloop
  endfacet
  facet normal 1.000000 -0.000000 0.000000
    outer loop
      vertex 9.525000 -8.220029 -6.128322
      vertex 9.525000 -97.500000 7.500000
      vertex 9.525000 -24.193931 -7.500000
    endloop
  endfacet
  facet normal 1.000000 0.000000 0.000000
    outer loop
      vertex 9.525000 89.064397 4.401664
      vertex 9.525000 97.500000 7.500000
      vertex 9.525000 20.174693 7.500000
    endloop
  endfacet
  facet normal 1.000000 0.000000 0.000000
    outer loop
      vertex 9.525000 6.500000 -5.300000
      vertex 9.525000 0.000000 -4.147864
      vertex 9.525000 -97.500000 7.500000
    endloop
  endfacet
  facet normal 1.000000 0.000000 0.000000
    outer loop
      vertex 9.525000 24.193931 -7.500000
      vertex 9.525000 97.500000 -7.500000
      vertex 9.525000 0.000000 -4.147864
    endloop
  endfacet
  facet normal 1.000000 0.000000 0.000000
    outer loop
      vertex 9.525000 -89.064397 4.401664
      vertex 9.525000 -87.354966 3.640576
      vertex 9.525000 -24.193931 -7.500000
    endloop
  endfacet
  facet normal 1.000000 0.000000 0.000000
    outer loop
      vertex 9.525000 89.064397 4.401664
      vertex 9.525000 90.935603 4.401664
      vertex 9.525000 97.500000 7.500000
    endloop
  endfacet
  facet normal 1.000000 -0.000000 0.000000
    outer loop
      vertex 9.525000 -90.000000 -4.500000
      vertex 9.525000 -91.830315 -4.110955
      vertex 9.525000 -97.500000 -7.500000
    endloop
  endfacet
  facet normal 1.000000 0.000000 -0.000000
    outer loop
      vertex 9.525000 -97.500000 7.500000
      vertex 9.525000 -97.500000 -7.500000
      vertex 9.525000 -94.279754 -1.390576
    endloop
  endfacet
  facet normal 1.000000 0.000000 -0.000000
    outer loop
      vertex 9.525000 -85.720246 -1.390576
      vertex 9.525000 -86.655848 -3.011088
      vertex 9.525000 -24.193931 -7.500000
    endloop
  endfacet
  facet normal 1.000000 0.000000 0.000000
    outer loop
      vertex 9.525000 -97.500000 7.500000
      vertex 9.525000 -94.279754 -1.390576
      vertex 9.525000 -94.475349 0.470378
    endloop
  endfacet
  facet normal 1.000000 0.000000 -0.000000
    outer loop
      vertex 9.525000 -85.524651 0.470378
      vertex 9.525000 -85.720246 -1.390576
      vertex 9.525000 -24.193931 -7.500000
    endloop
  endfacet
  facet normal 1.000000 0.000000 0.000000
    outer loop
      vertex 9.525000 -97.500000 7.500000
      vertex 9.525000 -94.475349 0.470378
      vertex 9.525000 -93.897114 2.250000
    endloop
  endfacet
  facet normal 1.000000 0.000000 0.000000
    outer loop
      vertex 9.525000 -86.102886 2.250000
      vertex 9.525000 -85.524651 0.470378
      vertex 9.525000 -24.193931 -7.500000
    endloop
  endfacet
  facet normal 1.000000 0.000000 0.000000
    outer loop
      vertex 9.525000 -97.500000 7.500000
      vertex 9.525000 -93.897114 2.250000
      vertex 9.525000 -92.645034 3.640576
    endloop
  endfacet
  facet normal 1.000000 0.000000 0.000000
    outer loop
      vertex 9.525000 -87.354966 3.640576
      vertex 9.525000 -86.102886 2.250000
      vertex 9.525000 -24.193931 -7.500000
    endloop
  endfacet
  facet normal 1.000000 0.000000 0.000000
    outer loop
      vertex 9.525000 -97.500000 7.500000
      vertex 9.525000 -92.645034 3.640576
      vertex 9.525000 -90.935603 4.401664
    endloop
  endfacet
  facet normal 1.000000 0.000000 0.000000
    outer loop
      vertex 9.525000 -97.500000 7.500000
      vertex 9.525000 -89.064397 4.401664
      vertex 9.525000 -24.193931 -7.500000
    endloop
  endfacet
  facet normal 1.000000 0.000000 0.000000
    outer loop
      vertex 9.525000 -97.500000 7.500000
      vertex 9.525000 -90.935603 4.401664
      vertex 9.525000 -89.064397 4.401664
    endloop
  endfacet
  facet normal 1.000000 -0.000000 0.000000
    outer loop
      vertex 9.525000 4.355159 -7.989546
      vertex 9.525000 -4.779971 -6.128322
      vertex 9.525000 -4.355159 -7.989546
    endloop
  endfacet
  facet normal 1.000000 0.000000 -0.000000
    outer loop
      vertex 9.525000 -86.655848 -3.011088
      vertex 9.525000 -88.169685 -4.110955
      vertex 9.525000 -24.193931 -7.500000
    endloop
  endfacet
  facet normal 1.000000 0.000000 -0.000000
    outer loop
      vertex 9.525000 -90.000000 -4.500000
      vertex 9.525000 -97.500000 -7.500000
      vertex 9.525000 -88.169685 -4.110955
    endloop
  endfacet
  facet normal 1.000000 0.000000 0.000000
    outer loop
      vertex 9.525000 -8.644841 -7.989546
      vertex 9.525000 -8.220029 -6.128322
      vertex 9.525000 -24.193931 -7.500000
    endloop
  endfacet
  facet normal 1.000000 0.000000 -0.000000
    outer loop
      vertex 9.525000 -93.344152 -3.011088
      vertex 9.525000 -97.500000 -7.500000
      vertex 9.525000 -91.830315 -4.110955
    endloop
  endfacet
  facet normal 1.000000 0.000000 -0.000000
    outer loop
      vertex 9.525000 -94.279754 -1.390576
      vertex 9.525000 -97.500000 -7.500000
      vertex 9.525000 -93.344152 -3.011088
    endloop
  endfacet
  facet normal 1.000000 0.000000 0.000000
    outer loop
      vertex 9.525000 0.000000 -21.468372
      vertex 9.525000 -8.644841 -7.989546
      vertex 9.525000 -24.193931 -7.500000
    endloop
  endfacet
  facet normal 1.000000 -0.000000 0.000000
    outer loop
      vertex 9.525000 -6.500000 -5.300000
      vertex 9.525000 -97.500000 7.500000
      vertex 9.525000 -8.220029 -6.128322
    endloop
  endfacet
  facet normal 1.000000 0.000000 0.000000
    outer loop
      vertex 9.525000 8.220029 -6.128322
      vertex 9.525000 8.644841 -7.989546
      vertex 9.525000 24.193931 -7.500000
    endloop
  endfacet
  facet normal 1.000000 0.000000 0.000000
    outer loop
      vertex 9.525000 4.355159 -7.989546
      vertex 9.525000 4.779971 -6.128322
      vertex 9.525000 -4.779971 -6.128322
    endloop
  endfacet
  facet normal 1.000000 -0.000000 0.000000
    outer loop
      vertex 9.525000 4.779971 -6.128322
      vertex 9.525000 -6.500000 -5.300000
      vertex 9.525000 -4.779971 -6.128322
    endloop
  endfacet
  facet normal 1.000000 0.000000 0.000000
    outer loop
      vertex 9.525000 0.000000 -21.468372
      vertex 9.525000 -4.355159 -7.989546
      vertex 9.525000 -5.545456 -9.482132
    endloop
  endfacet
  facet normal 1.000000 0.000000 0.000000
    outer loop
      vertex 9.525000 0.000000 -21.468372
      vertex 9.525000 -7.454544 -9.482132
      vertex 9.525000 -8.644841 -7.989546
    endloop
  endfacet
  facet normal 1.000000 0.000000 0.000000
    outer loop
      vertex 9.525000 0.000000 -21.468372
      vertex 9.525000 -5.545456 -9.482132
      vertex 9.525000 -7.454544 -9.482132
    endloop
  endfacet
  facet normal 1.000000 0.000000 0.000000
    outer loop
      vertex 9.525000 0.000000 -21.468372
      vertex 9.525000 4.355159 -7.989546
      vertex 9.525000 -4.355159 -7.989546
    endloop
  endfacet
  facet normal 1.000000 0.000000 0.000000
    outer loop
      vertex 9.525000 6.500000 -5.300000
      vertex 9.525000 8.220029 -6.128322
      vertex 9.525000 24.193931 -7.500000
    endloop
  endfacet
  facet normal 1.000000 0.000000 0.000000
    outer loop
      vertex 9.525000 24.193931 -7.500000
      vertex 9.525000 0.000000 -4.147864
      vertex 9.525000 6.500000 -5.300000
    endloop
  endfacet
  facet normal 1.000000 0.000000 0.000000
    outer loop
      vertex 9.525000 0.000000 -21.468372
      vertex 9.525000 24.193931 -7.500000
      vertex 9.525000 8.644841 -7.989546
    endloop
  endfacet
  facet normal 1.000000 0.000000 0.000000
    outer loop
      vertex 9.525000 0.000000 -21.468372
      vertex 9.525000 8.644841 -7.989546
      vertex 9.525000 7.454544 -9.482132
    endloop
  endfacet
  facet normal 1.000000 0.000000 0.000000
    outer loop
      vertex 9.525000 0.000000 -21.468372
      vertex 9.525000 5.545456 -9.482132
      vertex 9.525000 4.355159 -7.989546
    endloop
  endfacet
  facet normal 1.000000 0.000000 0.000000
    outer loop
      vertex 9.525000 0.000000 -21.468372
      vertex 9.525000 7.454544 -9.482132
      vertex 9.525000 5.545456 -9.482132
    endloop
  endfacet
  facet normal 1.000000 0.000000 0.000000
    outer loop
      vertex 9.525000 86.655848 -3.011088
      vertex 9.525000 85.720246 -1.390576
      vertex 9.525000 20.174693 7.500000
    endloop
  endfacet
  facet normal 1.000000 0.000000 0.000000
    outer loop
      vertex 9.525000 85.720246 -1.390576
      vertex 9.525000 85.524651 0.470378
      vertex 9.525000 20.174693 7.500000
    endloop
  endfacet
  facet normal 1.000000 0.000000 -0.000000
    outer loop
      vertex 9.525000 94.475349 0.470378
      vertex 9.525000 94.279754 -1.390576
      vertex 9.525000 97.500000 -7.500000
    endloop
  endfacet
  facet normal 1.000000 0.000000 0.000000
    outer loop
      vertex 9.525000 85.524651 0.470378
      vertex 9.525000 86.102886 2.250000
      vertex 9.525000 20.174693 7.500000
    endloop
  endfacet
  facet normal 1.000000 0.000000 0.000000
    outer loop
      vertex 9.525000 86.102886 2.250000
      vertex 9.525000 87.354966 3.640576
      vertex 9.525000 20.174693 7.500000
    endloop
  endfacet
  facet normal 1.000000 0.000000 0.000000
    outer loop
      vertex 9.525000 87.354966 3.640576
      vertex 9.525000 89.064397 4.401664
      vertex 9.525000 20.174693 7.500000
    endloop
  endfacet
  facet normal 1.000000 0.000000 0.000000
    outer loop
      vertex 9.525000 90.935603 4.401664
      vertex 9.525000 92.645034 3.640576
      vertex 9.525000 97.500000 7.500000
    endloop
  endfacet
  facet normal 1.000000 0.000000 0.000000
    outer loop
      vertex 9.525000 93.897114 2.250000
      vertex 9.525000 97.500000 7.500000
      vertex 9.525000 92.645034 3.640576
    endloop
  endfacet
  facet normal 1.000000 0.000000 0.000000
    outer loop
      vertex 9.525000 97.500000 -7.500000
      vertex 9.525000 97.500000 7.500000
      vertex 9.525000 93.897114 2.250000
    endloop
  endfacet
  facet normal 1.000000 0.000000 -0.000000
    outer loop
      vertex 9.525000 91.830315 -4.110955
      vertex 9.525000 90.000000 -4.500000
      vertex 9.525000 97.500000 -7.500000
    endloop
  endfacet
  facet normal 1.000000 0.000000 0.000000
    outer loop
      vertex 9.525000 97.500000 -7.500000
      vertex 9.525000 93.897114 2.250000
      vertex 9.525000 94.475349 0.470378
    endloop
  endfacet
  facet normal 1.000000 0.000000 0.000000
    outer loop
      vertex 9.525000 97.500000 -7.500000
      vertex 9.525000 94.279754 -1.390576
      vertex 9.525000 93.344152 -3.011088
    endloop
  endfacet
  facet normal 1.000000 0.000000 0.000000
    outer loop
      vertex 9.525000 97.500000 -7.500000
      vertex 9.525000 93.344152 -3.011088
      vertex 9.525000 91.830315 -4.110955
    endloop
  endfacet
  facet normal 1.000000 0.000000 0.000000
    outer loop
      vertex 9.525000 97.500000 -7.500000
      vertex 9.525000 90.000000 -4.500000
      vertex 9.525000 20.174693 7.500000
    endloop
  endfacet
  facet normal 1.000000 0.000000 0.000000
    outer loop
      vertex 9.525000 90.000000 -4.500000
      vertex 9.525000 88.169685 -4.110955
      vertex 9.525000 20.174693 7.500000
    endloop
  endfacet
  facet normal 1.000000 0.000000 0.000000
    outer loop
      vertex 9.525000 88.169685 -4.110955
      vertex 9.525000 86.655848 -3.011088
      vertex 9.525000 20.174693 7.500000
    endloop
  endfacet
  facet normal 1.000000 0.000000 0.000000
    outer loop
      vertex 9.525000 0.000000 -4.147864
      vertex 9.525000 -20.174693 7.500000
      vertex 9.525000 -97.500000 7.500000
    endloop
  endfacet
  facet normal 1.000000 0.000000 -0.000000
    outer loop
      vertex 9.525000 20.174693 7.500000
      vertex 9.525000 0.000000 -4.147864
      vertex 9.525000 97.500000 -7.500000
    endloop
  endfacet
  facet normal 1.000000 0.000000 0.000000
    outer loop
      vertex 9.525000 4.779971 -6.128322
      vertex 9.525000 -97.500000 7.500000
      vertex 9.525000 -6.500000 -5.300000
    endloop
  endfacet
  facet normal 1.000000 0.000000 0.000000
    outer loop
      vertex 9.525000 4.779971 -6.128322
      vertex 9.525000 6.500000 -5.300000
      vertex 9.525000 -97.500000 7.500000
    endloop
  endfacet
  facet normal 0.000000 -0.500000 -0.866025
    outer loop
      vertex 1.390576 -14.433708 -13.135067
      vertex -7.843160 -4.192190 -19.048010
      vertex -6.118994 -3.361875 -19.527393
    endloop
  endfacet
  facet normal 0.000000 -0.500000 -0.866025
    outer loop
      vertex 4.110955 -16.554984 -11.910348
      vertex -4.925834 -1.865700 -20.391210
      vertex 9.525000 -24.193931 -7.500000
    endloop
  endfacet
  facet normal -0.000000 -0.500000 -0.866025
    outer loop
      vertex -4.925834 -1.865700 -20.391210
      vertex -4.500000 0.000000 -21.468372
      vertex 9.525000 -24.193931 -7.500000
    endloop
  endfacet
  facet normal 0.000000 -0.500000 -0.866025
    outer loop
      vertex 9.525000 -24.193931 -7.500000
      vertex -4.500000 0.000000 -21.468372
      vertex 9.525000 0.000000 -21.468372
    endloop
  endfacet
  facet normal 0.000000 -0.500000 -0.866025
    outer loop
      vertex -9.525000 -24.193931 -7.500000
      vertex -9.525000 -4.192190 -19.048010
      vertex -4.401664 -17.329827 -11.462992
    endloop
  endfacet
  facet normal 0.000000 -0.500000 -0.866025
    outer loop
      vertex -0.470378 -14.264317 -13.232865
      vertex -9.525000 -4.192190 -19.048010
      vertex -7.843160 -4.192190 -19.048010
    endloop
  endfacet
  facet normal 0.000000 -0.500000 -0.866025
    outer loop
      vertex -9.525000 -24.193931 -7.500000
      vertex -4.401664 -17.329827 -11.462992
      vertex -4.401664 -18.950339 -10.527389
    endloop
  endfacet
  facet normal 0.000000 -0.500000 -0.866025
    outer loop
      vertex -9.525000 -24.193931 -7.500000
      vertex -4.401664 -18.950339 -10.527389
      vertex -3.640576 -20.430750 -9.672673
    endloop
  endfacet
  facet normal -0.000000 -0.500000 -0.866025
    outer loop
      vertex -9.525000 -24.193931 -7.500000
      vertex -3.640576 -20.430750 -9.672673
      vertex -2.250000 -21.515083 -9.046633
    endloop
  endfacet
  facet normal 0.000000 -0.500000 -0.866025
    outer loop
      vertex -2.250000 -14.765084 -12.943747
      vertex -9.525000 -4.192190 -19.048010
      vertex -0.470378 -14.264317 -13.232865
    endloop
  endfacet
  facet normal -0.000000 -0.500000 -0.866025
    outer loop
      vertex -9.525000 -24.193931 -7.500000
      vertex -2.250000 -21.515083 -9.046633
      vertex -0.470378 -22.015849 -8.757516
    endloop
  endfacet
  facet normal -0.000000 -0.500000 -0.866025
    outer loop
      vertex -9.525000 -24.193931 -7.500000
      vertex -0.470378 -22.015849 -8.757516
      vertex 9.525000 -24.193931 -7.500000
    endloop
  endfacet
  facet normal 0.000000 -0.500000 -0.866025
    outer loop
      vertex 3.011088 -21.036204 -9.323114
      vertex 9.525000 -24.193931 -7.500000
      vertex 1.390576 -21.846459 -8.855313
    endloop
  endfacet
  facet normal 0.000000 -0.500000 -0.866025
    outer loop
      vertex 4.110955 -19.725183 -10.080033
      vertex 9.525000 -24.193931 -7.500000
      vertex 3.011088 -21.036204 -9.323114
    endloop
  endfacet
  facet normal -0.000000 -0.500000 -0.866025
    outer loop
      vertex 4.500000 -18.140083 -10.995190
      vertex 9.525000 -24.193931 -7.500000
      vertex 4.110955 -19.725183 -10.080033
    endloop
  endfacet
  facet normal 0.000000 -0.500000 -0.866025
    outer loop
      vertex 4.110955 -16.554984 -11.910348
      vertex 9.525000 -24.193931 -7.500000
      vertex 4.500000 -18.140083 -10.995190
    endloop
  endfacet
  facet normal 0.000000 -0.500000 -0.866025
    outer loop
      vertex -6.118994 -3.361875 -19.527393
      vertex -4.925834 -1.865700 -20.391210
      vertex 4.110955 -16.554984 -11.910348
    endloop
  endfacet
  facet normal -0.000000 -0.500000 -0.866025
    outer loop
      vertex 1.390576 -14.433708 -13.135067
      vertex -6.118994 -3.361875 -19.527393
      vertex 3.011088 -15.243963 -12.667266
    endloop
  endfacet
  facet normal 0.000000 -0.500000 -0.866025
    outer loop
      vertex -6.118994 -3.361875 -19.527393
      vertex 4.110955 -16.554984 -11.910348
      vertex 3.011088 -15.243963 -12.667266
    endloop
  endfacet
  facet normal 0.000000 -0.500000 -0.866025
    outer loop
      vertex -0.470378 -14.264317 -13.232865
      vertex -7.843160 -4.192190 -19.048010
      vertex 1.390576 -14.433708 -13.135067
    endloop
  endfacet
  facet normal -0.000000 -0.500000 -0.866025
    outer loop
      vertex -3.640576 -15.849417 -12.317707
      vertex -9.525000 -4.192190 -19.048010
      vertex -2.250000 -14.765084 -12.943747
    endloop
  endfacet
  facet normal -0.000000 -0.500000 -0.866025
    outer loop
      vertex -4.401664 -17.329827 -11.462992
      vertex -9.525000 -4.192190 -19.048010
      vertex -3.640576 -15.849417 -12.317707
    endloop
  endfacet
  facet normal 0.000000 -0.500000 -0.866025
    outer loop
      vertex 1.390576 -21.846459 -8.855313
      vertex 9.525000 -24.193931 -7.500000
      vertex -0.470378 -22.015849 -8.757516
    endloop
  endfacet
  facet normal -1.000000 -0.000000 -0.000000
    outer loop
      vertex -9.525000 -24.193931 -7.500000
      vertex -9.525000 -8.644841 -7.989546
      vertex -9.525000 -4.192190 -19.048010
    endloop
  endfacet
  facet normal -1.000000 0.000000 0.000000
    outer loop
      vertex -9.525000 -24.193931 -7.500000
      vertex -9.525000 -8.533105 -7.500000
      vertex -9.525000 -8.644841 -7.989546
    endloop
  endfacet
  facet normal -1.000000 0.000000 -0.000000
    outer loop
      vertex -9.525000 -4.192190 -19.048010
      vertex -9.525000 -7.454544 -9.482132
      vertex -9.525000 -5.545456 -9.482132
    endloop
  endfacet
  facet normal -1.000000 0.000000 -0.000000
    outer loop
      vertex -9.525000 -5.545456 -9.482132
      vertex -9.525000 -4.355159 -7.989546
      vertex -9.525000 -4.192190 -19.048010
    endloop
  endfacet
  facet normal -1.000000 0.000000 -0.000000
    outer loop
      vertex -9.525000 -4.355159 -7.989546
      vertex -9.525000 -4.466895 -7.500000
      vertex -9.525000 -4.192190 -7.500000
    endloop
  endfacet
  facet normal -1.000000 0.000000 -0.000000
    outer loop
      vertex -9.525000 -4.355159 -7.989546
      vertex -9.525000 -4.192190 -7.500000
      vertex -9.525000 -4.192190 -19.048010
    endloop
  endfacet
  facet normal -1.000000 -0.000000 -0.000000
    outer loop
      vertex -9.525000 -7.454544 -9.482132
      vertex -9.525000 -4.192190 -19.048010
      vertex -9.525000 -8.644841 -7.989546
    endloop
  endfacet
  facet normal 0.000000 0.781832 0.623490
    outer loop
      vertex 9.525000 -7.454544 -9.482132
      vertex -9.525000 -7.454544 -9.482132
      vertex 9.525000 -8.644841 -7.989546
    endloop
  endfacet
  facet normal 0.000000 0.781832 0.623490
    outer loop
      vertex 9.525000 -8.644841 -7.989546
      vertex -9.525000 -7.454544 -9.482132
      vertex -9.525000 -8.644841 -7.989546
    endloop
  endfacet
  facet normal 0.000000 -0.781832 0.623490
    outer loop
      vertex -9.525000 -5.545456 -9.482132
      vertex 9.525000 -5.545456 -9.482132
      vertex 9.525000 -4.355159 -7.989546
    endloop
  endfacet
  facet normal 0.000000 -0.781832 0.623490
    outer loop
      vertex -9.525000 -4.355159 -7.989546
      vertex -9.525000 -5.545456 -9.482132
      vertex 9.525000 -4.355159 -7.989546
    endloop
  endfacet
  facet normal -0.433884 0.900969 0.000000
    outer loop
      vertex -6.118994 -3.361875 -2.206885
      vertex -6.118994 -3.361875 -19.527393
      vertex -7.843160 -4.192190 -1.727502
    endloop
  endfacet
  facet normal -0.433884 0.900969 0.000000
    outer loop
      vertex -7.843160 -4.192190 -1.727502
      vertex -6.118994 -3.361875 -19.527393
      vertex -7.843160 -4.192190 -19.048010
    endloop
  endfacet
  facet normal -0.781831 0.623490 0.000000
    outer loop
      vertex -4.925834 -1.865700 -3.070702
      vertex -4.925834 -1.865700 -20.391210
      vertex -6.118994 -3.361875 -2.206885
    endloop
  endfacet
  facet normal -0.781831 0.623490 0.000000
    outer loop
      vertex -6.118994 -3.361875 -2.206885
      vertex -4.925834 -1.865700 -20.391210
      vertex -6.118994 -3.361875 -19.527393
    endloop
  endfacet
  facet normal -0.974928 0.222521 0.000000
    outer loop
      vertex -4.500000 0.000000 -4.147864
      vertex -4.500000 0.000000 -21.468372
      vertex -4.925834 -1.865700 -3.070702
    endloop
  endfacet
  facet normal -0.974928 0.222521 0.000000
    outer loop
      vertex -4.925834 -1.865700 -3.070702
      vertex -4.500000 0.000000 -21.468372
      vertex -4.925834 -1.865700 -20.391210
    endloop
  endfacet
  facet normal -0.974928 -0.222521 0.000000
    outer loop
      vertex -4.500000 0.000000 -4.147864
      vertex -4.925834 1.865700 -3.070702
      vertex -4.500000 0.000000 -21.468372
    endloop
  endfacet
  facet normal -0.974928 -0.222521 0.000000
    outer loop
      vertex -4.500000 0.000000 -21.468372
      vertex -4.925834 1.865700 -3.070702
      vertex -4.925834 1.865700 -20.391210
    endloop
  endfacet
  facet normal -0.000000 -0.500000 0.866025
    outer loop
      vertex 9.525000 0.000000 -4.147864
      vertex -6.118994 3.361875 -2.206885
      vertex -4.925834 1.865700 -3.070702
    endloop
  endfacet
  facet normal -0.000000 -0.500000 0.866025
    outer loop
      vertex -7.843160 4.192190 -1.727502
      vertex -6.118994 3.361875 -2.206885
      vertex 9.525000 0.000000 -4.147864
    endloop
  endfacet
  facet normal -0.000000 -0.500000 0.866025
    outer loop
      vertex -4.500000 0.000000 -4.147864
      vertex 9.525000 0.000000 -4.147864
      vertex -4.925834 1.865700 -3.070702
    endloop
  endfacet
  facet normal 0.000000 -0.500000 0.866025
    outer loop
      vertex -4.401664 11.450339 2.462992
      vertex -9.525000 20.174693 7.500000
      vertex -7.843160 4.192190 -1.727502
    endloop
  endfacet
  facet normal 0.000000 -0.500000 0.866025
    outer loop
      vertex -9.525000 20.174693 7.500000
      vertex -9.525000 4.192190 -1.727502
      vertex -7.843160 4.192190 -1.727502
    endloop
  endfacet
  facet normal -0.000000 -0.500000 0.866025
    outer loop
      vertex -4.401664 9.829827 1.527389
      vertex -4.401664 11.450339 2.462992
      vertex -7.843160 4.192190 -1.727502
    endloop
  endfacet
  facet normal 0.000000 -0.500000 0.866025
    outer loop
      vertex -3.640576 12.930750 3.317708
      vertex -9.525000 20.174693 7.500000
      vertex -4.401664 11.450339 2.462992
    endloop
  endfacet
  facet normal 0.000000 -0.500000 0.866025
    outer loop
      vertex -2.250000 14.015083 3.943748
      vertex -9.525000 20.174693 7.500000
      vertex -3.640576 12.930750 3.317708
    endloop
  endfacet
  facet normal 0.000000 -0.500000 0.866025
    outer loop
      vertex -0.470378 14.515849 4.232865
      vertex 1.390576 14.346459 4.135068
      vertex 9.525000 20.174693 7.500000
    endloop
  endfacet
  facet normal 0.000000 -0.500000 0.866025
    outer loop
      vertex 9.525000 20.174693 7.500000
      vertex -9.525000 20.174693 7.500000
      vertex -2.250000 14.015083 3.943748
    endloop
  endfacet
  facet normal -0.000000 -0.500000 0.866025
    outer loop
      vertex -3.640576 8.349417 0.672674
      vertex -4.401664 9.829827 1.527389
      vertex -7.843160 4.192190 -1.727502
    endloop
  endfacet
  facet normal 0.000000 -0.500000 0.866025
    outer loop
      vertex 4.110955 12.225183 2.910348
      vertex 9.525000 20.174693 7.500000
      vertex 3.011088 13.536204 3.667267
    endloop
  endfacet
  facet normal -0.000000 -0.500000 0.866025
    outer loop
      vertex 9.525000 0.000000 -4.147864
      vertex 9.525000 20.174693 7.500000
      vertex 4.110955 12.225183 2.910348
    endloop
  endfacet
  facet normal -0.000000 -0.500000 0.866025
    outer loop
      vertex 1.390576 6.933708 -0.144686
      vertex -0.470378 6.764317 -0.242484
      vertex -7.843160 4.192190 -1.727502
    endloop
  endfacet
  facet normal 0.000000 -0.500000 0.866025
    outer loop
      vertex 9.525000 0.000000 -4.147864
      vertex 4.110955 12.225183 2.910348
      vertex 4.500000 10.640083 1.995191
    endloop
  endfacet
  facet normal 0.000000 -0.500000 0.866025
    outer loop
      vertex -2.250000 7.265084 0.046634
      vertex -3.640576 8.349417 0.672674
      vertex -7.843160 4.192190 -1.727502
    endloop
  endfacet
  facet normal -0.000000 -0.500000 0.866025
    outer loop
      vertex -0.470378 6.764317 -0.242484
      vertex -2.250000 7.265084 0.046634
      vertex -7.843160 4.192190 -1.727502
    endloop
  endfacet
  facet normal 0.000000 -0.500000 0.866025
    outer loop
      vertex 9.525000 0.000000 -4.147864
      vertex 4.110955 9.054984 1.080033
      vertex 3.011088 7.743963 0.323115
    endloop
  endfacet
  facet normal -0.000000 -0.500000 0.866025
    outer loop
      vertex 9.525000 0.000000 -4.147864
      vertex 1.390576 6.933708 -0.144686
      vertex -7.843160 4.192190 -1.727502
    endloop
  endfacet
  facet normal -0.000000 -0.500000 0.866025
    outer loop
      vertex 9.525000 0.000000 -4.147864
      vertex 3.011088 7.743963 0.323115
      vertex 1.390576 6.933708 -0.144686
    endloop
  endfacet
  facet normal 0.000000 -0.500000 0.866025
    outer loop
      vertex 4.500000 10.640083 1.995191
      vertex 4.110955 9.054984 1.080033
      vertex 9.525000 0.000000 -4.147864
    endloop
  endfacet
  facet normal -0.000000 -0.500000 0.866025
    outer loop
      vertex -2.250000 14.015083 3.943748
      vertex -0.470378 14.515849 4.232865
      vertex 9.525000 20.174693 7.500000
    endloop
  endfacet
  facet normal -0.000000 -0.500000 0.866025
    outer loop
      vertex 1.390576 14.346459 4.135068
      vertex 3.011088 13.536204 3.667267
      vertex 9.525000 20.174693 7.500000
    endloop
  endfacet
  facet normal 0.913545 -0.352244 0.203368
    outer loop
      vertex -3.640576 -15.849417 -12.317707
      vertex -3.640576 -8.349417 0.672674
      vertex -4.401664 -9.829827 1.527389
    endloop
  endfacet
  facet normal 0.913545 -0.352244 0.203368
    outer loop
      vertex -4.401664 -17.329827 -11.462992
      vertex -3.640576 -15.849417 -12.317707
      vertex -4.401664 -9.829827 1.527389
    endloop
  endfacet
  facet normal 1.000000 0.000000 0.000000
    outer loop
      vertex -4.401664 -17.329827 -11.462992
      vertex -4.401664 -9.829827 1.527389
      vertex -4.401664 -11.450339 2.462992
    endloop
  endfacet
  facet normal 1.000000 0.000000 0.000000
    outer loop
      vertex -4.401664 -18.950339 -10.527389
      vertex -4.401664 -17.329827 -11.462992
      vertex -4.401664 -11.450339 2.462992
    endloop
  endfacet
  facet normal 0.913545 0.352244 -0.203368
    outer loop
      vertex -4.401664 -11.450339 2.462992
      vertex -3.640576 -12.930750 3.317708
      vertex -3.640576 -20.430750 -9.672673
    endloop
  endfacet
  facet normal 0.913545 0.352244 -0.203368
    outer loop
      vertex -4.401664 -18.950339 -10.527389
      vertex -4.401664 -11.450339 2.462992
      vertex -3.640576 -20.430750 -9.672673
    endloop
  endfacet
  facet normal 0.669131 0.643582 -0.371572
    outer loop
      vertex -3.640576 -12.930750 3.317708
      vertex -2.250000 -14.015083 3.943748
      vertex -2.250000 -21.515083 -9.046633
    endloop
  endfacet
  facet normal 0.669131 0.643582 -0.371572
    outer loop
      vertex -3.640576 -20.430750 -9.672673
      vertex -3.640576 -12.930750 3.317708
      vertex -2.250000 -21.515083 -9.046633
    endloop
  endfacet
  facet normal 0.309017 0.823639 -0.475528
    outer loop
      vertex -0.470378 -14.515849 4.232865
      vertex -0.470378 -22.015849 -8.757516
      vertex -2.250000 -14.015083 3.943748
    endloop
  endfacet
  facet normal 0.309017 0.823639 -0.475528
    outer loop
      vertex -2.250000 -14.015083 3.943748
      vertex -0.470378 -22.015849 -8.757516
      vertex -2.250000 -21.515083 -9.046633
    endloop
  endfacet
  facet normal -0.104529 0.861281 -0.497261
    outer loop
      vertex 1.390576 -14.346459 4.135068
      vertex 1.390576 -21.846459 -8.855313
      vertex -0.470378 -14.515849 4.232865
    endloop
  endfacet
  facet normal -0.104529 0.861281 -0.497261
    outer loop
      vertex -0.470378 -14.515849 4.232865
      vertex 1.390576 -21.846459 -8.855313
      vertex -0.470378 -22.015849 -8.757516
    endloop
  endfacet
  facet normal -0.500000 0.750000 -0.433013
    outer loop
      vertex 3.011088 -13.536204 3.667267
      vertex 3.011088 -21.036204 -9.323114
      vertex 1.390576 -14.346459 4.135068
    endloop
  endfacet
  facet normal -0.500000 0.750000 -0.433013
    outer loop
      vertex 1.390576 -14.346459 4.135068
      vertex 3.011088 -21.036204 -9.323114
      vertex 1.390576 -21.846459 -8.855313
    endloop
  endfacet
  facet normal -0.809017 0.509037 -0.293893
    outer loop
      vertex 4.110955 -12.225183 2.910348
      vertex 4.110955 -19.725183 -10.080033
      vertex 3.011088 -13.536204 3.667267
    endloop
  endfacet
  facet normal -0.809017 0.509037 -0.293893
    outer loop
      vertex 3.011088 -13.536204 3.667267
      vertex 4.110955 -19.725183 -10.080033
      vertex 3.011088 -21.036204 -9.323114
    endloop
  endfacet
  facet normal -0.978148 0.180057 -0.103956
    outer loop
      vertex 4.500000 -10.640083 1.995191
      vertex 4.500000 -18.140083 -10.995190
      vertex 4.110955 -12.225183 2.910348
    endloop
  endfacet
  facet normal -0.978148 0.180057 -0.103956
    outer loop
      vertex 4.110955 -12.225183 2.910348
      vertex 4.500000 -18.140083 -10.995190
      vertex 4.110955 -19.725183 -10.080033
    endloop
  endfacet
  facet normal -0.978148 -0.180057 0.103956
    outer loop
      vertex 4.500000 -10.640083 1.995191
      vertex 4.110955 -9.054984 1.080033
      vertex 4.500000 -18.140083 -10.995190
    endloop
  endfacet
  facet normal -0.978148 -0.180057 0.103956
    outer loop
      vertex 4.500000 -18.140083 -10.995190
      vertex 4.110955 -9.054984 1.080033
      vertex 4.110955 -16.554984 -11.910348
    endloop
  endfacet
  facet normal -0.809017 -0.509037 0.293893
    outer loop
      vertex 4.110955 -9.054984 1.080033
      vertex 3.011088 -7.743963 0.323115
      vertex 4.110955 -16.554984 -11.910348
    endloop
  endfacet
  facet normal -0.809017 -0.509037 0.293893
    outer loop
      vertex 4.110955 -16.554984 -11.910348
      vertex 3.011088 -7.743963 0.323115
      vertex 3.011088 -15.243963 -12.667266
    endloop
  endfacet
  facet normal -0.500000 -0.750000 0.433013
    outer loop
      vertex 3.011088 -15.243963 -12.667266
      vertex 3.011088 -7.743963 0.323115
      vertex 1.390576 -6.933708 -0.144686
    endloop
  endfacet
  facet normal -0.500000 -0.750000 0.433013
    outer loop
      vertex 1.390576 -14.433708 -13.135067
      vertex 3.011088 -15.243963 -12.667266
      vertex 1.390576 -6.933708 -0.144686
    endloop
  endfacet
  facet normal -0.104529 -0.861281 0.497261
    outer loop
      vertex 1.390576 -14.433708 -13.135067
      vertex 1.390576 -6.933708 -0.144686
      vertex -0.470378 -6.764317 -0.242484
    endloop
  endfacet
  facet normal -0.104529 -0.861281 0.497261
    outer loop
      vertex -0.470378 -14.264317 -13.232865
      vertex 1.390576 -14.433708 -13.135067
      vertex -0.470378 -6.764317 -0.242484
    endloop
  endfacet
  facet normal 0.309017 -0.823639 0.475528
    outer loop
      vertex -0.470378 -14.264317 -13.232865
      vertex -0.470378 -6.764317 -0.242484
      vertex -2.250000 -7.265084 0.046634
    endloop
  endfacet
  facet normal 0.309017 -0.823639 0.475528
    outer loop
      vertex -2.250000 -14.765084 -12.943747
      vertex -0.470378 -14.264317 -13.232865
      vertex -2.250000 -7.265084 0.046634
    endloop
  endfacet
  facet normal 0.669131 -0.643582 0.371572
    outer loop
      vertex -2.250000 -14.765084 -12.943747
      vertex -2.250000 -7.265084 0.046634
      vertex -3.640576 -8.349417 0.672674
    endloop
  endfacet
  facet normal 0.669131 -0.643582 0.371572
    outer loop
      vertex -3.640576 -15.849417 -12.317707
      vertex -2.250000 -14.765084 -12.943747
      vertex -3.640576 -8.349417 0.672674
    endloop
  endfacet
  facet normal 0.000000 -0.000000 1.000000
    outer loop
      vertex -9.525000 97.500000 7.500000
      vertex -9.525000 20.174693 7.500000
      vertex 9.525000 20.174693 7.500000
    endloop
  endfacet
  facet normal 0.000000 0.000000 1.000000
    outer loop
      vertex 9.525000 97.500000 7.500000
      vertex -9.525000 97.500000 7.500000
      vertex 9.525000 20.174693 7.500000
    endloop
  endfacet
  facet normal 0.000000 1.000000 0.000000
    outer loop
      vertex -9.525000 97.500000 -7.500000
      vertex -9.525000 97.500000 7.500000
      vertex 9.525000 97.500000 -7.500000
    endloop
  endfacet
  facet normal 0.000000 1.000000 0.000000
    outer loop
      vertex 9.525000 97.500000 -7.500000
      vertex -9.525000 97.500000 7.500000
      vertex 9.525000 97.500000 7.500000
    endloop
  endfacet
  facet normal 0.000000 -0.000000 -1.000000
    outer loop
      vertex -9.525000 24.193931 -7.500000
      vertex -9.525000 97.500000 -7.500000
      vertex 9.525000 97.500000 -7.500000
    endloop
  endfacet
  facet normal 0.000000 0.000000 -0.000000
    outer loop
      vertex -9.525000 8.533105 -7.500000
      vertex -9.525000 97.500000 -7.500000
      vertex -9.525000 24.193931 -7.500000
    endloop
  endfacet
  facet normal -0.000000 0.000000 -1.000000
    outer loop
      vertex -9.525000 24.193931 -7.500000
      vertex 9.525000 97.500000 -7.500000
      vertex 9.525000 24.193931 -7.500000
    endloop
  endfacet
  facet normal 0.000000 0.500000 -0.866025
    outer loop
      vertex 4.110955 16.554984 -11.910348
      vertex 9.525000 24.193931 -7.500000
      vertex 9.525000 0.000000 -21.468372
    endloop
  endfacet
  facet normal 0.000000 0.500000 -0.866025
    outer loop
      vertex -4.925834 1.865700 -20.391210
      vertex 9.525000 0.000000 -21.468372
      vertex -4.500000 0.000000 -21.468372
    endloop
  endfacet
  facet normal 0.000000 0.500000 -0.866025
    outer loop
      vertex -6.118994 3.361875 -19.527393
      vertex 9.525000 0.000000 -21.468372
      vertex -4.925834 1.865700 -20.391210
    endloop
  endfacet
  facet normal 0.000000 0.500000 -0.866025
    outer loop
      vertex 1.390576 14.433708 -13.135067
      vertex -9.525000 4.192190 -19.048010
      vertex -0.470378 14.264317 -13.232865
    endloop
  endfacet
  facet normal 0.000000 0.500000 -0.866025
    outer loop
      vertex 1.390576 14.433708 -13.135067
      vertex -7.843160 4.192190 -19.048010
      vertex -9.525000 4.192190 -19.048010
    endloop
  endfacet
  facet normal 0.000000 0.500000 -0.866025
    outer loop
      vertex -9.525000 24.193931 -7.500000
      vertex -4.401664 18.950339 -10.527389
      vertex -9.525000 4.192190 -19.048010
    endloop
  endfacet
  facet normal 0.000000 0.500000 -0.866025
    outer loop
      vertex 1.390576 21.846459 -8.855313
      vertex 9.525000 24.193931 -7.500000
      vertex 3.011088 21.036204 -9.323114
    endloop
  endfacet
  facet normal -0.000000 0.500000 -0.866025
    outer loop
      vertex -4.401664 18.950339 -10.527389
      vertex -4.401664 17.329827 -11.462992
      vertex -9.525000 4.192190 -19.048010
    endloop
  endfacet
  facet normal -0.000000 0.500000 -0.866025
    outer loop
      vertex -4.401664 17.329827 -11.462992
      vertex -3.640576 15.849417 -12.317707
      vertex -9.525000 4.192190 -19.048010
    endloop
  endfacet
  facet normal -0.000000 0.500000 -0.866025
    outer loop
      vertex -3.640576 15.849417 -12.317707
      vertex -2.250000 14.765084 -12.943747
      vertex -9.525000 4.192190 -19.048010
    endloop
  endfacet
  facet normal 0.000000 0.500000 -0.866025
    outer loop
      vertex 3.011088 21.036204 -9.323114
      vertex 9.525000 24.193931 -7.500000
      vertex 4.110955 19.725183 -10.080033
    endloop
  endfacet
  facet normal 0.000000 0.500000 -0.866025
    outer loop
      vertex -2.250000 14.765084 -12.943747
      vertex -0.470378 14.264317 -13.232865
      vertex -9.525000 4.192190 -19.048010
    endloop
  endfacet
  facet normal 0.000000 0.500000 -0.866025
    outer loop
      vertex 4.500000 18.140083 -10.995190
      vertex 9.525000 24.193931 -7.500000
      vertex 4.110955 16.554984 -11.910348
    endloop
  endfacet
  facet normal 0.000000 0.500000 -0.866025
    outer loop
      vertex -7.843160 4.192190 -19.048010
      vertex 1.390576 14.433708 -13.135067
      vertex 9.525000 0.000000 -21.468372
    endloop
  endfacet
  facet normal -0.000000 0.500000 -0.866025
    outer loop
      vertex 4.110955 19.725183 -10.080033
      vertex 9.525000 24.193931 -7.500000
      vertex 4.500000 18.140083 -10.995190
    endloop
  endfacet
  facet normal -0.000000 0.500000 -0.866025
    outer loop
      vertex 1.390576 14.433708 -13.135067
      vertex 3.011088 15.243963 -12.667266
      vertex 9.525000 0.000000 -21.468372
    endloop
  endfacet
  facet normal 0.000000 0.500000 -0.866025
    outer loop
      vertex 3.011088 15.243963 -12.667266
      vertex 4.110955 16.554984 -11.910348
      vertex 9.525000 0.000000 -21.468372
    endloop
  endfacet
  facet normal 0.000000 0.500000 -0.866025
    outer loop
      vertex -9.525000 24.193931 -7.500000
      vertex 9.525000 24.193931 -7.500000
      vertex 1.390576 21.846459 -8.855313
    endloop
  endfacet
  facet normal 0.000000 0.500000 -0.866025
    outer loop
      vertex -9.525000 24.193931 -7.500000
      vertex 1.390576 21.846459 -8.855313
      vertex -0.470378 22.015849 -8.757516
    endloop
  endfacet
  facet normal -0.000000 0.500000 -0.866025
    outer loop
      vertex -9.525000 24.193931 -7.500000
      vertex -0.470378 22.015849 -8.757516
      vertex -2.250000 21.515083 -9.046633
    endloop
  endfacet
  facet normal -0.000000 0.500000 -0.866025
    outer loop
      vertex -9.525000 24.193931 -7.500000
      vertex -2.250000 21.515083 -9.046633
      vertex -3.640576 20.430750 -9.672673
    endloop
  endfacet
  facet normal 0.000000 0.500000 -0.866025
    outer loop
      vertex -9.525000 24.193931 -7.500000
      vertex -3.640576 20.430750 -9.672673
      vertex -4.401664 18.950339 -10.527389
    endloop
  endfacet
  facet normal 0.000000 0.500000 -0.866025
    outer loop
      vertex -7.843160 4.192190 -19.048010
      vertex 9.525000 0.000000 -21.468372
      vertex -6.118994 3.361875 -19.527393
    endloop
  endfacet
  facet normal 0.000000 0.000000 1.000000
    outer loop
      vertex 9.525000 -7.454544 -9.482132
      vertex 9.525000 -5.545456 -9.482132
      vertex -9.525000 -5.545456 -9.482132
    endloop
  endfacet
  facet normal 0.000000 0.000000 1.000000
    outer loop
      vertex -9.525000 -7.454544 -9.482132
      vertex 9.525000 -7.454544 -9.482132
      vertex -9.525000 -5.545456 -9.482132
    endloop
  endfacet
  facet normal -0.000000 0.974928 -0.222521
    outer loop
      vertex 9.525000 4.779971 -6.128322
      vertex 9.525000 4.355159 -7.989546
      vertex -9.525000 4.779971 -6.128322
    endloop
  endfacet
  facet normal -0.000000 0.974928 -0.222521
    outer loop
      vertex -9.525000 4.466895 -7.500000
      vertex 9.525000 4.355159 -7.989546
      vertex -9.525000 4.355159 -7.989546
    endloop
  endfacet
  facet normal -0.000000 0.974928 -0.222521
    outer loop
      vertex -9.525000 4.779971 -6.128322
      vertex 9.525000 4.355159 -7.989546
      vertex -9.525000 4.466895 -7.500000
    endloop
  endfacet
  facet normal 0.000000 0.781832 0.623490
    outer loop
      vertex 9.525000 5.545456 -9.482132
      vertex -9.525000 5.545456 -9.482132
      vertex 9.525000 4.355159 -7.989546
    endloop
  endfacet
  facet normal 0.000000 0.781832 0.623490
    outer loop
      vertex 9.525000 4.355159 -7.989546
      vertex -9.525000 5.545456 -9.482132
      vertex -9.525000 4.355159 -7.989546
    endloop
  endfacet
  facet normal 0.000000 0.000000 1.000000
    outer loop
      vertex 9.525000 5.545456 -9.482132
      vertex 9.525000 7.454544 -9.482132
      vertex -9.525000 7.454544 -9.482132
    endloop
  endfacet
  facet normal 0.000000 0.000000 1.000000
    outer loop
      vertex -9.525000 5.545456 -9.482132
      vertex 9.525000 5.545456 -9.482132
      vertex -9.525000 7.454544 -9.482132
    endloop
  endfacet
  facet normal 0.000000 -0.781832 0.623490
    outer loop
      vertex -9.525000 7.454544 -9.482132
      vertex 9.525000 7.454544 -9.482132
      vertex 9.525000 8.644841 -7.989546
    endloop
  endfacet
  facet normal 0.000000 -0.781832 0.623490
    outer loop
      vertex -9.525000 8.644841 -7.989546
      vertex -9.525000 7.454544 -9.482132
      vertex 9.525000 8.644841 -7.989546
    endloop
  endfacet
  facet normal -0.000000 -0.974928 -0.222521
    outer loop
      vertex 9.525000 8.644841 -7.989546
      vertex -9.525000 8.533105 -7.500000
      vertex -9.525000 8.644841 -7.989546
    endloop
  endfacet
  facet normal -0.000000 -0.974928 -0.222521
    outer loop
      vertex 9.525000 8.220029 -6.128322
      vertex -9.525000 8.533105 -7.500000
      vertex 9.525000 8.644841 -7.989546
    endloop
  endfacet
  facet normal -0.000000 -0.974928 -0.222521
    outer loop
      vertex -9.525000 8.220029 -6.128322
      vertex -9.525000 8.533105 -7.500000
      vertex 9.525000 8.220029 -6.128322
    endloop
  endfacet
  facet normal -0.000000 -0.433884 -0.900969
    outer loop
      vertex 9.525000 8.220029 -6.128322
      vertex 9.525000 6.500000 -5.300000
      vertex -9.525000 8.220029 -6.128322
    endloop
  endfacet
  facet normal -0.000000 -0.433884 -0.900969
    outer loop
      vertex -9.525000 8.220029 -6.128322
      vertex 9.525000 6.500000 -5.300000
      vertex -9.525000 6.500000 -5.300000
    endloop
  endfacet
  facet normal -0.000000 0.433884 -0.900969
    outer loop
      vertex 9.525000 6.500000 -5.300000
      vertex 9.525000 4.779971 -6.128322
      vertex -9.525000 6.500000 -5.300000
    endloop
  endfacet
  facet normal -0.000000 0.433884 -0.900969
    outer loop
      vertex -9.525000 6.500000 -5.300000
      vertex 9.525000 4.779971 -6.128322
      vertex -9.525000 4.779971 -6.128322
    endloop
  endfacet
  facet normal -0.000000 0.994522 0.104529
    outer loop
      vertex 9.525000 85.720246 -1.390576
      vertex -9.525000 85.720246 -1.390576
      vertex 9.525000 85.524651 0.470378
    endloop
  endfacet
  facet normal -0.000000 0.994522 0.104529
    outer loop
      vertex 9.525000 85.524651 0.470378
      vertex -9.525000 85.720246 -1.390576
      vertex -9.525000 85.524651 0.470378
    endloop
  endfacet
  facet normal -0.000000 0.866026 0.500000
    outer loop
      vertex 9.525000 86.655848 -3.011088
      vertex -9.525000 86.655848 -3.011088
      vertex 9.525000 85.720246 -1.390576
    endloop
  endfacet
  facet normal -0.000000 0.866026 0.500000
    outer loop
      vertex 9.525000 85.720246 -1.390576
      vertex -9.525000 86.655848 -3.011088
      vertex -9.525000 85.720246 -1.390576
    endloop
  endfacet
  facet normal -0.000000 0.587785 0.809017
    outer loop
      vertex 9.525000 86.655848 -3.011088
      vertex 9.525000 88.169685 -4.110955
      vertex -9.525000 88.169685 -4.110955
    endloop
  endfacet
  facet normal -0.000000 0.587785 0.809017
    outer loop
      vertex -9.525000 86.655848 -3.011088
      vertex 9.525000 86.655848 -3.011088
      vertex -9.525000 88.169685 -4.110955
    endloop
  endfacet
  facet normal -0.000000 0.207911 0.978148
    outer loop
      vertex 9.525000 88.169685 -4.110955
      vertex 9.525000 90.000000 -4.500000
      vertex -9.525000 90.000000 -4.500000
    endloop
  endfacet
  facet normal -0.000000 0.207911 0.978148
    outer loop
      vertex -9.525000 88.169685 -4.110955
      vertex 9.525000 88.169685 -4.110955
      vertex -9.525000 90.000000 -4.500000
    endloop
  endfacet
  facet normal -0.000000 -0.207911 0.978148
    outer loop
      vertex 9.525000 90.000000 -4.500000
      vertex 9.525000 91.830315 -4.110955
      vertex -9.525000 91.830315 -4.110955
    endloop
  endfacet
  facet normal -0.000000 -0.207911 0.978148
    outer loop
      vertex -9.525000 90.000000 -4.500000
      vertex 9.525000 90.000000 -4.500000
      vertex -9.525000 91.830315 -4.110955
    endloop
  endfacet
  facet normal -0.000000 -0.587785 0.809017
    outer loop
      vertex 9.525000 91.830315 -4.110955
      vertex 9.525000 93.344152 -3.011088
      vertex -9.525000 93.344152 -3.011088
    endloop
  endfacet
  facet normal -0.000000 -0.587785 0.809017
    outer loop
      vertex -9.525000 91.830315 -4.110955
      vertex 9.525000 91.830315 -4.110955
      vertex -9.525000 93.344152 -3.011088
    endloop
  endfacet
  facet normal -0.000000 -0.866026 0.500000
    outer loop
      vertex 9.525000 93.344152 -3.011088
      vertex 9.525000 94.279754 -1.390576
      vertex -9.525000 94.279754 -1.390576
    endloop
  endfacet
  facet normal -0.000000 -0.866026 0.500000
    outer loop
      vertex -9.525000 93.344152 -3.011088
      vertex 9.525000 93.344152 -3.011088
      vertex -9.525000 94.279754 -1.390576
    endloop
  endfacet
  facet normal -0.000000 -0.994522 0.104529
    outer loop
      vertex 9.525000 94.279754 -1.390576
      vertex 9.525000 94.475349 0.470378
      vertex -9.525000 94.475349 0.470378
    endloop
  endfacet
  facet normal -0.000000 -0.994522 0.104529
    outer loop
      vertex -9.525000 94.279754 -1.390576
      vertex 9.525000 94.279754 -1.390576
      vertex -9.525000 94.475349 0.470378
    endloop
  endfacet
  facet normal 0.000000 -0.951056 -0.309017
    outer loop
      vertex -9.525000 94.475349 0.470378
      vertex 9.525000 94.475349 0.470378
      vertex 9.525000 93.897114 2.250000
    endloop
  endfacet
  facet normal 0.000000 -0.951056 -0.309017
    outer loop
      vertex -9.525000 93.897114 2.250000
      vertex -9.525000 94.475349 0.470378
      vertex 9.525000 93.897114 2.250000
    endloop
  endfacet
  facet normal 0.000000 -0.743145 -0.669131
    outer loop
      vertex -9.525000 93.897114 2.250000
      vertex 9.525000 93.897114 2.250000
      vertex 9.525000 92.645034 3.640576
    endloop
  endfacet
  facet normal 0.000000 -0.743145 -0.669131
    outer loop
      vertex -9.525000 92.645034 3.640576
      vertex -9.525000 93.897114 2.250000
      vertex 9.525000 92.645034 3.640576
    endloop
  endfacet
  facet normal 0.000000 -0.406737 -0.913545
    outer loop
      vertex 9.525000 92.645034 3.640576
      vertex 9.525000 90.935603 4.401664
      vertex -9.525000 92.645034 3.640576
    endloop
  endfacet
  facet normal 0.000000 -0.406737 -0.913545
    outer loop
      vertex -9.525000 92.645034 3.640576
      vertex 9.525000 90.935603 4.401664
      vertex -9.525000 90.935603 4.401664
    endloop
  endfacet
  facet normal 0.000000 0.000000 -1.000000
    outer loop
      vertex 9.525000 90.935603 4.401664
      vertex 9.525000 89.064397 4.401664
      vertex -9.525000 90.935603 4.401664
    endloop
  endfacet
  facet normal 0.000000 0.000000 -1.000000
    outer loop
      vertex -9.525000 90.935603 4.401664
      vertex 9.525000 89.064397 4.401664
      vertex -9.525000 89.064397 4.401664
    endloop
  endfacet
  facet normal 0.000000 0.406737 -0.913545
    outer loop
      vertex 9.525000 89.064397 4.401664
      vertex 9.525000 87.354966 3.640576
      vertex -9.525000 89.064397 4.401664
    endloop
  endfacet
  facet normal 0.000000 0.406737 -0.913545
    outer loop
      vertex -9.525000 89.064397 4.401664
      vertex 9.525000 87.354966 3.640576
      vertex -9.525000 87.354966 3.640576
    endloop
  endfacet
  facet normal 0.000000 0.743145 -0.669131
    outer loop
      vertex 9.525000 87.354966 3.640576
      vertex 9.525000 86.102886 2.250000
      vertex -9.525000 87.354966 3.640576
    endloop
  endfacet
  facet normal 0.000000 0.743145 -0.669131
    outer loop
      vertex -9.525000 87.354966 3.640576
      vertex 9.525000 86.102886 2.250000
      vertex -9.525000 86.102886 2.250000
    endloop
  endfacet
  facet normal 0.000000 0.951056 -0.309017
    outer loop
      vertex 9.525000 86.102886 2.250000
      vertex 9.525000 85.524651 0.470378
      vertex -9.525000 86.102886 2.250000
    endloop
  endfacet
  facet normal 0.000000 0.951056 -0.309017
    outer loop
      vertex -9.525000 86.102886 2.250000
      vertex 9.525000 85.524651 0.470378
      vertex -9.525000 85.524651 0.470378
    endloop
  endfacet
  facet normal -0.781831 -0.623490 0.000000
    outer loop
      vertex -4.925834 1.865700 -3.070702
      vertex -6.118994 3.361875 -2.206885
      vertex -4.925834 1.865700 -20.391210
    endloop
  endfacet
  facet normal -0.781831 -0.623490 0.000000
    outer loop
      vertex -4.925834 1.865700 -20.391210
      vertex -6.118994 3.361875 -2.206885
      vertex -6.118994 3.361875 -19.527393
    endloop
  endfacet
  facet normal -0.433884 -0.900969 -0.000000
    outer loop
      vertex -6.118994 3.361875 -19.527393
      vertex -6.118994 3.361875 -2.206885
      vertex -7.843160 4.192190 -1.727502
    endloop
  endfacet
  facet normal -0.433884 -0.900969 -0.000000
    outer loop
      vertex -7.843160 4.192190 -19.048010
      vertex -6.118994 3.361875 -19.527393
      vertex -7.843160 4.192190 -1.727502
    endloop
  endfacet
  facet normal 0.000000 -1.000000 0.000000
    outer loop
      vertex -9.525000 4.192190 -7.500000
      vertex -9.525000 4.192190 -19.048010
      vertex -7.843160 4.192190 -19.048010
    endloop
  endfacet
  facet normal -0.000000 -1.000000 0.000000
    outer loop
      vertex -9.525000 4.192190 -1.727502
      vertex -9.525000 4.192190 -7.500000
      vertex -7.843160 4.192190 -1.727502
    endloop
  endfacet
  facet normal 0.000000 -1.000000 0.000000
    outer loop
      vertex -7.843160 4.192190 -1.727502
      vertex -9.525000 4.192190 -7.500000
      vertex -7.843160 4.192190 -19.048010
    endloop
  endfacet
  facet normal -1.000000 -0.000000 -0.000000
    outer loop
      vertex -9.525000 4.192190 -7.500000
      vertex -9.525000 4.192190 -1.727502
      vertex -9.525000 4.466895 -7.500000
    endloop
  endfacet
  facet normal -1.000000 0.000000 -0.000000
    outer loop
      vertex -9.525000 6.500000 -5.300000
      vertex -9.525000 4.192190 -1.727502
      vertex -9.525000 20.174693 7.500000
    endloop
  endfacet
  facet normal -1.000000 0.000000 0.000000
    outer loop
      vertex -9.525000 8.220029 -6.128322
      vertex -9.525000 20.174693 7.500000
      vertex -9.525000 97.500000 7.500000
    endloop
  endfacet
  facet normal -1.000000 -0.000000 0.000000
    outer loop
      vertex -9.525000 94.279754 -1.390576
      vertex -9.525000 97.500000 7.500000
      vertex -9.525000 97.500000 -7.500000
    endloop
  endfacet
  facet normal -1.000000 -0.000000 0.000000
    outer loop
      vertex -9.525000 6.500000 -5.300000
      vertex -9.525000 20.174693 7.500000
      vertex -9.525000 8.220029 -6.128322
    endloop
  endfacet
  facet normal -1.000000 0.000000 -0.000000
    outer loop
      vertex -9.525000 4.779971 -6.128322
      vertex -9.525000 4.192190 -1.727502
      vertex -9.525000 6.500000 -5.300000
    endloop
  endfacet
  facet normal -1.000000 0.000000 0.000000
    outer loop
      vertex -9.525000 91.830315 -4.110955
      vertex -9.525000 97.500000 -7.500000
      vertex -9.525000 90.000000 -4.500000
    endloop
  endfacet
  facet normal -1.000000 0.000000 -0.000000
    outer loop
      vertex -9.525000 4.466895 -7.500000
      vertex -9.525000 4.192190 -1.727502
      vertex -9.525000 4.779971 -6.128322
    endloop
  endfacet
  facet normal -1.000000 0.000000 -0.000000
    outer loop
      vertex -9.525000 87.354966 3.640576
      vertex -9.525000 8.533105 -7.500000
      vertex -9.525000 89.064397 4.401664
    endloop
  endfacet
  facet normal -1.000000 0.000000 0.000000
    outer loop
      vertex -9.525000 8.533105 -7.500000
      vertex -9.525000 85.524651 0.470378
      vertex -9.525000 85.720246 -1.390576
    endloop
  endfacet
  facet normal -1.000000 0.000000 0.000000
    outer loop
      vertex -9.525000 8.533105 -7.500000
      vertex -9.525000 85.720246 -1.390576
      vertex -9.525000 86.655848 -3.011088
    endloop
  endfacet
  facet normal -1.000000 0.000000 0.000000
    outer loop
      vertex -9.525000 8.533105 -7.500000
      vertex -9.525000 86.655848 -3.011088
      vertex -9.525000 88.169685 -4.110955
    endloop
  endfacet
  facet normal -1.000000 -0.000000 0.000000
    outer loop
      vertex -9.525000 8.533105 -7.500000
      vertex -9.525000 88.169685 -4.110955
      vertex -9.525000 97.500000 -7.500000
    endloop
  endfacet
  facet normal -1.000000 0.000000 0.000000
    outer loop
      vertex -9.525000 88.169685 -4.110955
      vertex -9.525000 90.000000 -4.500000
      vertex -9.525000 97.500000 -7.500000
    endloop
  endfacet
  facet normal -1.000000 0.000000 0.000000
    outer loop
      vertex -9.525000 93.344152 -3.011088
      vertex -9.525000 97.500000 -7.500000
      vertex -9.525000 91.830315 -4.110955
    endloop
  endfacet
  facet normal -1.000000 -0.000000 0.000000
    outer loop
      vertex -9.525000 90.935603 4.401664
      vertex -9.525000 97.500000 7.500000
      vertex -9.525000 92.645034 3.640576
    endloop
  endfacet
  facet normal -1.000000 -0.000000 0.000000
    outer loop
      vertex -9.525000 94.475349 0.470378
      vertex -9.525000 97.500000 7.500000
      vertex -9.525000 94.279754 -1.390576
    endloop
  endfacet
  facet normal -1.000000 -0.000000 0.000000
    outer loop
      vertex -9.525000 93.344152 -3.011088
      vertex -9.525000 94.279754 -1.390576
      vertex -9.525000 97.500000 -7.500000
    endloop
  endfacet
  facet normal -1.000000 -0.000000 0.000000
    outer loop
      vertex -9.525000 93.897114 2.250000
      vertex -9.525000 97.500000 7.500000
      vertex -9.525000 94.475349 0.470378
    endloop
  endfacet
  facet normal -1.000000 -0.000000 0.000000
    outer loop
      vertex -9.525000 92.645034 3.640576
      vertex -9.525000 97.500000 7.500000
      vertex -9.525000 93.897114 2.250000
    endloop
  endfacet
  facet normal -1.000000 -0.000000 0.000000
    outer loop
      vertex -9.525000 89.064397 4.401664
      vertex -9.525000 97.500000 7.500000
      vertex -9.525000 90.935603 4.401664
    endloop
  endfacet
  facet normal -1.000000 0.000000 0.000000
    outer loop
      vertex -9.525000 8.533105 -7.500000
      vertex -9.525000 97.500000 7.500000
      vertex -9.525000 89.064397 4.401664
    endloop
  endfacet
  facet normal -1.000000 0.000000 0.000000
    outer loop
      vertex -9.525000 8.533105 -7.500000
      vertex -9.525000 87.354966 3.640576
      vertex -9.525000 86.102886 2.250000
    endloop
  endfacet
  facet normal -1.000000 0.000000 0.000000
    outer loop
      vertex -9.525000 8.533105 -7.500000
      vertex -9.525000 86.102886 2.250000
      vertex -9.525000 85.524651 0.470378
    endloop
  endfacet
  facet normal -1.000000 -0.000000 0.000000
    outer loop
      vertex -9.525000 8.220029 -6.128322
      vertex -9.525000 97.500000 7.500000
      vertex -9.525000 8.533105 -7.500000
    endloop
  endfacet
  facet normal 0.913545 -0.352244 -0.203368
    outer loop
      vertex -4.401664 18.950339 -10.527389
      vertex -3.640576 20.430750 -9.672673
      vertex -3.640576 12.930750 3.317708
    endloop
  endfacet
  facet normal 0.913545 -0.352244 -0.203368
    outer loop
      vertex -4.401664 11.450339 2.462992
      vertex -4.401664 18.950339 -10.527389
      vertex -3.640576 12.930750 3.317708
    endloop
  endfacet
  facet normal 1.000000 0.000000 0.000000
    outer loop
      vertex -4.401664 17.329827 -11.462992
      vertex -4.401664 18.950339 -10.527389
      vertex -4.401664 11.450339 2.462992
    endloop
  endfacet
  facet normal 1.000000 0.000000 0.000000
    outer loop
      vertex -4.401664 9.829827 1.527389
      vertex -4.401664 17.329827 -11.462992
      vertex -4.401664 11.450339 2.462992
    endloop
  endfacet
  facet normal 0.913545 0.352244 0.203368
    outer loop
      vertex -3.640576 8.349417 0.672674
      vertex -3.640576 15.849417 -12.317707
      vertex -4.401664 17.329827 -11.462992
    endloop
  endfacet
  facet normal 0.913545 0.352244 0.203368
    outer loop
      vertex -4.401664 9.829827 1.527389
      vertex -3.640576 8.349417 0.672674
      vertex -4.401664 17.329827 -11.462992
    endloop
  endfacet
  facet normal 0.669131 0.643582 0.371572
    outer loop
      vertex -2.250000 7.265084 0.046634
      vertex -2.250000 14.765084 -12.943747
      vertex -3.640576 15.849417 -12.317707
    endloop
  endfacet
  facet normal 0.669131 0.643582 0.371572
    outer loop
      vertex -3.640576 8.349417 0.672674
      vertex -2.250000 7.265084 0.046634
      vertex -3.640576 15.849417 -12.317707
    endloop
  endfacet
  facet normal 0.309017 0.823639 0.475528
    outer loop
      vertex -0.470378 14.264317 -13.232865
      vertex -2.250000 14.765084 -12.943747
      vertex -0.470378 6.764317 -0.242484
    endloop
  endfacet
  facet normal 0.309017 0.823639 0.475528
    outer loop
      vertex -0.470378 6.764317 -0.242484
      vertex -2.250000 14.765084 -12.943747
      vertex -2.250000 7.265084 0.046634
    endloop
  endfacet
  facet normal -0.104529 0.861281 0.497261
    outer loop
      vertex 1.390576 14.433708 -13.135067
      vertex -0.470378 14.264317 -13.232865
      vertex 1.390576 6.933708 -0.144686
    endloop
  endfacet
  facet normal -0.104529 0.861281 0.497261
    outer loop
      vertex 1.390576 6.933708 -0.144686
      vertex -0.470378 14.264317 -13.232865
      vertex -0.470378 6.764317 -0.242484
    endloop
  endfacet
  facet normal -0.500000 0.750000 0.433013
    outer loop
      vertex 3.011088 15.243963 -12.667266
      vertex 1.390576 14.433708 -13.135067
      vertex 3.011088 7.743963 0.323115
    endloop
  endfacet
  facet normal -0.500000 0.750000 0.433013
    outer loop
      vertex 3.011088 7.743963 0.323115
      vertex 1.390576 14.433708 -13.135067
      vertex 1.390576 6.933708 -0.144686
    endloop
  endfacet
  facet normal -0.809017 0.509037 0.293893
    outer loop
      vertex 4.110955 16.554984 -11.910348
      vertex 3.011088 15.243963 -12.667266
      vertex 4.110955 9.054984 1.080033
    endloop
  endfacet
  facet normal -0.809017 0.509037 0.293893
    outer loop
      vertex 4.110955 9.054984 1.080033
      vertex 3.011088 15.243963 -12.667266
      vertex 3.011088 7.743963 0.323115
    endloop
  endfacet
  facet normal -0.978148 0.180057 0.103956
    outer loop
      vertex 4.500000 18.140083 -10.995190
      vertex 4.110955 16.554984 -11.910348
      vertex 4.500000 10.640083 1.995191
    endloop
  endfacet
  facet normal -0.978148 0.180057 0.103956
    outer loop
      vertex 4.500000 10.640083 1.995191
      vertex 4.110955 16.554984 -11.910348
      vertex 4.110955 9.054984 1.080033
    endloop
  endfacet
  facet normal -0.978148 -0.180057 -0.103956
    outer loop
      vertex 4.500000 18.140083 -10.995190
      vertex 4.500000 10.640083 1.995191
      vertex 4.110955 19.725183 -10.080033
    endloop
  endfacet
  facet normal -0.978148 -0.180057 -0.103956
    outer loop
      vertex 4.110955 19.725183 -10.080033
      vertex 4.500000 10.640083 1.995191
      vertex 4.110955 12.225183 2.910348
    endloop
  endfacet
  facet normal -0.809017 -0.509037 -0.293893
    outer loop
      vertex 4.110955 19.725183 -10.080033
      vertex 4.110955 12.225183 2.910348
      vertex 3.011088 21.036204 -9.323114
    endloop
  endfacet
  facet normal -0.809017 -0.509037 -0.293893
    outer loop
      vertex 3.011088 21.036204 -9.323114
      vertex 4.110955 12.225183 2.910348
      vertex 3.011088 13.536204 3.667267
    endloop
  endfacet
  facet normal -0.500000 -0.750000 -0.433013
    outer loop
      vertex 1.390576 21.846459 -8.855313
      vertex 3.011088 21.036204 -9.323114
      vertex 3.011088 13.536204 3.667267
    endloop
  endfacet
  facet normal -0.500000 -0.750000 -0.433013
    outer loop
      vertex 1.390576 14.346459 4.135068
      vertex 1.390576 21.846459 -8.855313
      vertex 3.011088 13.536204 3.667267
    endloop
  endfacet
  facet normal -0.104529 -0.861281 -0.497261
    outer loop
      vertex -0.470378 22.015849 -8.757516
      vertex 1.390576 21.846459 -8.855313
      vertex 1.390576 14.346459 4.135068
    endloop
  endfacet
  facet normal -0.104529 -0.861281 -0.497261
    outer loop
      vertex -0.470378 14.515849 4.232865
      vertex -0.470378 22.015849 -8.757516
      vertex 1.390576 14.346459 4.135068
    endloop
  endfacet
  facet normal 0.309017 -0.823639 -0.475528
    outer loop
      vertex -2.250000 21.515083 -9.046633
      vertex -0.470378 22.015849 -8.757516
      vertex -0.470378 14.515849 4.232865
    endloop
  endfacet
  facet normal 0.309017 -0.823639 -0.475528
    outer loop
      vertex -2.250000 14.015083 3.943748
      vertex -2.250000 21.515083 -9.046633
      vertex -0.470378 14.515849 4.232865
    endloop
  endfacet
  facet normal 0.669131 -0.643582 -0.371572
    outer loop
      vertex -3.640576 20.430750 -9.672673
      vertex -2.250000 21.515083 -9.046633
      vertex -2.250000 14.015083 3.943748
    endloop
  endfacet
  facet normal 0.669131 -0.643582 -0.371572
    outer loop
      vertex -3.640576 12.930750 3.317708
      vertex -3.640576 20.430750 -9.672673
      vertex -2.250000 14.015083 3.943748
    endloop
  endfacet
  facet normal -1.000000 -0.000000 -0.000000
    outer loop
      vertex -9.525000 4.192190 -7.500000
      vertex -9.525000 4.355159 -7.989546
      vertex -9.525000 4.192190 -19.048010
    endloop
  endfacet
  facet normal -1.000000 0.000000 0.000000
    outer loop
      vertex -9.525000 4.192190 -7.500000
      vertex -9.525000 4.466895 -7.500000
      vertex -9.525000 4.355159 -7.989546
    endloop
  endfacet
  facet normal -1.000000 0.000000 -0.000000
    outer loop
      vertex -9.525000 4.192190 -19.048010
      vertex -9.525000 5.545456 -9.482132
      vertex -9.525000 7.454544 -9.482132
    endloop
  endfacet
  facet normal -1.000000 0.000000 -0.000000
    outer loop
      vertex -9.525000 7.454544 -9.482132
      vertex -9.525000 8.644841 -7.989546
      vertex -9.525000 4.192190 -19.048010
    endloop
  endfacet
  facet normal -1.000000 0.000000 -0.000000
    outer loop
      vertex -9.525000 8.644841 -7.989546
      vertex -9.525000 8.533105 -7.500000
      vertex -9.525000 24.193931 -7.500000
    endloop
  endfacet
  facet normal -1.000000 0.000000 -0.000000
    outer loop
      vertex -9.525000 8.644841 -7.989546
      vertex -9.525000 24.193931 -7.500000
      vertex -9.525000 4.192190 -19.048010
    endloop
  endfacet
  facet normal -1.000000 -0.000000 -0.000000
    outer loop
      vertex -9.525000 5.545456 -9.482132
      vertex -9.525000 4.192190 -19.048010
      vertex -9.525000 4.355159 -7.989546
    endloop
  endfacet
endsolid OpenSCAD_Model
