solid OpenSCAD_Model
  facet normal -1.000000 0.000000 0.000000
    outer loop
      vertex 21.500000 -7.500000 -1.000000
      vertex 21.500000 4.869382 -1.000000
      vertex 21.500000 -7.500000 -7.000000
    endloop
  endfacet
  facet normal -1.000000 0.000000 0.000000
    outer loop
      vertex 21.500000 -7.500000 -7.000000
      vertex 21.500000 4.869382 -1.000000
      vertex 21.500000 5.438125 -2.181006
    endloop
  endfacet
  facet normal -1.000000 0.000000 0.000000
    outer loop
      vertex 21.500000 -7.500000 -7.000000
      vertex 21.500000 5.438125 -2.181006
      vertex 21.500000 6.934300 -3.374166
    endloop
  endfacet
  facet normal -1.000000 0.000000 0.000000
    outer loop
      vertex 21.500000 6.934300 -3.374166
      vertex 21.500000 8.800000 -3.800000
      vertex 21.500000 -7.500000 -7.000000
    endloop
  endfacet
  facet normal -1.000000 -0.000000 0.000000
    outer loop
      vertex 21.500000 10.665700 -3.374166
      vertex 21.500000 21.500000 -1.000000
      vertex 21.500000 8.800000 -3.800000
    endloop
  endfacet
  facet normal -1.000000 0.000000 0.000000
    outer loop
      vertex 21.500000 12.161875 -2.181006
      vertex 21.500000 12.730618 -1.000000
      vertex 21.500000 21.500000 -1.000000
    endloop
  endfacet
  facet normal -1.000000 -0.000000 0.000000
    outer loop
      vertex 21.500000 12.161875 -2.181006
      vertex 21.500000 21.500000 -1.000000
      vertex 21.500000 10.665700 -3.374166
    endloop
  endfacet
  facet normal -1.000000 -0.000000 0.000000
    outer loop
      vertex 21.500000 8.800000 -3.800000
      vertex 21.500000 21.500000 -1.000000
      vertex 21.500000 21.500000 -7.000000
    endloop
  endfacet
  facet normal -1.000000 0.000000 0.000000
    outer loop
      vertex 21.500000 8.800000 -3.800000
      vertex 21.500000 21.500000 -7.000000
      vertex 21.500000 -7.500000 -7.000000
    endloop
  endfacet
  facet normal 0.000000 0.000000 1.000000
    outer loop
      vertex 46.210955 1.830315 -1.000000
      vertex 49.600000 -7.500000 -1.000000
      vertex 49.600000 4.869382 -1.000000
    endloop
  endfacet
  facet normal 0.000000 0.000000 1.000000
    outer loop
      vertex 45.111088 3.344152 -1.000000
      vertex 46.210955 1.830315 -1.000000
      vertex 49.600000 4.869382 -1.000000
    endloop
  endfacet
  facet normal 0.000000 -0.000000 1.000000
    outer loop
      vertex 21.500000 4.869382 -1.000000
      vertex 21.500000 -7.500000 -1.000000
      vertex 37.698336 0.935603 -1.000000
    endloop
  endfacet
  facet normal 0.000000 0.000000 1.000000
    outer loop
      vertex 21.500000 4.869382 -1.000000
      vertex 37.698336 0.935603 -1.000000
      vertex 38.459424 2.645034 -1.000000
    endloop
  endfacet
  facet normal 0.000000 0.000000 1.000000
    outer loop
      vertex 21.500000 4.869382 -1.000000
      vertex 38.459424 2.645034 -1.000000
      vertex 39.850000 3.897114 -1.000000
    endloop
  endfacet
  facet normal 0.000000 0.000000 1.000000
    outer loop
      vertex 21.500000 4.869382 -1.000000
      vertex 41.629622 4.475349 -1.000000
      vertex 49.600000 4.869382 -1.000000
    endloop
  endfacet
  facet normal 0.000000 0.000000 1.000000
    outer loop
      vertex 21.500000 4.869382 -1.000000
      vertex 39.850000 3.897114 -1.000000
      vertex 41.629622 4.475349 -1.000000
    endloop
  endfacet
  facet normal 0.000000 0.000000 1.000000
    outer loop
      vertex 41.629622 4.475349 -1.000000
      vertex 43.490576 4.279754 -1.000000
      vertex 49.600000 4.869382 -1.000000
    endloop
  endfacet
  facet normal 0.000000 0.000000 1.000000
    outer loop
      vertex 46.600000 0.000000 -1.000000
      vertex 49.600000 -7.500000 -1.000000
      vertex 46.210955 1.830315 -1.000000
    endloop
  endfacet
  facet normal 0.000000 0.000000 1.000000
    outer loop
      vertex 46.210955 -1.830315 -1.000000
      vertex 49.600000 -7.500000 -1.000000
      vertex 46.600000 0.000000 -1.000000
    endloop
  endfacet
  facet normal 0.000000 0.000000 1.000000
    outer loop
      vertex 45.111088 -3.344152 -1.000000
      vertex 49.600000 -7.500000 -1.000000
      vertex 46.210955 -1.830315 -1.000000
    endloop
  endfacet
  facet normal 0.000000 0.000000 1.000000
    outer loop
      vertex 21.500000 -7.500000 -1.000000
      vertex 49.600000 -7.500000 -1.000000
      vertex 43.490576 -4.279754 -1.000000
    endloop
  endfacet
  facet normal 0.000000 0.000000 1.000000
    outer loop
      vertex 21.500000 -7.500000 -1.000000
      vertex 43.490576 -4.279754 -1.000000
      vertex 41.629622 -4.475349 -1.000000
    endloop
  endfacet
  facet normal 0.000000 0.000000 1.000000
    outer loop
      vertex 21.500000 -7.500000 -1.000000
      vertex 41.629622 -4.475349 -1.000000
      vertex 39.850000 -3.897114 -1.000000
    endloop
  endfacet
  facet normal 0.000000 0.000000 1.000000
    outer loop
      vertex 21.500000 -7.500000 -1.000000
      vertex 38.459424 -2.645034 -1.000000
      vertex 37.698336 -0.935603 -1.000000
    endloop
  endfacet
  facet normal 0.000000 0.000000 1.000000
    outer loop
      vertex 21.500000 -7.500000 -1.000000
      vertex 39.850000 -3.897114 -1.000000
      vertex 38.459424 -2.645034 -1.000000
    endloop
  endfacet
  facet normal 0.000000 -0.000000 1.000000
    outer loop
      vertex 45.111088 -3.344152 -1.000000
      vertex 43.490576 -4.279754 -1.000000
      vertex 49.600000 -7.500000 -1.000000
    endloop
  endfacet
  facet normal -0.000000 0.000000 1.000000
    outer loop
      vertex 37.698336 -0.935603 -1.000000
      vertex 37.698336 0.935603 -1.000000
      vertex 21.500000 -7.500000 -1.000000
    endloop
  endfacet
  facet normal 0.000000 0.000000 1.000000
    outer loop
      vertex 43.490576 4.279754 -1.000000
      vertex 45.111088 3.344152 -1.000000
      vertex 49.600000 4.869382 -1.000000
    endloop
  endfacet
  facet normal -0.000000 -1.000000 0.000000
    outer loop
      vertex 21.500000 -7.500000 -7.000000
      vertex 49.600000 -7.500000 -7.000000
      vertex 49.600000 -7.500000 -1.000000
    endloop
  endfacet
  facet normal 0.000000 -1.000000 0.000000
    outer loop
      vertex 21.500000 -7.500000 -1.000000
      vertex 21.500000 -7.500000 -7.000000
      vertex 49.600000 -7.500000 -1.000000
    endloop
  endfacet
  facet normal -0.000000 0.000000 -1.000000
    outer loop
      vertex 46.600000 0.000000 -7.000000
      vertex 49.600000 21.500000 -7.000000
      vertex 49.600000 -7.500000 -7.000000
    endloop
  endfacet
  facet normal 0.000000 0.000000 -1.000000
    outer loop
      vertex 43.490576 -4.279754 -7.000000
      vertex 49.600000 -7.500000 -7.000000
      vertex 41.629622 -4.475349 -7.000000
    endloop
  endfacet
  facet normal 0.000000 0.000000 -1.000000
    outer loop
      vertex 21.500000 21.500000 -7.000000
      vertex 24.717868 14.345456 -7.000000
      vertex 21.500000 -7.500000 -7.000000
    endloop
  endfacet
  facet normal -0.000000 0.000000 -1.000000
    outer loop
      vertex 28.071678 17.020029 -7.000000
      vertex 49.600000 21.500000 -7.000000
      vertex 28.900000 15.300000 -7.000000
    endloop
  endfacet
  facet normal 0.000000 0.000000 -1.000000
    outer loop
      vertex 24.717868 14.345456 -7.000000
      vertex 26.210454 13.155159 -7.000000
      vertex 21.500000 -7.500000 -7.000000
    endloop
  endfacet
  facet normal -0.000000 0.000000 -1.000000
    outer loop
      vertex 26.210454 13.155159 -7.000000
      vertex 28.071678 13.579971 -7.000000
      vertex 21.500000 -7.500000 -7.000000
    endloop
  endfacet
  facet normal 0.000000 0.000000 -1.000000
    outer loop
      vertex 21.500000 21.500000 -7.000000
      vertex 49.600000 21.500000 -7.000000
      vertex 28.071678 17.020029 -7.000000
    endloop
  endfacet
  facet normal 0.000000 0.000000 -1.000000
    outer loop
      vertex 21.500000 21.500000 -7.000000
      vertex 28.071678 17.020029 -7.000000
      vertex 26.210454 17.444841 -7.000000
    endloop
  endfacet
  facet normal 0.000000 0.000000 -1.000000
    outer loop
      vertex 21.500000 21.500000 -7.000000
      vertex 26.210454 17.444841 -7.000000
      vertex 24.717868 16.254544 -7.000000
    endloop
  endfacet
  facet normal 0.000000 0.000000 -1.000000
    outer loop
      vertex 21.500000 21.500000 -7.000000
      vertex 24.717868 16.254544 -7.000000
      vertex 24.717868 14.345456 -7.000000
    endloop
  endfacet
  facet normal 0.000000 0.000000 -1.000000
    outer loop
      vertex 41.610454 13.155159 -7.000000
      vertex 21.500000 -7.500000 -7.000000
      vertex 40.117868 14.345456 -7.000000
    endloop
  endfacet
  facet normal 0.000000 0.000000 -1.000000
    outer loop
      vertex 21.500000 -7.500000 -7.000000
      vertex 37.698336 -0.935603 -7.000000
      vertex 38.459424 -2.645034 -7.000000
    endloop
  endfacet
  facet normal 0.000000 0.000000 -1.000000
    outer loop
      vertex 21.500000 -7.500000 -7.000000
      vertex 38.459424 -2.645034 -7.000000
      vertex 39.850000 -3.897114 -7.000000
    endloop
  endfacet
  facet normal -0.000000 0.000000 -1.000000
    outer loop
      vertex 21.500000 -7.500000 -7.000000
      vertex 39.850000 -3.897114 -7.000000
      vertex 49.600000 -7.500000 -7.000000
    endloop
  endfacet
  facet normal 0.000000 0.000000 -1.000000
    outer loop
      vertex 39.850000 -3.897114 -7.000000
      vertex 41.629622 -4.475349 -7.000000
      vertex 49.600000 -7.500000 -7.000000
    endloop
  endfacet
  facet normal 0.000000 0.000000 -1.000000
    outer loop
      vertex 45.111088 -3.344152 -7.000000
      vertex 49.600000 -7.500000 -7.000000
      vertex 43.490576 -4.279754 -7.000000
    endloop
  endfacet
  facet normal 0.000000 0.000000 -1.000000
    outer loop
      vertex 39.850000 3.897114 -7.000000
      vertex 49.600000 21.500000 -7.000000
      vertex 41.629622 4.475349 -7.000000
    endloop
  endfacet
  facet normal -0.000000 0.000000 -1.000000
    outer loop
      vertex 46.210955 1.830315 -7.000000
      vertex 49.600000 21.500000 -7.000000
      vertex 46.600000 0.000000 -7.000000
    endloop
  endfacet
  facet normal -0.000000 0.000000 -1.000000
    outer loop
      vertex 45.111088 3.344152 -7.000000
      vertex 49.600000 21.500000 -7.000000
      vertex 46.210955 1.830315 -7.000000
    endloop
  endfacet
  facet normal -0.000000 0.000000 -1.000000
    outer loop
      vertex 45.111088 -3.344152 -7.000000
      vertex 46.210955 -1.830315 -7.000000
      vertex 49.600000 -7.500000 -7.000000
    endloop
  endfacet
  facet normal -0.000000 0.000000 -1.000000
    outer loop
      vertex 46.210955 -1.830315 -7.000000
      vertex 46.600000 0.000000 -7.000000
      vertex 49.600000 -7.500000 -7.000000
    endloop
  endfacet
  facet normal -0.000000 0.000000 -1.000000
    outer loop
      vertex 43.490576 4.279754 -7.000000
      vertex 49.600000 21.500000 -7.000000
      vertex 45.111088 3.344152 -7.000000
    endloop
  endfacet
  facet normal -0.000000 0.000000 -1.000000
    outer loop
      vertex 41.629622 4.475349 -7.000000
      vertex 49.600000 21.500000 -7.000000
      vertex 43.490576 4.279754 -7.000000
    endloop
  endfacet
  facet normal -0.000000 0.000000 -1.000000
    outer loop
      vertex 43.471678 13.579971 -7.000000
      vertex 49.600000 21.500000 -7.000000
      vertex 39.850000 3.897114 -7.000000
    endloop
  endfacet
  facet normal 0.000000 0.000000 -1.000000
    outer loop
      vertex 21.500000 -7.500000 -7.000000
      vertex 39.850000 3.897114 -7.000000
      vertex 38.459424 2.645034 -7.000000
    endloop
  endfacet
  facet normal 0.000000 0.000000 -1.000000
    outer loop
      vertex 21.500000 -7.500000 -7.000000
      vertex 38.459424 2.645034 -7.000000
      vertex 37.698336 0.935603 -7.000000
    endloop
  endfacet
  facet normal 0.000000 0.000000 -1.000000
    outer loop
      vertex 21.500000 -7.500000 -7.000000
      vertex 37.698336 0.935603 -7.000000
      vertex 37.698336 -0.935603 -7.000000
    endloop
  endfacet
  facet normal 0.000000 -0.000000 -1.000000
    outer loop
      vertex 40.117868 16.254544 -7.000000
      vertex 28.071678 13.579971 -7.000000
      vertex 41.610454 17.444841 -7.000000
    endloop
  endfacet
  facet normal -0.000000 0.000000 -1.000000
    outer loop
      vertex 28.071678 13.579971 -7.000000
      vertex 40.117868 14.345456 -7.000000
      vertex 21.500000 -7.500000 -7.000000
    endloop
  endfacet
  facet normal -0.000000 0.000000 -1.000000
    outer loop
      vertex 43.471678 17.020029 -7.000000
      vertex 49.600000 21.500000 -7.000000
      vertex 44.300000 15.300000 -7.000000
    endloop
  endfacet
  facet normal 0.000000 0.000000 -1.000000
    outer loop
      vertex 21.500000 -7.500000 -7.000000
      vertex 41.610454 13.155159 -7.000000
      vertex 39.850000 3.897114 -7.000000
    endloop
  endfacet
  facet normal -0.000000 0.000000 -1.000000
    outer loop
      vertex 44.300000 15.300000 -7.000000
      vertex 49.600000 21.500000 -7.000000
      vertex 43.471678 13.579971 -7.000000
    endloop
  endfacet
  facet normal -0.000000 0.000000 -1.000000
    outer loop
      vertex 41.610454 13.155159 -7.000000
      vertex 43.471678 13.579971 -7.000000
      vertex 39.850000 3.897114 -7.000000
    endloop
  endfacet
  facet normal -0.000000 0.000000 -1.000000
    outer loop
      vertex 41.610454 17.444841 -7.000000
      vertex 49.600000 21.500000 -7.000000
      vertex 43.471678 17.020029 -7.000000
    endloop
  endfacet
  facet normal 0.000000 0.000000 -1.000000
    outer loop
      vertex 28.071678 13.579971 -7.000000
      vertex 49.600000 21.500000 -7.000000
      vertex 41.610454 17.444841 -7.000000
    endloop
  endfacet
  facet normal 0.000000 0.000000 -1.000000
    outer loop
      vertex 28.071678 13.579971 -7.000000
      vertex 40.117868 16.254544 -7.000000
      vertex 40.117868 14.345456 -7.000000
    endloop
  endfacet
  facet normal -0.000000 0.000000 -1.000000
    outer loop
      vertex 28.900000 15.300000 -7.000000
      vertex 49.600000 21.500000 -7.000000
      vertex 28.071678 13.579971 -7.000000
    endloop
  endfacet
  facet normal 0.000000 1.000000 -0.000000
    outer loop
      vertex 21.500000 21.500000 -1.000000
      vertex 49.600000 21.500000 -1.000000
      vertex 21.500000 21.500000 -7.000000
    endloop
  endfacet
  facet normal 0.000000 1.000000 0.000000
    outer loop
      vertex 21.500000 21.500000 -7.000000
      vertex 49.600000 21.500000 -1.000000
      vertex 49.600000 21.500000 -7.000000
    endloop
  endfacet
  facet normal 0.000000 0.000000 1.000000
    outer loop
      vertex 44.300000 15.300000 -1.000000
      vertex 49.600000 12.730618 -1.000000
      vertex 49.600000 21.500000 -1.000000
    endloop
  endfacet
  facet normal 0.000000 0.000000 1.000000
    outer loop
      vertex 41.610454 13.155159 -1.000000
      vertex 40.117868 14.345456 -1.000000
      vertex 28.071678 13.579971 -1.000000
    endloop
  endfacet
  facet normal 0.000000 -0.000000 1.000000
    outer loop
      vertex 21.500000 21.500000 -1.000000
      vertex 21.500000 12.730618 -1.000000
      vertex 24.717868 14.345456 -1.000000
    endloop
  endfacet
  facet normal 0.000000 0.000000 1.000000
    outer loop
      vertex 21.500000 21.500000 -1.000000
      vertex 24.717868 14.345456 -1.000000
      vertex 24.717868 16.254544 -1.000000
    endloop
  endfacet
  facet normal 0.000000 0.000000 1.000000
    outer loop
      vertex 21.500000 21.500000 -1.000000
      vertex 26.210454 17.444841 -1.000000
      vertex 49.600000 21.500000 -1.000000
    endloop
  endfacet
  facet normal 0.000000 0.000000 1.000000
    outer loop
      vertex 21.500000 21.500000 -1.000000
      vertex 24.717868 16.254544 -1.000000
      vertex 26.210454 17.444841 -1.000000
    endloop
  endfacet
  facet normal 0.000000 0.000000 1.000000
    outer loop
      vertex 26.210454 17.444841 -1.000000
      vertex 28.071678 17.020029 -1.000000
      vertex 49.600000 21.500000 -1.000000
    endloop
  endfacet
  facet normal 0.000000 0.000000 1.000000
    outer loop
      vertex 28.071678 17.020029 -1.000000
      vertex 28.900000 15.300000 -1.000000
      vertex 49.600000 21.500000 -1.000000
    endloop
  endfacet
  facet normal 0.000000 0.000000 1.000000
    outer loop
      vertex 26.210454 13.155159 -1.000000
      vertex 49.600000 12.730618 -1.000000
      vertex 28.071678 13.579971 -1.000000
    endloop
  endfacet
  facet normal 0.000000 0.000000 1.000000
    outer loop
      vertex 21.500000 12.730618 -1.000000
      vertex 49.600000 12.730618 -1.000000
      vertex 26.210454 13.155159 -1.000000
    endloop
  endfacet
  facet normal 0.000000 -0.000000 1.000000
    outer loop
      vertex 44.300000 15.300000 -1.000000
      vertex 43.471678 13.579971 -1.000000
      vertex 49.600000 12.730618 -1.000000
    endloop
  endfacet
  facet normal 0.000000 0.000000 1.000000
    outer loop
      vertex 43.471678 17.020029 -1.000000
      vertex 44.300000 15.300000 -1.000000
      vertex 49.600000 21.500000 -1.000000
    endloop
  endfacet
  facet normal 0.000000 0.000000 1.000000
    outer loop
      vertex 28.071678 13.579971 -1.000000
      vertex 40.117868 14.345456 -1.000000
      vertex 40.117868 16.254544 -1.000000
    endloop
  endfacet
  facet normal 0.000000 0.000000 1.000000
    outer loop
      vertex 28.071678 13.579971 -1.000000
      vertex 41.610454 17.444841 -1.000000
      vertex 49.600000 21.500000 -1.000000
    endloop
  endfacet
  facet normal 0.000000 0.000000 1.000000
    outer loop
      vertex 28.071678 13.579971 -1.000000
      vertex 40.117868 16.254544 -1.000000
      vertex 41.610454 17.444841 -1.000000
    endloop
  endfacet
  facet normal 0.000000 0.000000 1.000000
    outer loop
      vertex 41.610454 13.155159 -1.000000
      vertex 49.600000 12.730618 -1.000000
      vertex 43.471678 13.579971 -1.000000
    endloop
  endfacet
  facet normal 0.000000 0.000000 1.000000
    outer loop
      vertex 41.610454 17.444841 -1.000000
      vertex 43.471678 17.020029 -1.000000
      vertex 49.600000 21.500000 -1.000000
    endloop
  endfacet
  facet normal 0.000000 0.000000 1.000000
    outer loop
      vertex 28.071678 13.579971 -1.000000
      vertex 49.600000 12.730618 -1.000000
      vertex 41.610454 13.155159 -1.000000
    endloop
  endfacet
  facet normal 0.000000 -0.000000 1.000000
    outer loop
      vertex 28.900000 15.300000 -1.000000
      vertex 28.071678 13.579971 -1.000000
      vertex 49.600000 21.500000 -1.000000
    endloop
  endfacet
  facet normal -0.000000 0.000000 1.000000
    outer loop
      vertex 26.210454 13.155159 -1.000000
      vertex 24.717868 14.345456 -1.000000
      vertex 21.500000 12.730618 -1.000000
    endloop
  endfacet
  facet normal 0.000000 -0.900969 0.433884
    outer loop
      vertex 21.500000 12.161875 -2.181006
      vertex 49.600000 12.161875 -2.181006
      vertex 49.600000 12.730618 -1.000000
    endloop
  endfacet
  facet normal 0.000000 -0.900969 0.433884
    outer loop
      vertex 21.500000 12.730618 -1.000000
      vertex 21.500000 12.161875 -2.181006
      vertex 49.600000 12.730618 -1.000000
    endloop
  endfacet
  facet normal 0.000000 -0.623490 0.781831
    outer loop
      vertex 21.500000 10.665700 -3.374166
      vertex 49.600000 10.665700 -3.374166
      vertex 49.600000 12.161875 -2.181006
    endloop
  endfacet
  facet normal 0.000000 -0.623490 0.781831
    outer loop
      vertex 21.500000 12.161875 -2.181006
      vertex 21.500000 10.665700 -3.374166
      vertex 49.600000 12.161875 -2.181006
    endloop
  endfacet
  facet normal 0.000000 -0.222521 0.974928
    outer loop
      vertex 21.500000 8.800000 -3.800000
      vertex 49.600000 8.800000 -3.800000
      vertex 49.600000 10.665700 -3.374166
    endloop
  endfacet
  facet normal 0.000000 -0.222521 0.974928
    outer loop
      vertex 21.500000 10.665700 -3.374166
      vertex 21.500000 8.800000 -3.800000
      vertex 49.600000 10.665700 -3.374166
    endloop
  endfacet
  facet normal 0.000000 0.222521 0.974928
    outer loop
      vertex 21.500000 6.934300 -3.374166
      vertex 49.600000 6.934300 -3.374166
      vertex 49.600000 8.800000 -3.800000
    endloop
  endfacet
  facet normal 0.000000 0.222521 0.974928
    outer loop
      vertex 21.500000 8.800000 -3.800000
      vertex 21.500000 6.934300 -3.374166
      vertex 49.600000 8.800000 -3.800000
    endloop
  endfacet
  facet normal 0.000000 0.623490 0.781831
    outer loop
      vertex 21.500000 5.438125 -2.181006
      vertex 49.600000 5.438125 -2.181006
      vertex 49.600000 6.934300 -3.374166
    endloop
  endfacet
  facet normal 0.000000 0.623490 0.781831
    outer loop
      vertex 21.500000 6.934300 -3.374166
      vertex 21.500000 5.438125 -2.181006
      vertex 49.600000 6.934300 -3.374166
    endloop
  endfacet
  facet normal 0.000000 0.900969 0.433884
    outer loop
      vertex 49.600000 4.869382 -1.000000
      vertex 49.600000 5.438125 -2.181006
      vertex 21.500000 4.869382 -1.000000
    endloop
  endfacet
  facet normal 0.000000 0.900969 0.433884
    outer loop
      vertex 21.500000 4.869382 -1.000000
      vertex 49.600000 5.438125 -2.181006
      vertex 21.500000 5.438125 -2.181006
    endloop
  endfacet
  facet normal 1.000000 0.000000 0.000000
    outer loop
      vertex 49.600000 10.665700 -3.374166
      vertex 49.600000 21.500000 -7.000000
      vertex 49.600000 21.500000 -1.000000
    endloop
  endfacet
  facet normal 1.000000 0.000000 -0.000000
    outer loop
      vertex 49.600000 12.730618 -1.000000
      vertex 49.600000 12.161875 -2.181006
      vertex 49.600000 21.500000 -1.000000
    endloop
  endfacet
  facet normal 1.000000 0.000000 0.000000
    outer loop
      vertex 49.600000 8.800000 -3.800000
      vertex 49.600000 21.500000 -7.000000
      vertex 49.600000 10.665700 -3.374166
    endloop
  endfacet
  facet normal 1.000000 0.000000 0.000000
    outer loop
      vertex 49.600000 -7.500000 -7.000000
      vertex 49.600000 21.500000 -7.000000
      vertex 49.600000 8.800000 -3.800000
    endloop
  endfacet
  facet normal 1.000000 0.000000 -0.000000
    outer loop
      vertex 49.600000 4.869382 -1.000000
      vertex 49.600000 -7.500000 -7.000000
      vertex 49.600000 5.438125 -2.181006
    endloop
  endfacet
  facet normal 1.000000 0.000000 -0.000000
    outer loop
      vertex 49.600000 -7.500000 -1.000000
      vertex 49.600000 -7.500000 -7.000000
      vertex 49.600000 4.869382 -1.000000
    endloop
  endfacet
  facet normal 1.000000 -0.000000 0.000000
    outer loop
      vertex 49.600000 6.934300 -3.374166
      vertex 49.600000 5.438125 -2.181006
      vertex 49.600000 -7.500000 -7.000000
    endloop
  endfacet
  facet normal 1.000000 0.000000 -0.000000
    outer loop
      vertex 49.600000 12.161875 -2.181006
      vertex 49.600000 10.665700 -3.374166
      vertex 49.600000 21.500000 -1.000000
    endloop
  endfacet
  facet normal 1.000000 -0.000000 0.000000
    outer loop
      vertex 49.600000 8.800000 -3.800000
      vertex 49.600000 6.934300 -3.374166
      vertex 49.600000 -7.500000 -7.000000
    endloop
  endfacet
  facet normal 1.000000 0.000000 0.000000
    outer loop
      vertex 37.698336 -0.935603 -7.000000
      vertex 37.698336 0.935603 -7.000000
      vertex 37.698336 0.935603 -1.000000
    endloop
  endfacet
  facet normal 1.000000 0.000000 -0.000000
    outer loop
      vertex 37.698336 -0.935603 -1.000000
      vertex 37.698336 -0.935603 -7.000000
      vertex 37.698336 0.935603 -1.000000
    endloop
  endfacet
  facet normal 0.913545 0.406737 0.000000
    outer loop
      vertex 37.698336 -0.935603 -7.000000
      vertex 37.698336 -0.935603 -1.000000
      vertex 38.459424 -2.645034 -1.000000
    endloop
  endfacet
  facet normal 0.913545 0.406737 0.000000
    outer loop
      vertex 38.459424 -2.645034 -7.000000
      vertex 37.698336 -0.935603 -7.000000
      vertex 38.459424 -2.645034 -1.000000
    endloop
  endfacet
  facet normal 0.669131 0.743145 -0.000000
    outer loop
      vertex 38.459424 -2.645034 -1.000000
      vertex 39.850000 -3.897114 -1.000000
      vertex 38.459424 -2.645034 -7.000000
    endloop
  endfacet
  facet normal 0.669131 0.743145 0.000000
    outer loop
      vertex 38.459424 -2.645034 -7.000000
      vertex 39.850000 -3.897114 -1.000000
      vertex 39.850000 -3.897114 -7.000000
    endloop
  endfacet
  facet normal 0.309017 0.951056 -0.000000
    outer loop
      vertex 39.850000 -3.897114 -1.000000
      vertex 41.629622 -4.475349 -1.000000
      vertex 39.850000 -3.897114 -7.000000
    endloop
  endfacet
  facet normal 0.309017 0.951056 0.000000
    outer loop
      vertex 39.850000 -3.897114 -7.000000
      vertex 41.629622 -4.475349 -1.000000
      vertex 41.629622 -4.475349 -7.000000
    endloop
  endfacet
  facet normal -0.104529 0.994522 0.000000
    outer loop
      vertex 41.629622 -4.475349 -1.000000
      vertex 43.490576 -4.279754 -1.000000
      vertex 41.629622 -4.475349 -7.000000
    endloop
  endfacet
  facet normal -0.104529 0.994522 0.000000
    outer loop
      vertex 41.629622 -4.475349 -7.000000
      vertex 43.490576 -4.279754 -1.000000
      vertex 43.490576 -4.279754 -7.000000
    endloop
  endfacet
  facet normal -0.500000 0.866026 0.000000
    outer loop
      vertex 43.490576 -4.279754 -1.000000
      vertex 45.111088 -3.344152 -1.000000
      vertex 43.490576 -4.279754 -7.000000
    endloop
  endfacet
  facet normal -0.500000 0.866026 0.000000
    outer loop
      vertex 43.490576 -4.279754 -7.000000
      vertex 45.111088 -3.344152 -1.000000
      vertex 45.111088 -3.344152 -7.000000
    endloop
  endfacet
  facet normal -0.809017 0.587785 0.000000
    outer loop
      vertex 45.111088 -3.344152 -1.000000
      vertex 46.210955 -1.830315 -1.000000
      vertex 45.111088 -3.344152 -7.000000
    endloop
  endfacet
  facet normal -0.809017 0.587785 0.000000
    outer loop
      vertex 45.111088 -3.344152 -7.000000
      vertex 46.210955 -1.830315 -1.000000
      vertex 46.210955 -1.830315 -7.000000
    endloop
  endfacet
  facet normal -0.978148 0.207911 0.000000
    outer loop
      vertex 46.210955 -1.830315 -1.000000
      vertex 46.600000 0.000000 -1.000000
      vertex 46.210955 -1.830315 -7.000000
    endloop
  endfacet
  facet normal -0.978148 0.207911 0.000000
    outer loop
      vertex 46.210955 -1.830315 -7.000000
      vertex 46.600000 0.000000 -1.000000
      vertex 46.600000 0.000000 -7.000000
    endloop
  endfacet
  facet normal -0.978148 -0.207911 -0.000000
    outer loop
      vertex 46.600000 0.000000 -7.000000
      vertex 46.600000 0.000000 -1.000000
      vertex 46.210955 1.830315 -7.000000
    endloop
  endfacet
  facet normal -0.978148 -0.207911 -0.000000
    outer loop
      vertex 46.210955 1.830315 -7.000000
      vertex 46.600000 0.000000 -1.000000
      vertex 46.210955 1.830315 -1.000000
    endloop
  endfacet
  facet normal -0.809017 -0.587785 -0.000000
    outer loop
      vertex 46.210955 1.830315 -7.000000
      vertex 46.210955 1.830315 -1.000000
      vertex 45.111088 3.344152 -7.000000
    endloop
  endfacet
  facet normal -0.809017 -0.587785 -0.000000
    outer loop
      vertex 45.111088 3.344152 -7.000000
      vertex 46.210955 1.830315 -1.000000
      vertex 45.111088 3.344152 -1.000000
    endloop
  endfacet
  facet normal -0.500000 -0.866026 0.000000
    outer loop
      vertex 43.490576 4.279754 -7.000000
      vertex 45.111088 3.344152 -7.000000
      vertex 45.111088 3.344152 -1.000000
    endloop
  endfacet
  facet normal -0.500000 -0.866026 0.000000
    outer loop
      vertex 43.490576 4.279754 -1.000000
      vertex 43.490576 4.279754 -7.000000
      vertex 45.111088 3.344152 -1.000000
    endloop
  endfacet
  facet normal -0.104529 -0.994522 0.000000
    outer loop
      vertex 41.629622 4.475349 -7.000000
      vertex 43.490576 4.279754 -7.000000
      vertex 43.490576 4.279754 -1.000000
    endloop
  endfacet
  facet normal -0.104529 -0.994522 0.000000
    outer loop
      vertex 41.629622 4.475349 -1.000000
      vertex 41.629622 4.475349 -7.000000
      vertex 43.490576 4.279754 -1.000000
    endloop
  endfacet
  facet normal 0.309017 -0.951056 0.000000
    outer loop
      vertex 39.850000 3.897114 -7.000000
      vertex 41.629622 4.475349 -7.000000
      vertex 41.629622 4.475349 -1.000000
    endloop
  endfacet
  facet normal 0.309017 -0.951056 0.000000
    outer loop
      vertex 39.850000 3.897114 -1.000000
      vertex 39.850000 3.897114 -7.000000
      vertex 41.629622 4.475349 -1.000000
    endloop
  endfacet
  facet normal 0.669131 -0.743145 0.000000
    outer loop
      vertex 38.459424 2.645034 -7.000000
      vertex 39.850000 3.897114 -7.000000
      vertex 39.850000 3.897114 -1.000000
    endloop
  endfacet
  facet normal 0.669131 -0.743145 0.000000
    outer loop
      vertex 38.459424 2.645034 -1.000000
      vertex 38.459424 2.645034 -7.000000
      vertex 39.850000 3.897114 -1.000000
    endloop
  endfacet
  facet normal 0.913545 -0.406737 0.000000
    outer loop
      vertex 37.698336 0.935603 -7.000000
      vertex 38.459424 2.645034 -7.000000
      vertex 38.459424 2.645034 -1.000000
    endloop
  endfacet
  facet normal 0.913545 -0.406737 0.000000
    outer loop
      vertex 37.698336 0.935603 -1.000000
      vertex 37.698336 0.935603 -7.000000
      vertex 38.459424 2.645034 -1.000000
    endloop
  endfacet
  facet normal 1.000000 0.000000 0.000000
    outer loop
      vertex 24.717868 14.345456 -7.000000
      vertex 24.717868 16.254544 -7.000000
      vertex 24.717868 16.254544 -1.000000
    endloop
  endfacet
  facet normal 1.000000 0.000000 -0.000000
    outer loop
      vertex 24.717868 14.345456 -1.000000
      vertex 24.717868 14.345456 -7.000000
      vertex 24.717868 16.254544 -1.000000
    endloop
  endfacet
  facet normal 0.623490 0.781832 -0.000000
    outer loop
      vertex 24.717868 14.345456 -1.000000
      vertex 26.210454 13.155159 -1.000000
      vertex 24.717868 14.345456 -7.000000
    endloop
  endfacet
  facet normal 0.623490 0.781832 0.000000
    outer loop
      vertex 24.717868 14.345456 -7.000000
      vertex 26.210454 13.155159 -1.000000
      vertex 26.210454 13.155159 -7.000000
    endloop
  endfacet
  facet normal 0.623490 -0.781832 0.000000
    outer loop
      vertex 24.717868 16.254544 -7.000000
      vertex 26.210454 17.444841 -7.000000
      vertex 26.210454 17.444841 -1.000000
    endloop
  endfacet
  facet normal 0.623490 -0.781832 0.000000
    outer loop
      vertex 24.717868 16.254544 -1.000000
      vertex 24.717868 16.254544 -7.000000
      vertex 26.210454 17.444841 -1.000000
    endloop
  endfacet
  facet normal -0.222521 -0.974928 0.000000
    outer loop
      vertex 26.210454 17.444841 -7.000000
      vertex 28.071678 17.020029 -7.000000
      vertex 28.071678 17.020029 -1.000000
    endloop
  endfacet
  facet normal -0.222521 -0.974928 0.000000
    outer loop
      vertex 26.210454 17.444841 -1.000000
      vertex 26.210454 17.444841 -7.000000
      vertex 28.071678 17.020029 -1.000000
    endloop
  endfacet
  facet normal -0.900969 -0.433884 -0.000000
    outer loop
      vertex 28.900000 15.300000 -7.000000
      vertex 28.900000 15.300000 -1.000000
      vertex 28.071678 17.020029 -7.000000
    endloop
  endfacet
  facet normal -0.900969 -0.433884 -0.000000
    outer loop
      vertex 28.071678 17.020029 -7.000000
      vertex 28.900000 15.300000 -1.000000
      vertex 28.071678 17.020029 -1.000000
    endloop
  endfacet
  facet normal -0.900969 0.433884 0.000000
    outer loop
      vertex 28.071678 13.579971 -1.000000
      vertex 28.900000 15.300000 -1.000000
      vertex 28.071678 13.579971 -7.000000
    endloop
  endfacet
  facet normal -0.900969 0.433884 0.000000
    outer loop
      vertex 28.071678 13.579971 -7.000000
      vertex 28.900000 15.300000 -1.000000
      vertex 28.900000 15.300000 -7.000000
    endloop
  endfacet
  facet normal -0.222521 0.974928 0.000000
    outer loop
      vertex 26.210454 13.155159 -1.000000
      vertex 28.071678 13.579971 -1.000000
      vertex 26.210454 13.155159 -7.000000
    endloop
  endfacet
  facet normal -0.222521 0.974928 0.000000
    outer loop
      vertex 26.210454 13.155159 -7.000000
      vertex 28.071678 13.579971 -1.000000
      vertex 28.071678 13.579971 -7.000000
    endloop
  endfacet
  facet normal 1.000000 0.000000 0.000000
    outer loop
      vertex 40.117868 14.345456 -7.000000
      vertex 40.117868 16.254544 -7.000000
      vertex 40.117868 16.254544 -1.000000
    endloop
  endfacet
  facet normal 1.000000 0.000000 -0.000000
    outer loop
      vertex 40.117868 14.345456 -1.000000
      vertex 40.117868 14.345456 -7.000000
      vertex 40.117868 16.254544 -1.000000
    endloop
  endfacet
  facet normal 0.623490 0.781832 -0.000000
    outer loop
      vertex 40.117868 14.345456 -1.000000
      vertex 41.610454 13.155159 -1.000000
      vertex 40.117868 14.345456 -7.000000
    endloop
  endfacet
  facet normal 0.623490 0.781832 0.000000
    outer loop
      vertex 40.117868 14.345456 -7.000000
      vertex 41.610454 13.155159 -1.000000
      vertex 41.610454 13.155159 -7.000000
    endloop
  endfacet
  facet normal 0.623490 -0.781832 0.000000
    outer loop
      vertex 40.117868 16.254544 -7.000000
      vertex 41.610454 17.444841 -7.000000
      vertex 41.610454 17.444841 -1.000000
    endloop
  endfacet
  facet normal 0.623490 -0.781832 0.000000
    outer loop
      vertex 40.117868 16.254544 -1.000000
      vertex 40.117868 16.254544 -7.000000
      vertex 41.610454 17.444841 -1.000000
    endloop
  endfacet
  facet normal -0.222521 -0.974928 0.000000
    outer loop
      vertex 41.610454 17.444841 -7.000000
      vertex 43.471678 17.020029 -7.000000
      vertex 43.471678 17.020029 -1.000000
    endloop
  endfacet
  facet normal -0.222521 -0.974928 0.000000
    outer loop
      vertex 41.610454 17.444841 -1.000000
      vertex 41.610454 17.444841 -7.000000
      vertex 43.471678 17.020029 -1.000000
    endloop
  endfacet
  facet normal -0.900969 -0.433884 -0.000000
    outer loop
      vertex 44.300000 15.300000 -7.000000
      vertex 44.300000 15.300000 -1.000000
      vertex 43.471678 17.020029 -7.000000
    endloop
  endfacet
  facet normal -0.900969 -0.433884 -0.000000
    outer loop
      vertex 43.471678 17.020029 -7.000000
      vertex 44.300000 15.300000 -1.000000
      vertex 43.471678 17.020029 -1.000000
    endloop
  endfacet
  facet normal -0.900969 0.433884 0.000000
    outer loop
      vertex 43.471678 13.579971 -1.000000
      vertex 44.300000 15.300000 -1.000000
      vertex 43.471678 13.579971 -7.000000
    endloop
  endfacet
  facet normal -0.900969 0.433884 0.000000
    outer loop
      vertex 43.471678 13.579971 -7.000000
      vertex 44.300000 15.300000 -1.000000
      vertex 44.300000 15.300000 -7.000000
    endloop
  endfacet
  facet normal -0.222521 0.974928 0.000000
    outer loop
      vertex 41.610454 13.155159 -1.000000
      vertex 43.471678 13.579971 -1.000000
      vertex 41.610454 13.155159 -7.000000
    endloop
  endfacet
  facet normal -0.222521 0.974928 0.000000
    outer loop
      vertex 41.610454 13.155159 -7.000000
      vertex 43.471678 13.579971 -1.000000
      vertex 43.471678 13.579971 -7.000000
    endloop
  endfacet
endsolid OpenSCAD_Model
