solid OpenSCAD_Model
  facet normal -1.000000 -0.000000 -0.000000
    outer loop
      vertex -21.500000 -21.500000 0.000000
      vertex -21.500000 -21.500000 7.000000
      vertex -21.500000 4.607810 0.000000
    endloop
  endfacet
  facet normal -1.000000 0.000000 -0.000000
    outer loop
      vertex -21.500000 8.800000 3.800000
      vertex -21.500000 -21.500000 7.000000
      vertex -21.500000 21.500000 7.000000
    endloop
  endfacet
  facet normal -1.000000 -0.000000 0.000000
    outer loop
      vertex -21.500000 12.992190 0.000000
      vertex -21.500000 21.500000 7.000000
      vertex -21.500000 21.500000 0.000000
    endloop
  endfacet
  facet normal -1.000000 -0.000000 0.000000
    outer loop
      vertex -21.500000 12.992190 0.456840
      vertex -21.500000 21.500000 7.000000
      vertex -21.500000 12.992190 0.000000
    endloop
  endfacet
  facet normal -1.000000 -0.000000 0.000000
    outer loop
      vertex -21.500000 12.161875 2.181006
      vertex -21.500000 21.500000 7.000000
      vertex -21.500000 12.992190 0.456840
    endloop
  endfacet
  facet normal -1.000000 0.000000 -0.000000
    outer loop
      vertex -21.500000 6.934300 3.374166
      vertex -21.500000 -21.500000 7.000000
      vertex -21.500000 8.800000 3.800000
    endloop
  endfacet
  facet normal -1.000000 0.000000 -0.000000
    outer loop
      vertex -21.500000 10.665700 3.374166
      vertex -21.500000 8.800000 3.800000
      vertex -21.500000 21.500000 7.000000
    endloop
  endfacet
  facet normal -1.000000 0.000000 -0.000000
    outer loop
      vertex -21.500000 5.438125 2.181006
      vertex -21.500000 -21.500000 7.000000
      vertex -21.500000 6.934300 3.374166
    endloop
  endfacet
  facet normal -1.000000 0.000000 -0.000000
    outer loop
      vertex -21.500000 4.607810 0.456840
      vertex -21.500000 -21.500000 7.000000
      vertex -21.500000 5.438125 2.181006
    endloop
  endfacet
  facet normal -1.000000 0.000000 0.000000
    outer loop
      vertex -21.500000 4.607810 0.000000
      vertex -21.500000 -21.500000 7.000000
      vertex -21.500000 4.607810 0.456840
    endloop
  endfacet
  facet normal -1.000000 -0.000000 0.000000
    outer loop
      vertex -21.500000 10.665700 3.374166
      vertex -21.500000 21.500000 7.000000
      vertex -21.500000 12.161875 2.181006
    endloop
  endfacet
  facet normal 0.000000 -1.000000 0.000000
    outer loop
      vertex -21.500000 -21.500000 7.000000
      vertex -21.500000 -21.500000 0.000000
      vertex 21.500000 -21.500000 0.000000
    endloop
  endfacet
  facet normal 0.000000 -1.000000 0.000000
    outer loop
      vertex 21.500000 -21.500000 7.000000
      vertex -21.500000 -21.500000 7.000000
      vertex 21.500000 -21.500000 0.000000
    endloop
  endfacet
  facet normal 0.000000 0.000000 -1.000000
    outer loop
      vertex -1.149813 -10.939741 0.000000
      vertex 21.500000 -21.500000 0.000000
      vertex -3.399187 -10.461622 0.000000
    endloop
  endfacet
  facet normal 0.000000 -0.000000 -1.000000
    outer loop
      vertex -10.049000 4.474103 0.000000
      vertex -21.500000 4.607810 0.000000
      vertex -9.971804 4.607810 0.000000
    endloop
  endfacet
  facet normal 0.000000 -0.000000 -1.000000
    outer loop
      vertex -10.759624 2.287029 0.000000
      vertex -21.500000 4.607810 0.000000
      vertex -10.049000 4.474103 0.000000
    endloop
  endfacet
  facet normal 0.000000 -0.000000 -1.000000
    outer loop
      vertex -11.000000 0.000000 0.000000
      vertex -21.500000 4.607810 0.000000
      vertex -10.759624 2.287029 0.000000
    endloop
  endfacet
  facet normal 0.000000 0.000000 -1.000000
    outer loop
      vertex 14.550000 -17.145448 0.000000
      vertex 5.500000 -9.526279 0.000000
      vertex 13.600000 -15.500000 0.000000
    endloop
  endfacet
  facet normal 0.000000 -0.000000 -1.000000
    outer loop
      vertex -21.500000 -21.500000 0.000000
      vertex -21.500000 4.607810 0.000000
      vertex -10.759624 -2.287029 0.000000
    endloop
  endfacet
  facet normal 0.000000 0.000000 -1.000000
    outer loop
      vertex 5.500000 -9.526279 0.000000
      vertex 14.550000 -17.145448 0.000000
      vertex 3.399187 -10.461622 0.000000
    endloop
  endfacet
  facet normal 0.000000 0.000000 -1.000000
    outer loop
      vertex -16.450000 -13.854552 0.000000
      vertex -10.759624 -2.287029 0.000000
      vertex -10.049000 -4.474103 0.000000
    endloop
  endfacet
  facet normal 0.000000 0.000000 -1.000000
    outer loop
      vertex -14.550000 -13.854552 0.000000
      vertex -8.899187 -6.465638 0.000000
      vertex -7.360437 -8.174593 0.000000
    endloop
  endfacet
  facet normal -0.000000 0.000000 -1.000000
    outer loop
      vertex -16.450000 -13.854552 0.000000
      vertex -8.899187 -6.465638 0.000000
      vertex -14.550000 -13.854552 0.000000
    endloop
  endfacet
  facet normal 0.000000 0.000000 -1.000000
    outer loop
      vertex -14.550000 -17.145448 0.000000
      vertex -5.500000 -9.526279 0.000000
      vertex -3.399187 -10.461622 0.000000
    endloop
  endfacet
  facet normal -0.000000 0.000000 -1.000000
    outer loop
      vertex -21.500000 -21.500000 0.000000
      vertex -3.399187 -10.461622 0.000000
      vertex 21.500000 -21.500000 0.000000
    endloop
  endfacet
  facet normal 0.000000 0.000000 -1.000000
    outer loop
      vertex 1.149813 -10.939741 0.000000
      vertex 21.500000 -21.500000 0.000000
      vertex -1.149813 -10.939741 0.000000
    endloop
  endfacet
  facet normal 0.000000 0.000000 -1.000000
    outer loop
      vertex 3.399187 -10.461622 0.000000
      vertex 21.500000 -21.500000 0.000000
      vertex 1.149813 -10.939741 0.000000
    endloop
  endfacet
  facet normal 0.000000 0.000000 -1.000000
    outer loop
      vertex 17.400000 -15.500000 0.000000
      vertex 21.500000 -21.500000 0.000000
      vertex 16.450000 -17.145448 0.000000
    endloop
  endfacet
  facet normal -0.000000 0.000000 -1.000000
    outer loop
      vertex 21.500000 -7.500000 0.000000
      vertex 41.629622 -4.475349 0.000000
      vertex 49.600000 -7.500000 0.000000
    endloop
  endfacet
  facet normal 0.000000 0.000000 -1.000000
    outer loop
      vertex 21.500000 -7.500000 0.000000
      vertex 37.698336 -0.935603 0.000000
      vertex 38.459424 -2.645034 0.000000
    endloop
  endfacet
  facet normal 0.000000 0.000000 -1.000000
    outer loop
      vertex 14.550000 -13.854552 0.000000
      vertex 7.360437 -8.174593 0.000000
      vertex 8.899187 -6.465638 0.000000
    endloop
  endfacet
  facet normal -0.000000 -0.000000 -1.000000
    outer loop
      vertex 14.550000 -13.854552 0.000000
      vertex 10.049000 -4.474103 0.000000
      vertex 16.450000 -13.854552 0.000000
    endloop
  endfacet
  facet normal -0.000000 -0.000000 -1.000000
    outer loop
      vertex 16.450000 -13.854552 0.000000
      vertex 10.759624 -2.287029 0.000000
      vertex 21.500000 -21.500000 0.000000
    endloop
  endfacet
  facet normal -0.000000 0.000000 -1.000000
    outer loop
      vertex 10.759624 -2.287029 0.000000
      vertex 11.000000 0.000000 0.000000
      vertex 21.500000 -21.500000 0.000000
    endloop
  endfacet
  facet normal -0.000000 -0.000000 -1.000000
    outer loop
      vertex 11.000000 0.000000 0.000000
      vertex 10.759624 2.287029 0.000000
      vertex 21.500000 -21.500000 0.000000
    endloop
  endfacet
  facet normal -0.000000 -0.000000 -1.000000
    outer loop
      vertex 10.759624 2.287029 0.000000
      vertex 10.049000 4.474103 0.000000
      vertex 21.500000 -21.500000 0.000000
    endloop
  endfacet
  facet normal 0.000000 -0.000000 -1.000000
    outer loop
      vertex 10.049000 4.474103 0.000000
      vertex 9.971804 4.607810 0.000000
      vertex 49.600000 4.607810 0.000000
    endloop
  endfacet
  facet normal -0.000000 0.000000 -1.000000
    outer loop
      vertex 46.210955 -1.830315 0.000000
      vertex 49.600000 4.607810 0.000000
      vertex 49.600000 -7.500000 0.000000
    endloop
  endfacet
  facet normal 0.000000 0.000000 -1.000000
    outer loop
      vertex 10.049000 4.474103 0.000000
      vertex 21.500000 -7.500000 0.000000
      vertex 21.500000 -21.500000 0.000000
    endloop
  endfacet
  facet normal 0.000000 0.000000 -1.000000
    outer loop
      vertex -16.450000 -17.145448 0.000000
      vertex -21.500000 -21.500000 0.000000
      vertex -17.400000 -15.500000 0.000000
    endloop
  endfacet
  facet normal 0.000000 0.000000 -1.000000
    outer loop
      vertex -14.550000 -17.145448 0.000000
      vertex -21.500000 -21.500000 0.000000
      vertex -16.450000 -17.145448 0.000000
    endloop
  endfacet
  facet normal 0.000000 0.000000 -1.000000
    outer loop
      vertex -14.550000 -13.854552 0.000000
      vertex -7.360437 -8.174593 0.000000
      vertex -5.500000 -9.526279 0.000000
    endloop
  endfacet
  facet normal 0.000000 0.000000 -1.000000
    outer loop
      vertex -21.500000 -21.500000 0.000000
      vertex -14.550000 -17.145448 0.000000
      vertex -3.399187 -10.461622 0.000000
    endloop
  endfacet
  facet normal -0.000000 0.000000 -1.000000
    outer loop
      vertex -14.550000 -13.854552 0.000000
      vertex -5.500000 -9.526279 0.000000
      vertex -13.600000 -15.500000 0.000000
    endloop
  endfacet
  facet normal -0.000000 0.000000 -1.000000
    outer loop
      vertex -13.600000 -15.500000 0.000000
      vertex -5.500000 -9.526279 0.000000
      vertex -14.550000 -17.145448 0.000000
    endloop
  endfacet
  facet normal 0.000000 0.000000 -1.000000
    outer loop
      vertex -21.500000 -21.500000 0.000000
      vertex -10.759624 -2.287029 0.000000
      vertex -16.450000 -13.854552 0.000000
    endloop
  endfacet
  facet normal 0.000000 0.000000 -1.000000
    outer loop
      vertex 21.500000 -7.500000 0.000000
      vertex 39.850000 -3.897114 0.000000
      vertex 41.629622 -4.475349 0.000000
    endloop
  endfacet
  facet normal 0.000000 0.000000 -1.000000
    outer loop
      vertex 21.500000 -21.500000 0.000000
      vertex 3.399187 -10.461622 0.000000
      vertex 14.550000 -17.145448 0.000000
    endloop
  endfacet
  facet normal 0.000000 0.000000 -1.000000
    outer loop
      vertex 7.360437 -8.174593 0.000000
      vertex 13.600000 -15.500000 0.000000
      vertex 5.500000 -9.526279 0.000000
    endloop
  endfacet
  facet normal 0.000000 0.000000 -1.000000
    outer loop
      vertex 21.500000 -7.500000 0.000000
      vertex 38.459424 -2.645034 0.000000
      vertex 39.850000 -3.897114 0.000000
    endloop
  endfacet
  facet normal 0.000000 0.000000 -1.000000
    outer loop
      vertex 37.698336 -0.935603 0.000000
      vertex 21.500000 -7.500000 0.000000
      vertex 37.698336 0.935603 0.000000
    endloop
  endfacet
  facet normal 0.000000 0.000000 -1.000000
    outer loop
      vertex 16.450000 -13.854552 0.000000
      vertex 21.500000 -21.500000 0.000000
      vertex 17.400000 -15.500000 0.000000
    endloop
  endfacet
  facet normal -0.000000 0.000000 -1.000000
    outer loop
      vertex 10.049000 -4.474103 0.000000
      vertex 10.759624 -2.287029 0.000000
      vertex 16.450000 -13.854552 0.000000
    endloop
  endfacet
  facet normal 0.000000 0.000000 -1.000000
    outer loop
      vertex 14.550000 -13.854552 0.000000
      vertex 8.899187 -6.465638 0.000000
      vertex 10.049000 -4.474103 0.000000
    endloop
  endfacet
  facet normal 0.000000 -0.000000 -1.000000
    outer loop
      vertex 39.850000 3.897114 0.000000
      vertex 10.049000 4.474103 0.000000
      vertex 41.629622 4.475349 0.000000
    endloop
  endfacet
  facet normal 0.000000 0.000000 -1.000000
    outer loop
      vertex 10.049000 4.474103 0.000000
      vertex 37.698336 0.935603 0.000000
      vertex 21.500000 -7.500000 0.000000
    endloop
  endfacet
  facet normal -0.000000 0.000000 -1.000000
    outer loop
      vertex 46.600000 0.000000 0.000000
      vertex 49.600000 4.607810 0.000000
      vertex 46.210955 -1.830315 0.000000
    endloop
  endfacet
  facet normal 0.000000 -0.000000 -1.000000
    outer loop
      vertex -17.400000 -15.500000 0.000000
      vertex -21.500000 -21.500000 0.000000
      vertex -16.450000 -13.854552 0.000000
    endloop
  endfacet
  facet normal 0.000000 -0.000000 -1.000000
    outer loop
      vertex 13.600000 -15.500000 0.000000
      vertex 7.360437 -8.174593 0.000000
      vertex 14.550000 -13.854552 0.000000
    endloop
  endfacet
  facet normal -0.000000 0.000000 -1.000000
    outer loop
      vertex 45.111088 3.344152 0.000000
      vertex 49.600000 4.607810 0.000000
      vertex 46.210955 1.830315 0.000000
    endloop
  endfacet
  facet normal 0.000000 0.000000 -1.000000
    outer loop
      vertex -16.450000 -13.854552 0.000000
      vertex -10.049000 -4.474103 0.000000
      vertex -8.899187 -6.465638 0.000000
    endloop
  endfacet
  facet normal -0.000000 0.000000 -1.000000
    outer loop
      vertex 41.629622 -4.475349 0.000000
      vertex 43.490576 -4.279754 0.000000
      vertex 49.600000 -7.500000 0.000000
    endloop
  endfacet
  facet normal -0.000000 0.000000 -1.000000
    outer loop
      vertex 46.210955 1.830315 0.000000
      vertex 49.600000 4.607810 0.000000
      vertex 46.600000 0.000000 0.000000
    endloop
  endfacet
  facet normal -0.000000 0.000000 -1.000000
    outer loop
      vertex 43.490576 -4.279754 0.000000
      vertex 45.111088 -3.344152 0.000000
      vertex 49.600000 -7.500000 0.000000
    endloop
  endfacet
  facet normal -0.000000 0.000000 -1.000000
    outer loop
      vertex 45.111088 -3.344152 0.000000
      vertex 46.210955 -1.830315 0.000000
      vertex 49.600000 -7.500000 0.000000
    endloop
  endfacet
  facet normal -0.000000 0.000000 -1.000000
    outer loop
      vertex 43.490576 4.279754 0.000000
      vertex 49.600000 4.607810 0.000000
      vertex 45.111088 3.344152 0.000000
    endloop
  endfacet
  facet normal -0.000000 0.000000 -1.000000
    outer loop
      vertex 41.629622 4.475349 0.000000
      vertex 49.600000 4.607810 0.000000
      vertex 43.490576 4.279754 0.000000
    endloop
  endfacet
  facet normal 0.000000 0.000000 -1.000000
    outer loop
      vertex 10.049000 4.474103 0.000000
      vertex 49.600000 4.607810 0.000000
      vertex 41.629622 4.475349 0.000000
    endloop
  endfacet
  facet normal 0.000000 -0.000000 -1.000000
    outer loop
      vertex 38.459424 2.645034 0.000000
      vertex 10.049000 4.474103 0.000000
      vertex 39.850000 3.897114 0.000000
    endloop
  endfacet
  facet normal 0.000000 0.000000 -1.000000
    outer loop
      vertex 10.049000 4.474103 0.000000
      vertex 38.459424 2.645034 0.000000
      vertex 37.698336 0.935603 0.000000
    endloop
  endfacet
  facet normal 0.000000 0.000000 -1.000000
    outer loop
      vertex -10.759624 -2.287029 0.000000
      vertex -21.500000 4.607810 0.000000
      vertex -11.000000 0.000000 0.000000
    endloop
  endfacet
  facet normal 0.000000 0.000000 -1.000000
    outer loop
      vertex 16.450000 -17.145448 0.000000
      vertex 21.500000 -21.500000 0.000000
      vertex 14.550000 -17.145448 0.000000
    endloop
  endfacet
  facet normal 0.000000 1.000000 0.000000
    outer loop
      vertex -9.971804 4.607810 0.456840
      vertex -9.971804 4.607810 0.000000
      vertex -21.500000 4.607810 0.456840
    endloop
  endfacet
  facet normal 0.000000 1.000000 -0.000000
    outer loop
      vertex -21.500000 4.607810 0.456840
      vertex -9.971804 4.607810 0.000000
      vertex -21.500000 4.607810 0.000000
    endloop
  endfacet
  facet normal 0.000000 0.900969 -0.433884
    outer loop
      vertex -9.492422 5.438125 2.181006
      vertex -9.971804 4.607810 0.456840
      vertex -21.500000 5.438125 2.181006
    endloop
  endfacet
  facet normal 0.000000 0.900969 -0.433884
    outer loop
      vertex -21.500000 5.438125 2.181006
      vertex -9.971804 4.607810 0.456840
      vertex -21.500000 4.607810 0.456840
    endloop
  endfacet
  facet normal 0.000000 0.623490 -0.781831
    outer loop
      vertex -8.477202 6.934300 3.374166
      vertex -8.899187 6.465638 3.000420
      vertex -21.500000 6.934300 3.374166
    endloop
  endfacet
  facet normal 0.000000 0.623490 -0.781831
    outer loop
      vertex -21.500000 6.934300 3.374166
      vertex -8.899187 6.465638 3.000420
      vertex -9.492422 5.438125 2.181006
    endloop
  endfacet
  facet normal 0.000000 0.623490 -0.781831
    outer loop
      vertex -21.500000 6.934300 3.374166
      vertex -9.492422 5.438125 2.181006
      vertex -21.500000 5.438125 2.181006
    endloop
  endfacet
  facet normal 0.000000 0.222521 -0.974928
    outer loop
      vertex -6.499638 8.800000 3.800000
      vertex -7.360437 8.174593 3.657255
      vertex -21.500000 8.800000 3.800000
    endloop
  endfacet
  facet normal 0.000000 0.222521 -0.974928
    outer loop
      vertex -21.500000 8.800000 3.800000
      vertex -7.360437 8.174593 3.657255
      vertex -8.477202 6.934300 3.374166
    endloop
  endfacet
  facet normal 0.000000 0.222521 -0.974928
    outer loop
      vertex -21.500000 8.800000 3.800000
      vertex -8.477202 6.934300 3.374166
      vertex -21.500000 6.934300 3.374166
    endloop
  endfacet
  facet normal 0.000000 -0.222521 -0.974928
    outer loop
      vertex -2.439075 10.665700 3.374166
      vertex -3.399187 10.461622 3.420745
      vertex -21.500000 10.665700 3.374166
    endloop
  endfacet
  facet normal 0.000000 -0.222521 -0.974928
    outer loop
      vertex -21.500000 10.665700 3.374166
      vertex -3.399187 10.461622 3.420745
      vertex -5.500000 9.526279 3.634231
    endloop
  endfacet
  facet normal 0.000000 -0.222521 -0.974928
    outer loop
      vertex -5.500000 9.526279 3.634231
      vertex -6.499638 8.800000 3.800000
      vertex -21.500000 10.665700 3.374166
    endloop
  endfacet
  facet normal 0.000000 -0.222521 -0.974928
    outer loop
      vertex -21.500000 10.665700 3.374166
      vertex -6.499638 8.800000 3.800000
      vertex -21.500000 8.800000 3.800000
    endloop
  endfacet
  facet normal 0.000000 -0.623490 -0.781831
    outer loop
      vertex 49.600000 12.161875 2.181006
      vertex 49.600000 10.665700 3.374166
      vertex -21.500000 12.161875 2.181006
    endloop
  endfacet
  facet normal 0.000000 -0.623490 -0.781831
    outer loop
      vertex 1.149813 10.939741 3.155626
      vertex 49.600000 10.665700 3.374166
      vertex 2.439075 10.665700 3.374166
    endloop
  endfacet
  facet normal 0.000000 -0.623490 -0.781831
    outer loop
      vertex -21.500000 12.161875 2.181006
      vertex 49.600000 10.665700 3.374166
      vertex 1.149813 10.939741 3.155626
    endloop
  endfacet
  facet normal 0.000000 -0.623490 -0.781831
    outer loop
      vertex -21.500000 12.161875 2.181006
      vertex 1.149813 10.939741 3.155626
      vertex -1.149813 10.939741 3.155626
    endloop
  endfacet
  facet normal 0.000000 -0.623490 -0.781831
    outer loop
      vertex -21.500000 12.161875 2.181006
      vertex -2.439075 10.665700 3.374166
      vertex -21.500000 10.665700 3.374166
    endloop
  endfacet
  facet normal 0.000000 -0.623490 -0.781831
    outer loop
      vertex -2.439075 10.665700 3.374166
      vertex -21.500000 12.161875 2.181006
      vertex -1.149813 10.939741 3.155626
    endloop
  endfacet
  facet normal 0.000000 -0.900969 -0.433884
    outer loop
      vertex -21.500000 12.992190 0.456840
      vertex 49.600000 12.992190 0.456840
      vertex 49.600000 12.161875 2.181006
    endloop
  endfacet
  facet normal 0.000000 -0.900969 -0.433884
    outer loop
      vertex -21.500000 12.161875 2.181006
      vertex -21.500000 12.992190 0.456840
      vertex 49.600000 12.161875 2.181006
    endloop
  endfacet
  facet normal 0.000000 -1.000000 0.000000
    outer loop
      vertex 49.600000 12.992190 0.000000
      vertex 49.600000 12.992190 0.456840
      vertex -21.500000 12.992190 0.456840
    endloop
  endfacet
  facet normal -0.000000 -1.000000 -0.000000
    outer loop
      vertex -21.500000 12.992190 0.000000
      vertex 49.600000 12.992190 0.000000
      vertex -21.500000 12.992190 0.456840
    endloop
  endfacet
  facet normal 0.000000 -0.000000 -1.000000
    outer loop
      vertex 16.450000 17.145448 0.000000
      vertex -21.500000 21.500000 0.000000
      vertex 49.600000 21.500000 0.000000
    endloop
  endfacet
  facet normal 0.000000 -0.000000 -1.000000
    outer loop
      vertex -21.500000 12.992190 0.000000
      vertex -21.500000 21.500000 0.000000
      vertex -17.400000 15.500000 0.000000
    endloop
  endfacet
  facet normal 0.000000 0.000000 -1.000000
    outer loop
      vertex -21.500000 12.992190 0.000000
      vertex -17.400000 15.500000 0.000000
      vertex -16.450000 13.854552 0.000000
    endloop
  endfacet
  facet normal 0.000000 -0.000000 -1.000000
    outer loop
      vertex 13.600000 15.500000 0.000000
      vertex -21.500000 21.500000 0.000000
      vertex 14.550000 17.145448 0.000000
    endloop
  endfacet
  facet normal -0.000000 -0.000000 -1.000000
    outer loop
      vertex -16.450000 17.145448 0.000000
      vertex -21.500000 21.500000 0.000000
      vertex -14.550000 17.145448 0.000000
    endloop
  endfacet
  facet normal 0.000000 -0.000000 -1.000000
    outer loop
      vertex -17.400000 15.500000 0.000000
      vertex -21.500000 21.500000 0.000000
      vertex -16.450000 17.145448 0.000000
    endloop
  endfacet
  facet normal -0.000000 -0.000000 -1.000000
    outer loop
      vertex -14.550000 17.145448 0.000000
      vertex -21.500000 21.500000 0.000000
      vertex 13.600000 15.500000 0.000000
    endloop
  endfacet
  facet normal 0.000000 0.000000 -1.000000
    outer loop
      vertex 41.610454 13.155159 0.000000
      vertex 49.600000 12.992190 0.000000
      vertex 26.210454 13.155159 0.000000
    endloop
  endfacet
  facet normal -0.000000 -0.000000 -1.000000
    outer loop
      vertex 14.550000 17.145448 0.000000
      vertex -21.500000 21.500000 0.000000
      vertex 16.450000 17.145448 0.000000
    endloop
  endfacet
  facet normal 0.000000 0.000000 -1.000000
    outer loop
      vertex 28.071678 17.020029 0.000000
      vertex 40.117868 14.345456 0.000000
      vertex 28.900000 15.300000 0.000000
    endloop
  endfacet
  facet normal 0.000000 0.000000 -1.000000
    outer loop
      vertex 28.071678 17.020029 0.000000
      vertex 40.117868 16.254544 0.000000
      vertex 40.117868 14.345456 0.000000
    endloop
  endfacet
  facet normal 0.000000 0.000000 -1.000000
    outer loop
      vertex 14.550000 13.854552 0.000000
      vertex -13.600000 15.500000 0.000000
      vertex -14.550000 17.145448 0.000000
    endloop
  endfacet
  facet normal 0.000000 0.000000 -1.000000
    outer loop
      vertex 26.210454 13.155159 0.000000
      vertex 17.400000 15.500000 0.000000
      vertex 24.717868 14.345456 0.000000
    endloop
  endfacet
  facet normal 0.000000 -0.000000 -1.000000
    outer loop
      vertex 24.717868 16.254544 0.000000
      vertex 16.450000 17.145448 0.000000
      vertex 26.210454 17.444841 0.000000
    endloop
  endfacet
  facet normal 0.000000 -0.000000 -1.000000
    outer loop
      vertex 26.210454 17.444841 0.000000
      vertex 16.450000 17.145448 0.000000
      vertex 49.600000 21.500000 0.000000
    endloop
  endfacet
  facet normal 0.000000 0.000000 -1.000000
    outer loop
      vertex 14.550000 13.854552 0.000000
      vertex -14.550000 17.145448 0.000000
      vertex 13.600000 15.500000 0.000000
    endloop
  endfacet
  facet normal 0.000000 0.000000 -1.000000
    outer loop
      vertex 44.300000 15.300000 0.000000
      vertex 49.600000 12.992190 0.000000
      vertex 43.471678 13.579971 0.000000
    endloop
  endfacet
  facet normal 0.000000 0.000000 -1.000000
    outer loop
      vertex 41.610454 13.155159 0.000000
      vertex 28.900000 15.300000 0.000000
      vertex 40.117868 14.345456 0.000000
    endloop
  endfacet
  facet normal 0.000000 0.000000 -1.000000
    outer loop
      vertex 28.071678 17.020029 0.000000
      vertex 49.600000 21.500000 0.000000
      vertex 41.610454 17.444841 0.000000
    endloop
  endfacet
  facet normal 0.000000 0.000000 -1.000000
    outer loop
      vertex -21.500000 12.992190 0.000000
      vertex -16.450000 13.854552 0.000000
      vertex 26.210454 13.155159 0.000000
    endloop
  endfacet
  facet normal -0.000000 0.000000 -1.000000
    outer loop
      vertex -21.500000 12.992190 0.000000
      vertex 26.210454 13.155159 0.000000
      vertex 49.600000 12.992190 0.000000
    endloop
  endfacet
  facet normal 0.000000 0.000000 -1.000000
    outer loop
      vertex 26.210454 13.155159 0.000000
      vertex 16.450000 13.854552 0.000000
      vertex 17.400000 15.500000 0.000000
    endloop
  endfacet
  facet normal -0.000000 0.000000 -1.000000
    outer loop
      vertex 28.071678 17.020029 0.000000
      vertex 41.610454 17.444841 0.000000
      vertex 40.117868 16.254544 0.000000
    endloop
  endfacet
  facet normal 0.000000 0.000000 -1.000000
    outer loop
      vertex 24.717868 14.345456 0.000000
      vertex 17.400000 15.500000 0.000000
      vertex 16.450000 17.145448 0.000000
    endloop
  endfacet
  facet normal 0.000000 0.000000 -1.000000
    outer loop
      vertex 41.610454 13.155159 0.000000
      vertex 28.071678 13.579971 0.000000
      vertex 28.900000 15.300000 0.000000
    endloop
  endfacet
  facet normal 0.000000 0.000000 -1.000000
    outer loop
      vertex 24.717868 14.345456 0.000000
      vertex 16.450000 17.145448 0.000000
      vertex 24.717868 16.254544 0.000000
    endloop
  endfacet
  facet normal 0.000000 -0.000000 -1.000000
    outer loop
      vertex 28.071678 17.020029 0.000000
      vertex 26.210454 17.444841 0.000000
      vertex 49.600000 21.500000 0.000000
    endloop
  endfacet
  facet normal 0.000000 0.000000 -1.000000
    outer loop
      vertex 43.471678 13.579971 0.000000
      vertex 49.600000 12.992190 0.000000
      vertex 41.610454 13.155159 0.000000
    endloop
  endfacet
  facet normal 0.000000 0.000000 -1.000000
    outer loop
      vertex 26.210454 13.155159 0.000000
      vertex 14.550000 13.854552 0.000000
      vertex 16.450000 13.854552 0.000000
    endloop
  endfacet
  facet normal 0.000000 0.000000 -1.000000
    outer loop
      vertex 26.210454 13.155159 0.000000
      vertex -14.550000 13.854552 0.000000
      vertex 14.550000 13.854552 0.000000
    endloop
  endfacet
  facet normal -0.000000 0.000000 -1.000000
    outer loop
      vertex 41.610454 17.444841 0.000000
      vertex 49.600000 21.500000 0.000000
      vertex 43.471678 17.020029 0.000000
    endloop
  endfacet
  facet normal 0.000000 0.000000 -1.000000
    outer loop
      vertex 49.600000 12.992190 0.000000
      vertex 44.300000 15.300000 0.000000
      vertex 49.600000 21.500000 0.000000
    endloop
  endfacet
  facet normal 0.000000 -0.000000 -1.000000
    outer loop
      vertex 44.300000 15.300000 0.000000
      vertex 43.471678 17.020029 0.000000
      vertex 49.600000 21.500000 0.000000
    endloop
  endfacet
  facet normal 0.000000 0.000000 -1.000000
    outer loop
      vertex 26.210454 13.155159 0.000000
      vertex -16.450000 13.854552 0.000000
      vertex -14.550000 13.854552 0.000000
    endloop
  endfacet
  facet normal 0.000000 0.000000 -1.000000
    outer loop
      vertex -13.600000 15.500000 0.000000
      vertex 14.550000 13.854552 0.000000
      vertex -14.550000 13.854552 0.000000
    endloop
  endfacet
  facet normal 0.000000 0.000000 -1.000000
    outer loop
      vertex 28.071678 13.579971 0.000000
      vertex 41.610454 13.155159 0.000000
      vertex 26.210454 13.155159 0.000000
    endloop
  endfacet
  facet normal 0.000000 1.000000 0.000000
    outer loop
      vertex -21.500000 21.500000 0.000000
      vertex -21.500000 21.500000 7.000000
      vertex 49.600000 21.500000 0.000000
    endloop
  endfacet
  facet normal 0.000000 1.000000 0.000000
    outer loop
      vertex 49.600000 21.500000 0.000000
      vertex -21.500000 21.500000 7.000000
      vertex 49.600000 21.500000 7.000000
    endloop
  endfacet
  facet normal 0.000000 -0.000000 1.000000
    outer loop
      vertex -16.450000 -17.145448 7.000000
      vertex -21.500000 -21.500000 7.000000
      vertex 21.500000 -21.500000 7.000000
    endloop
  endfacet
  facet normal 0.000000 0.000000 1.000000
    outer loop
      vertex 1.149813 10.939741 7.000000
      vertex 3.399187 10.461622 7.000000
      vertex -14.550000 17.145448 7.000000
    endloop
  endfacet
  facet normal 0.000000 0.000000 1.000000
    outer loop
      vertex 39.850000 -3.897114 7.000000
      vertex -21.500000 21.500000 7.000000
      vertex 3.399187 10.461622 7.000000
    endloop
  endfacet
  facet normal 0.000000 -0.000000 1.000000
    outer loop
      vertex -14.550000 -17.145448 7.000000
      vertex -16.450000 -17.145448 7.000000
      vertex 21.500000 -21.500000 7.000000
    endloop
  endfacet
  facet normal 0.000000 -0.000000 1.000000
    outer loop
      vertex -17.400000 -15.500000 7.000000
      vertex -21.500000 -21.500000 7.000000
      vertex -16.450000 -17.145448 7.000000
    endloop
  endfacet
  facet normal 0.000000 0.000000 1.000000
    outer loop
      vertex -14.550000 -13.854552 7.000000
      vertex -13.600000 -15.500000 7.000000
      vertex 21.500000 -21.500000 7.000000
    endloop
  endfacet
  facet normal 0.000000 -0.000000 1.000000
    outer loop
      vertex -21.500000 21.500000 7.000000
      vertex -21.500000 -21.500000 7.000000
      vertex -17.400000 -15.500000 7.000000
    endloop
  endfacet
  facet normal 0.000000 -0.000000 1.000000
    outer loop
      vertex 1.149813 -10.939741 7.000000
      vertex -14.550000 -13.854552 7.000000
      vertex 21.500000 -21.500000 7.000000
    endloop
  endfacet
  facet normal 0.000000 0.000000 1.000000
    outer loop
      vertex -21.500000 21.500000 7.000000
      vertex -16.450000 -13.854552 7.000000
      vertex -14.550000 -13.854552 7.000000
    endloop
  endfacet
  facet normal 0.000000 -0.000000 1.000000
    outer loop
      vertex -13.600000 -15.500000 7.000000
      vertex -14.550000 -17.145448 7.000000
      vertex 21.500000 -21.500000 7.000000
    endloop
  endfacet
  facet normal 0.000000 0.000000 1.000000
    outer loop
      vertex -5.500000 9.526279 7.000000
      vertex -3.399187 10.461622 7.000000
      vertex -14.550000 17.145448 7.000000
    endloop
  endfacet
  facet normal 0.000000 0.000000 1.000000
    outer loop
      vertex -21.500000 21.500000 7.000000
      vertex -14.550000 -13.854552 7.000000
      vertex -16.450000 13.854552 7.000000
    endloop
  endfacet
  facet normal 0.000000 0.000000 1.000000
    outer loop
      vertex -17.400000 15.500000 7.000000
      vertex -16.450000 17.145448 7.000000
      vertex -21.500000 21.500000 7.000000
    endloop
  endfacet
  facet normal 0.000000 0.000000 1.000000
    outer loop
      vertex -21.500000 21.500000 7.000000
      vertex -16.450000 13.854552 7.000000
      vertex -17.400000 15.500000 7.000000
    endloop
  endfacet
  facet normal 0.000000 0.000000 1.000000
    outer loop
      vertex -13.600000 15.500000 7.000000
      vertex -7.360437 8.174593 7.000000
      vertex -5.500000 9.526279 7.000000
    endloop
  endfacet
  facet normal 0.000000 0.000000 1.000000
    outer loop
      vertex 3.399187 10.461622 7.000000
      vertex -21.500000 21.500000 7.000000
      vertex -14.550000 17.145448 7.000000
    endloop
  endfacet
  facet normal 0.000000 0.000000 1.000000
    outer loop
      vertex -8.899187 6.465638 7.000000
      vertex -7.360437 8.174593 7.000000
      vertex -14.550000 13.854552 7.000000
    endloop
  endfacet
  facet normal 0.000000 0.000000 1.000000
    outer loop
      vertex 13.600000 -15.500000 7.000000
      vertex 14.550000 -13.854552 7.000000
      vertex 7.360437 -8.174593 7.000000
    endloop
  endfacet
  facet normal 0.000000 0.000000 1.000000
    outer loop
      vertex -16.450000 17.145448 7.000000
      vertex -14.550000 17.145448 7.000000
      vertex -21.500000 21.500000 7.000000
    endloop
  endfacet
  facet normal 0.000000 0.000000 1.000000
    outer loop
      vertex -16.450000 13.854552 7.000000
      vertex -14.550000 -13.854552 7.000000
      vertex -10.759624 -2.287029 7.000000
    endloop
  endfacet
  facet normal 0.000000 -0.000000 1.000000
    outer loop
      vertex 16.450000 -17.145448 7.000000
      vertex 14.550000 -17.145448 7.000000
      vertex 21.500000 -21.500000 7.000000
    endloop
  endfacet
  facet normal 0.000000 0.000000 1.000000
    outer loop
      vertex -16.450000 13.854552 7.000000
      vertex -10.759624 -2.287029 7.000000
      vertex -11.000000 0.000000 7.000000
    endloop
  endfacet
  facet normal 0.000000 0.000000 1.000000
    outer loop
      vertex 14.550000 -13.854552 7.000000
      vertex 10.049000 -4.474103 7.000000
      vertex 8.899187 -6.465638 7.000000
    endloop
  endfacet
  facet normal 0.000000 0.000000 1.000000
    outer loop
      vertex -16.450000 13.854552 7.000000
      vertex -11.000000 0.000000 7.000000
      vertex -10.759624 2.287029 7.000000
    endloop
  endfacet
  facet normal 0.000000 0.000000 1.000000
    outer loop
      vertex -16.450000 13.854552 7.000000
      vertex -10.759624 2.287029 7.000000
      vertex -10.049000 4.474103 7.000000
    endloop
  endfacet
  facet normal 0.000000 0.000000 1.000000
    outer loop
      vertex -16.450000 13.854552 7.000000
      vertex -10.049000 4.474103 7.000000
      vertex -8.899187 6.465638 7.000000
    endloop
  endfacet
  facet normal 0.000000 0.000000 1.000000
    outer loop
      vertex 16.450000 -13.854552 7.000000
      vertex 17.400000 -15.500000 7.000000
      vertex 21.500000 -21.500000 7.000000
    endloop
  endfacet
  facet normal 0.000000 0.000000 1.000000
    outer loop
      vertex -8.899187 6.465638 7.000000
      vertex -14.550000 13.854552 7.000000
      vertex -16.450000 13.854552 7.000000
    endloop
  endfacet
  facet normal -0.000000 0.000000 1.000000
    outer loop
      vertex -1.149813 10.939741 7.000000
      vertex -14.550000 17.145448 7.000000
      vertex -3.399187 10.461622 7.000000
    endloop
  endfacet
  facet normal -0.000000 0.000000 1.000000
    outer loop
      vertex 1.149813 10.939741 7.000000
      vertex -14.550000 17.145448 7.000000
      vertex -1.149813 10.939741 7.000000
    endloop
  endfacet
  facet normal 0.000000 0.000000 1.000000
    outer loop
      vertex 39.850000 -3.897114 7.000000
      vertex 3.399187 10.461622 7.000000
      vertex 5.500000 9.526279 7.000000
    endloop
  endfacet
  facet normal -0.000000 -0.000000 1.000000
    outer loop
      vertex 41.629622 -4.475349 7.000000
      vertex 39.850000 -3.897114 7.000000
      vertex 49.600000 -7.500000 7.000000
    endloop
  endfacet
  facet normal 0.000000 -0.000000 1.000000
    outer loop
      vertex 11.000000 0.000000 7.000000
      vertex 10.759624 -2.287029 7.000000
      vertex 21.500000 -7.500000 7.000000
    endloop
  endfacet
  facet normal 0.000000 0.000000 1.000000
    outer loop
      vertex 10.759624 2.287029 7.000000
      vertex 11.000000 0.000000 7.000000
      vertex 21.500000 -7.500000 7.000000
    endloop
  endfacet
  facet normal -0.000000 0.000000 1.000000
    outer loop
      vertex 49.600000 -7.500000 7.000000
      vertex 10.049000 4.474103 7.000000
      vertex 21.500000 -7.500000 7.000000
    endloop
  endfacet
  facet normal 0.000000 0.000000 1.000000
    outer loop
      vertex 10.049000 4.474103 7.000000
      vertex 10.759624 2.287029 7.000000
      vertex 21.500000 -7.500000 7.000000
    endloop
  endfacet
  facet normal 0.000000 0.000000 1.000000
    outer loop
      vertex 7.360437 8.174593 7.000000
      vertex 8.899187 6.465638 7.000000
      vertex 39.850000 -3.897114 7.000000
    endloop
  endfacet
  facet normal -0.000000 0.000000 1.000000
    outer loop
      vertex 21.500000 -7.500000 7.000000
      vertex 10.759624 -2.287029 7.000000
      vertex 21.500000 -21.500000 7.000000
    endloop
  endfacet
  facet normal 0.000000 0.000000 1.000000
    outer loop
      vertex 38.459424 2.645034 7.000000
      vertex 39.850000 3.897114 7.000000
      vertex 28.900000 15.300000 7.000000
    endloop
  endfacet
  facet normal -0.000000 -0.000000 1.000000
    outer loop
      vertex 14.550000 -17.145448 7.000000
      vertex 3.399187 -10.461622 7.000000
      vertex 21.500000 -21.500000 7.000000
    endloop
  endfacet
  facet normal 0.000000 0.000000 1.000000
    outer loop
      vertex 14.550000 -17.145448 7.000000
      vertex 13.600000 -15.500000 7.000000
      vertex 5.500000 -9.526279 7.000000
    endloop
  endfacet
  facet normal 0.000000 -0.000000 1.000000
    outer loop
      vertex -1.149813 -10.939741 7.000000
      vertex -14.550000 -13.854552 7.000000
      vertex 1.149813 -10.939741 7.000000
    endloop
  endfacet
  facet normal 0.000000 -0.000000 1.000000
    outer loop
      vertex -3.399187 -10.461622 7.000000
      vertex -14.550000 -13.854552 7.000000
      vertex -1.149813 -10.939741 7.000000
    endloop
  endfacet
  facet normal 0.000000 -0.000000 1.000000
    outer loop
      vertex -5.500000 -9.526279 7.000000
      vertex -14.550000 -13.854552 7.000000
      vertex -3.399187 -10.461622 7.000000
    endloop
  endfacet
  facet normal 0.000000 -0.000000 1.000000
    outer loop
      vertex -7.360437 -8.174593 7.000000
      vertex -14.550000 -13.854552 7.000000
      vertex -5.500000 -9.526279 7.000000
    endloop
  endfacet
  facet normal 0.000000 -0.000000 1.000000
    outer loop
      vertex -8.899187 -6.465638 7.000000
      vertex -14.550000 -13.854552 7.000000
      vertex -7.360437 -8.174593 7.000000
    endloop
  endfacet
  facet normal 0.000000 -0.000000 1.000000
    outer loop
      vertex -10.049000 -4.474103 7.000000
      vertex -14.550000 -13.854552 7.000000
      vertex -8.899187 -6.465638 7.000000
    endloop
  endfacet
  facet normal 0.000000 -0.000000 1.000000
    outer loop
      vertex -10.759624 -2.287029 7.000000
      vertex -14.550000 -13.854552 7.000000
      vertex -10.049000 -4.474103 7.000000
    endloop
  endfacet
  facet normal 0.000000 -0.000000 1.000000
    outer loop
      vertex 3.399187 -10.461622 7.000000
      vertex 1.149813 -10.939741 7.000000
      vertex 21.500000 -21.500000 7.000000
    endloop
  endfacet
  facet normal 0.000000 -0.000000 1.000000
    outer loop
      vertex 43.490576 -4.279754 7.000000
      vertex 41.629622 -4.475349 7.000000
      vertex 49.600000 -7.500000 7.000000
    endloop
  endfacet
  facet normal 0.000000 0.000000 1.000000
    outer loop
      vertex 16.450000 17.145448 7.000000
      vertex 26.210454 17.444841 7.000000
      vertex 49.600000 21.500000 7.000000
    endloop
  endfacet
  facet normal 0.000000 0.000000 1.000000
    outer loop
      vertex 10.759624 -2.287029 7.000000
      vertex 16.450000 -13.854552 7.000000
      vertex 21.500000 -21.500000 7.000000
    endloop
  endfacet
  facet normal 0.000000 -0.000000 1.000000
    outer loop
      vertex 10.759624 -2.287029 7.000000
      vertex 10.049000 -4.474103 7.000000
      vertex 16.450000 -13.854552 7.000000
    endloop
  endfacet
  facet normal 0.000000 -0.000000 1.000000
    outer loop
      vertex 17.400000 -15.500000 7.000000
      vertex 16.450000 -17.145448 7.000000
      vertex 21.500000 -21.500000 7.000000
    endloop
  endfacet
  facet normal 0.000000 0.000000 1.000000
    outer loop
      vertex 16.450000 17.145448 7.000000
      vertex 17.400000 15.500000 7.000000
      vertex 26.210454 17.444841 7.000000
    endloop
  endfacet
  facet normal 0.000000 0.000000 1.000000
    outer loop
      vertex 14.550000 -13.854552 7.000000
      vertex 16.450000 -13.854552 7.000000
      vertex 10.049000 -4.474103 7.000000
    endloop
  endfacet
  facet normal 0.000000 -0.000000 1.000000
    outer loop
      vertex 5.500000 -9.526279 7.000000
      vertex 3.399187 -10.461622 7.000000
      vertex 14.550000 -17.145448 7.000000
    endloop
  endfacet
  facet normal 0.000000 0.000000 1.000000
    outer loop
      vertex 37.698336 0.935603 7.000000
      vertex 26.210454 13.155159 7.000000
      vertex 24.717868 14.345456 7.000000
    endloop
  endfacet
  facet normal -0.000000 -0.000000 1.000000
    outer loop
      vertex 13.600000 15.500000 7.000000
      vertex -21.500000 21.500000 7.000000
      vertex 14.550000 13.854552 7.000000
    endloop
  endfacet
  facet normal -0.000000 0.000000 1.000000
    outer loop
      vertex 14.550000 17.145448 7.000000
      vertex -21.500000 21.500000 7.000000
      vertex 13.600000 15.500000 7.000000
    endloop
  endfacet
  facet normal 0.000000 0.000000 1.000000
    outer loop
      vertex 49.600000 21.500000 7.000000
      vertex -21.500000 21.500000 7.000000
      vertex 14.550000 17.145448 7.000000
    endloop
  endfacet
  facet normal 0.000000 -0.000000 1.000000
    outer loop
      vertex 17.400000 15.500000 7.000000
      vertex 16.450000 13.854552 7.000000
      vertex 24.717868 16.254544 7.000000
    endloop
  endfacet
  facet normal 0.000000 0.000000 1.000000
    outer loop
      vertex 49.600000 21.500000 7.000000
      vertex 14.550000 17.145448 7.000000
      vertex 16.450000 17.145448 7.000000
    endloop
  endfacet
  facet normal -0.000000 0.000000 1.000000
    outer loop
      vertex 24.717868 16.254544 7.000000
      vertex 26.210454 17.444841 7.000000
      vertex 17.400000 15.500000 7.000000
    endloop
  endfacet
  facet normal 0.000000 0.000000 1.000000
    outer loop
      vertex 38.459424 -2.645034 7.000000
      vertex 37.698336 -0.935603 7.000000
      vertex -21.500000 21.500000 7.000000
    endloop
  endfacet
  facet normal -0.000000 0.000000 1.000000
    outer loop
      vertex 24.717868 14.345456 7.000000
      vertex 24.717868 16.254544 7.000000
      vertex 16.450000 13.854552 7.000000
    endloop
  endfacet
  facet normal 0.000000 0.000000 1.000000
    outer loop
      vertex 28.071678 17.020029 7.000000
      vertex 28.900000 15.300000 7.000000
      vertex 49.600000 21.500000 7.000000
    endloop
  endfacet
  facet normal 0.000000 0.000000 1.000000
    outer loop
      vertex 26.210454 17.444841 7.000000
      vertex 28.071678 17.020029 7.000000
      vertex 49.600000 21.500000 7.000000
    endloop
  endfacet
  facet normal 0.000000 0.000000 1.000000
    outer loop
      vertex 37.698336 -0.935603 7.000000
      vertex 37.698336 0.935603 7.000000
      vertex 16.450000 13.854552 7.000000
    endloop
  endfacet
  facet normal 0.000000 0.000000 1.000000
    outer loop
      vertex 37.698336 0.935603 7.000000
      vertex 38.459424 2.645034 7.000000
      vertex 26.210454 13.155159 7.000000
    endloop
  endfacet
  facet normal -0.000000 -0.000000 1.000000
    outer loop
      vertex 14.550000 13.854552 7.000000
      vertex -21.500000 21.500000 7.000000
      vertex 37.698336 -0.935603 7.000000
    endloop
  endfacet
  facet normal 0.000000 0.000000 1.000000
    outer loop
      vertex 38.459424 2.645034 7.000000
      vertex 28.900000 15.300000 7.000000
      vertex 28.071678 13.579971 7.000000
    endloop
  endfacet
  facet normal 0.000000 -0.000000 1.000000
    outer loop
      vertex 24.717868 14.345456 7.000000
      vertex 16.450000 13.854552 7.000000
      vertex 37.698336 0.935603 7.000000
    endloop
  endfacet
  facet normal 0.000000 -0.000000 1.000000
    outer loop
      vertex 28.071678 13.579971 7.000000
      vertex 26.210454 13.155159 7.000000
      vertex 38.459424 2.645034 7.000000
    endloop
  endfacet
  facet normal -0.000000 0.000000 1.000000
    outer loop
      vertex 40.117868 14.345456 7.000000
      vertex 28.900000 15.300000 7.000000
      vertex 39.850000 3.897114 7.000000
    endloop
  endfacet
  facet normal 0.000000 0.000000 1.000000
    outer loop
      vertex 49.600000 21.500000 7.000000
      vertex 39.850000 3.897114 7.000000
      vertex 41.629622 4.475349 7.000000
    endloop
  endfacet
  facet normal 0.000000 0.000000 1.000000
    outer loop
      vertex 49.600000 21.500000 7.000000
      vertex 41.629622 4.475349 7.000000
      vertex 43.490576 4.279754 7.000000
    endloop
  endfacet
  facet normal 0.000000 -0.000000 1.000000
    outer loop
      vertex 46.210955 -1.830315 7.000000
      vertex 45.111088 -3.344152 7.000000
      vertex 49.600000 -7.500000 7.000000
    endloop
  endfacet
  facet normal 0.000000 0.000000 1.000000
    outer loop
      vertex 49.600000 21.500000 7.000000
      vertex 43.490576 4.279754 7.000000
      vertex 45.111088 3.344152 7.000000
    endloop
  endfacet
  facet normal 0.000000 0.000000 1.000000
    outer loop
      vertex 49.600000 21.500000 7.000000
      vertex 46.210955 1.830315 7.000000
      vertex 49.600000 -7.500000 7.000000
    endloop
  endfacet
  facet normal 0.000000 0.000000 1.000000
    outer loop
      vertex 49.600000 21.500000 7.000000
      vertex 45.111088 3.344152 7.000000
      vertex 46.210955 1.830315 7.000000
    endloop
  endfacet
  facet normal 0.000000 0.000000 1.000000
    outer loop
      vertex 46.210955 1.830315 7.000000
      vertex 46.600000 0.000000 7.000000
      vertex 49.600000 -7.500000 7.000000
    endloop
  endfacet
  facet normal 0.000000 -0.000000 1.000000
    outer loop
      vertex 46.600000 0.000000 7.000000
      vertex 46.210955 -1.830315 7.000000
      vertex 49.600000 -7.500000 7.000000
    endloop
  endfacet
  facet normal 0.000000 -0.000000 1.000000
    outer loop
      vertex 45.111088 -3.344152 7.000000
      vertex 43.490576 -4.279754 7.000000
      vertex 49.600000 -7.500000 7.000000
    endloop
  endfacet
  facet normal 0.000000 0.000000 1.000000
    outer loop
      vertex 41.610454 17.444841 7.000000
      vertex 43.471678 17.020029 7.000000
      vertex 49.600000 21.500000 7.000000
    endloop
  endfacet
  facet normal 0.000000 0.000000 1.000000
    outer loop
      vertex 39.850000 -3.897114 7.000000
      vertex 5.500000 9.526279 7.000000
      vertex 7.360437 8.174593 7.000000
    endloop
  endfacet
  facet normal -0.000000 -0.000000 1.000000
    outer loop
      vertex 39.850000 -3.897114 7.000000
      vertex 8.899187 6.465638 7.000000
      vertex 49.600000 -7.500000 7.000000
    endloop
  endfacet
  facet normal 0.000000 0.000000 1.000000
    outer loop
      vertex 8.899187 6.465638 7.000000
      vertex 10.049000 4.474103 7.000000
      vertex 49.600000 -7.500000 7.000000
    endloop
  endfacet
  facet normal 0.000000 0.000000 1.000000
    outer loop
      vertex 39.850000 -3.897114 7.000000
      vertex 38.459424 -2.645034 7.000000
      vertex -21.500000 21.500000 7.000000
    endloop
  endfacet
  facet normal 0.000000 0.000000 1.000000
    outer loop
      vertex 37.698336 -0.935603 7.000000
      vertex 16.450000 13.854552 7.000000
      vertex 14.550000 13.854552 7.000000
    endloop
  endfacet
  facet normal -0.000000 0.000000 1.000000
    outer loop
      vertex 41.610454 13.155159 7.000000
      vertex 40.117868 14.345456 7.000000
      vertex 39.850000 3.897114 7.000000
    endloop
  endfacet
  facet normal 0.000000 0.000000 1.000000
    outer loop
      vertex 40.117868 16.254544 7.000000
      vertex 28.900000 15.300000 7.000000
      vertex 40.117868 14.345456 7.000000
    endloop
  endfacet
  facet normal 0.000000 0.000000 1.000000
    outer loop
      vertex 41.610454 17.444841 7.000000
      vertex 28.900000 15.300000 7.000000
      vertex 40.117868 16.254544 7.000000
    endloop
  endfacet
  facet normal 0.000000 0.000000 1.000000
    outer loop
      vertex 43.471678 17.020029 7.000000
      vertex 44.300000 15.300000 7.000000
      vertex 49.600000 21.500000 7.000000
    endloop
  endfacet
  facet normal 0.000000 0.000000 1.000000
    outer loop
      vertex 49.600000 21.500000 7.000000
      vertex 28.900000 15.300000 7.000000
      vertex 41.610454 17.444841 7.000000
    endloop
  endfacet
  facet normal 0.000000 0.000000 1.000000
    outer loop
      vertex 49.600000 21.500000 7.000000
      vertex 44.300000 15.300000 7.000000
      vertex 39.850000 3.897114 7.000000
    endloop
  endfacet
  facet normal 0.000000 0.000000 1.000000
    outer loop
      vertex 44.300000 15.300000 7.000000
      vertex 43.471678 13.579971 7.000000
      vertex 39.850000 3.897114 7.000000
    endloop
  endfacet
  facet normal 0.000000 0.000000 1.000000
    outer loop
      vertex 43.471678 13.579971 7.000000
      vertex 41.610454 13.155159 7.000000
      vertex 39.850000 3.897114 7.000000
    endloop
  endfacet
  facet normal 0.000000 0.000000 1.000000
    outer loop
      vertex -17.400000 -15.500000 7.000000
      vertex -16.450000 -13.854552 7.000000
      vertex -21.500000 21.500000 7.000000
    endloop
  endfacet
  facet normal 0.000000 0.000000 1.000000
    outer loop
      vertex -5.500000 9.526279 7.000000
      vertex -14.550000 17.145448 7.000000
      vertex -13.600000 15.500000 7.000000
    endloop
  endfacet
  facet normal 0.000000 -0.000000 1.000000
    outer loop
      vertex 8.899187 -6.465638 7.000000
      vertex 7.360437 -8.174593 7.000000
      vertex 14.550000 -13.854552 7.000000
    endloop
  endfacet
  facet normal 0.000000 -0.000000 1.000000
    outer loop
      vertex -13.600000 15.500000 7.000000
      vertex -14.550000 13.854552 7.000000
      vertex -7.360437 8.174593 7.000000
    endloop
  endfacet
  facet normal 0.000000 -0.000000 1.000000
    outer loop
      vertex 7.360437 -8.174593 7.000000
      vertex 5.500000 -9.526279 7.000000
      vertex 13.600000 -15.500000 7.000000
    endloop
  endfacet
  facet normal 1.000000 0.000000 -0.000000
    outer loop
      vertex 21.500000 -21.500000 7.000000
      vertex 21.500000 -21.500000 0.000000
      vertex 21.500000 -7.500000 0.000000
    endloop
  endfacet
  facet normal 1.000000 0.000000 0.000000
    outer loop
      vertex 21.500000 -7.500000 7.000000
      vertex 21.500000 -21.500000 7.000000
      vertex 21.500000 -7.500000 0.000000
    endloop
  endfacet
  facet normal 0.000000 -1.000000 0.000000
    outer loop
      vertex 21.500000 -7.500000 7.000000
      vertex 21.500000 -7.500000 0.000000
      vertex 49.600000 -7.500000 0.000000
    endloop
  endfacet
  facet normal 0.000000 -1.000000 0.000000
    outer loop
      vertex 49.600000 -7.500000 7.000000
      vertex 21.500000 -7.500000 7.000000
      vertex 49.600000 -7.500000 0.000000
    endloop
  endfacet
  facet normal 1.000000 0.000000 -0.000000
    outer loop
      vertex 49.600000 -7.500000 7.000000
      vertex 49.600000 -7.500000 0.000000
      vertex 49.600000 4.607810 0.000000
    endloop
  endfacet
  facet normal 1.000000 -0.000000 0.000000
    outer loop
      vertex 49.600000 5.438125 2.181006
      vertex 49.600000 -7.500000 7.000000
      vertex 49.600000 4.607810 0.456840
    endloop
  endfacet
  facet normal 1.000000 -0.000000 0.000000
    outer loop
      vertex 49.600000 4.607810 0.456840
      vertex 49.600000 -7.500000 7.000000
      vertex 49.600000 4.607810 0.000000
    endloop
  endfacet
  facet normal 1.000000 -0.000000 0.000000
    outer loop
      vertex 49.600000 6.934300 3.374166
      vertex 49.600000 -7.500000 7.000000
      vertex 49.600000 5.438125 2.181006
    endloop
  endfacet
  facet normal 1.000000 -0.000000 0.000000
    outer loop
      vertex 49.600000 8.800000 3.800000
      vertex 49.600000 -7.500000 7.000000
      vertex 49.600000 6.934300 3.374166
    endloop
  endfacet
  facet normal 1.000000 0.000000 0.000000
    outer loop
      vertex 49.600000 21.500000 7.000000
      vertex 49.600000 -7.500000 7.000000
      vertex 49.600000 8.800000 3.800000
    endloop
  endfacet
  facet normal 1.000000 0.000000 0.000000
    outer loop
      vertex 49.600000 21.500000 7.000000
      vertex 49.600000 8.800000 3.800000
      vertex 49.600000 10.665700 3.374166
    endloop
  endfacet
  facet normal 1.000000 0.000000 0.000000
    outer loop
      vertex 49.600000 21.500000 0.000000
      vertex 49.600000 10.665700 3.374166
      vertex 49.600000 12.161875 2.181006
    endloop
  endfacet
  facet normal 1.000000 0.000000 0.000000
    outer loop
      vertex 49.600000 21.500000 0.000000
      vertex 49.600000 12.161875 2.181006
      vertex 49.600000 12.992190 0.456840
    endloop
  endfacet
  facet normal 1.000000 -0.000000 0.000000
    outer loop
      vertex 49.600000 21.500000 0.000000
      vertex 49.600000 12.992190 0.456840
      vertex 49.600000 12.992190 0.000000
    endloop
  endfacet
  facet normal 1.000000 0.000000 0.000000
    outer loop
      vertex 49.600000 21.500000 7.000000
      vertex 49.600000 10.665700 3.374166
      vertex 49.600000 21.500000 0.000000
    endloop
  endfacet
  facet normal 0.000000 1.000000 0.000000
    outer loop
      vertex 49.600000 4.607810 0.456840
      vertex 49.600000 4.607810 0.000000
      vertex 9.971804 4.607810 0.456840
    endloop
  endfacet
  facet normal 0.000000 1.000000 -0.000000
    outer loop
      vertex 9.971804 4.607810 0.456840
      vertex 49.600000 4.607810 0.000000
      vertex 9.971804 4.607810 0.000000
    endloop
  endfacet
  facet normal -0.866025 -0.500000 0.000000
    outer loop
      vertex 9.971804 4.607810 0.456840
      vertex 9.971804 4.607810 0.000000
      vertex 10.049000 4.474103 0.000000
    endloop
  endfacet
  facet normal -0.866025 -0.500000 0.000000
    outer loop
      vertex 9.971804 4.607810 0.456840
      vertex 10.049000 4.474103 0.000000
      vertex 10.049000 4.474103 7.000000
    endloop
  endfacet
  facet normal -0.866025 -0.500000 0.000000
    outer loop
      vertex 9.971804 4.607810 0.456840
      vertex 10.049000 4.474103 7.000000
      vertex 9.492422 5.438125 2.181006
    endloop
  endfacet
  facet normal -0.866025 -0.500000 0.000000
    outer loop
      vertex 10.049000 4.474103 7.000000
      vertex 8.899187 6.465638 7.000000
      vertex 9.492422 5.438125 2.181006
    endloop
  endfacet
  facet normal -0.866025 -0.500000 0.000000
    outer loop
      vertex 8.899187 6.465638 7.000000
      vertex 8.899187 6.465638 3.000420
      vertex 9.492422 5.438125 2.181006
    endloop
  endfacet
  facet normal -0.951056 -0.309017 0.000000
    outer loop
      vertex 10.759624 2.287029 7.000000
      vertex 10.049000 4.474103 7.000000
      vertex 10.759624 2.287029 0.000000
    endloop
  endfacet
  facet normal -0.951056 -0.309017 0.000000
    outer loop
      vertex 10.759624 2.287029 0.000000
      vertex 10.049000 4.474103 7.000000
      vertex 10.049000 4.474103 0.000000
    endloop
  endfacet
  facet normal -0.994522 -0.104528 0.000000
    outer loop
      vertex 11.000000 0.000000 7.000000
      vertex 10.759624 2.287029 7.000000
      vertex 11.000000 0.000000 0.000000
    endloop
  endfacet
  facet normal -0.994522 -0.104528 0.000000
    outer loop
      vertex 11.000000 0.000000 0.000000
      vertex 10.759624 2.287029 7.000000
      vertex 10.759624 2.287029 0.000000
    endloop
  endfacet
  facet normal -0.994522 0.104528 0.000000
    outer loop
      vertex 11.000000 0.000000 7.000000
      vertex 11.000000 0.000000 0.000000
      vertex 10.759624 -2.287029 7.000000
    endloop
  endfacet
  facet normal -0.994522 0.104528 0.000000
    outer loop
      vertex 10.759624 -2.287029 7.000000
      vertex 11.000000 0.000000 0.000000
      vertex 10.759624 -2.287029 0.000000
    endloop
  endfacet
  facet normal -0.951056 0.309017 0.000000
    outer loop
      vertex 10.759624 -2.287029 7.000000
      vertex 10.759624 -2.287029 0.000000
      vertex 10.049000 -4.474103 7.000000
    endloop
  endfacet
  facet normal -0.951056 0.309017 0.000000
    outer loop
      vertex 10.049000 -4.474103 7.000000
      vertex 10.759624 -2.287029 0.000000
      vertex 10.049000 -4.474103 0.000000
    endloop
  endfacet
  facet normal -0.866025 0.500000 0.000000
    outer loop
      vertex 10.049000 -4.474103 7.000000
      vertex 10.049000 -4.474103 0.000000
      vertex 8.899187 -6.465638 7.000000
    endloop
  endfacet
  facet normal -0.866025 0.500000 0.000000
    outer loop
      vertex 8.899187 -6.465638 7.000000
      vertex 10.049000 -4.474103 0.000000
      vertex 8.899187 -6.465638 0.000000
    endloop
  endfacet
  facet normal -0.743145 0.669131 0.000000
    outer loop
      vertex 8.899187 -6.465638 7.000000
      vertex 8.899187 -6.465638 0.000000
      vertex 7.360437 -8.174593 7.000000
    endloop
  endfacet
  facet normal -0.743145 0.669131 0.000000
    outer loop
      vertex 7.360437 -8.174593 7.000000
      vertex 8.899187 -6.465638 0.000000
      vertex 7.360437 -8.174593 0.000000
    endloop
  endfacet
  facet normal -0.587785 0.809017 0.000000
    outer loop
      vertex 7.360437 -8.174593 7.000000
      vertex 7.360437 -8.174593 0.000000
      vertex 5.500000 -9.526279 7.000000
    endloop
  endfacet
  facet normal -0.587785 0.809017 0.000000
    outer loop
      vertex 5.500000 -9.526279 7.000000
      vertex 7.360437 -8.174593 0.000000
      vertex 5.500000 -9.526279 0.000000
    endloop
  endfacet
  facet normal -0.406737 0.913545 0.000000
    outer loop
      vertex 5.500000 -9.526279 7.000000
      vertex 5.500000 -9.526279 0.000000
      vertex 3.399187 -10.461622 7.000000
    endloop
  endfacet
  facet normal -0.406737 0.913545 0.000000
    outer loop
      vertex 3.399187 -10.461622 7.000000
      vertex 5.500000 -9.526279 0.000000
      vertex 3.399187 -10.461622 0.000000
    endloop
  endfacet
  facet normal -0.207912 0.978148 0.000000
    outer loop
      vertex 3.399187 -10.461622 7.000000
      vertex 3.399187 -10.461622 0.000000
      vertex 1.149813 -10.939741 7.000000
    endloop
  endfacet
  facet normal -0.207912 0.978148 0.000000
    outer loop
      vertex 1.149813 -10.939741 7.000000
      vertex 3.399187 -10.461622 0.000000
      vertex 1.149813 -10.939741 0.000000
    endloop
  endfacet
  facet normal 0.000000 1.000000 0.000000
    outer loop
      vertex 1.149813 -10.939741 7.000000
      vertex 1.149813 -10.939741 0.000000
      vertex -1.149813 -10.939741 7.000000
    endloop
  endfacet
  facet normal 0.000000 1.000000 -0.000000
    outer loop
      vertex -1.149813 -10.939741 7.000000
      vertex 1.149813 -10.939741 0.000000
      vertex -1.149813 -10.939741 0.000000
    endloop
  endfacet
  facet normal 0.207912 0.978148 -0.000000
    outer loop
      vertex -1.149813 -10.939741 7.000000
      vertex -1.149813 -10.939741 0.000000
      vertex -3.399187 -10.461622 7.000000
    endloop
  endfacet
  facet normal 0.207912 0.978148 -0.000000
    outer loop
      vertex -3.399187 -10.461622 7.000000
      vertex -1.149813 -10.939741 0.000000
      vertex -3.399187 -10.461622 0.000000
    endloop
  endfacet
  facet normal 0.406737 0.913545 -0.000000
    outer loop
      vertex -3.399187 -10.461622 7.000000
      vertex -3.399187 -10.461622 0.000000
      vertex -5.500000 -9.526279 7.000000
    endloop
  endfacet
  facet normal 0.406737 0.913545 -0.000000
    outer loop
      vertex -5.500000 -9.526279 7.000000
      vertex -3.399187 -10.461622 0.000000
      vertex -5.500000 -9.526279 0.000000
    endloop
  endfacet
  facet normal 0.587785 0.809017 -0.000000
    outer loop
      vertex -5.500000 -9.526279 7.000000
      vertex -5.500000 -9.526279 0.000000
      vertex -7.360437 -8.174593 7.000000
    endloop
  endfacet
  facet normal 0.587785 0.809017 -0.000000
    outer loop
      vertex -7.360437 -8.174593 7.000000
      vertex -5.500000 -9.526279 0.000000
      vertex -7.360437 -8.174593 0.000000
    endloop
  endfacet
  facet normal 0.743145 0.669131 0.000000
    outer loop
      vertex -8.899187 -6.465638 7.000000
      vertex -7.360437 -8.174593 7.000000
      vertex -7.360437 -8.174593 0.000000
    endloop
  endfacet
  facet normal 0.743145 0.669131 0.000000
    outer loop
      vertex -8.899187 -6.465638 0.000000
      vertex -8.899187 -6.465638 7.000000
      vertex -7.360437 -8.174593 0.000000
    endloop
  endfacet
  facet normal 0.866025 0.500000 0.000000
    outer loop
      vertex -10.049000 -4.474103 7.000000
      vertex -8.899187 -6.465638 7.000000
      vertex -8.899187 -6.465638 0.000000
    endloop
  endfacet
  facet normal 0.866025 0.500000 0.000000
    outer loop
      vertex -10.049000 -4.474103 0.000000
      vertex -10.049000 -4.474103 7.000000
      vertex -8.899187 -6.465638 0.000000
    endloop
  endfacet
  facet normal 0.951056 0.309017 0.000000
    outer loop
      vertex -10.759624 -2.287029 7.000000
      vertex -10.049000 -4.474103 7.000000
      vertex -10.049000 -4.474103 0.000000
    endloop
  endfacet
  facet normal 0.951056 0.309017 0.000000
    outer loop
      vertex -10.759624 -2.287029 0.000000
      vertex -10.759624 -2.287029 7.000000
      vertex -10.049000 -4.474103 0.000000
    endloop
  endfacet
  facet normal 0.994522 0.104528 0.000000
    outer loop
      vertex -11.000000 0.000000 7.000000
      vertex -10.759624 -2.287029 7.000000
      vertex -10.759624 -2.287029 0.000000
    endloop
  endfacet
  facet normal 0.994522 0.104528 0.000000
    outer loop
      vertex -11.000000 0.000000 0.000000
      vertex -11.000000 0.000000 7.000000
      vertex -10.759624 -2.287029 0.000000
    endloop
  endfacet
  facet normal 0.994522 -0.104528 0.000000
    outer loop
      vertex -10.759624 2.287029 0.000000
      vertex -10.759624 2.287029 7.000000
      vertex -11.000000 0.000000 7.000000
    endloop
  endfacet
  facet normal 0.994522 -0.104528 0.000000
    outer loop
      vertex -11.000000 0.000000 0.000000
      vertex -10.759624 2.287029 0.000000
      vertex -11.000000 0.000000 7.000000
    endloop
  endfacet
  facet normal 0.951056 -0.309017 0.000000
    outer loop
      vertex -10.049000 4.474103 0.000000
      vertex -10.049000 4.474103 7.000000
      vertex -10.759624 2.287029 7.000000
    endloop
  endfacet
  facet normal 0.951056 -0.309017 0.000000
    outer loop
      vertex -10.759624 2.287029 0.000000
      vertex -10.049000 4.474103 0.000000
      vertex -10.759624 2.287029 7.000000
    endloop
  endfacet
  facet normal 0.866025 -0.500000 0.000000
    outer loop
      vertex -8.899187 6.465638 7.000000
      vertex -9.971804 4.607810 0.456840
      vertex -9.492422 5.438125 2.181006
    endloop
  endfacet
  facet normal 0.866025 -0.500000 0.000000
    outer loop
      vertex -9.971804 4.607810 0.000000
      vertex -9.971804 4.607810 0.456840
      vertex -10.049000 4.474103 7.000000
    endloop
  endfacet
  facet normal 0.866025 -0.500000 0.000000
    outer loop
      vertex -8.899187 6.465638 3.000420
      vertex -8.899187 6.465638 7.000000
      vertex -9.492422 5.438125 2.181006
    endloop
  endfacet
  facet normal 0.866025 -0.500000 0.000000
    outer loop
      vertex -8.899187 6.465638 7.000000
      vertex -10.049000 4.474103 7.000000
      vertex -9.971804 4.607810 0.456840
    endloop
  endfacet
  facet normal 0.866025 -0.500000 0.000000
    outer loop
      vertex -10.049000 4.474103 7.000000
      vertex -10.049000 4.474103 0.000000
      vertex -9.971804 4.607810 0.000000
    endloop
  endfacet
  facet normal 0.866025 0.500000 0.000000
    outer loop
      vertex -17.400000 -15.500000 7.000000
      vertex -16.450000 -17.145448 7.000000
      vertex -16.450000 -17.145448 0.000000
    endloop
  endfacet
  facet normal 0.866025 0.500000 0.000000
    outer loop
      vertex -17.400000 -15.500000 0.000000
      vertex -17.400000 -15.500000 7.000000
      vertex -16.450000 -17.145448 0.000000
    endloop
  endfacet
  facet normal 0.866025 -0.500000 0.000000
    outer loop
      vertex -16.450000 -13.854552 0.000000
      vertex -16.450000 -13.854552 7.000000
      vertex -17.400000 -15.500000 7.000000
    endloop
  endfacet
  facet normal 0.866025 -0.500000 0.000000
    outer loop
      vertex -17.400000 -15.500000 0.000000
      vertex -16.450000 -13.854552 0.000000
      vertex -17.400000 -15.500000 7.000000
    endloop
  endfacet
  facet normal 0.000000 -1.000000 0.000000
    outer loop
      vertex -14.550000 -13.854552 0.000000
      vertex -14.550000 -13.854552 7.000000
      vertex -16.450000 -13.854552 7.000000
    endloop
  endfacet
  facet normal -0.000000 -1.000000 -0.000000
    outer loop
      vertex -16.450000 -13.854552 0.000000
      vertex -14.550000 -13.854552 0.000000
      vertex -16.450000 -13.854552 7.000000
    endloop
  endfacet
  facet normal -0.866025 -0.500000 0.000000
    outer loop
      vertex -13.600000 -15.500000 7.000000
      vertex -14.550000 -13.854552 7.000000
      vertex -13.600000 -15.500000 0.000000
    endloop
  endfacet
  facet normal -0.866025 -0.500000 0.000000
    outer loop
      vertex -13.600000 -15.500000 0.000000
      vertex -14.550000 -13.854552 7.000000
      vertex -14.550000 -13.854552 0.000000
    endloop
  endfacet
  facet normal -0.866025 0.500000 0.000000
    outer loop
      vertex -13.600000 -15.500000 7.000000
      vertex -13.600000 -15.500000 0.000000
      vertex -14.550000 -17.145448 7.000000
    endloop
  endfacet
  facet normal -0.866025 0.500000 0.000000
    outer loop
      vertex -14.550000 -17.145448 7.000000
      vertex -13.600000 -15.500000 0.000000
      vertex -14.550000 -17.145448 0.000000
    endloop
  endfacet
  facet normal 0.000000 1.000000 0.000000
    outer loop
      vertex -14.550000 -17.145448 7.000000
      vertex -14.550000 -17.145448 0.000000
      vertex -16.450000 -17.145448 7.000000
    endloop
  endfacet
  facet normal 0.000000 1.000000 -0.000000
    outer loop
      vertex -16.450000 -17.145448 7.000000
      vertex -14.550000 -17.145448 0.000000
      vertex -16.450000 -17.145448 0.000000
    endloop
  endfacet
  facet normal 0.866025 0.500000 0.000000
    outer loop
      vertex 13.600000 -15.500000 7.000000
      vertex 14.550000 -17.145448 7.000000
      vertex 14.550000 -17.145448 0.000000
    endloop
  endfacet
  facet normal 0.866025 0.500000 0.000000
    outer loop
      vertex 13.600000 -15.500000 0.000000
      vertex 13.600000 -15.500000 7.000000
      vertex 14.550000 -17.145448 0.000000
    endloop
  endfacet
  facet normal 0.866025 -0.500000 0.000000
    outer loop
      vertex 14.550000 -13.854552 0.000000
      vertex 14.550000 -13.854552 7.000000
      vertex 13.600000 -15.500000 7.000000
    endloop
  endfacet
  facet normal 0.866025 -0.500000 0.000000
    outer loop
      vertex 13.600000 -15.500000 0.000000
      vertex 14.550000 -13.854552 0.000000
      vertex 13.600000 -15.500000 7.000000
    endloop
  endfacet
  facet normal 0.000000 -1.000000 0.000000
    outer loop
      vertex 16.450000 -13.854552 0.000000
      vertex 16.450000 -13.854552 7.000000
      vertex 14.550000 -13.854552 7.000000
    endloop
  endfacet
  facet normal -0.000000 -1.000000 -0.000000
    outer loop
      vertex 14.550000 -13.854552 0.000000
      vertex 16.450000 -13.854552 0.000000
      vertex 14.550000 -13.854552 7.000000
    endloop
  endfacet
  facet normal -0.866025 -0.500000 0.000000
    outer loop
      vertex 17.400000 -15.500000 7.000000
      vertex 16.450000 -13.854552 7.000000
      vertex 17.400000 -15.500000 0.000000
    endloop
  endfacet
  facet normal -0.866025 -0.500000 0.000000
    outer loop
      vertex 17.400000 -15.500000 0.000000
      vertex 16.450000 -13.854552 7.000000
      vertex 16.450000 -13.854552 0.000000
    endloop
  endfacet
  facet normal -0.866025 0.500000 0.000000
    outer loop
      vertex 17.400000 -15.500000 7.000000
      vertex 17.400000 -15.500000 0.000000
      vertex 16.450000 -17.145448 7.000000
    endloop
  endfacet
  facet normal -0.866025 0.500000 0.000000
    outer loop
      vertex 16.450000 -17.145448 7.000000
      vertex 17.400000 -15.500000 0.000000
      vertex 16.450000 -17.145448 0.000000
    endloop
  endfacet
  facet normal 0.000000 1.000000 0.000000
    outer loop
      vertex 16.450000 -17.145448 7.000000
      vertex 16.450000 -17.145448 0.000000
      vertex 14.550000 -17.145448 7.000000
    endloop
  endfacet
  facet normal 0.000000 1.000000 -0.000000
    outer loop
      vertex 14.550000 -17.145448 7.000000
      vertex 16.450000 -17.145448 0.000000
      vertex 14.550000 -17.145448 0.000000
    endloop
  endfacet
  facet normal 0.913545 -0.406737 0.000000
    outer loop
      vertex 38.459424 2.645034 0.000000
      vertex 38.459424 2.645034 7.000000
      vertex 37.698336 0.935603 7.000000
    endloop
  endfacet
  facet normal 0.913545 -0.406737 0.000000
    outer loop
      vertex 37.698336 0.935603 0.000000
      vertex 38.459424 2.645034 0.000000
      vertex 37.698336 0.935603 7.000000
    endloop
  endfacet
  facet normal 1.000000 0.000000 0.000000
    outer loop
      vertex 37.698336 0.935603 0.000000
      vertex 37.698336 0.935603 7.000000
      vertex 37.698336 -0.935603 7.000000
    endloop
  endfacet
  facet normal 1.000000 0.000000 0.000000
    outer loop
      vertex 37.698336 -0.935603 0.000000
      vertex 37.698336 0.935603 0.000000
      vertex 37.698336 -0.935603 7.000000
    endloop
  endfacet
  facet normal 0.669131 -0.743145 0.000000
    outer loop
      vertex 39.850000 3.897114 0.000000
      vertex 39.850000 3.897114 7.000000
      vertex 38.459424 2.645034 7.000000
    endloop
  endfacet
  facet normal 0.669131 -0.743145 0.000000
    outer loop
      vertex 38.459424 2.645034 0.000000
      vertex 39.850000 3.897114 0.000000
      vertex 38.459424 2.645034 7.000000
    endloop
  endfacet
  facet normal 0.309017 -0.951056 0.000000
    outer loop
      vertex 41.629622 4.475349 0.000000
      vertex 41.629622 4.475349 7.000000
      vertex 39.850000 3.897114 7.000000
    endloop
  endfacet
  facet normal 0.309017 -0.951056 0.000000
    outer loop
      vertex 39.850000 3.897114 0.000000
      vertex 41.629622 4.475349 0.000000
      vertex 39.850000 3.897114 7.000000
    endloop
  endfacet
  facet normal -0.104529 -0.994522 -0.000000
    outer loop
      vertex 43.490576 4.279754 0.000000
      vertex 43.490576 4.279754 7.000000
      vertex 41.629622 4.475349 7.000000
    endloop
  endfacet
  facet normal -0.104529 -0.994522 -0.000000
    outer loop
      vertex 41.629622 4.475349 0.000000
      vertex 43.490576 4.279754 0.000000
      vertex 41.629622 4.475349 7.000000
    endloop
  endfacet
  facet normal -0.500000 -0.866026 -0.000000
    outer loop
      vertex 45.111088 3.344152 0.000000
      vertex 45.111088 3.344152 7.000000
      vertex 43.490576 4.279754 7.000000
    endloop
  endfacet
  facet normal -0.500000 -0.866026 -0.000000
    outer loop
      vertex 43.490576 4.279754 0.000000
      vertex 45.111088 3.344152 0.000000
      vertex 43.490576 4.279754 7.000000
    endloop
  endfacet
  facet normal -0.809017 -0.587785 0.000000
    outer loop
      vertex 46.210955 1.830315 7.000000
      vertex 45.111088 3.344152 7.000000
      vertex 46.210955 1.830315 0.000000
    endloop
  endfacet
  facet normal -0.809017 -0.587785 0.000000
    outer loop
      vertex 46.210955 1.830315 0.000000
      vertex 45.111088 3.344152 7.000000
      vertex 45.111088 3.344152 0.000000
    endloop
  endfacet
  facet normal -0.978148 -0.207911 0.000000
    outer loop
      vertex 46.600000 0.000000 7.000000
      vertex 46.210955 1.830315 7.000000
      vertex 46.600000 0.000000 0.000000
    endloop
  endfacet
  facet normal -0.978148 -0.207911 0.000000
    outer loop
      vertex 46.600000 0.000000 0.000000
      vertex 46.210955 1.830315 7.000000
      vertex 46.210955 1.830315 0.000000
    endloop
  endfacet
  facet normal -0.978148 0.207911 0.000000
    outer loop
      vertex 46.600000 0.000000 7.000000
      vertex 46.600000 0.000000 0.000000
      vertex 46.210955 -1.830315 7.000000
    endloop
  endfacet
  facet normal -0.978148 0.207911 0.000000
    outer loop
      vertex 46.210955 -1.830315 7.000000
      vertex 46.600000 0.000000 0.000000
      vertex 46.210955 -1.830315 0.000000
    endloop
  endfacet
  facet normal -0.809017 0.587785 0.000000
    outer loop
      vertex 46.210955 -1.830315 7.000000
      vertex 46.210955 -1.830315 0.000000
      vertex 45.111088 -3.344152 7.000000
    endloop
  endfacet
  facet normal -0.809017 0.587785 0.000000
    outer loop
      vertex 45.111088 -3.344152 7.000000
      vertex 46.210955 -1.830315 0.000000
      vertex 45.111088 -3.344152 0.000000
    endloop
  endfacet
  facet normal -0.500000 0.866026 0.000000
    outer loop
      vertex 45.111088 -3.344152 7.000000
      vertex 45.111088 -3.344152 0.000000
      vertex 43.490576 -4.279754 7.000000
    endloop
  endfacet
  facet normal -0.500000 0.866026 0.000000
    outer loop
      vertex 43.490576 -4.279754 7.000000
      vertex 45.111088 -3.344152 0.000000
      vertex 43.490576 -4.279754 0.000000
    endloop
  endfacet
  facet normal -0.104529 0.994522 0.000000
    outer loop
      vertex 43.490576 -4.279754 7.000000
      vertex 43.490576 -4.279754 0.000000
      vertex 41.629622 -4.475349 7.000000
    endloop
  endfacet
  facet normal -0.104529 0.994522 0.000000
    outer loop
      vertex 41.629622 -4.475349 7.000000
      vertex 43.490576 -4.279754 0.000000
      vertex 41.629622 -4.475349 0.000000
    endloop
  endfacet
  facet normal 0.309017 0.951056 -0.000000
    outer loop
      vertex 41.629622 -4.475349 7.000000
      vertex 41.629622 -4.475349 0.000000
      vertex 39.850000 -3.897114 7.000000
    endloop
  endfacet
  facet normal 0.309017 0.951056 -0.000000
    outer loop
      vertex 39.850000 -3.897114 7.000000
      vertex 41.629622 -4.475349 0.000000
      vertex 39.850000 -3.897114 0.000000
    endloop
  endfacet
  facet normal 0.669131 0.743145 -0.000000
    outer loop
      vertex 39.850000 -3.897114 7.000000
      vertex 39.850000 -3.897114 0.000000
      vertex 38.459424 -2.645034 7.000000
    endloop
  endfacet
  facet normal 0.669131 0.743145 -0.000000
    outer loop
      vertex 38.459424 -2.645034 7.000000
      vertex 39.850000 -3.897114 0.000000
      vertex 38.459424 -2.645034 0.000000
    endloop
  endfacet
  facet normal 0.913545 0.406737 0.000000
    outer loop
      vertex 37.698336 -0.935603 7.000000
      vertex 38.459424 -2.645034 7.000000
      vertex 38.459424 -2.645034 0.000000
    endloop
  endfacet
  facet normal 0.913545 0.406737 0.000000
    outer loop
      vertex 37.698336 -0.935603 0.000000
      vertex 37.698336 -0.935603 7.000000
      vertex 38.459424 -2.645034 0.000000
    endloop
  endfacet
  facet normal 0.743145 -0.669131 0.000000
    outer loop
      vertex -8.477202 6.934300 3.374166
      vertex -7.360437 8.174593 3.657255
      vertex -7.360437 8.174593 7.000000
    endloop
  endfacet
  facet normal 0.743145 -0.669131 0.000000
    outer loop
      vertex -8.899187 6.465638 3.000420
      vertex -8.477202 6.934300 3.374166
      vertex -8.899187 6.465638 7.000000
    endloop
  endfacet
  facet normal 0.743145 -0.669131 0.000000
    outer loop
      vertex -8.899187 6.465638 7.000000
      vertex -8.477202 6.934300 3.374166
      vertex -7.360437 8.174593 7.000000
    endloop
  endfacet
  facet normal 0.587785 -0.809017 0.000000
    outer loop
      vertex -6.499638 8.800000 3.800000
      vertex -5.500000 9.526279 3.634231
      vertex -5.500000 9.526279 7.000000
    endloop
  endfacet
  facet normal 0.587785 -0.809017 0.000000
    outer loop
      vertex -7.360437 8.174593 3.657255
      vertex -6.499638 8.800000 3.800000
      vertex -7.360437 8.174593 7.000000
    endloop
  endfacet
  facet normal 0.587785 -0.809017 0.000000
    outer loop
      vertex -7.360437 8.174593 7.000000
      vertex -6.499638 8.800000 3.800000
      vertex -5.500000 9.526279 7.000000
    endloop
  endfacet
  facet normal 0.406737 -0.913545 0.000000
    outer loop
      vertex -3.399187 10.461622 3.420745
      vertex -3.399187 10.461622 7.000000
      vertex -5.500000 9.526279 7.000000
    endloop
  endfacet
  facet normal 0.406737 -0.913545 0.000000
    outer loop
      vertex -5.500000 9.526279 3.634231
      vertex -3.399187 10.461622 3.420745
      vertex -5.500000 9.526279 7.000000
    endloop
  endfacet
  facet normal 0.207912 -0.978148 0.000000
    outer loop
      vertex -2.439075 10.665700 3.374166
      vertex -1.149813 10.939741 3.155626
      vertex -1.149813 10.939741 7.000000
    endloop
  endfacet
  facet normal 0.207912 -0.978148 0.000000
    outer loop
      vertex -3.399187 10.461622 3.420745
      vertex -2.439075 10.665700 3.374166
      vertex -3.399187 10.461622 7.000000
    endloop
  endfacet
  facet normal 0.207912 -0.978148 0.000000
    outer loop
      vertex -3.399187 10.461622 7.000000
      vertex -2.439075 10.665700 3.374166
      vertex -1.149813 10.939741 7.000000
    endloop
  endfacet
  facet normal 0.000000 -1.000000 0.000000
    outer loop
      vertex 1.149813 10.939741 3.155626
      vertex 1.149813 10.939741 7.000000
      vertex -1.149813 10.939741 7.000000
    endloop
  endfacet
  facet normal 0.000000 -1.000000 -0.000000
    outer loop
      vertex -1.149813 10.939741 3.155626
      vertex 1.149813 10.939741 3.155626
      vertex -1.149813 10.939741 7.000000
    endloop
  endfacet
  facet normal -0.207912 -0.978148 0.000000
    outer loop
      vertex 2.439075 10.665700 3.374166
      vertex 3.399187 10.461622 3.420745
      vertex 3.399187 10.461622 7.000000
    endloop
  endfacet
  facet normal -0.207912 -0.978148 -0.000000
    outer loop
      vertex 1.149813 10.939741 3.155626
      vertex 2.439075 10.665700 3.374166
      vertex 1.149813 10.939741 7.000000
    endloop
  endfacet
  facet normal -0.207912 -0.978148 0.000000
    outer loop
      vertex 1.149813 10.939741 7.000000
      vertex 2.439075 10.665700 3.374166
      vertex 3.399187 10.461622 7.000000
    endloop
  endfacet
  facet normal 0.000000 -0.222521 -0.974928
    outer loop
      vertex 49.600000 8.800000 3.800000
      vertex 6.499638 8.800000 3.800000
      vertex 49.600000 10.665700 3.374166
    endloop
  endfacet
  facet normal 0.000000 -0.222521 -0.974928
    outer loop
      vertex 49.600000 10.665700 3.374166
      vertex 6.499638 8.800000 3.800000
      vertex 5.500000 9.526279 3.634231
    endloop
  endfacet
  facet normal 0.000000 -0.222521 -0.974928
    outer loop
      vertex 49.600000 10.665700 3.374166
      vertex 5.500000 9.526279 3.634231
      vertex 3.399187 10.461622 3.420745
    endloop
  endfacet
  facet normal 0.000000 -0.222521 -0.974928
    outer loop
      vertex 3.399187 10.461622 3.420745
      vertex 2.439075 10.665700 3.374166
      vertex 49.600000 10.665700 3.374166
    endloop
  endfacet
  facet normal 0.866025 0.500000 0.000000
    outer loop
      vertex -17.400000 15.500000 7.000000
      vertex -16.450000 13.854552 7.000000
      vertex -16.450000 13.854552 0.000000
    endloop
  endfacet
  facet normal 0.866025 0.500000 0.000000
    outer loop
      vertex -17.400000 15.500000 0.000000
      vertex -17.400000 15.500000 7.000000
      vertex -16.450000 13.854552 0.000000
    endloop
  endfacet
  facet normal 0.866025 -0.500000 0.000000
    outer loop
      vertex -16.450000 17.145448 0.000000
      vertex -16.450000 17.145448 7.000000
      vertex -17.400000 15.500000 7.000000
    endloop
  endfacet
  facet normal 0.866025 -0.500000 0.000000
    outer loop
      vertex -17.400000 15.500000 0.000000
      vertex -16.450000 17.145448 0.000000
      vertex -17.400000 15.500000 7.000000
    endloop
  endfacet
  facet normal 0.000000 -1.000000 0.000000
    outer loop
      vertex -14.550000 17.145448 0.000000
      vertex -14.550000 17.145448 7.000000
      vertex -16.450000 17.145448 7.000000
    endloop
  endfacet
  facet normal -0.000000 -1.000000 -0.000000
    outer loop
      vertex -16.450000 17.145448 0.000000
      vertex -14.550000 17.145448 0.000000
      vertex -16.450000 17.145448 7.000000
    endloop
  endfacet
  facet normal -0.866025 -0.500000 0.000000
    outer loop
      vertex -13.600000 15.500000 7.000000
      vertex -14.550000 17.145448 7.000000
      vertex -13.600000 15.500000 0.000000
    endloop
  endfacet
  facet normal -0.866025 -0.500000 0.000000
    outer loop
      vertex -13.600000 15.500000 0.000000
      vertex -14.550000 17.145448 7.000000
      vertex -14.550000 17.145448 0.000000
    endloop
  endfacet
  facet normal -0.866025 0.500000 0.000000
    outer loop
      vertex -13.600000 15.500000 7.000000
      vertex -13.600000 15.500000 0.000000
      vertex -14.550000 13.854552 7.000000
    endloop
  endfacet
  facet normal -0.866025 0.500000 0.000000
    outer loop
      vertex -14.550000 13.854552 7.000000
      vertex -13.600000 15.500000 0.000000
      vertex -14.550000 13.854552 0.000000
    endloop
  endfacet
  facet normal 0.000000 1.000000 0.000000
    outer loop
      vertex -14.550000 13.854552 7.000000
      vertex -14.550000 13.854552 0.000000
      vertex -16.450000 13.854552 7.000000
    endloop
  endfacet
  facet normal 0.000000 1.000000 -0.000000
    outer loop
      vertex -16.450000 13.854552 7.000000
      vertex -14.550000 13.854552 0.000000
      vertex -16.450000 13.854552 0.000000
    endloop
  endfacet
  facet normal 0.866025 0.500000 0.000000
    outer loop
      vertex 13.600000 15.500000 7.000000
      vertex 14.550000 13.854552 7.000000
      vertex 14.550000 13.854552 0.000000
    endloop
  endfacet
  facet normal 0.866025 0.500000 0.000000
    outer loop
      vertex 13.600000 15.500000 0.000000
      vertex 13.600000 15.500000 7.000000
      vertex 14.550000 13.854552 0.000000
    endloop
  endfacet
  facet normal 0.866025 -0.500000 0.000000
    outer loop
      vertex 14.550000 17.145448 0.000000
      vertex 14.550000 17.145448 7.000000
      vertex 13.600000 15.500000 7.000000
    endloop
  endfacet
  facet normal 0.866025 -0.500000 0.000000
    outer loop
      vertex 13.600000 15.500000 0.000000
      vertex 14.550000 17.145448 0.000000
      vertex 13.600000 15.500000 7.000000
    endloop
  endfacet
  facet normal 0.000000 -1.000000 0.000000
    outer loop
      vertex 16.450000 17.145448 0.000000
      vertex 16.450000 17.145448 7.000000
      vertex 14.550000 17.145448 7.000000
    endloop
  endfacet
  facet normal -0.000000 -1.000000 -0.000000
    outer loop
      vertex 14.550000 17.145448 0.000000
      vertex 16.450000 17.145448 0.000000
      vertex 14.550000 17.145448 7.000000
    endloop
  endfacet
  facet normal -0.866025 -0.500000 0.000000
    outer loop
      vertex 17.400000 15.500000 7.000000
      vertex 16.450000 17.145448 7.000000
      vertex 17.400000 15.500000 0.000000
    endloop
  endfacet
  facet normal -0.866025 -0.500000 0.000000
    outer loop
      vertex 17.400000 15.500000 0.000000
      vertex 16.450000 17.145448 7.000000
      vertex 16.450000 17.145448 0.000000
    endloop
  endfacet
  facet normal -0.866025 0.500000 0.000000
    outer loop
      vertex 17.400000 15.500000 7.000000
      vertex 17.400000 15.500000 0.000000
      vertex 16.450000 13.854552 7.000000
    endloop
  endfacet
  facet normal -0.866025 0.500000 0.000000
    outer loop
      vertex 16.450000 13.854552 7.000000
      vertex 17.400000 15.500000 0.000000
      vertex 16.450000 13.854552 0.000000
    endloop
  endfacet
  facet normal 0.000000 1.000000 0.000000
    outer loop
      vertex 16.450000 13.854552 7.000000
      vertex 16.450000 13.854552 0.000000
      vertex 14.550000 13.854552 7.000000
    endloop
  endfacet
  facet normal 0.000000 1.000000 -0.000000
    outer loop
      vertex 14.550000 13.854552 7.000000
      vertex 16.450000 13.854552 0.000000
      vertex 14.550000 13.854552 0.000000
    endloop
  endfacet
  facet normal 1.000000 0.000000 0.000000
    outer loop
      vertex 24.717868 16.254544 0.000000
      vertex 24.717868 16.254544 7.000000
      vertex 24.717868 14.345456 7.000000
    endloop
  endfacet
  facet normal 1.000000 0.000000 0.000000
    outer loop
      vertex 24.717868 14.345456 0.000000
      vertex 24.717868 16.254544 0.000000
      vertex 24.717868 14.345456 7.000000
    endloop
  endfacet
  facet normal 0.623490 -0.781832 0.000000
    outer loop
      vertex 26.210454 17.444841 0.000000
      vertex 26.210454 17.444841 7.000000
      vertex 24.717868 16.254544 7.000000
    endloop
  endfacet
  facet normal 0.623490 -0.781832 0.000000
    outer loop
      vertex 24.717868 16.254544 0.000000
      vertex 26.210454 17.444841 0.000000
      vertex 24.717868 16.254544 7.000000
    endloop
  endfacet
  facet normal -0.222521 -0.974928 -0.000000
    outer loop
      vertex 28.071678 17.020029 0.000000
      vertex 28.071678 17.020029 7.000000
      vertex 26.210454 17.444841 7.000000
    endloop
  endfacet
  facet normal -0.222521 -0.974928 -0.000000
    outer loop
      vertex 26.210454 17.444841 0.000000
      vertex 28.071678 17.020029 0.000000
      vertex 26.210454 17.444841 7.000000
    endloop
  endfacet
  facet normal -0.900969 -0.433884 0.000000
    outer loop
      vertex 28.900000 15.300000 7.000000
      vertex 28.071678 17.020029 7.000000
      vertex 28.900000 15.300000 0.000000
    endloop
  endfacet
  facet normal -0.900969 -0.433884 0.000000
    outer loop
      vertex 28.900000 15.300000 0.000000
      vertex 28.071678 17.020029 7.000000
      vertex 28.071678 17.020029 0.000000
    endloop
  endfacet
  facet normal -0.900969 0.433884 0.000000
    outer loop
      vertex 28.900000 15.300000 7.000000
      vertex 28.900000 15.300000 0.000000
      vertex 28.071678 13.579971 7.000000
    endloop
  endfacet
  facet normal -0.900969 0.433884 0.000000
    outer loop
      vertex 28.071678 13.579971 7.000000
      vertex 28.900000 15.300000 0.000000
      vertex 28.071678 13.579971 0.000000
    endloop
  endfacet
  facet normal -0.222521 0.974928 0.000000
    outer loop
      vertex 28.071678 13.579971 7.000000
      vertex 28.071678 13.579971 0.000000
      vertex 26.210454 13.155159 7.000000
    endloop
  endfacet
  facet normal -0.222521 0.974928 0.000000
    outer loop
      vertex 26.210454 13.155159 7.000000
      vertex 28.071678 13.579971 0.000000
      vertex 26.210454 13.155159 0.000000
    endloop
  endfacet
  facet normal 0.623490 0.781832 -0.000000
    outer loop
      vertex 26.210454 13.155159 7.000000
      vertex 26.210454 13.155159 0.000000
      vertex 24.717868 14.345456 7.000000
    endloop
  endfacet
  facet normal 0.623490 0.781832 -0.000000
    outer loop
      vertex 24.717868 14.345456 7.000000
      vertex 26.210454 13.155159 0.000000
      vertex 24.717868 14.345456 0.000000
    endloop
  endfacet
  facet normal 0.623490 -0.781832 0.000000
    outer loop
      vertex 41.610454 17.444841 0.000000
      vertex 41.610454 17.444841 7.000000
      vertex 40.117868 16.254544 7.000000
    endloop
  endfacet
  facet normal 0.623490 -0.781832 0.000000
    outer loop
      vertex 40.117868 16.254544 0.000000
      vertex 41.610454 17.444841 0.000000
      vertex 40.117868 16.254544 7.000000
    endloop
  endfacet
  facet normal 1.000000 0.000000 0.000000
    outer loop
      vertex 40.117868 16.254544 0.000000
      vertex 40.117868 16.254544 7.000000
      vertex 40.117868 14.345456 7.000000
    endloop
  endfacet
  facet normal 1.000000 0.000000 0.000000
    outer loop
      vertex 40.117868 14.345456 0.000000
      vertex 40.117868 16.254544 0.000000
      vertex 40.117868 14.345456 7.000000
    endloop
  endfacet
  facet normal -0.222521 -0.974928 -0.000000
    outer loop
      vertex 43.471678 17.020029 0.000000
      vertex 43.471678 17.020029 7.000000
      vertex 41.610454 17.444841 7.000000
    endloop
  endfacet
  facet normal -0.222521 -0.974928 -0.000000
    outer loop
      vertex 41.610454 17.444841 0.000000
      vertex 43.471678 17.020029 0.000000
      vertex 41.610454 17.444841 7.000000
    endloop
  endfacet
  facet normal -0.900969 -0.433884 0.000000
    outer loop
      vertex 44.300000 15.300000 7.000000
      vertex 43.471678 17.020029 7.000000
      vertex 44.300000 15.300000 0.000000
    endloop
  endfacet
  facet normal -0.900969 -0.433884 0.000000
    outer loop
      vertex 44.300000 15.300000 0.000000
      vertex 43.471678 17.020029 7.000000
      vertex 43.471678 17.020029 0.000000
    endloop
  endfacet
  facet normal -0.900969 0.433884 0.000000
    outer loop
      vertex 44.300000 15.300000 7.000000
      vertex 44.300000 15.300000 0.000000
      vertex 43.471678 13.579971 7.000000
    endloop
  endfacet
  facet normal -0.900969 0.433884 0.000000
    outer loop
      vertex 43.471678 13.579971 7.000000
      vertex 44.300000 15.300000 0.000000
      vertex 43.471678 13.579971 0.000000
    endloop
  endfacet
  facet normal -0.222521 0.974928 0.000000
    outer loop
      vertex 43.471678 13.579971 7.000000
      vertex 43.471678 13.579971 0.000000
      vertex 41.610454 13.155159 7.000000
    endloop
  endfacet
  facet normal -0.222521 0.974928 0.000000
    outer loop
      vertex 41.610454 13.155159 7.000000
      vertex 43.471678 13.579971 0.000000
      vertex 41.610454 13.155159 0.000000
    endloop
  endfacet
  facet normal 0.623490 0.781832 -0.000000
    outer loop
      vertex 41.610454 13.155159 7.000000
      vertex 41.610454 13.155159 0.000000
      vertex 40.117868 14.345456 7.000000
    endloop
  endfacet
  facet normal 0.623490 0.781832 -0.000000
    outer loop
      vertex 40.117868 14.345456 7.000000
      vertex 41.610454 13.155159 0.000000
      vertex 40.117868 14.345456 0.000000
    endloop
  endfacet
  facet normal -0.743145 -0.669131 -0.000000
    outer loop
      vertex 8.899187 6.465638 3.000420
      vertex 8.899187 6.465638 7.000000
      vertex 8.477202 6.934300 3.374166
    endloop
  endfacet
  facet normal -0.743145 -0.669131 0.000000
    outer loop
      vertex 8.477202 6.934300 3.374166
      vertex 8.899187 6.465638 7.000000
      vertex 7.360437 8.174593 7.000000
    endloop
  endfacet
  facet normal -0.743145 -0.669131 0.000000
    outer loop
      vertex 8.477202 6.934300 3.374166
      vertex 7.360437 8.174593 7.000000
      vertex 7.360437 8.174593 3.657255
    endloop
  endfacet
  facet normal -0.587785 -0.809017 0.000000
    outer loop
      vertex 6.499638 8.800000 3.800000
      vertex 7.360437 8.174593 3.657255
      vertex 7.360437 8.174593 7.000000
    endloop
  endfacet
  facet normal -0.587785 -0.809017 -0.000000
    outer loop
      vertex 5.500000 9.526279 3.634231
      vertex 6.499638 8.800000 3.800000
      vertex 5.500000 9.526279 7.000000
    endloop
  endfacet
  facet normal -0.587785 -0.809017 0.000000
    outer loop
      vertex 5.500000 9.526279 7.000000
      vertex 6.499638 8.800000 3.800000
      vertex 7.360437 8.174593 7.000000
    endloop
  endfacet
  facet normal -0.406737 -0.913545 -0.000000
    outer loop
      vertex 5.500000 9.526279 3.634231
      vertex 5.500000 9.526279 7.000000
      vertex 3.399187 10.461622 7.000000
    endloop
  endfacet
  facet normal -0.406737 -0.913545 -0.000000
    outer loop
      vertex 3.399187 10.461622 3.420745
      vertex 5.500000 9.526279 3.634231
      vertex 3.399187 10.461622 7.000000
    endloop
  endfacet
  facet normal 0.000000 0.222521 -0.974928
    outer loop
      vertex 49.600000 6.934300 3.374166
      vertex 8.477202 6.934300 3.374166
      vertex 49.600000 8.800000 3.800000
    endloop
  endfacet
  facet normal 0.000000 0.222521 -0.974928
    outer loop
      vertex 49.600000 8.800000 3.800000
      vertex 8.477202 6.934300 3.374166
      vertex 7.360437 8.174593 3.657255
    endloop
  endfacet
  facet normal 0.000000 0.222521 -0.974928
    outer loop
      vertex 49.600000 8.800000 3.800000
      vertex 7.360437 8.174593 3.657255
      vertex 6.499638 8.800000 3.800000
    endloop
  endfacet
  facet normal 0.000000 0.623490 -0.781831
    outer loop
      vertex 49.600000 5.438125 2.181006
      vertex 9.492422 5.438125 2.181006
      vertex 49.600000 6.934300 3.374166
    endloop
  endfacet
  facet normal 0.000000 0.623490 -0.781831
    outer loop
      vertex 49.600000 6.934300 3.374166
      vertex 9.492422 5.438125 2.181006
      vertex 8.899187 6.465638 3.000420
    endloop
  endfacet
  facet normal 0.000000 0.623490 -0.781831
    outer loop
      vertex 49.600000 6.934300 3.374166
      vertex 8.899187 6.465638 3.000420
      vertex 8.477202 6.934300 3.374166
    endloop
  endfacet
  facet normal 0.000000 0.900969 -0.433884
    outer loop
      vertex 49.600000 4.607810 0.456840
      vertex 9.971804 4.607810 0.456840
      vertex 49.600000 5.438125 2.181006
    endloop
  endfacet
  facet normal 0.000000 0.900969 -0.433884
    outer loop
      vertex 49.600000 5.438125 2.181006
      vertex 9.971804 4.607810 0.456840
      vertex 9.492422 5.438125 2.181006
    endloop
  endfacet
endsolid OpenSCAD_Model
