solid OpenSCAD_Model
  facet normal -1.000000 -0.000000 -0.000000
    outer loop
      vertex -21.500000 -21.500000 -3.500000
      vertex -21.500000 -21.500000 3.500000
      vertex -21.500000 21.500000 -3.500000
    endloop
  endfacet
  facet normal -1.000000 0.000000 0.000000
    outer loop
      vertex -21.500000 21.500000 -3.500000
      vertex -21.500000 -21.500000 3.500000
      vertex -21.500000 21.500000 3.500000
    endloop
  endfacet
  facet normal 0.000000 -1.000000 0.000000
    outer loop
      vertex -21.500000 -21.500000 3.500000
      vertex -21.500000 -21.500000 -3.500000
      vertex 21.500000 -21.500000 -3.500000
    endloop
  endfacet
  facet normal 0.000000 -1.000000 0.000000
    outer loop
      vertex 21.500000 -21.500000 3.500000
      vertex -21.500000 -21.500000 3.500000
      vertex 21.500000 -21.500000 -3.500000
    endloop
  endfacet
  facet normal -0.000000 0.000000 -1.000000
    outer loop
      vertex -5.589045 24.169685 -3.500000
      vertex 11.586110 33.500000 -3.500000
      vertex -6.688912 22.655848 -3.500000
    endloop
  endfacet
  facet normal 0.000000 0.000000 -1.000000
    outer loop
      vertex -14.101664 26.935603 -3.500000
      vertex -17.200000 21.500000 -3.500000
      vertex -17.200000 33.500000 -3.500000
    endloop
  endfacet
  facet normal 0.000000 -0.000000 -1.000000
    outer loop
      vertex -8.309424 30.279754 -3.500000
      vertex -17.200000 33.500000 -3.500000
      vertex 11.586110 33.500000 -3.500000
    endloop
  endfacet
  facet normal 0.000000 -0.000000 -1.000000
    outer loop
      vertex 24.322692 49.119915 -3.500000
      vertex 11.586110 33.500000 -3.500000
      vertex 25.979165 58.429503 -3.500000
    endloop
  endfacet
  facet normal -0.000000 -0.000000 -1.000000
    outer loop
      vertex 31.735444 51.528464 -3.500000
      vertex 25.979165 58.429503 -3.500000
      vertex 38.969546 50.929503 -3.500000
    endloop
  endfacet
  facet normal 0.000000 -0.000000 -1.000000
    outer loop
      vertex 17.400000 15.500000 -3.500000
      vertex 11.586110 33.500000 -3.500000
      vertex 21.500000 20.671362 -3.500000
    endloop
  endfacet
  facet normal 0.000000 -0.000000 -1.000000
    outer loop
      vertex -21.500000 -21.500000 -3.500000
      vertex -21.500000 21.500000 -3.500000
      vertex -17.400000 -15.500000 -3.500000
    endloop
  endfacet
  facet normal 0.000000 0.000000 -1.000000
    outer loop
      vertex -21.500000 -21.500000 -3.500000
      vertex -17.400000 -15.500000 -3.500000
      vertex -16.450000 -17.145448 -3.500000
    endloop
  endfacet
  facet normal -0.000000 0.000000 -1.000000
    outer loop
      vertex -21.500000 -21.500000 -3.500000
      vertex -16.450000 -17.145448 -3.500000
      vertex 21.500000 -21.500000 -3.500000
    endloop
  endfacet
  facet normal 0.000000 0.000000 -1.000000
    outer loop
      vertex -16.450000 -17.145448 -3.500000
      vertex -14.550000 -17.145448 -3.500000
      vertex 21.500000 -21.500000 -3.500000
    endloop
  endfacet
  facet normal -0.000000 -0.000000 -1.000000
    outer loop
      vertex -14.550000 -13.854552 -3.500000
      vertex -21.500000 21.500000 -3.500000
      vertex -13.600000 -15.500000 -3.500000
    endloop
  endfacet
  facet normal 0.000000 -0.000000 -1.000000
    outer loop
      vertex -17.400000 15.500000 -3.500000
      vertex -21.500000 21.500000 -3.500000
      vertex -16.450000 17.145448 -3.500000
    endloop
  endfacet
  facet normal -0.000000 -0.000000 -1.000000
    outer loop
      vertex -16.450000 -13.854552 -3.500000
      vertex -21.500000 21.500000 -3.500000
      vertex -14.550000 -13.854552 -3.500000
    endloop
  endfacet
  facet normal 0.000000 -0.000000 -1.000000
    outer loop
      vertex -17.400000 -15.500000 -3.500000
      vertex -21.500000 21.500000 -3.500000
      vertex -16.450000 -13.854552 -3.500000
    endloop
  endfacet
  facet normal 0.000000 0.000000 -1.000000
    outer loop
      vertex -13.600000 -15.500000 -3.500000
      vertex -21.500000 21.500000 -3.500000
      vertex -17.400000 15.500000 -3.500000
    endloop
  endfacet
  facet normal 0.000000 0.000000 -1.000000
    outer loop
      vertex -13.600000 15.500000 -3.500000
      vertex -7.360437 8.174593 -3.500000
      vertex -14.550000 13.854552 -3.500000
    endloop
  endfacet
  facet normal 0.000000 0.000000 -1.000000
    outer loop
      vertex -13.600000 -15.500000 -3.500000
      vertex -17.400000 15.500000 -3.500000
      vertex -16.450000 13.854552 -3.500000
    endloop
  endfacet
  facet normal 0.000000 -0.000000 -1.000000
    outer loop
      vertex -3.399187 10.461622 -3.500000
      vertex -10.170378 21.524651 -3.500000
      vertex -1.149813 10.939741 -3.500000
    endloop
  endfacet
  facet normal 0.000000 -0.000000 -1.000000
    outer loop
      vertex -14.101664 26.935603 -3.500000
      vertex -17.200000 33.500000 -3.500000
      vertex -13.340576 28.645034 -3.500000
    endloop
  endfacet
  facet normal 0.000000 -0.000000 -1.000000
    outer loop
      vertex -5.500000 9.526279 -3.500000
      vertex -13.340576 23.354966 -3.500000
      vertex -3.399187 10.461622 -3.500000
    endloop
  endfacet
  facet normal 0.000000 0.000000 -1.000000
    outer loop
      vertex -3.399187 10.461622 -3.500000
      vertex -13.340576 23.354966 -3.500000
      vertex -11.950000 22.102886 -3.500000
    endloop
  endfacet
  facet normal 0.000000 0.000000 -1.000000
    outer loop
      vertex -16.450000 17.145448 -3.500000
      vertex -21.500000 21.500000 -3.500000
      vertex -17.200000 21.500000 -3.500000
    endloop
  endfacet
  facet normal 0.000000 0.000000 -1.000000
    outer loop
      vertex -14.101664 25.064397 -3.500000
      vertex -17.200000 21.500000 -3.500000
      vertex -14.101664 26.935603 -3.500000
    endloop
  endfacet
  facet normal 0.000000 0.000000 -1.000000
    outer loop
      vertex -13.340576 23.354966 -3.500000
      vertex -17.200000 21.500000 -3.500000
      vertex -14.101664 25.064397 -3.500000
    endloop
  endfacet
  facet normal 0.000000 0.000000 -1.000000
    outer loop
      vertex -5.500000 9.526279 -3.500000
      vertex -17.200000 21.500000 -3.500000
      vertex -13.340576 23.354966 -3.500000
    endloop
  endfacet
  facet normal 0.000000 0.000000 -1.000000
    outer loop
      vertex -8.309424 21.720246 -3.500000
      vertex -1.149813 10.939741 -3.500000
      vertex -10.170378 21.524651 -3.500000
    endloop
  endfacet
  facet normal 0.000000 -0.000000 -1.000000
    outer loop
      vertex -10.049000 4.474103 -3.500000
      vertex -16.450000 13.854552 -3.500000
      vertex -8.899187 6.465638 -3.500000
    endloop
  endfacet
  facet normal 0.000000 -0.000000 -1.000000
    outer loop
      vertex 7.360437 8.174593 -3.500000
      vertex -6.688912 22.655848 -3.500000
      vertex 11.586110 33.500000 -3.500000
    endloop
  endfacet
  facet normal 0.000000 0.000000 -1.000000
    outer loop
      vertex -1.149813 -10.939741 -3.500000
      vertex 21.500000 -21.500000 -3.500000
      vertex -3.399187 -10.461622 -3.500000
    endloop
  endfacet
  facet normal -0.000000 -0.000000 -1.000000
    outer loop
      vertex -10.170378 30.475349 -3.500000
      vertex -17.200000 33.500000 -3.500000
      vertex -8.309424 30.279754 -3.500000
    endloop
  endfacet
  facet normal 0.000000 -0.000000 -1.000000
    outer loop
      vertex -13.340576 28.645034 -3.500000
      vertex -17.200000 33.500000 -3.500000
      vertex -11.950000 29.897114 -3.500000
    endloop
  endfacet
  facet normal 0.000000 0.000000 -1.000000
    outer loop
      vertex -5.589045 24.169685 -3.500000
      vertex -5.200000 26.000000 -3.500000
      vertex 11.586110 33.500000 -3.500000
    endloop
  endfacet
  facet normal 0.000000 -0.000000 -1.000000
    outer loop
      vertex -5.200000 26.000000 -3.500000
      vertex -5.589045 27.830315 -3.500000
      vertex 11.586110 33.500000 -3.500000
    endloop
  endfacet
  facet normal 0.000000 -0.000000 -1.000000
    outer loop
      vertex -11.950000 29.897114 -3.500000
      vertex -17.200000 33.500000 -3.500000
      vertex -10.170378 30.475349 -3.500000
    endloop
  endfacet
  facet normal 0.000000 -0.000000 -1.000000
    outer loop
      vertex -5.589045 27.830315 -3.500000
      vertex -6.688912 29.344152 -3.500000
      vertex 11.586110 33.500000 -3.500000
    endloop
  endfacet
  facet normal 0.000000 -0.000000 -1.000000
    outer loop
      vertex -6.688912 29.344152 -3.500000
      vertex -8.309424 30.279754 -3.500000
      vertex 11.586110 33.500000 -3.500000
    endloop
  endfacet
  facet normal 0.000000 -0.000000 -1.000000
    outer loop
      vertex -13.600000 -15.500000 -3.500000
      vertex -16.450000 13.854552 -3.500000
      vertex -11.000000 0.000000 -3.500000
    endloop
  endfacet
  facet normal 0.000000 0.000000 -1.000000
    outer loop
      vertex 14.550000 -17.145448 -3.500000
      vertex 5.500000 -9.526279 -3.500000
      vertex 13.600000 -15.500000 -3.500000
    endloop
  endfacet
  facet normal 0.000000 0.000000 -1.000000
    outer loop
      vertex -13.600000 -15.500000 -3.500000
      vertex -11.000000 0.000000 -3.500000
      vertex -10.759624 -2.287029 -3.500000
    endloop
  endfacet
  facet normal 0.000000 0.000000 -1.000000
    outer loop
      vertex 5.500000 -9.526279 -3.500000
      vertex 14.550000 -17.145448 -3.500000
      vertex 3.399187 -10.461622 -3.500000
    endloop
  endfacet
  facet normal 0.000000 0.000000 -1.000000
    outer loop
      vertex -13.600000 -15.500000 -3.500000
      vertex -10.759624 -2.287029 -3.500000
      vertex -10.049000 -4.474103 -3.500000
    endloop
  endfacet
  facet normal 0.000000 0.000000 -1.000000
    outer loop
      vertex -13.600000 -15.500000 -3.500000
      vertex -10.049000 -4.474103 -3.500000
      vertex -8.899187 -6.465638 -3.500000
    endloop
  endfacet
  facet normal 0.000000 0.000000 -1.000000
    outer loop
      vertex -13.600000 -15.500000 -3.500000
      vertex -8.899187 -6.465638 -3.500000
      vertex -7.360437 -8.174593 -3.500000
    endloop
  endfacet
  facet normal 0.000000 0.000000 -1.000000
    outer loop
      vertex -13.600000 -15.500000 -3.500000
      vertex -7.360437 -8.174593 -3.500000
      vertex -5.500000 -9.526279 -3.500000
    endloop
  endfacet
  facet normal 0.000000 0.000000 -1.000000
    outer loop
      vertex -13.600000 -15.500000 -3.500000
      vertex -5.500000 -9.526279 -3.500000
      vertex -3.399187 -10.461622 -3.500000
    endloop
  endfacet
  facet normal -0.000000 0.000000 -1.000000
    outer loop
      vertex -13.600000 -15.500000 -3.500000
      vertex -3.399187 -10.461622 -3.500000
      vertex 21.500000 -21.500000 -3.500000
    endloop
  endfacet
  facet normal 0.000000 0.000000 -1.000000
    outer loop
      vertex 1.149813 -10.939741 -3.500000
      vertex 21.500000 -21.500000 -3.500000
      vertex -1.149813 -10.939741 -3.500000
    endloop
  endfacet
  facet normal 0.000000 0.000000 -1.000000
    outer loop
      vertex 3.399187 -10.461622 -3.500000
      vertex 21.500000 -21.500000 -3.500000
      vertex 1.149813 -10.939741 -3.500000
    endloop
  endfacet
  facet normal 0.000000 0.000000 -1.000000
    outer loop
      vertex 16.450000 -17.145448 -3.500000
      vertex 21.500000 -21.500000 -3.500000
      vertex 14.550000 -17.145448 -3.500000
    endloop
  endfacet
  facet normal 0.000000 -0.000000 -1.000000
    outer loop
      vertex 13.600000 -15.500000 -3.500000
      vertex 7.360437 -8.174593 -3.500000
      vertex 14.550000 -13.854552 -3.500000
    endloop
  endfacet
  facet normal 0.000000 -0.000000 -1.000000
    outer loop
      vertex 13.600000 15.500000 -3.500000
      vertex 11.586110 33.500000 -3.500000
      vertex 14.550000 17.145448 -3.500000
    endloop
  endfacet
  facet normal 0.000000 0.000000 -1.000000
    outer loop
      vertex 16.450000 -13.854552 -3.500000
      vertex 21.500000 -21.500000 -3.500000
      vertex 17.400000 -15.500000 -3.500000
    endloop
  endfacet
  facet normal 0.000000 0.000000 -1.000000
    outer loop
      vertex -7.360437 8.174593 -3.500000
      vertex -14.550000 17.145448 -3.500000
      vertex -17.200000 21.500000 -3.500000
    endloop
  endfacet
  facet normal 0.000000 0.000000 -1.000000
    outer loop
      vertex 10.759624 -2.287029 -3.500000
      vertex 21.500000 -21.500000 -3.500000
      vertex 16.450000 -13.854552 -3.500000
    endloop
  endfacet
  facet normal 0.000000 0.000000 -1.000000
    outer loop
      vertex -1.149813 10.939741 -3.500000
      vertex -8.309424 21.720246 -3.500000
      vertex -6.688912 22.655848 -3.500000
    endloop
  endfacet
  facet normal 0.000000 0.000000 -1.000000
    outer loop
      vertex 21.500000 -21.500000 -3.500000
      vertex 10.759624 -2.287029 -3.500000
      vertex 11.000000 0.000000 -3.500000
    endloop
  endfacet
  facet normal 0.000000 0.000000 -1.000000
    outer loop
      vertex 13.600000 15.500000 -3.500000
      vertex 11.000000 0.000000 -3.500000
      vertex 11.586110 33.500000 -3.500000
    endloop
  endfacet
  facet normal -0.000000 -0.000000 -1.000000
    outer loop
      vertex 1.149813 10.939741 -3.500000
      vertex -6.688912 22.655848 -3.500000
      vertex 3.399187 10.461622 -3.500000
    endloop
  endfacet
  facet normal -0.000000 -0.000000 -1.000000
    outer loop
      vertex 5.500000 9.526279 -3.500000
      vertex -6.688912 22.655848 -3.500000
      vertex 7.360437 8.174593 -3.500000
    endloop
  endfacet
  facet normal 0.000000 -0.000000 -1.000000
    outer loop
      vertex 10.759624 2.287029 -3.500000
      vertex 10.049000 4.474103 -3.500000
      vertex 11.586110 33.500000 -3.500000
    endloop
  endfacet
  facet normal -0.000000 -0.000000 -1.000000
    outer loop
      vertex 3.399187 10.461622 -3.500000
      vertex -6.688912 22.655848 -3.500000
      vertex 5.500000 9.526279 -3.500000
    endloop
  endfacet
  facet normal 0.000000 -0.000000 -1.000000
    outer loop
      vertex 10.049000 4.474103 -3.500000
      vertex 8.899187 6.465638 -3.500000
      vertex 11.586110 33.500000 -3.500000
    endloop
  endfacet
  facet normal 0.000000 -0.000000 -1.000000
    outer loop
      vertex 8.899187 6.465638 -3.500000
      vertex 7.360437 8.174593 -3.500000
      vertex 11.586110 33.500000 -3.500000
    endloop
  endfacet
  facet normal -0.000000 -0.000000 -1.000000
    outer loop
      vertex -1.149813 10.939741 -3.500000
      vertex -6.688912 22.655848 -3.500000
      vertex 1.149813 10.939741 -3.500000
    endloop
  endfacet
  facet normal -0.000000 0.000000 -1.000000
    outer loop
      vertex 10.759624 2.287029 -3.500000
      vertex 11.586110 33.500000 -3.500000
      vertex 11.000000 0.000000 -3.500000
    endloop
  endfacet
  facet normal 0.000000 -0.000000 -1.000000
    outer loop
      vertex -7.360437 8.174593 -3.500000
      vertex -17.200000 21.500000 -3.500000
      vertex -5.500000 9.526279 -3.500000
    endloop
  endfacet
  facet normal 0.000000 0.000000 -1.000000
    outer loop
      vertex -7.360437 8.174593 -3.500000
      vertex -13.600000 15.500000 -3.500000
      vertex -14.550000 17.145448 -3.500000
    endloop
  endfacet
  facet normal -0.000000 -0.000000 -1.000000
    outer loop
      vertex -16.450000 17.145448 -3.500000
      vertex -17.200000 21.500000 -3.500000
      vertex -14.550000 17.145448 -3.500000
    endloop
  endfacet
  facet normal 0.000000 0.000000 -1.000000
    outer loop
      vertex 8.899187 -6.465638 -3.500000
      vertex 14.550000 -13.854552 -3.500000
      vertex 7.360437 -8.174593 -3.500000
    endloop
  endfacet
  facet normal 0.000000 -0.000000 -1.000000
    outer loop
      vertex -10.759624 2.287029 -3.500000
      vertex -16.450000 13.854552 -3.500000
      vertex -10.049000 4.474103 -3.500000
    endloop
  endfacet
  facet normal 0.000000 -0.000000 -1.000000
    outer loop
      vertex -11.000000 0.000000 -3.500000
      vertex -16.450000 13.854552 -3.500000
      vertex -10.759624 2.287029 -3.500000
    endloop
  endfacet
  facet normal 0.000000 0.000000 -1.000000
    outer loop
      vertex -8.899187 6.465638 -3.500000
      vertex -16.450000 13.854552 -3.500000
      vertex -14.550000 13.854552 -3.500000
    endloop
  endfacet
  facet normal 0.000000 0.000000 -1.000000
    outer loop
      vertex 7.360437 -8.174593 -3.500000
      vertex 13.600000 -15.500000 -3.500000
      vertex 5.500000 -9.526279 -3.500000
    endloop
  endfacet
  facet normal 0.000000 0.000000 -1.000000
    outer loop
      vertex 3.399187 -10.461622 -3.500000
      vertex 14.550000 -17.145448 -3.500000
      vertex 21.500000 -21.500000 -3.500000
    endloop
  endfacet
  facet normal 0.000000 0.000000 -1.000000
    outer loop
      vertex 17.400000 -15.500000 -3.500000
      vertex 21.500000 -21.500000 -3.500000
      vertex 16.450000 -17.145448 -3.500000
    endloop
  endfacet
  facet normal 0.000000 0.000000 -1.000000
    outer loop
      vertex 10.759624 -2.287029 -3.500000
      vertex 16.450000 -13.854552 -3.500000
      vertex 10.049000 -4.474103 -3.500000
    endloop
  endfacet
  facet normal -0.000000 -0.000000 -1.000000
    outer loop
      vertex 14.550000 -13.854552 -3.500000
      vertex 10.049000 -4.474103 -3.500000
      vertex 16.450000 -13.854552 -3.500000
    endloop
  endfacet
  facet normal 0.000000 0.000000 -1.000000
    outer loop
      vertex 14.550000 -13.854552 -3.500000
      vertex 8.899187 -6.465638 -3.500000
      vertex 10.049000 -4.474103 -3.500000
    endloop
  endfacet
  facet normal 0.000000 0.000000 -1.000000
    outer loop
      vertex -3.399187 10.461622 -3.500000
      vertex -11.950000 22.102886 -3.500000
      vertex -10.170378 21.524651 -3.500000
    endloop
  endfacet
  facet normal 0.000000 0.000000 -1.000000
    outer loop
      vertex 21.500000 -21.500000 -3.500000
      vertex 11.000000 0.000000 -3.500000
      vertex 13.600000 15.500000 -3.500000
    endloop
  endfacet
  facet normal 0.000000 0.000000 -1.000000
    outer loop
      vertex 16.450000 13.854552 -3.500000
      vertex 21.500000 -21.500000 -3.500000
      vertex 14.550000 13.854552 -3.500000
    endloop
  endfacet
  facet normal 0.000000 0.000000 -1.000000
    outer loop
      vertex 21.500000 -21.500000 -3.500000
      vertex 13.600000 15.500000 -3.500000
      vertex 14.550000 13.854552 -3.500000
    endloop
  endfacet
  facet normal 0.000000 0.000000 -1.000000
    outer loop
      vertex 24.322692 49.119915 -3.500000
      vertex 25.979165 58.429503 -3.500000
      vertex 25.083780 50.829346 -3.500000
    endloop
  endfacet
  facet normal 0.000000 0.000000 -1.000000
    outer loop
      vertex 21.500000 -21.500000 -3.500000
      vertex 16.450000 13.854552 -3.500000
      vertex 21.500000 20.671362 -3.500000
    endloop
  endfacet
  facet normal -0.000000 -0.000000 -1.000000
    outer loop
      vertex 16.450000 17.145448 -3.500000
      vertex 11.586110 33.500000 -3.500000
      vertex 17.400000 15.500000 -3.500000
    endloop
  endfacet
  facet normal 0.000000 0.000000 -1.000000
    outer loop
      vertex 16.450000 13.854552 -3.500000
      vertex 17.400000 15.500000 -3.500000
      vertex 21.500000 20.671362 -3.500000
    endloop
  endfacet
  facet normal -0.000000 -0.000000 -1.000000
    outer loop
      vertex 14.550000 17.145448 -3.500000
      vertex 11.586110 33.500000 -3.500000
      vertex 16.450000 17.145448 -3.500000
    endloop
  endfacet
  facet normal 0.000000 -0.000000 -1.000000
    outer loop
      vertex 21.500000 20.671362 -3.500000
      vertex 11.586110 33.500000 -3.500000
      vertex 24.322692 49.119915 -3.500000
    endloop
  endfacet
  facet normal 0.000000 0.000000 -1.000000
    outer loop
      vertex 25.083780 45.539278 -3.500000
      vertex 21.500000 20.671362 -3.500000
      vertex 24.322692 47.248709 -3.500000
    endloop
  endfacet
  facet normal 0.000000 0.000000 -1.000000
    outer loop
      vertex 21.500000 20.671362 -3.500000
      vertex 24.322692 49.119915 -3.500000
      vertex 24.322692 47.248709 -3.500000
    endloop
  endfacet
  facet normal 0.000000 0.000000 -1.000000
    outer loop
      vertex -13.600000 -15.500000 -3.500000
      vertex 21.500000 -21.500000 -3.500000
      vertex -14.550000 -17.145448 -3.500000
    endloop
  endfacet
  facet normal 0.000000 -0.000000 -1.000000
    outer loop
      vertex -8.899187 6.465638 -3.500000
      vertex -14.550000 13.854552 -3.500000
      vertex -7.360437 8.174593 -3.500000
    endloop
  endfacet
  facet normal -0.000000 0.000000 -1.000000
    outer loop
      vertex 33.224356 48.184312 -3.500000
      vertex 38.969546 50.929503 -3.500000
      vertex 32.835311 46.353997 -3.500000
    endloop
  endfacet
  facet normal 0.000000 0.000000 -1.000000
    outer loop
      vertex 25.083780 50.829346 -3.500000
      vertex 25.979165 58.429503 -3.500000
      vertex 26.474356 52.081426 -3.500000
    endloop
  endfacet
  facet normal -0.000000 -0.000000 -1.000000
    outer loop
      vertex 30.114932 52.464066 -3.500000
      vertex 25.979165 58.429503 -3.500000
      vertex 31.735444 51.528464 -3.500000
    endloop
  endfacet
  facet normal 0.000000 -0.000000 -1.000000
    outer loop
      vertex 33.224356 48.184312 -3.500000
      vertex 32.835311 50.014627 -3.500000
      vertex 38.969546 50.929503 -3.500000
    endloop
  endfacet
  facet normal 0.000000 -0.000000 -1.000000
    outer loop
      vertex 32.835311 50.014627 -3.500000
      vertex 31.735444 51.528464 -3.500000
      vertex 38.969546 50.929503 -3.500000
    endloop
  endfacet
  facet normal -0.000000 -0.000000 -1.000000
    outer loop
      vertex 28.253978 52.659661 -3.500000
      vertex 25.979165 58.429503 -3.500000
      vertex 30.114932 52.464066 -3.500000
    endloop
  endfacet
  facet normal 0.000000 -0.000000 -1.000000
    outer loop
      vertex 26.474356 52.081426 -3.500000
      vertex 25.979165 58.429503 -3.500000
      vertex 28.253978 52.659661 -3.500000
    endloop
  endfacet
  facet normal -0.000000 0.000000 -1.000000
    outer loop
      vertex 32.835311 46.353997 -3.500000
      vertex 38.969546 50.929503 -3.500000
      vertex 31.735444 44.840160 -3.500000
    endloop
  endfacet
  facet normal 0.000000 0.000000 -1.000000
    outer loop
      vertex 21.500000 20.671362 -3.500000
      vertex 25.083780 45.539278 -3.500000
      vertex 26.474356 44.287198 -3.500000
    endloop
  endfacet
  facet normal 0.000000 0.000000 -1.000000
    outer loop
      vertex 21.500000 20.671362 -3.500000
      vertex 26.474356 44.287198 -3.500000
      vertex 28.253978 43.708963 -3.500000
    endloop
  endfacet
  facet normal 0.000000 0.000000 -1.000000
    outer loop
      vertex 21.500000 20.671362 -3.500000
      vertex 28.253978 43.708963 -3.500000
      vertex 30.114932 43.904558 -3.500000
    endloop
  endfacet
  facet normal 0.000000 0.000000 -1.000000
    outer loop
      vertex 21.500000 20.671362 -3.500000
      vertex 30.114932 43.904558 -3.500000
      vertex 31.735444 44.840160 -3.500000
    endloop
  endfacet
  facet normal 0.000000 0.000000 -1.000000
    outer loop
      vertex 21.500000 20.671362 -3.500000
      vertex 31.735444 44.840160 -3.500000
      vertex 38.969546 50.929503 -3.500000
    endloop
  endfacet
  facet normal 0.000000 1.000000 0.000000
    outer loop
      vertex -21.500000 21.500000 -3.500000
      vertex -21.500000 21.500000 3.500000
      vertex -17.200000 21.500000 -3.500000
    endloop
  endfacet
  facet normal 0.000000 1.000000 0.000000
    outer loop
      vertex -17.200000 21.500000 -3.500000
      vertex -21.500000 21.500000 3.500000
      vertex -17.200000 21.500000 3.500000
    endloop
  endfacet
  facet normal 0.000000 -0.000000 1.000000
    outer loop
      vertex -16.450000 -17.145448 3.500000
      vertex -21.500000 -21.500000 3.500000
      vertex 21.500000 -21.500000 3.500000
    endloop
  endfacet
  facet normal 0.000000 -0.000000 1.000000
    outer loop
      vertex -17.200000 21.500000 3.500000
      vertex -21.500000 21.500000 3.500000
      vertex 21.500000 20.671362 3.500000
    endloop
  endfacet
  facet normal 0.000000 0.000000 1.000000
    outer loop
      vertex 11.586110 33.500000 3.500000
      vertex -10.170378 30.475349 3.500000
      vertex -8.309424 30.279754 3.500000
    endloop
  endfacet
  facet normal 0.000000 0.000000 1.000000
    outer loop
      vertex 30.114932 43.904558 3.500000
      vertex 11.586110 33.500000 3.500000
      vertex 21.500000 20.671362 3.500000
    endloop
  endfacet
  facet normal 0.000000 0.000000 1.000000
    outer loop
      vertex -7.360437 8.174593 3.500000
      vertex -14.550000 17.145448 3.500000
      vertex -13.600000 15.500000 3.500000
    endloop
  endfacet
  facet normal 0.000000 -0.000000 1.000000
    outer loop
      vertex -10.170378 21.524651 3.500000
      vertex -17.200000 21.500000 3.500000
      vertex 21.500000 20.671362 3.500000
    endloop
  endfacet
  facet normal 0.000000 -0.000000 1.000000
    outer loop
      vertex -14.550000 -17.145448 3.500000
      vertex -16.450000 -17.145448 3.500000
      vertex 21.500000 -21.500000 3.500000
    endloop
  endfacet
  facet normal 0.000000 -0.000000 1.000000
    outer loop
      vertex -17.400000 -15.500000 3.500000
      vertex -21.500000 -21.500000 3.500000
      vertex -16.450000 -17.145448 3.500000
    endloop
  endfacet
  facet normal 0.000000 0.000000 1.000000
    outer loop
      vertex -14.550000 -13.854552 3.500000
      vertex -13.600000 -15.500000 3.500000
      vertex 21.500000 -21.500000 3.500000
    endloop
  endfacet
  facet normal 0.000000 -0.000000 1.000000
    outer loop
      vertex -21.500000 21.500000 3.500000
      vertex -21.500000 -21.500000 3.500000
      vertex -17.400000 -15.500000 3.500000
    endloop
  endfacet
  facet normal 0.000000 -0.000000 1.000000
    outer loop
      vertex 1.149813 -10.939741 3.500000
      vertex -14.550000 -13.854552 3.500000
      vertex 21.500000 -21.500000 3.500000
    endloop
  endfacet
  facet normal 0.000000 0.000000 1.000000
    outer loop
      vertex -21.500000 21.500000 3.500000
      vertex -16.450000 -13.854552 3.500000
      vertex -14.550000 -13.854552 3.500000
    endloop
  endfacet
  facet normal 0.000000 -0.000000 1.000000
    outer loop
      vertex -13.600000 -15.500000 3.500000
      vertex -14.550000 -17.145448 3.500000
      vertex 21.500000 -21.500000 3.500000
    endloop
  endfacet
  facet normal 0.000000 0.000000 1.000000
    outer loop
      vertex -7.360437 8.174593 3.500000
      vertex -5.500000 9.526279 3.500000
      vertex -14.550000 17.145448 3.500000
    endloop
  endfacet
  facet normal 0.000000 0.000000 1.000000
    outer loop
      vertex -21.500000 21.500000 3.500000
      vertex -14.550000 -13.854552 3.500000
      vertex -16.450000 13.854552 3.500000
    endloop
  endfacet
  facet normal 0.000000 0.000000 1.000000
    outer loop
      vertex -17.400000 15.500000 3.500000
      vertex -16.450000 17.145448 3.500000
      vertex -21.500000 21.500000 3.500000
    endloop
  endfacet
  facet normal 0.000000 0.000000 1.000000
    outer loop
      vertex -21.500000 21.500000 3.500000
      vertex -16.450000 13.854552 3.500000
      vertex -17.400000 15.500000 3.500000
    endloop
  endfacet
  facet normal 0.000000 0.000000 1.000000
    outer loop
      vertex -6.688912 29.344152 3.500000
      vertex -5.589045 27.830315 3.500000
      vertex 11.586110 33.500000 3.500000
    endloop
  endfacet
  facet normal -0.000000 0.000000 1.000000
    outer loop
      vertex 21.500000 20.671362 3.500000
      vertex -21.500000 21.500000 3.500000
      vertex -16.450000 17.145448 3.500000
    endloop
  endfacet
  facet normal 0.000000 0.000000 1.000000
    outer loop
      vertex -3.399187 10.461622 3.500000
      vertex -1.149813 10.939741 3.500000
      vertex 21.500000 20.671362 3.500000
    endloop
  endfacet
  facet normal 0.000000 0.000000 1.000000
    outer loop
      vertex 21.500000 20.671362 3.500000
      vertex -16.450000 17.145448 3.500000
      vertex -14.550000 17.145448 3.500000
    endloop
  endfacet
  facet normal 0.000000 0.000000 1.000000
    outer loop
      vertex 10.759624 -2.287029 3.500000
      vertex 16.450000 -13.854552 3.500000
      vertex 21.500000 -21.500000 3.500000
    endloop
  endfacet
  facet normal 0.000000 -0.000000 1.000000
    outer loop
      vertex -13.600000 15.500000 3.500000
      vertex -14.550000 13.854552 3.500000
      vertex -7.360437 8.174593 3.500000
    endloop
  endfacet
  facet normal 0.000000 -0.000000 1.000000
    outer loop
      vertex -14.101664 25.064397 3.500000
      vertex -17.200000 21.500000 3.500000
      vertex -13.340576 23.354966 3.500000
    endloop
  endfacet
  facet normal 0.000000 0.000000 1.000000
    outer loop
      vertex -17.200000 33.500000 3.500000
      vertex -14.101664 25.064397 3.500000
      vertex -14.101664 26.935603 3.500000
    endloop
  endfacet
  facet normal 0.000000 0.000000 1.000000
    outer loop
      vertex -17.200000 33.500000 3.500000
      vertex -13.340576 28.645034 3.500000
      vertex -11.950000 29.897114 3.500000
    endloop
  endfacet
  facet normal 0.000000 0.000000 1.000000
    outer loop
      vertex -17.200000 33.500000 3.500000
      vertex -14.101664 26.935603 3.500000
      vertex -13.340576 28.645034 3.500000
    endloop
  endfacet
  facet normal 0.000000 0.000000 1.000000
    outer loop
      vertex -17.200000 33.500000 3.500000
      vertex -17.200000 21.500000 3.500000
      vertex -14.101664 25.064397 3.500000
    endloop
  endfacet
  facet normal -0.000000 0.000000 1.000000
    outer loop
      vertex -10.170378 21.524651 3.500000
      vertex -11.950000 22.102886 3.500000
      vertex -17.200000 21.500000 3.500000
    endloop
  endfacet
  facet normal 0.000000 0.000000 1.000000
    outer loop
      vertex 11.586110 33.500000 3.500000
      vertex -17.200000 33.500000 3.500000
      vertex -10.170378 30.475349 3.500000
    endloop
  endfacet
  facet normal 0.000000 -0.000000 1.000000
    outer loop
      vertex 7.360437 -8.174593 3.500000
      vertex 5.500000 -9.526279 3.500000
      vertex 13.600000 -15.500000 3.500000
    endloop
  endfacet
  facet normal 0.000000 0.000000 1.000000
    outer loop
      vertex -8.899187 6.465638 3.500000
      vertex -14.550000 13.854552 3.500000
      vertex -16.450000 13.854552 3.500000
    endloop
  endfacet
  facet normal 0.000000 -0.000000 1.000000
    outer loop
      vertex 11.586110 33.500000 3.500000
      vertex -5.200000 26.000000 3.500000
      vertex 21.500000 20.671362 3.500000
    endloop
  endfacet
  facet normal 0.000000 -0.000000 1.000000
    outer loop
      vertex -5.200000 26.000000 3.500000
      vertex -5.589045 24.169685 3.500000
      vertex 21.500000 20.671362 3.500000
    endloop
  endfacet
  facet normal 0.000000 -0.000000 1.000000
    outer loop
      vertex -5.589045 24.169685 3.500000
      vertex -6.688912 22.655848 3.500000
      vertex 21.500000 20.671362 3.500000
    endloop
  endfacet
  facet normal 0.000000 -0.000000 1.000000
    outer loop
      vertex -6.688912 22.655848 3.500000
      vertex -8.309424 21.720246 3.500000
      vertex 21.500000 20.671362 3.500000
    endloop
  endfacet
  facet normal 0.000000 -0.000000 1.000000
    outer loop
      vertex -8.309424 21.720246 3.500000
      vertex -10.170378 21.524651 3.500000
      vertex 21.500000 20.671362 3.500000
    endloop
  endfacet
  facet normal -0.000000 0.000000 1.000000
    outer loop
      vertex -11.950000 22.102886 3.500000
      vertex -13.340576 23.354966 3.500000
      vertex -17.200000 21.500000 3.500000
    endloop
  endfacet
  facet normal 0.000000 0.000000 1.000000
    outer loop
      vertex -17.400000 -15.500000 3.500000
      vertex -16.450000 -13.854552 3.500000
      vertex -21.500000 21.500000 3.500000
    endloop
  endfacet
  facet normal 0.000000 0.000000 1.000000
    outer loop
      vertex -16.450000 13.854552 3.500000
      vertex -14.550000 -13.854552 3.500000
      vertex -10.759624 -2.287029 3.500000
    endloop
  endfacet
  facet normal 0.000000 -0.000000 1.000000
    outer loop
      vertex 16.450000 -17.145448 3.500000
      vertex 14.550000 -17.145448 3.500000
      vertex 21.500000 -21.500000 3.500000
    endloop
  endfacet
  facet normal 0.000000 0.000000 1.000000
    outer loop
      vertex -16.450000 13.854552 3.500000
      vertex -10.759624 -2.287029 3.500000
      vertex -11.000000 0.000000 3.500000
    endloop
  endfacet
  facet normal 0.000000 0.000000 1.000000
    outer loop
      vertex 14.550000 -13.854552 3.500000
      vertex 10.049000 -4.474103 3.500000
      vertex 8.899187 -6.465638 3.500000
    endloop
  endfacet
  facet normal 0.000000 0.000000 1.000000
    outer loop
      vertex -16.450000 13.854552 3.500000
      vertex -11.000000 0.000000 3.500000
      vertex -10.759624 2.287029 3.500000
    endloop
  endfacet
  facet normal 0.000000 0.000000 1.000000
    outer loop
      vertex -16.450000 13.854552 3.500000
      vertex -10.759624 2.287029 3.500000
      vertex -10.049000 4.474103 3.500000
    endloop
  endfacet
  facet normal 0.000000 -0.000000 1.000000
    outer loop
      vertex 8.899187 -6.465638 3.500000
      vertex 7.360437 -8.174593 3.500000
      vertex 14.550000 -13.854552 3.500000
    endloop
  endfacet
  facet normal 0.000000 0.000000 1.000000
    outer loop
      vertex -16.450000 13.854552 3.500000
      vertex -10.049000 4.474103 3.500000
      vertex -8.899187 6.465638 3.500000
    endloop
  endfacet
  facet normal 0.000000 -0.000000 1.000000
    outer loop
      vertex 10.759624 -2.287029 3.500000
      vertex 10.049000 -4.474103 3.500000
      vertex 16.450000 -13.854552 3.500000
    endloop
  endfacet
  facet normal 0.000000 0.000000 1.000000
    outer loop
      vertex -5.589045 27.830315 3.500000
      vertex -5.200000 26.000000 3.500000
      vertex 11.586110 33.500000 3.500000
    endloop
  endfacet
  facet normal -0.000000 0.000000 1.000000
    outer loop
      vertex -3.399187 10.461622 3.500000
      vertex -14.550000 17.145448 3.500000
      vertex -5.500000 9.526279 3.500000
    endloop
  endfacet
  facet normal 0.000000 0.000000 1.000000
    outer loop
      vertex 10.049000 4.474103 3.500000
      vertex 10.759624 2.287029 3.500000
      vertex 21.500000 -21.500000 3.500000
    endloop
  endfacet
  facet normal 0.000000 0.000000 1.000000
    outer loop
      vertex 21.500000 20.671362 3.500000
      vertex -14.550000 17.145448 3.500000
      vertex -3.399187 10.461622 3.500000
    endloop
  endfacet
  facet normal 0.000000 0.000000 1.000000
    outer loop
      vertex 16.450000 13.854552 3.500000
      vertex 8.899187 6.465638 3.500000
      vertex 10.049000 4.474103 3.500000
    endloop
  endfacet
  facet normal 0.000000 0.000000 1.000000
    outer loop
      vertex 21.500000 20.671362 3.500000
      vertex -1.149813 10.939741 3.500000
      vertex 1.149813 10.939741 3.500000
    endloop
  endfacet
  facet normal 0.000000 0.000000 1.000000
    outer loop
      vertex 16.450000 -13.854552 3.500000
      vertex 17.400000 -15.500000 3.500000
      vertex 21.500000 -21.500000 3.500000
    endloop
  endfacet
  facet normal 0.000000 0.000000 1.000000
    outer loop
      vertex 14.550000 17.145448 3.500000
      vertex 1.149813 10.939741 3.500000
      vertex 3.399187 10.461622 3.500000
    endloop
  endfacet
  facet normal 0.000000 0.000000 1.000000
    outer loop
      vertex 13.600000 15.500000 3.500000
      vertex 3.399187 10.461622 3.500000
      vertex 5.500000 9.526279 3.500000
    endloop
  endfacet
  facet normal 0.000000 -0.000000 1.000000
    outer loop
      vertex 11.000000 0.000000 3.500000
      vertex 10.759624 -2.287029 3.500000
      vertex 21.500000 -21.500000 3.500000
    endloop
  endfacet
  facet normal 0.000000 0.000000 1.000000
    outer loop
      vertex 30.114932 52.464066 3.500000
      vertex 31.735444 51.528464 3.500000
      vertex 38.969546 50.929503 3.500000
    endloop
  endfacet
  facet normal 0.000000 0.000000 1.000000
    outer loop
      vertex 10.759624 2.287029 3.500000
      vertex 11.000000 0.000000 3.500000
      vertex 21.500000 -21.500000 3.500000
    endloop
  endfacet
  facet normal 0.000000 0.000000 1.000000
    outer loop
      vertex 14.550000 13.854552 3.500000
      vertex 7.360437 8.174593 3.500000
      vertex 8.899187 6.465638 3.500000
    endloop
  endfacet
  facet normal 0.000000 0.000000 1.000000
    outer loop
      vertex 21.500000 20.671362 3.500000
      vertex 10.049000 4.474103 3.500000
      vertex 21.500000 -21.500000 3.500000
    endloop
  endfacet
  facet normal -0.000000 -0.000000 1.000000
    outer loop
      vertex 14.550000 -17.145448 3.500000
      vertex 3.399187 -10.461622 3.500000
      vertex 21.500000 -21.500000 3.500000
    endloop
  endfacet
  facet normal 0.000000 0.000000 1.000000
    outer loop
      vertex 14.550000 -17.145448 3.500000
      vertex 13.600000 -15.500000 3.500000
      vertex 5.500000 -9.526279 3.500000
    endloop
  endfacet
  facet normal 0.000000 -0.000000 1.000000
    outer loop
      vertex -1.149813 -10.939741 3.500000
      vertex -14.550000 -13.854552 3.500000
      vertex 1.149813 -10.939741 3.500000
    endloop
  endfacet
  facet normal 0.000000 -0.000000 1.000000
    outer loop
      vertex -3.399187 -10.461622 3.500000
      vertex -14.550000 -13.854552 3.500000
      vertex -1.149813 -10.939741 3.500000
    endloop
  endfacet
  facet normal 0.000000 -0.000000 1.000000
    outer loop
      vertex -5.500000 -9.526279 3.500000
      vertex -14.550000 -13.854552 3.500000
      vertex -3.399187 -10.461622 3.500000
    endloop
  endfacet
  facet normal 0.000000 -0.000000 1.000000
    outer loop
      vertex -7.360437 -8.174593 3.500000
      vertex -14.550000 -13.854552 3.500000
      vertex -5.500000 -9.526279 3.500000
    endloop
  endfacet
  facet normal 0.000000 -0.000000 1.000000
    outer loop
      vertex -8.899187 -6.465638 3.500000
      vertex -14.550000 -13.854552 3.500000
      vertex -7.360437 -8.174593 3.500000
    endloop
  endfacet
  facet normal 0.000000 -0.000000 1.000000
    outer loop
      vertex -10.049000 -4.474103 3.500000
      vertex -14.550000 -13.854552 3.500000
      vertex -8.899187 -6.465638 3.500000
    endloop
  endfacet
  facet normal 0.000000 -0.000000 1.000000
    outer loop
      vertex -10.759624 -2.287029 3.500000
      vertex -14.550000 -13.854552 3.500000
      vertex -10.049000 -4.474103 3.500000
    endloop
  endfacet
  facet normal 0.000000 -0.000000 1.000000
    outer loop
      vertex 3.399187 -10.461622 3.500000
      vertex 1.149813 -10.939741 3.500000
      vertex 21.500000 -21.500000 3.500000
    endloop
  endfacet
  facet normal 0.000000 0.000000 1.000000
    outer loop
      vertex 13.600000 -15.500000 3.500000
      vertex 14.550000 -13.854552 3.500000
      vertex 7.360437 -8.174593 3.500000
    endloop
  endfacet
  facet normal 0.000000 0.000000 1.000000
    outer loop
      vertex 16.450000 13.854552 3.500000
      vertex 14.550000 13.854552 3.500000
      vertex 8.899187 6.465638 3.500000
    endloop
  endfacet
  facet normal 0.000000 -0.000000 1.000000
    outer loop
      vertex 17.400000 -15.500000 3.500000
      vertex 16.450000 -17.145448 3.500000
      vertex 21.500000 -21.500000 3.500000
    endloop
  endfacet
  facet normal -0.000000 0.000000 1.000000
    outer loop
      vertex 14.550000 13.854552 3.500000
      vertex 13.600000 15.500000 3.500000
      vertex 5.500000 9.526279 3.500000
    endloop
  endfacet
  facet normal 0.000000 0.000000 1.000000
    outer loop
      vertex 14.550000 -13.854552 3.500000
      vertex 16.450000 -13.854552 3.500000
      vertex 10.049000 -4.474103 3.500000
    endloop
  endfacet
  facet normal 0.000000 -0.000000 1.000000
    outer loop
      vertex 5.500000 -9.526279 3.500000
      vertex 3.399187 -10.461622 3.500000
      vertex 14.550000 -17.145448 3.500000
    endloop
  endfacet
  facet normal 0.000000 0.000000 1.000000
    outer loop
      vertex 16.450000 17.145448 3.500000
      vertex 17.400000 15.500000 3.500000
      vertex 21.500000 20.671362 3.500000
    endloop
  endfacet
  facet normal 0.000000 0.000000 1.000000
    outer loop
      vertex 14.550000 17.145448 3.500000
      vertex 16.450000 17.145448 3.500000
      vertex 21.500000 20.671362 3.500000
    endloop
  endfacet
  facet normal 0.000000 0.000000 1.000000
    outer loop
      vertex 21.500000 20.671362 3.500000
      vertex 1.149813 10.939741 3.500000
      vertex 14.550000 17.145448 3.500000
    endloop
  endfacet
  facet normal 0.000000 -0.000000 1.000000
    outer loop
      vertex 33.224356 48.184312 3.500000
      vertex 32.835311 46.353997 3.500000
      vertex 38.969546 50.929503 3.500000
    endloop
  endfacet
  facet normal -0.000000 0.000000 1.000000
    outer loop
      vertex 13.600000 15.500000 3.500000
      vertex 14.550000 17.145448 3.500000
      vertex 3.399187 10.461622 3.500000
    endloop
  endfacet
  facet normal 0.000000 0.000000 1.000000
    outer loop
      vertex 14.550000 13.854552 3.500000
      vertex 5.500000 9.526279 3.500000
      vertex 7.360437 8.174593 3.500000
    endloop
  endfacet
  facet normal 0.000000 0.000000 1.000000
    outer loop
      vertex 24.322692 49.119915 3.500000
      vertex 25.083780 50.829346 3.500000
      vertex 25.979165 58.429503 3.500000
    endloop
  endfacet
  facet normal 0.000000 0.000000 1.000000
    outer loop
      vertex 21.500000 20.671362 3.500000
      vertex 16.450000 13.854552 3.500000
      vertex 10.049000 4.474103 3.500000
    endloop
  endfacet
  facet normal 0.000000 0.000000 1.000000
    outer loop
      vertex 21.500000 20.671362 3.500000
      vertex 17.400000 15.500000 3.500000
      vertex 16.450000 13.854552 3.500000
    endloop
  endfacet
  facet normal 0.000000 0.000000 1.000000
    outer loop
      vertex 31.735444 51.528464 3.500000
      vertex 32.835311 50.014627 3.500000
      vertex 38.969546 50.929503 3.500000
    endloop
  endfacet
  facet normal 0.000000 -0.000000 1.000000
    outer loop
      vertex 25.979165 58.429503 3.500000
      vertex 25.083780 50.829346 3.500000
      vertex 26.474356 52.081426 3.500000
    endloop
  endfacet
  facet normal 0.000000 0.000000 1.000000
    outer loop
      vertex 32.835311 50.014627 3.500000
      vertex 33.224356 48.184312 3.500000
      vertex 38.969546 50.929503 3.500000
    endloop
  endfacet
  facet normal 0.000000 0.000000 1.000000
    outer loop
      vertex 25.979165 58.429503 3.500000
      vertex 26.474356 52.081426 3.500000
      vertex 28.253978 52.659661 3.500000
    endloop
  endfacet
  facet normal 0.000000 0.000000 1.000000
    outer loop
      vertex 25.979165 58.429503 3.500000
      vertex 30.114932 52.464066 3.500000
      vertex 38.969546 50.929503 3.500000
    endloop
  endfacet
  facet normal 0.000000 0.000000 1.000000
    outer loop
      vertex 25.979165 58.429503 3.500000
      vertex 28.253978 52.659661 3.500000
      vertex 30.114932 52.464066 3.500000
    endloop
  endfacet
  facet normal -0.000000 0.000000 1.000000
    outer loop
      vertex -10.170378 30.475349 3.500000
      vertex -17.200000 33.500000 3.500000
      vertex -11.950000 29.897114 3.500000
    endloop
  endfacet
  facet normal 0.000000 0.000000 1.000000
    outer loop
      vertex 38.969546 50.929503 3.500000
      vertex 32.835311 46.353997 3.500000
      vertex 21.500000 20.671362 3.500000
    endloop
  endfacet
  facet normal 0.000000 0.000000 1.000000
    outer loop
      vertex 32.835311 46.353997 3.500000
      vertex 31.735444 44.840160 3.500000
      vertex 21.500000 20.671362 3.500000
    endloop
  endfacet
  facet normal 0.000000 0.000000 1.000000
    outer loop
      vertex 31.735444 44.840160 3.500000
      vertex 30.114932 43.904558 3.500000
      vertex 21.500000 20.671362 3.500000
    endloop
  endfacet
  facet normal 0.000000 0.000000 1.000000
    outer loop
      vertex 30.114932 43.904558 3.500000
      vertex 28.253978 43.708963 3.500000
      vertex 11.586110 33.500000 3.500000
    endloop
  endfacet
  facet normal 0.000000 0.000000 1.000000
    outer loop
      vertex -8.899187 6.465638 3.500000
      vertex -7.360437 8.174593 3.500000
      vertex -14.550000 13.854552 3.500000
    endloop
  endfacet
  facet normal 0.000000 0.000000 1.000000
    outer loop
      vertex 11.586110 33.500000 3.500000
      vertex -8.309424 30.279754 3.500000
      vertex -6.688912 29.344152 3.500000
    endloop
  endfacet
  facet normal -0.000000 0.000000 1.000000
    outer loop
      vertex 28.253978 43.708963 3.500000
      vertex 26.474356 44.287198 3.500000
      vertex 11.586110 33.500000 3.500000
    endloop
  endfacet
  facet normal 0.000000 -0.000000 1.000000
    outer loop
      vertex 25.083780 45.539278 3.500000
      vertex 11.586110 33.500000 3.500000
      vertex 26.474356 44.287198 3.500000
    endloop
  endfacet
  facet normal 0.000000 -0.000000 1.000000
    outer loop
      vertex 24.322692 47.248709 3.500000
      vertex 11.586110 33.500000 3.500000
      vertex 25.083780 45.539278 3.500000
    endloop
  endfacet
  facet normal 0.000000 0.000000 1.000000
    outer loop
      vertex 24.322692 49.119915 3.500000
      vertex 11.586110 33.500000 3.500000
      vertex 24.322692 47.248709 3.500000
    endloop
  endfacet
  facet normal 0.000000 0.000000 1.000000
    outer loop
      vertex 25.979165 58.429503 3.500000
      vertex 11.586110 33.500000 3.500000
      vertex 24.322692 49.119915 3.500000
    endloop
  endfacet
  facet normal 1.000000 0.000000 -0.000000
    outer loop
      vertex 21.500000 -21.500000 3.500000
      vertex 21.500000 -21.500000 -3.500000
      vertex 21.500000 20.671362 -3.500000
    endloop
  endfacet
  facet normal 1.000000 0.000000 0.000000
    outer loop
      vertex 21.500000 20.671362 3.500000
      vertex 21.500000 -21.500000 3.500000
      vertex 21.500000 20.671362 -3.500000
    endloop
  endfacet
  facet normal 0.866025 -0.500000 0.000000
    outer loop
      vertex 21.500000 20.671362 3.500000
      vertex 21.500000 20.671362 -3.500000
      vertex 38.969546 50.929503 -3.500000
    endloop
  endfacet
  facet normal 0.866025 -0.500000 0.000000
    outer loop
      vertex 38.969546 50.929503 3.500000
      vertex 21.500000 20.671362 3.500000
      vertex 38.969546 50.929503 -3.500000
    endloop
  endfacet
  facet normal 0.500000 0.866025 0.000000
    outer loop
      vertex 25.979165 58.429503 -3.500000
      vertex 25.979165 58.429503 3.500000
      vertex 38.969546 50.929503 -3.500000
    endloop
  endfacet
  facet normal 0.500000 0.866025 0.000000
    outer loop
      vertex 38.969546 50.929503 -3.500000
      vertex 25.979165 58.429503 3.500000
      vertex 38.969546 50.929503 3.500000
    endloop
  endfacet
  facet normal -0.866025 0.500000 0.000000
    outer loop
      vertex 25.979165 58.429503 3.500000
      vertex 25.979165 58.429503 -3.500000
      vertex 11.586110 33.500000 3.500000
    endloop
  endfacet
  facet normal -0.866025 0.500000 0.000000
    outer loop
      vertex 11.586110 33.500000 3.500000
      vertex 25.979165 58.429503 -3.500000
      vertex 11.586110 33.500000 -3.500000
    endloop
  endfacet
  facet normal -0.000000 1.000000 0.000000
    outer loop
      vertex 11.586110 33.500000 3.500000
      vertex 11.586110 33.500000 -3.500000
      vertex -17.200000 33.500000 3.500000
    endloop
  endfacet
  facet normal -0.000000 1.000000 0.000000
    outer loop
      vertex -17.200000 33.500000 3.500000
      vertex 11.586110 33.500000 -3.500000
      vertex -17.200000 33.500000 -3.500000
    endloop
  endfacet
  facet normal -1.000000 -0.000000 -0.000000
    outer loop
      vertex -17.200000 33.500000 -3.500000
      vertex -17.200000 21.500000 -3.500000
      vertex -17.200000 33.500000 3.500000
    endloop
  endfacet
  facet normal -1.000000 -0.000000 0.000000
    outer loop
      vertex -17.200000 33.500000 3.500000
      vertex -17.200000 21.500000 -3.500000
      vertex -17.200000 21.500000 3.500000
    endloop
  endfacet
  facet normal 0.866025 0.500000 0.000000
    outer loop
      vertex -17.400000 -15.500000 3.500000
      vertex -16.450000 -17.145448 3.500000
      vertex -16.450000 -17.145448 -3.500000
    endloop
  endfacet
  facet normal 0.866025 0.500000 0.000000
    outer loop
      vertex -17.400000 -15.500000 -3.500000
      vertex -17.400000 -15.500000 3.500000
      vertex -16.450000 -17.145448 -3.500000
    endloop
  endfacet
  facet normal 0.866025 -0.500000 0.000000
    outer loop
      vertex -16.450000 -13.854552 -3.500000
      vertex -16.450000 -13.854552 3.500000
      vertex -17.400000 -15.500000 3.500000
    endloop
  endfacet
  facet normal 0.866025 -0.500000 0.000000
    outer loop
      vertex -17.400000 -15.500000 -3.500000
      vertex -16.450000 -13.854552 -3.500000
      vertex -17.400000 -15.500000 3.500000
    endloop
  endfacet
  facet normal 0.000000 -1.000000 0.000000
    outer loop
      vertex -14.550000 -13.854552 -3.500000
      vertex -14.550000 -13.854552 3.500000
      vertex -16.450000 -13.854552 3.500000
    endloop
  endfacet
  facet normal -0.000000 -1.000000 -0.000000
    outer loop
      vertex -16.450000 -13.854552 -3.500000
      vertex -14.550000 -13.854552 -3.500000
      vertex -16.450000 -13.854552 3.500000
    endloop
  endfacet
  facet normal -0.866025 -0.500000 0.000000
    outer loop
      vertex -13.600000 -15.500000 3.500000
      vertex -14.550000 -13.854552 3.500000
      vertex -13.600000 -15.500000 -3.500000
    endloop
  endfacet
  facet normal -0.866025 -0.500000 0.000000
    outer loop
      vertex -13.600000 -15.500000 -3.500000
      vertex -14.550000 -13.854552 3.500000
      vertex -14.550000 -13.854552 -3.500000
    endloop
  endfacet
  facet normal -0.866025 0.500000 0.000000
    outer loop
      vertex -13.600000 -15.500000 3.500000
      vertex -13.600000 -15.500000 -3.500000
      vertex -14.550000 -17.145448 3.500000
    endloop
  endfacet
  facet normal -0.866025 0.500000 0.000000
    outer loop
      vertex -14.550000 -17.145448 3.500000
      vertex -13.600000 -15.500000 -3.500000
      vertex -14.550000 -17.145448 -3.500000
    endloop
  endfacet
  facet normal 0.000000 1.000000 0.000000
    outer loop
      vertex -14.550000 -17.145448 3.500000
      vertex -14.550000 -17.145448 -3.500000
      vertex -16.450000 -17.145448 3.500000
    endloop
  endfacet
  facet normal 0.000000 1.000000 -0.000000
    outer loop
      vertex -16.450000 -17.145448 3.500000
      vertex -14.550000 -17.145448 -3.500000
      vertex -16.450000 -17.145448 -3.500000
    endloop
  endfacet
  facet normal 0.866025 0.500000 0.000000
    outer loop
      vertex -17.400000 15.500000 3.500000
      vertex -16.450000 13.854552 3.500000
      vertex -16.450000 13.854552 -3.500000
    endloop
  endfacet
  facet normal 0.866025 0.500000 0.000000
    outer loop
      vertex -17.400000 15.500000 -3.500000
      vertex -17.400000 15.500000 3.500000
      vertex -16.450000 13.854552 -3.500000
    endloop
  endfacet
  facet normal 0.866025 -0.500000 0.000000
    outer loop
      vertex -16.450000 17.145448 -3.500000
      vertex -16.450000 17.145448 3.500000
      vertex -17.400000 15.500000 3.500000
    endloop
  endfacet
  facet normal 0.866025 -0.500000 0.000000
    outer loop
      vertex -17.400000 15.500000 -3.500000
      vertex -16.450000 17.145448 -3.500000
      vertex -17.400000 15.500000 3.500000
    endloop
  endfacet
  facet normal 0.000000 -1.000000 0.000000
    outer loop
      vertex -14.550000 17.145448 -3.500000
      vertex -14.550000 17.145448 3.500000
      vertex -16.450000 17.145448 3.500000
    endloop
  endfacet
  facet normal -0.000000 -1.000000 -0.000000
    outer loop
      vertex -16.450000 17.145448 -3.500000
      vertex -14.550000 17.145448 -3.500000
      vertex -16.450000 17.145448 3.500000
    endloop
  endfacet
  facet normal -0.866025 -0.500000 0.000000
    outer loop
      vertex -13.600000 15.500000 3.500000
      vertex -14.550000 17.145448 3.500000
      vertex -13.600000 15.500000 -3.500000
    endloop
  endfacet
  facet normal -0.866025 -0.500000 0.000000
    outer loop
      vertex -13.600000 15.500000 -3.500000
      vertex -14.550000 17.145448 3.500000
      vertex -14.550000 17.145448 -3.500000
    endloop
  endfacet
  facet normal -0.866025 0.500000 0.000000
    outer loop
      vertex -13.600000 15.500000 3.500000
      vertex -13.600000 15.500000 -3.500000
      vertex -14.550000 13.854552 3.500000
    endloop
  endfacet
  facet normal -0.866025 0.500000 0.000000
    outer loop
      vertex -14.550000 13.854552 3.500000
      vertex -13.600000 15.500000 -3.500000
      vertex -14.550000 13.854552 -3.500000
    endloop
  endfacet
  facet normal 0.000000 1.000000 0.000000
    outer loop
      vertex -14.550000 13.854552 3.500000
      vertex -14.550000 13.854552 -3.500000
      vertex -16.450000 13.854552 3.500000
    endloop
  endfacet
  facet normal 0.000000 1.000000 -0.000000
    outer loop
      vertex -16.450000 13.854552 3.500000
      vertex -14.550000 13.854552 -3.500000
      vertex -16.450000 13.854552 -3.500000
    endloop
  endfacet
  facet normal 0.913545 -0.406737 0.000000
    outer loop
      vertex -13.340576 28.645034 -3.500000
      vertex -13.340576 28.645034 3.500000
      vertex -14.101664 26.935603 3.500000
    endloop
  endfacet
  facet normal 0.913545 -0.406737 0.000000
    outer loop
      vertex -14.101664 26.935603 -3.500000
      vertex -13.340576 28.645034 -3.500000
      vertex -14.101664 26.935603 3.500000
    endloop
  endfacet
  facet normal 1.000000 0.000000 0.000000
    outer loop
      vertex -14.101664 26.935603 -3.500000
      vertex -14.101664 26.935603 3.500000
      vertex -14.101664 25.064397 3.500000
    endloop
  endfacet
  facet normal 1.000000 0.000000 0.000000
    outer loop
      vertex -14.101664 25.064397 -3.500000
      vertex -14.101664 26.935603 -3.500000
      vertex -14.101664 25.064397 3.500000
    endloop
  endfacet
  facet normal 0.669131 -0.743145 0.000000
    outer loop
      vertex -11.950000 29.897114 -3.500000
      vertex -11.950000 29.897114 3.500000
      vertex -13.340576 28.645034 3.500000
    endloop
  endfacet
  facet normal 0.669131 -0.743145 0.000000
    outer loop
      vertex -13.340576 28.645034 -3.500000
      vertex -11.950000 29.897114 -3.500000
      vertex -13.340576 28.645034 3.500000
    endloop
  endfacet
  facet normal 0.309017 -0.951056 0.000000
    outer loop
      vertex -10.170378 30.475349 -3.500000
      vertex -10.170378 30.475349 3.500000
      vertex -11.950000 29.897114 3.500000
    endloop
  endfacet
  facet normal 0.309017 -0.951056 0.000000
    outer loop
      vertex -11.950000 29.897114 -3.500000
      vertex -10.170378 30.475349 -3.500000
      vertex -11.950000 29.897114 3.500000
    endloop
  endfacet
  facet normal -0.104529 -0.994522 -0.000000
    outer loop
      vertex -8.309424 30.279754 -3.500000
      vertex -8.309424 30.279754 3.500000
      vertex -10.170378 30.475349 3.500000
    endloop
  endfacet
  facet normal -0.104529 -0.994522 -0.000000
    outer loop
      vertex -10.170378 30.475349 -3.500000
      vertex -8.309424 30.279754 -3.500000
      vertex -10.170378 30.475349 3.500000
    endloop
  endfacet
  facet normal -0.500000 -0.866026 -0.000000
    outer loop
      vertex -6.688912 29.344152 -3.500000
      vertex -6.688912 29.344152 3.500000
      vertex -8.309424 30.279754 3.500000
    endloop
  endfacet
  facet normal -0.500000 -0.866026 -0.000000
    outer loop
      vertex -8.309424 30.279754 -3.500000
      vertex -6.688912 29.344152 -3.500000
      vertex -8.309424 30.279754 3.500000
    endloop
  endfacet
  facet normal -0.809017 -0.587785 0.000000
    outer loop
      vertex -5.589045 27.830315 3.500000
      vertex -6.688912 29.344152 3.500000
      vertex -5.589045 27.830315 -3.500000
    endloop
  endfacet
  facet normal -0.809017 -0.587785 0.000000
    outer loop
      vertex -5.589045 27.830315 -3.500000
      vertex -6.688912 29.344152 3.500000
      vertex -6.688912 29.344152 -3.500000
    endloop
  endfacet
  facet normal -0.978148 -0.207911 0.000000
    outer loop
      vertex -5.200000 26.000000 3.500000
      vertex -5.589045 27.830315 3.500000
      vertex -5.200000 26.000000 -3.500000
    endloop
  endfacet
  facet normal -0.978148 -0.207911 0.000000
    outer loop
      vertex -5.200000 26.000000 -3.500000
      vertex -5.589045 27.830315 3.500000
      vertex -5.589045 27.830315 -3.500000
    endloop
  endfacet
  facet normal -0.978148 0.207911 0.000000
    outer loop
      vertex -5.200000 26.000000 3.500000
      vertex -5.200000 26.000000 -3.500000
      vertex -5.589045 24.169685 3.500000
    endloop
  endfacet
  facet normal -0.978148 0.207911 0.000000
    outer loop
      vertex -5.589045 24.169685 3.500000
      vertex -5.200000 26.000000 -3.500000
      vertex -5.589045 24.169685 -3.500000
    endloop
  endfacet
  facet normal -0.809017 0.587785 0.000000
    outer loop
      vertex -5.589045 24.169685 3.500000
      vertex -5.589045 24.169685 -3.500000
      vertex -6.688912 22.655848 3.500000
    endloop
  endfacet
  facet normal -0.809017 0.587785 0.000000
    outer loop
      vertex -6.688912 22.655848 3.500000
      vertex -5.589045 24.169685 -3.500000
      vertex -6.688912 22.655848 -3.500000
    endloop
  endfacet
  facet normal -0.500000 0.866026 0.000000
    outer loop
      vertex -6.688912 22.655848 3.500000
      vertex -6.688912 22.655848 -3.500000
      vertex -8.309424 21.720246 3.500000
    endloop
  endfacet
  facet normal -0.500000 0.866026 0.000000
    outer loop
      vertex -8.309424 21.720246 3.500000
      vertex -6.688912 22.655848 -3.500000
      vertex -8.309424 21.720246 -3.500000
    endloop
  endfacet
  facet normal -0.104529 0.994522 0.000000
    outer loop
      vertex -8.309424 21.720246 3.500000
      vertex -8.309424 21.720246 -3.500000
      vertex -10.170378 21.524651 3.500000
    endloop
  endfacet
  facet normal -0.104529 0.994522 0.000000
    outer loop
      vertex -10.170378 21.524651 3.500000
      vertex -8.309424 21.720246 -3.500000
      vertex -10.170378 21.524651 -3.500000
    endloop
  endfacet
  facet normal 0.309017 0.951056 -0.000000
    outer loop
      vertex -10.170378 21.524651 3.500000
      vertex -10.170378 21.524651 -3.500000
      vertex -11.950000 22.102886 3.500000
    endloop
  endfacet
  facet normal 0.309017 0.951056 -0.000000
    outer loop
      vertex -11.950000 22.102886 3.500000
      vertex -10.170378 21.524651 -3.500000
      vertex -11.950000 22.102886 -3.500000
    endloop
  endfacet
  facet normal 0.669131 0.743145 -0.000000
    outer loop
      vertex -11.950000 22.102886 3.500000
      vertex -11.950000 22.102886 -3.500000
      vertex -13.340576 23.354966 3.500000
    endloop
  endfacet
  facet normal 0.669131 0.743145 -0.000000
    outer loop
      vertex -13.340576 23.354966 3.500000
      vertex -11.950000 22.102886 -3.500000
      vertex -13.340576 23.354966 -3.500000
    endloop
  endfacet
  facet normal 0.913545 0.406737 0.000000
    outer loop
      vertex -14.101664 25.064397 3.500000
      vertex -13.340576 23.354966 3.500000
      vertex -13.340576 23.354966 -3.500000
    endloop
  endfacet
  facet normal 0.913545 0.406737 0.000000
    outer loop
      vertex -14.101664 25.064397 -3.500000
      vertex -14.101664 25.064397 3.500000
      vertex -13.340576 23.354966 -3.500000
    endloop
  endfacet
  facet normal 0.994522 -0.104528 0.000000
    outer loop
      vertex -10.759624 2.287029 -3.500000
      vertex -10.759624 2.287029 3.500000
      vertex -11.000000 0.000000 3.500000
    endloop
  endfacet
  facet normal 0.994522 -0.104528 0.000000
    outer loop
      vertex -11.000000 0.000000 -3.500000
      vertex -10.759624 2.287029 -3.500000
      vertex -11.000000 0.000000 3.500000
    endloop
  endfacet
  facet normal 0.994522 0.104528 0.000000
    outer loop
      vertex -11.000000 0.000000 3.500000
      vertex -10.759624 -2.287029 3.500000
      vertex -10.759624 -2.287029 -3.500000
    endloop
  endfacet
  facet normal 0.994522 0.104528 0.000000
    outer loop
      vertex -11.000000 0.000000 -3.500000
      vertex -11.000000 0.000000 3.500000
      vertex -10.759624 -2.287029 -3.500000
    endloop
  endfacet
  facet normal 0.951056 -0.309017 0.000000
    outer loop
      vertex -10.049000 4.474103 -3.500000
      vertex -10.049000 4.474103 3.500000
      vertex -10.759624 2.287029 3.500000
    endloop
  endfacet
  facet normal 0.951056 -0.309017 0.000000
    outer loop
      vertex -10.759624 2.287029 -3.500000
      vertex -10.049000 4.474103 -3.500000
      vertex -10.759624 2.287029 3.500000
    endloop
  endfacet
  facet normal 0.866025 -0.500000 0.000000
    outer loop
      vertex -8.899187 6.465638 -3.500000
      vertex -8.899187 6.465638 3.500000
      vertex -10.049000 4.474103 3.500000
    endloop
  endfacet
  facet normal 0.866025 -0.500000 0.000000
    outer loop
      vertex -10.049000 4.474103 -3.500000
      vertex -8.899187 6.465638 -3.500000
      vertex -10.049000 4.474103 3.500000
    endloop
  endfacet
  facet normal 0.743145 -0.669131 0.000000
    outer loop
      vertex -7.360437 8.174593 -3.500000
      vertex -7.360437 8.174593 3.500000
      vertex -8.899187 6.465638 3.500000
    endloop
  endfacet
  facet normal 0.743145 -0.669131 0.000000
    outer loop
      vertex -8.899187 6.465638 -3.500000
      vertex -7.360437 8.174593 -3.500000
      vertex -8.899187 6.465638 3.500000
    endloop
  endfacet
  facet normal 0.587785 -0.809017 0.000000
    outer loop
      vertex -5.500000 9.526279 -3.500000
      vertex -5.500000 9.526279 3.500000
      vertex -7.360437 8.174593 3.500000
    endloop
  endfacet
  facet normal 0.587785 -0.809017 0.000000
    outer loop
      vertex -7.360437 8.174593 -3.500000
      vertex -5.500000 9.526279 -3.500000
      vertex -7.360437 8.174593 3.500000
    endloop
  endfacet
  facet normal 0.406737 -0.913545 0.000000
    outer loop
      vertex -3.399187 10.461622 -3.500000
      vertex -3.399187 10.461622 3.500000
      vertex -5.500000 9.526279 3.500000
    endloop
  endfacet
  facet normal 0.406737 -0.913545 0.000000
    outer loop
      vertex -5.500000 9.526279 -3.500000
      vertex -3.399187 10.461622 -3.500000
      vertex -5.500000 9.526279 3.500000
    endloop
  endfacet
  facet normal 0.207912 -0.978148 0.000000
    outer loop
      vertex -1.149813 10.939741 -3.500000
      vertex -1.149813 10.939741 3.500000
      vertex -3.399187 10.461622 3.500000
    endloop
  endfacet
  facet normal 0.207912 -0.978148 0.000000
    outer loop
      vertex -3.399187 10.461622 -3.500000
      vertex -1.149813 10.939741 -3.500000
      vertex -3.399187 10.461622 3.500000
    endloop
  endfacet
  facet normal 0.000000 -1.000000 0.000000
    outer loop
      vertex 1.149813 10.939741 -3.500000
      vertex 1.149813 10.939741 3.500000
      vertex -1.149813 10.939741 3.500000
    endloop
  endfacet
  facet normal -0.000000 -1.000000 -0.000000
    outer loop
      vertex -1.149813 10.939741 -3.500000
      vertex 1.149813 10.939741 -3.500000
      vertex -1.149813 10.939741 3.500000
    endloop
  endfacet
  facet normal -0.207912 -0.978148 -0.000000
    outer loop
      vertex 3.399187 10.461622 -3.500000
      vertex 3.399187 10.461622 3.500000
      vertex 1.149813 10.939741 3.500000
    endloop
  endfacet
  facet normal -0.207912 -0.978148 -0.000000
    outer loop
      vertex 1.149813 10.939741 -3.500000
      vertex 3.399187 10.461622 -3.500000
      vertex 1.149813 10.939741 3.500000
    endloop
  endfacet
  facet normal -0.406737 -0.913545 -0.000000
    outer loop
      vertex 5.500000 9.526279 -3.500000
      vertex 5.500000 9.526279 3.500000
      vertex 3.399187 10.461622 3.500000
    endloop
  endfacet
  facet normal -0.406737 -0.913545 -0.000000
    outer loop
      vertex 3.399187 10.461622 -3.500000
      vertex 5.500000 9.526279 -3.500000
      vertex 3.399187 10.461622 3.500000
    endloop
  endfacet
  facet normal -0.587785 -0.809017 -0.000000
    outer loop
      vertex 7.360437 8.174593 -3.500000
      vertex 7.360437 8.174593 3.500000
      vertex 5.500000 9.526279 3.500000
    endloop
  endfacet
  facet normal -0.587785 -0.809017 -0.000000
    outer loop
      vertex 5.500000 9.526279 -3.500000
      vertex 7.360437 8.174593 -3.500000
      vertex 5.500000 9.526279 3.500000
    endloop
  endfacet
  facet normal -0.743145 -0.669131 0.000000
    outer loop
      vertex 8.899187 6.465638 3.500000
      vertex 7.360437 8.174593 3.500000
      vertex 8.899187 6.465638 -3.500000
    endloop
  endfacet
  facet normal -0.743145 -0.669131 0.000000
    outer loop
      vertex 8.899187 6.465638 -3.500000
      vertex 7.360437 8.174593 3.500000
      vertex 7.360437 8.174593 -3.500000
    endloop
  endfacet
  facet normal -0.866025 -0.500000 0.000000
    outer loop
      vertex 10.049000 4.474103 3.500000
      vertex 8.899187 6.465638 3.500000
      vertex 10.049000 4.474103 -3.500000
    endloop
  endfacet
  facet normal -0.866025 -0.500000 0.000000
    outer loop
      vertex 10.049000 4.474103 -3.500000
      vertex 8.899187 6.465638 3.500000
      vertex 8.899187 6.465638 -3.500000
    endloop
  endfacet
  facet normal -0.951056 -0.309017 0.000000
    outer loop
      vertex 10.759624 2.287029 3.500000
      vertex 10.049000 4.474103 3.500000
      vertex 10.759624 2.287029 -3.500000
    endloop
  endfacet
  facet normal -0.951056 -0.309017 0.000000
    outer loop
      vertex 10.759624 2.287029 -3.500000
      vertex 10.049000 4.474103 3.500000
      vertex 10.049000 4.474103 -3.500000
    endloop
  endfacet
  facet normal -0.994522 -0.104528 0.000000
    outer loop
      vertex 11.000000 0.000000 3.500000
      vertex 10.759624 2.287029 3.500000
      vertex 11.000000 0.000000 -3.500000
    endloop
  endfacet
  facet normal -0.994522 -0.104528 0.000000
    outer loop
      vertex 11.000000 0.000000 -3.500000
      vertex 10.759624 2.287029 3.500000
      vertex 10.759624 2.287029 -3.500000
    endloop
  endfacet
  facet normal -0.994522 0.104528 0.000000
    outer loop
      vertex 11.000000 0.000000 3.500000
      vertex 11.000000 0.000000 -3.500000
      vertex 10.759624 -2.287029 3.500000
    endloop
  endfacet
  facet normal -0.994522 0.104528 0.000000
    outer loop
      vertex 10.759624 -2.287029 3.500000
      vertex 11.000000 0.000000 -3.500000
      vertex 10.759624 -2.287029 -3.500000
    endloop
  endfacet
  facet normal -0.951056 0.309017 0.000000
    outer loop
      vertex 10.759624 -2.287029 3.500000
      vertex 10.759624 -2.287029 -3.500000
      vertex 10.049000 -4.474103 3.500000
    endloop
  endfacet
  facet normal -0.951056 0.309017 0.000000
    outer loop
      vertex 10.049000 -4.474103 3.500000
      vertex 10.759624 -2.287029 -3.500000
      vertex 10.049000 -4.474103 -3.500000
    endloop
  endfacet
  facet normal -0.866025 0.500000 0.000000
    outer loop
      vertex 10.049000 -4.474103 3.500000
      vertex 10.049000 -4.474103 -3.500000
      vertex 8.899187 -6.465638 3.500000
    endloop
  endfacet
  facet normal -0.866025 0.500000 0.000000
    outer loop
      vertex 8.899187 -6.465638 3.500000
      vertex 10.049000 -4.474103 -3.500000
      vertex 8.899187 -6.465638 -3.500000
    endloop
  endfacet
  facet normal -0.743145 0.669131 0.000000
    outer loop
      vertex 8.899187 -6.465638 3.500000
      vertex 8.899187 -6.465638 -3.500000
      vertex 7.360437 -8.174593 3.500000
    endloop
  endfacet
  facet normal -0.743145 0.669131 0.000000
    outer loop
      vertex 7.360437 -8.174593 3.500000
      vertex 8.899187 -6.465638 -3.500000
      vertex 7.360437 -8.174593 -3.500000
    endloop
  endfacet
  facet normal -0.587785 0.809017 0.000000
    outer loop
      vertex 7.360437 -8.174593 3.500000
      vertex 7.360437 -8.174593 -3.500000
      vertex 5.500000 -9.526279 3.500000
    endloop
  endfacet
  facet normal -0.587785 0.809017 0.000000
    outer loop
      vertex 5.500000 -9.526279 3.500000
      vertex 7.360437 -8.174593 -3.500000
      vertex 5.500000 -9.526279 -3.500000
    endloop
  endfacet
  facet normal -0.406737 0.913545 0.000000
    outer loop
      vertex 5.500000 -9.526279 3.500000
      vertex 5.500000 -9.526279 -3.500000
      vertex 3.399187 -10.461622 3.500000
    endloop
  endfacet
  facet normal -0.406737 0.913545 0.000000
    outer loop
      vertex 3.399187 -10.461622 3.500000
      vertex 5.500000 -9.526279 -3.500000
      vertex 3.399187 -10.461622 -3.500000
    endloop
  endfacet
  facet normal -0.207912 0.978148 0.000000
    outer loop
      vertex 3.399187 -10.461622 3.500000
      vertex 3.399187 -10.461622 -3.500000
      vertex 1.149813 -10.939741 3.500000
    endloop
  endfacet
  facet normal -0.207912 0.978148 0.000000
    outer loop
      vertex 1.149813 -10.939741 3.500000
      vertex 3.399187 -10.461622 -3.500000
      vertex 1.149813 -10.939741 -3.500000
    endloop
  endfacet
  facet normal 0.000000 1.000000 0.000000
    outer loop
      vertex 1.149813 -10.939741 3.500000
      vertex 1.149813 -10.939741 -3.500000
      vertex -1.149813 -10.939741 3.500000
    endloop
  endfacet
  facet normal 0.000000 1.000000 -0.000000
    outer loop
      vertex -1.149813 -10.939741 3.500000
      vertex 1.149813 -10.939741 -3.500000
      vertex -1.149813 -10.939741 -3.500000
    endloop
  endfacet
  facet normal 0.207912 0.978148 -0.000000
    outer loop
      vertex -1.149813 -10.939741 3.500000
      vertex -1.149813 -10.939741 -3.500000
      vertex -3.399187 -10.461622 3.500000
    endloop
  endfacet
  facet normal 0.207912 0.978148 -0.000000
    outer loop
      vertex -3.399187 -10.461622 3.500000
      vertex -1.149813 -10.939741 -3.500000
      vertex -3.399187 -10.461622 -3.500000
    endloop
  endfacet
  facet normal 0.406737 0.913545 -0.000000
    outer loop
      vertex -3.399187 -10.461622 3.500000
      vertex -3.399187 -10.461622 -3.500000
      vertex -5.500000 -9.526279 3.500000
    endloop
  endfacet
  facet normal 0.406737 0.913545 -0.000000
    outer loop
      vertex -5.500000 -9.526279 3.500000
      vertex -3.399187 -10.461622 -3.500000
      vertex -5.500000 -9.526279 -3.500000
    endloop
  endfacet
  facet normal 0.587785 0.809017 -0.000000
    outer loop
      vertex -5.500000 -9.526279 3.500000
      vertex -5.500000 -9.526279 -3.500000
      vertex -7.360437 -8.174593 3.500000
    endloop
  endfacet
  facet normal 0.587785 0.809017 -0.000000
    outer loop
      vertex -7.360437 -8.174593 3.500000
      vertex -5.500000 -9.526279 -3.500000
      vertex -7.360437 -8.174593 -3.500000
    endloop
  endfacet
  facet normal 0.743145 0.669131 0.000000
    outer loop
      vertex -8.899187 -6.465638 3.500000
      vertex -7.360437 -8.174593 3.500000
      vertex -7.360437 -8.174593 -3.500000
    endloop
  endfacet
  facet normal 0.743145 0.669131 0.000000
    outer loop
      vertex -8.899187 -6.465638 -3.500000
      vertex -8.899187 -6.465638 3.500000
      vertex -7.360437 -8.174593 -3.500000
    endloop
  endfacet
  facet normal 0.866025 0.500000 0.000000
    outer loop
      vertex -10.049000 -4.474103 3.500000
      vertex -8.899187 -6.465638 3.500000
      vertex -8.899187 -6.465638 -3.500000
    endloop
  endfacet
  facet normal 0.866025 0.500000 0.000000
    outer loop
      vertex -10.049000 -4.474103 -3.500000
      vertex -10.049000 -4.474103 3.500000
      vertex -8.899187 -6.465638 -3.500000
    endloop
  endfacet
  facet normal 0.951056 0.309017 0.000000
    outer loop
      vertex -10.759624 -2.287029 3.500000
      vertex -10.049000 -4.474103 3.500000
      vertex -10.049000 -4.474103 -3.500000
    endloop
  endfacet
  facet normal 0.951056 0.309017 0.000000
    outer loop
      vertex -10.759624 -2.287029 -3.500000
      vertex -10.759624 -2.287029 3.500000
      vertex -10.049000 -4.474103 -3.500000
    endloop
  endfacet
  facet normal 0.866025 0.500000 0.000000
    outer loop
      vertex 13.600000 -15.500000 3.500000
      vertex 14.550000 -17.145448 3.500000
      vertex 14.550000 -17.145448 -3.500000
    endloop
  endfacet
  facet normal 0.866025 0.500000 0.000000
    outer loop
      vertex 13.600000 -15.500000 -3.500000
      vertex 13.600000 -15.500000 3.500000
      vertex 14.550000 -17.145448 -3.500000
    endloop
  endfacet
  facet normal 0.866025 -0.500000 0.000000
    outer loop
      vertex 14.550000 -13.854552 -3.500000
      vertex 14.550000 -13.854552 3.500000
      vertex 13.600000 -15.500000 3.500000
    endloop
  endfacet
  facet normal 0.866025 -0.500000 0.000000
    outer loop
      vertex 13.600000 -15.500000 -3.500000
      vertex 14.550000 -13.854552 -3.500000
      vertex 13.600000 -15.500000 3.500000
    endloop
  endfacet
  facet normal 0.000000 -1.000000 0.000000
    outer loop
      vertex 16.450000 -13.854552 -3.500000
      vertex 16.450000 -13.854552 3.500000
      vertex 14.550000 -13.854552 3.500000
    endloop
  endfacet
  facet normal -0.000000 -1.000000 -0.000000
    outer loop
      vertex 14.550000 -13.854552 -3.500000
      vertex 16.450000 -13.854552 -3.500000
      vertex 14.550000 -13.854552 3.500000
    endloop
  endfacet
  facet normal -0.866025 -0.500000 0.000000
    outer loop
      vertex 17.400000 -15.500000 3.500000
      vertex 16.450000 -13.854552 3.500000
      vertex 17.400000 -15.500000 -3.500000
    endloop
  endfacet
  facet normal -0.866025 -0.500000 0.000000
    outer loop
      vertex 17.400000 -15.500000 -3.500000
      vertex 16.450000 -13.854552 3.500000
      vertex 16.450000 -13.854552 -3.500000
    endloop
  endfacet
  facet normal -0.866025 0.500000 0.000000
    outer loop
      vertex 17.400000 -15.500000 3.500000
      vertex 17.400000 -15.500000 -3.500000
      vertex 16.450000 -17.145448 3.500000
    endloop
  endfacet
  facet normal -0.866025 0.500000 0.000000
    outer loop
      vertex 16.450000 -17.145448 3.500000
      vertex 17.400000 -15.500000 -3.500000
      vertex 16.450000 -17.145448 -3.500000
    endloop
  endfacet
  facet normal 0.000000 1.000000 0.000000
    outer loop
      vertex 16.450000 -17.145448 3.500000
      vertex 16.450000 -17.145448 -3.500000
      vertex 14.550000 -17.145448 3.500000
    endloop
  endfacet
  facet normal 0.000000 1.000000 -0.000000
    outer loop
      vertex 14.550000 -17.145448 3.500000
      vertex 16.450000 -17.145448 -3.500000
      vertex 14.550000 -17.145448 -3.500000
    endloop
  endfacet
  facet normal 0.866025 0.500000 0.000000
    outer loop
      vertex 13.600000 15.500000 3.500000
      vertex 14.550000 13.854552 3.500000
      vertex 14.550000 13.854552 -3.500000
    endloop
  endfacet
  facet normal 0.866025 0.500000 0.000000
    outer loop
      vertex 13.600000 15.500000 -3.500000
      vertex 13.600000 15.500000 3.500000
      vertex 14.550000 13.854552 -3.500000
    endloop
  endfacet
  facet normal 0.866025 -0.500000 0.000000
    outer loop
      vertex 14.550000 17.145448 -3.500000
      vertex 14.550000 17.145448 3.500000
      vertex 13.600000 15.500000 3.500000
    endloop
  endfacet
  facet normal 0.866025 -0.500000 0.000000
    outer loop
      vertex 13.600000 15.500000 -3.500000
      vertex 14.550000 17.145448 -3.500000
      vertex 13.600000 15.500000 3.500000
    endloop
  endfacet
  facet normal 0.000000 -1.000000 0.000000
    outer loop
      vertex 16.450000 17.145448 -3.500000
      vertex 16.450000 17.145448 3.500000
      vertex 14.550000 17.145448 3.500000
    endloop
  endfacet
  facet normal -0.000000 -1.000000 -0.000000
    outer loop
      vertex 14.550000 17.145448 -3.500000
      vertex 16.450000 17.145448 -3.500000
      vertex 14.550000 17.145448 3.500000
    endloop
  endfacet
  facet normal -0.866025 -0.500000 0.000000
    outer loop
      vertex 17.400000 15.500000 3.500000
      vertex 16.450000 17.145448 3.500000
      vertex 17.400000 15.500000 -3.500000
    endloop
  endfacet
  facet normal -0.866025 -0.500000 0.000000
    outer loop
      vertex 17.400000 15.500000 -3.500000
      vertex 16.450000 17.145448 3.500000
      vertex 16.450000 17.145448 -3.500000
    endloop
  endfacet
  facet normal -0.866025 0.500000 0.000000
    outer loop
      vertex 17.400000 15.500000 3.500000
      vertex 17.400000 15.500000 -3.500000
      vertex 16.450000 13.854552 3.500000
    endloop
  endfacet
  facet normal -0.866025 0.500000 0.000000
    outer loop
      vertex 16.450000 13.854552 3.500000
      vertex 17.400000 15.500000 -3.500000
      vertex 16.450000 13.854552 -3.500000
    endloop
  endfacet
  facet normal 0.000000 1.000000 0.000000
    outer loop
      vertex 16.450000 13.854552 3.500000
      vertex 16.450000 13.854552 -3.500000
      vertex 14.550000 13.854552 3.500000
    endloop
  endfacet
  facet normal 0.000000 1.000000 -0.000000
    outer loop
      vertex 14.550000 13.854552 3.500000
      vertex 16.450000 13.854552 -3.500000
      vertex 14.550000 13.854552 -3.500000
    endloop
  endfacet
  facet normal 1.000000 0.000000 0.000000
    outer loop
      vertex 24.322692 49.119915 -3.500000
      vertex 24.322692 49.119915 3.500000
      vertex 24.322692 47.248709 3.500000
    endloop
  endfacet
  facet normal 1.000000 0.000000 0.000000
    outer loop
      vertex 24.322692 47.248709 -3.500000
      vertex 24.322692 49.119915 -3.500000
      vertex 24.322692 47.248709 3.500000
    endloop
  endfacet
  facet normal 0.913545 -0.406737 0.000000
    outer loop
      vertex 25.083780 50.829346 -3.500000
      vertex 25.083780 50.829346 3.500000
      vertex 24.322692 49.119915 3.500000
    endloop
  endfacet
  facet normal 0.913545 -0.406737 0.000000
    outer loop
      vertex 24.322692 49.119915 -3.500000
      vertex 25.083780 50.829346 -3.500000
      vertex 24.322692 49.119915 3.500000
    endloop
  endfacet
  facet normal 0.669131 -0.743145 0.000000
    outer loop
      vertex 26.474356 52.081426 -3.500000
      vertex 26.474356 52.081426 3.500000
      vertex 25.083780 50.829346 3.500000
    endloop
  endfacet
  facet normal 0.669131 -0.743145 0.000000
    outer loop
      vertex 25.083780 50.829346 -3.500000
      vertex 26.474356 52.081426 -3.500000
      vertex 25.083780 50.829346 3.500000
    endloop
  endfacet
  facet normal 0.309017 -0.951056 0.000000
    outer loop
      vertex 28.253978 52.659661 -3.500000
      vertex 28.253978 52.659661 3.500000
      vertex 26.474356 52.081426 3.500000
    endloop
  endfacet
  facet normal 0.309017 -0.951056 0.000000
    outer loop
      vertex 26.474356 52.081426 -3.500000
      vertex 28.253978 52.659661 -3.500000
      vertex 26.474356 52.081426 3.500000
    endloop
  endfacet
  facet normal -0.104529 -0.994522 -0.000000
    outer loop
      vertex 30.114932 52.464066 -3.500000
      vertex 30.114932 52.464066 3.500000
      vertex 28.253978 52.659661 3.500000
    endloop
  endfacet
  facet normal -0.104529 -0.994522 -0.000000
    outer loop
      vertex 28.253978 52.659661 -3.500000
      vertex 30.114932 52.464066 -3.500000
      vertex 28.253978 52.659661 3.500000
    endloop
  endfacet
  facet normal -0.500000 -0.866026 -0.000000
    outer loop
      vertex 31.735444 51.528464 -3.500000
      vertex 31.735444 51.528464 3.500000
      vertex 30.114932 52.464066 3.500000
    endloop
  endfacet
  facet normal -0.500000 -0.866026 -0.000000
    outer loop
      vertex 30.114932 52.464066 -3.500000
      vertex 31.735444 51.528464 -3.500000
      vertex 30.114932 52.464066 3.500000
    endloop
  endfacet
  facet normal -0.809017 -0.587785 0.000000
    outer loop
      vertex 32.835311 50.014627 3.500000
      vertex 31.735444 51.528464 3.500000
      vertex 32.835311 50.014627 -3.500000
    endloop
  endfacet
  facet normal -0.809017 -0.587785 0.000000
    outer loop
      vertex 32.835311 50.014627 -3.500000
      vertex 31.735444 51.528464 3.500000
      vertex 31.735444 51.528464 -3.500000
    endloop
  endfacet
  facet normal -0.978148 -0.207911 0.000000
    outer loop
      vertex 33.224356 48.184312 3.500000
      vertex 32.835311 50.014627 3.500000
      vertex 33.224356 48.184312 -3.500000
    endloop
  endfacet
  facet normal -0.978148 -0.207911 0.000000
    outer loop
      vertex 33.224356 48.184312 -3.500000
      vertex 32.835311 50.014627 3.500000
      vertex 32.835311 50.014627 -3.500000
    endloop
  endfacet
  facet normal -0.978148 0.207911 0.000000
    outer loop
      vertex 33.224356 48.184312 3.500000
      vertex 33.224356 48.184312 -3.500000
      vertex 32.835311 46.353997 3.500000
    endloop
  endfacet
  facet normal -0.978148 0.207911 0.000000
    outer loop
      vertex 32.835311 46.353997 3.500000
      vertex 33.224356 48.184312 -3.500000
      vertex 32.835311 46.353997 -3.500000
    endloop
  endfacet
  facet normal -0.809017 0.587785 0.000000
    outer loop
      vertex 32.835311 46.353997 3.500000
      vertex 32.835311 46.353997 -3.500000
      vertex 31.735444 44.840160 3.500000
    endloop
  endfacet
  facet normal -0.809017 0.587785 0.000000
    outer loop
      vertex 31.735444 44.840160 3.500000
      vertex 32.835311 46.353997 -3.500000
      vertex 31.735444 44.840160 -3.500000
    endloop
  endfacet
  facet normal -0.500000 0.866026 0.000000
    outer loop
      vertex 31.735444 44.840160 3.500000
      vertex 31.735444 44.840160 -3.500000
      vertex 30.114932 43.904558 3.500000
    endloop
  endfacet
  facet normal -0.500000 0.866026 0.000000
    outer loop
      vertex 30.114932 43.904558 3.500000
      vertex 31.735444 44.840160 -3.500000
      vertex 30.114932 43.904558 -3.500000
    endloop
  endfacet
  facet normal -0.104529 0.994522 0.000000
    outer loop
      vertex 30.114932 43.904558 3.500000
      vertex 30.114932 43.904558 -3.500000
      vertex 28.253978 43.708963 3.500000
    endloop
  endfacet
  facet normal -0.104529 0.994522 0.000000
    outer loop
      vertex 28.253978 43.708963 3.500000
      vertex 30.114932 43.904558 -3.500000
      vertex 28.253978 43.708963 -3.500000
    endloop
  endfacet
  facet normal 0.309017 0.951056 -0.000000
    outer loop
      vertex 28.253978 43.708963 3.500000
      vertex 28.253978 43.708963 -3.500000
      vertex 26.474356 44.287198 3.500000
    endloop
  endfacet
  facet normal 0.309017 0.951056 -0.000000
    outer loop
      vertex 26.474356 44.287198 3.500000
      vertex 28.253978 43.708963 -3.500000
      vertex 26.474356 44.287198 -3.500000
    endloop
  endfacet
  facet normal 0.669131 0.743145 -0.000000
    outer loop
      vertex 26.474356 44.287198 3.500000
      vertex 26.474356 44.287198 -3.500000
      vertex 25.083780 45.539278 3.500000
    endloop
  endfacet
  facet normal 0.669131 0.743145 -0.000000
    outer loop
      vertex 25.083780 45.539278 3.500000
      vertex 26.474356 44.287198 -3.500000
      vertex 25.083780 45.539278 -3.500000
    endloop
  endfacet
  facet normal 0.913545 0.406737 0.000000
    outer loop
      vertex 24.322692 47.248709 3.500000
      vertex 25.083780 45.539278 3.500000
      vertex 25.083780 45.539278 -3.500000
    endloop
  endfacet
  facet normal 0.913545 0.406737 0.000000
    outer loop
      vertex 24.322692 47.248709 -3.500000
      vertex 24.322692 47.248709 3.500000
      vertex 25.083780 45.539278 -3.500000
    endloop
  endfacet
endsolid OpenSCAD_Model
