  0
SECTION
  2
ENTITIES
  0
LINE
 10
-7.500000
 11
-7.500000
 20
-130.533000
 21
-17.000000
  0
LINE
 10
-7.500000
 11
6.500000
 20
-17.000000
 21
-17.000000
  0
LINE
 10
6.500000
 11
6.500000
 20
-17.000000
 21
17.000000
  0
LINE
 10
6.500000
 11
-7.500000
 20
17.000000
 21
17.000000
  0
LINE
 10
-7.500000
 11
-7.500000
 20
17.000000
 21
130.533000
  0
LINE
 10
-7.500000
 11
220.600000
 20
130.533000
 21
130.533000
  0
LINE
 10
220.600000
 11
220.600000
 20
130.533000
 21
-130.533000
  0
LINE
 10
220.600000
 11
-7.500000
 20
-130.533000
 21
-130.533000
  0
LINE
 10
-4.500000
 11
-4.111000
 20
-100.849000
 21
-99.019000
  0
LINE
 10
-4.111000
 11
-3.011000
 20
-99.019000
 21
-97.505000
  0
LINE
 10
-3.011000
 11
-1.391000
 20
-97.505000
 21
-96.569000
  0
LINE
 10
-1.391000
 11
0.470000
 20
-96.569000
 21
-96.374000
  0
LINE
 10
0.470000
 11
2.250000
 20
-96.374000
 21
-96.952000
  0
LINE
 10
2.250000
 11
3.641000
 20
-96.952000
 21
-98.204000
  0
LINE
 10
3.641000
 11
4.402000
 20
-98.204000
 21
-99.913000
  0
LINE
 10
4.402000
 11
4.402000
 20
-99.913000
 21
-101.785000
  0
LINE
 10
4.402000
 11
3.641000
 20
-101.785000
 21
-103.494000
  0
LINE
 10
3.641000
 11
2.250000
 20
-103.494000
 21
-104.746000
  0
LINE
 10
2.250000
 11
0.470000
 20
-104.746000
 21
-105.324000
  0
LINE
 10
0.470000
 11
-1.391000
 20
-105.324000
 21
-105.129000
  0
LINE
 10
-1.391000
 11
-3.011000
 20
-105.129000
 21
-104.193000
  0
LINE
 10
-3.011000
 11
-4.111000
 20
-104.193000
 21
-102.679000
  0
LINE
 10
-4.111000
 11
-4.500000
 20
-102.679000
 21
-100.849000
  0
LINE
 10
-4.500000
 11
-4.111000
 20
-26.700000
 21
-24.870000
  0
LINE
 10
-4.111000
 11
-3.011000
 20
-24.870000
 21
-23.356000
  0
LINE
 10
-3.011000
 11
-1.391000
 20
-23.356000
 21
-22.420000
  0
LINE
 10
-1.391000
 11
0.470000
 20
-22.420000
 21
-22.225000
  0
LINE
 10
0.470000
 11
2.250000
 20
-22.225000
 21
-22.803000
  0
LINE
 10
2.250000
 11
3.641000
 20
-22.803000
 21
-24.055000
  0
LINE
 10
3.641000
 11
4.402000
 20
-24.055000
 21
-25.764000
  0
LINE
 10
4.402000
 11
4.402000
 20
-25.764000
 21
-27.636000
  0
LINE
 10
4.402000
 11
3.641000
 20
-27.636000
 21
-29.345000
  0
LINE
 10
3.641000
 11
2.250000
 20
-29.345000
 21
-30.597000
  0
LINE
 10
2.250000
 11
0.470000
 20
-30.597000
 21
-31.175000
  0
LINE
 10
0.470000
 11
-1.391000
 20
-31.175000
 21
-30.980000
  0
LINE
 10
-1.391000
 11
-3.011000
 20
-30.980000
 21
-30.044000
  0
LINE
 10
-3.011000
 11
-4.111000
 20
-30.044000
 21
-28.530000
  0
LINE
 10
-4.111000
 11
-4.500000
 20
-28.530000
 21
-26.700000
  0
LINE
 10
-4.500000
 11
-4.111000
 20
26.700000
 21
28.530000
  0
LINE
 10
-4.111000
 11
-3.011000
 20
28.530000
 21
30.044000
  0
LINE
 10
-3.011000
 11
-1.391000
 20
30.044000
 21
30.980000
  0
LINE
 10
-1.391000
 11
0.470000
 20
30.980000
 21
31.175000
  0
LINE
 10
0.470000
 11
2.250000
 20
31.175000
 21
30.597000
  0
LINE
 10
2.250000
 11
3.641000
 20
30.597000
 21
29.345000
  0
LINE
 10
3.641000
 11
4.402000
 20
29.345000
 21
27.636000
  0
LINE
 10
4.402000
 11
4.402000
 20
27.636000
 21
25.764000
  0
LINE
 10
4.402000
 11
3.641000
 20
25.764000
 21
24.055000
  0
LINE
 10
3.641000
 11
2.250000
 20
24.055000
 21
22.803000
  0
LINE
 10
2.250000
 11
0.470000
 20
22.803000
 21
22.225000
  0
LINE
 10
0.470000
 11
-1.391000
 20
22.225000
 21
22.420000
  0
LINE
 10
-1.391000
 11
-3.011000
 20
22.420000
 21
23.356000
  0
LINE
 10
-3.011000
 11
-4.111000
 20
23.356000
 21
24.870000
  0
LINE
 10
-4.111000
 11
-4.500000
 20
24.870000
 21
26.700000
  0
LINE
 10
-4.500000
 11
-4.111000
 20
89.400000
 21
91.230000
  0
LINE
 10
-4.111000
 11
-3.011000
 20
91.230000
 21
92.744000
  0
LINE
 10
-3.011000
 11
-1.391000
 20
92.744000
 21
93.680000
  0
LINE
 10
-1.391000
 11
0.470000
 20
93.680000
 21
93.875000
  0
LINE
 10
0.470000
 11
2.250000
 20
93.875000
 21
93.297000
  0
LINE
 10
2.250000
 11
3.641000
 20
93.297000
 21
92.045000
  0
LINE
 10
3.641000
 11
4.402000
 20
92.045000
 21
90.336000
  0
LINE
 10
4.402000
 11
4.402000
 20
90.336000
 21
88.464000
  0
LINE
 10
4.402000
 11
3.641000
 20
88.464000
 21
86.755000
  0
LINE
 10
3.641000
 11
2.250000
 20
86.755000
 21
85.503000
  0
LINE
 10
2.250000
 11
0.470000
 20
85.503000
 21
84.925000
  0
LINE
 10
0.470000
 11
-1.391000
 20
84.925000
 21
85.120000
  0
LINE
 10
-1.391000
 11
-3.011000
 20
85.120000
 21
86.056000
  0
LINE
 10
-3.011000
 11
-4.111000
 20
86.056000
 21
87.570000
  0
LINE
 10
-4.111000
 11
-4.500000
 20
87.570000
 21
89.400000
  0
LINE
 10
-4.500000
 11
-4.111000
 20
100.849000
 21
102.679000
  0
LINE
 10
-4.111000
 11
-3.011000
 20
102.679000
 21
104.193000
  0
LINE
 10
-3.011000
 11
-1.391000
 20
104.193000
 21
105.129000
  0
LINE
 10
-1.391000
 11
0.470000
 20
105.129000
 21
105.324000
  0
LINE
 10
0.470000
 11
2.250000
 20
105.324000
 21
104.746000
  0
LINE
 10
2.250000
 11
3.641000
 20
104.746000
 21
103.494000
  0
LINE
 10
3.641000
 11
4.402000
 20
103.494000
 21
101.785000
  0
LINE
 10
4.402000
 11
4.402000
 20
101.785000
 21
99.913000
  0
LINE
 10
4.402000
 11
3.641000
 20
99.913000
 21
98.204000
  0
LINE
 10
3.641000
 11
2.250000
 20
98.204000
 21
96.952000
  0
LINE
 10
2.250000
 11
0.470000
 20
96.952000
 21
96.374000
  0
LINE
 10
0.470000
 11
-1.391000
 20
96.374000
 21
96.569000
  0
LINE
 10
-1.391000
 11
-3.011000
 20
96.569000
 21
97.505000
  0
LINE
 10
-3.011000
 11
-4.111000
 20
97.505000
 21
99.019000
  0
LINE
 10
-4.111000
 11
-4.500000
 20
99.019000
 21
100.849000
  0
LINE
 10
26.712000
 11
26.712000
 20
-52.850000
 21
52.850000
  0
LINE
 10
26.712000
 11
201.388000
 20
52.850000
 21
52.850000
  0
LINE
 10
201.388000
 11
201.388000
 20
52.850000
 21
-52.850000
  0
LINE
 10
201.388000
 11
26.712000
 20
-52.850000
 21
-52.850000
  0
LINE
 10
33.924000
 11
34.313000
 20
-123.033000
 21
-121.203000
  0
LINE
 10
34.313000
 11
35.413000
 20
-121.203000
 21
-119.689000
  0
LINE
 10
35.413000
 11
37.034000
 20
-119.689000
 21
-118.754000
  0
LINE
 10
37.034000
 11
38.895000
 20
-118.754000
 21
-118.558000
  0
LINE
 10
38.895000
 11
40.674000
 20
-118.558000
 21
-119.136000
  0
LINE
 10
40.674000
 11
42.065000
 20
-119.136000
 21
-120.388000
  0
LINE
 10
42.065000
 11
42.826000
 20
-120.388000
 21
-122.098000
  0
LINE
 10
42.826000
 11
42.826000
 20
-122.098000
 21
-123.969000
  0
LINE
 10
42.826000
 11
42.065000
 20
-123.969000
 21
-125.678000
  0
LINE
 10
42.065000
 11
40.674000
 20
-125.678000
 21
-126.930000
  0
LINE
 10
40.674000
 11
38.895000
 20
-126.930000
 21
-127.509000
  0
LINE
 10
38.895000
 11
37.034000
 20
-127.509000
 21
-127.313000
  0
LINE
 10
37.034000
 11
35.413000
 20
-127.313000
 21
-126.377000
  0
LINE
 10
35.413000
 11
34.313000
 20
-126.377000
 21
-124.864000
  0
LINE
 10
34.313000
 11
33.924000
 20
-124.864000
 21
-123.033000
  0
LINE
 10
33.924000
 11
34.313000
 20
123.033000
 21
124.864000
  0
LINE
 10
34.313000
 11
35.413000
 20
124.864000
 21
126.377000
  0
LINE
 10
35.413000
 11
37.034000
 20
126.377000
 21
127.313000
  0
LINE
 10
37.034000
 11
38.895000
 20
127.313000
 21
127.509000
  0
LINE
 10
38.895000
 11
40.674000
 20
127.509000
 21
126.930000
  0
LINE
 10
40.674000
 11
42.065000
 20
126.930000
 21
125.678000
  0
LINE
 10
42.065000
 11
42.826000
 20
125.678000
 21
123.969000
  0
LINE
 10
42.826000
 11
42.826000
 20
123.969000
 21
122.098000
  0
LINE
 10
42.826000
 11
42.065000
 20
122.098000
 21
120.388000
  0
LINE
 10
42.065000
 11
40.674000
 20
120.388000
 21
119.136000
  0
LINE
 10
40.674000
 11
38.895000
 20
119.136000
 21
118.558000
  0
LINE
 10
38.895000
 11
37.034000
 20
118.558000
 21
118.754000
  0
LINE
 10
37.034000
 11
35.413000
 20
118.754000
 21
119.689000
  0
LINE
 10
35.413000
 11
34.313000
 20
119.689000
 21
121.203000
  0
LINE
 10
34.313000
 11
33.924000
 20
121.203000
 21
123.033000
  0
LINE
 10
208.600000
 11
208.989000
 20
-90.000000
 21
-88.170000
  0
LINE
 10
208.989000
 11
210.089000
 20
-88.170000
 21
-86.656000
  0
LINE
 10
210.089000
 11
211.709000
 20
-86.656000
 21
-85.720000
  0
LINE
 10
211.709000
 11
213.570000
 20
-85.720000
 21
-85.525000
  0
LINE
 10
213.570000
 11
215.350000
 20
-85.525000
 21
-86.103000
  0
LINE
 10
215.350000
 11
216.741000
 20
-86.103000
 21
-87.355000
  0
LINE
 10
216.741000
 11
217.502000
 20
-87.355000
 21
-89.064000
  0
LINE
 10
217.502000
 11
217.502000
 20
-89.064000
 21
-90.936000
  0
LINE
 10
217.502000
 11
216.741000
 20
-90.936000
 21
-92.645000
  0
LINE
 10
216.741000
 11
215.350000
 20
-92.645000
 21
-93.897000
  0
LINE
 10
215.350000
 11
213.570000
 20
-93.897000
 21
-94.475000
  0
LINE
 10
213.570000
 11
211.709000
 20
-94.475000
 21
-94.280000
  0
LINE
 10
211.709000
 11
210.089000
 20
-94.280000
 21
-93.344000
  0
LINE
 10
210.089000
 11
208.989000
 20
-93.344000
 21
-91.830000
  0
LINE
 10
208.989000
 11
208.600000
 20
-91.830000
 21
-90.000000
  0
LINE
 10
208.600000
 11
208.989000
 20
90.000000
 21
91.830000
  0
LINE
 10
208.989000
 11
210.089000
 20
91.830000
 21
93.344000
  0
LINE
 10
210.089000
 11
211.709000
 20
93.344000
 21
94.280000
  0
LINE
 10
211.709000
 11
213.570000
 20
94.280000
 21
94.475000
  0
LINE
 10
213.570000
 11
215.350000
 20
94.475000
 21
93.897000
  0
LINE
 10
215.350000
 11
216.741000
 20
93.897000
 21
92.645000
  0
LINE
 10
216.741000
 11
217.502000
 20
92.645000
 21
90.936000
  0
LINE
 10
217.502000
 11
217.502000
 20
90.936000
 21
89.064000
  0
LINE
 10
217.502000
 11
216.741000
 20
89.064000
 21
87.355000
  0
LINE
 10
216.741000
 11
215.350000
 20
87.355000
 21
86.103000
  0
LINE
 10
215.350000
 11
213.570000
 20
86.103000
 21
85.525000
  0
LINE
 10
213.570000
 11
211.709000
 20
85.525000
 21
85.720000
  0
LINE
 10
211.709000
 11
210.089000
 20
85.720000
 21
86.656000
  0
LINE
 10
210.089000
 11
208.989000
 20
86.656000
 21
88.170000
  0
LINE
 10
208.989000
 11
208.600000
 20
88.170000
 21
90.000000
  0
ENDSEC
  0
EOF
