solid OpenSCAD_Model
  facet normal 0.000000 -1.000000 0.000000
    outer loop
      vertex -54.866667 0.700000 -4.500000
      vertex -54.866667 0.700000 -14.900000
      vertex -49.466667 0.700000 -14.900000
    endloop
  endfacet
  facet normal 0.000000 -1.000000 0.000000
    outer loop
      vertex -51.811508 0.700000 -10.189546
      vertex -54.866667 0.700000 -4.500000
      vertex -49.466667 0.700000 -14.900000
    endloop
  endfacet
  facet normal 0.000000 -1.000000 0.000000
    outer loop
      vertex -49.466667 0.700000 -11.682132
      vertex -50.621211 0.700000 -11.682132
      vertex -49.466667 0.700000 -14.900000
    endloop
  endfacet
  facet normal 0.000000 -1.000000 0.000000
    outer loop
      vertex -50.621211 0.700000 -11.682132
      vertex -51.811508 0.700000 -10.189546
      vertex -49.466667 0.700000 -14.900000
    endloop
  endfacet
  facet normal 0.000000 -1.000000 0.000000
    outer loop
      vertex -49.666667 0.700000 -7.500000
      vertex -54.866667 0.700000 -4.500000
      vertex -51.386696 0.700000 -8.328322
    endloop
  endfacet
  facet normal 0.000000 -1.000000 0.000000
    outer loop
      vertex -49.466667 0.700000 -7.596315
      vertex -54.866667 0.700000 -4.500000
      vertex -49.666667 0.700000 -7.500000
    endloop
  endfacet
  facet normal 0.000000 -1.000000 0.000000
    outer loop
      vertex -49.466667 0.700000 -4.500000
      vertex -54.866667 0.700000 -4.500000
      vertex -49.466667 0.700000 -7.596315
    endloop
  endfacet
  facet normal 0.000000 -1.000000 -0.000000
    outer loop
      vertex -51.811508 0.700000 -10.189546
      vertex -51.386696 0.700000 -8.328322
      vertex -54.866667 0.700000 -4.500000
    endloop
  endfacet
  facet normal 0.000000 0.000000 -1.000000
    outer loop
      vertex -0.455407 3.732571 -14.900000
      vertex 11.400000 0.700000 -14.900000
      vertex -54.866667 13.100000 -14.900000
    endloop
  endfacet
  facet normal 0.000000 0.000000 -1.000000
    outer loop
      vertex -54.866667 13.100000 -14.900000
      vertex 11.400000 0.700000 -14.900000
      vertex 6.000000 0.700000 -14.900000
    endloop
  endfacet
  facet normal 0.000000 0.000000 -1.000000
    outer loop
      vertex -54.866667 13.100000 -14.900000
      vertex 6.000000 0.700000 -14.900000
      vertex -6.000000 0.700000 -14.900000
    endloop
  endfacet
  facet normal 0.000000 0.000000 -1.000000
    outer loop
      vertex -37.466667 0.700000 -14.900000
      vertex -41.371113 4.481601 -14.900000
      vertex -40.396289 5.998456 -14.900000
    endloop
  endfacet
  facet normal 0.000000 0.000000 -1.000000
    outer loop
      vertex -26.933333 0.700000 -14.900000
      vertex -16.533333 0.000000 -14.900000
      vertex -26.933333 0.000000 -14.900000
    endloop
  endfacet
  facet normal 0.000000 0.000000 -1.000000
    outer loop
      vertex -40.396289 7.801544 -14.900000
      vertex -16.533333 0.000000 -14.900000
      vertex -26.933333 0.700000 -14.900000
    endloop
  endfacet
  facet normal -0.000000 -0.000000 -1.000000
    outer loop
      vertex -54.866667 0.700000 -14.900000
      vertex -54.866667 13.100000 -14.900000
      vertex -49.466667 0.700000 -14.900000
    endloop
  endfacet
  facet normal 0.000000 0.000000 -1.000000
    outer loop
      vertex -44.795995 3.989178 -14.900000
      vertex -37.466667 0.700000 -14.900000
      vertex -49.466667 0.700000 -14.900000
    endloop
  endfacet
  facet normal 0.000000 0.000000 -1.000000
    outer loop
      vertex -46.158678 5.169949 -14.900000
      vertex -54.866667 13.100000 -14.900000
      vertex -46.666667 6.900000 -14.900000
    endloop
  endfacet
  facet normal 0.000000 0.000000 -1.000000
    outer loop
      vertex -54.866667 13.100000 -14.900000
      vertex -46.158678 5.169949 -14.900000
      vertex -49.466667 0.700000 -14.900000
    endloop
  endfacet
  facet normal 0.000000 0.000000 -1.000000
    outer loop
      vertex -41.371113 4.481601 -14.900000
      vertex -37.466667 0.700000 -14.900000
      vertex -43.011260 3.732571 -14.900000
    endloop
  endfacet
  facet normal 0.000000 0.000000 -1.000000
    outer loop
      vertex -46.158678 5.169949 -14.900000
      vertex -44.795995 3.989178 -14.900000
      vertex -49.466667 0.700000 -14.900000
    endloop
  endfacet
  facet normal 0.000000 -0.000000 -1.000000
    outer loop
      vertex -46.158678 8.630051 -14.900000
      vertex -54.866667 13.100000 -14.900000
      vertex -44.795995 9.810822 -14.900000
    endloop
  endfacet
  facet normal 0.000000 0.000000 -1.000000
    outer loop
      vertex -43.011260 3.732571 -14.900000
      vertex -37.466667 0.700000 -14.900000
      vertex -44.795995 3.989178 -14.900000
    endloop
  endfacet
  facet normal 0.000000 0.000000 -1.000000
    outer loop
      vertex -40.396289 7.801544 -14.900000
      vertex -26.933333 0.700000 -14.900000
      vertex -40.396289 5.998456 -14.900000
    endloop
  endfacet
  facet normal 0.000000 0.000000 -1.000000
    outer loop
      vertex 1.329328 3.989178 -14.900000
      vertex 11.400000 0.700000 -14.900000
      vertex -0.455407 3.732571 -14.900000
    endloop
  endfacet
  facet normal 0.000000 0.000000 -1.000000
    outer loop
      vertex -41.371113 9.318399 -14.900000
      vertex -16.533333 0.700000 -14.900000
      vertex -16.533333 0.000000 -14.900000
    endloop
  endfacet
  facet normal 0.000000 0.000000 -1.000000
    outer loop
      vertex -41.371113 9.318399 -14.900000
      vertex -16.533333 0.000000 -14.900000
      vertex -40.396289 7.801544 -14.900000
    endloop
  endfacet
  facet normal 0.000000 -0.000000 -1.000000
    outer loop
      vertex -44.795995 9.810822 -14.900000
      vertex -54.866667 13.100000 -14.900000
      vertex -43.011260 10.067429 -14.900000
    endloop
  endfacet
  facet normal -0.000000 -0.000000 -1.000000
    outer loop
      vertex -37.466667 0.700000 -14.900000
      vertex -40.396289 5.998456 -14.900000
      vertex -26.933333 0.700000 -14.900000
    endloop
  endfacet
  facet normal 0.000000 -0.000000 -1.000000
    outer loop
      vertex -46.666667 6.900000 -14.900000
      vertex -54.866667 13.100000 -14.900000
      vertex -46.158678 8.630051 -14.900000
    endloop
  endfacet
  facet normal -0.000000 0.000000 -1.000000
    outer loop
      vertex 1.329328 9.810822 -14.900000
      vertex 11.400000 13.100000 -14.900000
      vertex 2.692011 8.630051 -14.900000
    endloop
  endfacet
  facet normal 0.000000 0.000000 -1.000000
    outer loop
      vertex -3.070378 7.801544 -14.900000
      vertex -3.070378 5.998456 -14.900000
      vertex -54.866667 13.100000 -14.900000
    endloop
  endfacet
  facet normal 0.000000 0.000000 -1.000000
    outer loop
      vertex 2.692011 5.169949 -14.900000
      vertex 11.400000 0.700000 -14.900000
      vertex 1.329328 3.989178 -14.900000
    endloop
  endfacet
  facet normal 0.000000 0.000000 -1.000000
    outer loop
      vertex -3.070378 5.998456 -14.900000
      vertex -2.095554 4.481601 -14.900000
      vertex -54.866667 13.100000 -14.900000
    endloop
  endfacet
  facet normal 0.000000 0.000000 -1.000000
    outer loop
      vertex -2.095554 4.481601 -14.900000
      vertex -0.455407 3.732571 -14.900000
      vertex -54.866667 13.100000 -14.900000
    endloop
  endfacet
  facet normal 0.000000 0.000000 -1.000000
    outer loop
      vertex 11.400000 13.100000 -14.900000
      vertex 11.400000 0.700000 -14.900000
      vertex 2.692011 5.169949 -14.900000
    endloop
  endfacet
  facet normal 0.000000 0.000000 -1.000000
    outer loop
      vertex 11.400000 13.100000 -14.900000
      vertex 2.692011 5.169949 -14.900000
      vertex 3.200000 6.900000 -14.900000
    endloop
  endfacet
  facet normal 0.000000 0.000000 -1.000000
    outer loop
      vertex 11.400000 13.100000 -14.900000
      vertex 3.200000 6.900000 -14.900000
      vertex 2.692011 8.630051 -14.900000
    endloop
  endfacet
  facet normal 0.000000 -0.000000 -1.000000
    outer loop
      vertex -2.095554 9.318399 -14.900000
      vertex -54.866667 13.100000 -14.900000
      vertex -0.455407 10.067429 -14.900000
    endloop
  endfacet
  facet normal 0.000000 0.000000 -1.000000
    outer loop
      vertex 11.400000 13.100000 -14.900000
      vertex 1.329328 9.810822 -14.900000
      vertex -0.455407 10.067429 -14.900000
    endloop
  endfacet
  facet normal 0.000000 0.000000 -1.000000
    outer loop
      vertex 11.400000 13.100000 -14.900000
      vertex -0.455407 10.067429 -14.900000
      vertex -54.866667 13.100000 -14.900000
    endloop
  endfacet
  facet normal 0.000000 0.000000 -1.000000
    outer loop
      vertex -2.095554 9.318399 -14.900000
      vertex -3.070378 7.801544 -14.900000
      vertex -54.866667 13.100000 -14.900000
    endloop
  endfacet
  facet normal 0.000000 0.000000 -1.000000
    outer loop
      vertex -16.533333 0.700000 -14.900000
      vertex -41.371113 9.318399 -14.900000
      vertex -43.011260 10.067429 -14.900000
    endloop
  endfacet
  facet normal -0.000000 -0.000000 -1.000000
    outer loop
      vertex -43.011260 10.067429 -14.900000
      vertex -54.866667 13.100000 -14.900000
      vertex -6.000000 0.700000 -14.900000
    endloop
  endfacet
  facet normal -0.000000 -0.000000 -1.000000
    outer loop
      vertex -16.533333 0.700000 -14.900000
      vertex -43.011260 10.067429 -14.900000
      vertex -6.000000 0.700000 -14.900000
    endloop
  endfacet
  facet normal -1.000000 -0.000000 -0.000000
    outer loop
      vertex -54.866667 0.700000 -14.900000
      vertex -54.866667 0.700000 -4.500000
      vertex -54.866667 13.100000 -14.900000
    endloop
  endfacet
  facet normal -1.000000 0.000000 0.000000
    outer loop
      vertex -54.866667 13.100000 -14.900000
      vertex -54.866667 0.700000 -4.500000
      vertex -54.866667 13.100000 -4.500000
    endloop
  endfacet
  facet normal 0.000000 0.000000 1.000000
    outer loop
      vertex 11.400000 13.100000 -4.500000
      vertex -49.466667 0.700000 -4.500000
      vertex -37.466667 0.700000 -4.500000
    endloop
  endfacet
  facet normal 0.000000 0.000000 1.000000
    outer loop
      vertex -2.095554 9.318399 -4.500000
      vertex -37.466667 0.700000 -4.500000
      vertex -26.933333 0.700000 -4.500000
    endloop
  endfacet
  facet normal -0.000000 0.000000 1.000000
    outer loop
      vertex -16.533333 0.000000 -4.500000
      vertex -26.933333 0.700000 -4.500000
      vertex -26.933333 0.000000 -4.500000
    endloop
  endfacet
  facet normal 0.000000 0.000000 1.000000
    outer loop
      vertex -16.533333 0.700000 -4.500000
      vertex -26.933333 0.700000 -4.500000
      vertex -16.533333 0.000000 -4.500000
    endloop
  endfacet
  facet normal 0.000000 0.000000 1.000000
    outer loop
      vertex -3.070378 7.801544 -4.500000
      vertex -26.933333 0.700000 -4.500000
      vertex -16.533333 0.700000 -4.500000
    endloop
  endfacet
  facet normal 0.000000 0.000000 1.000000
    outer loop
      vertex -2.095554 4.481601 -4.500000
      vertex -16.533333 0.700000 -4.500000
      vertex -6.000000 0.700000 -4.500000
    endloop
  endfacet
  facet normal 0.000000 -0.000000 1.000000
    outer loop
      vertex 1.329328 3.989178 -4.500000
      vertex -6.000000 0.700000 -4.500000
      vertex 6.000000 0.700000 -4.500000
    endloop
  endfacet
  facet normal 0.000000 0.000000 1.000000
    outer loop
      vertex 11.400000 13.100000 -4.500000
      vertex 6.000000 0.700000 -4.500000
      vertex 11.400000 0.700000 -4.500000
    endloop
  endfacet
  facet normal 0.000000 -0.000000 1.000000
    outer loop
      vertex -41.371113 4.481601 -4.500000
      vertex -49.466667 0.700000 -4.500000
      vertex 11.400000 13.100000 -4.500000
    endloop
  endfacet
  facet normal 0.000000 0.000000 1.000000
    outer loop
      vertex -43.011260 10.067429 -4.500000
      vertex -41.371113 9.318399 -4.500000
      vertex 11.400000 13.100000 -4.500000
    endloop
  endfacet
  facet normal -0.000000 0.000000 1.000000
    outer loop
      vertex -43.011260 3.732571 -4.500000
      vertex -44.795995 3.989178 -4.500000
      vertex -49.466667 0.700000 -4.500000
    endloop
  endfacet
  facet normal 0.000000 0.000000 1.000000
    outer loop
      vertex -54.866667 13.100000 -4.500000
      vertex -49.466667 0.700000 -4.500000
      vertex -46.666667 6.900000 -4.500000
    endloop
  endfacet
  facet normal 0.000000 -0.000000 1.000000
    outer loop
      vertex -40.396289 7.801544 -4.500000
      vertex -40.396289 5.998456 -4.500000
      vertex 11.400000 13.100000 -4.500000
    endloop
  endfacet
  facet normal 0.000000 0.000000 1.000000
    outer loop
      vertex -54.866667 13.100000 -4.500000
      vertex -46.666667 6.900000 -4.500000
      vertex -46.158678 8.630051 -4.500000
    endloop
  endfacet
  facet normal 0.000000 0.000000 1.000000
    outer loop
      vertex -41.371113 9.318399 -4.500000
      vertex -40.396289 7.801544 -4.500000
      vertex 11.400000 13.100000 -4.500000
    endloop
  endfacet
  facet normal 0.000000 0.000000 1.000000
    outer loop
      vertex -54.866667 13.100000 -4.500000
      vertex -46.158678 8.630051 -4.500000
      vertex -44.795995 9.810822 -4.500000
    endloop
  endfacet
  facet normal 0.000000 0.000000 1.000000
    outer loop
      vertex -54.866667 13.100000 -4.500000
      vertex -43.011260 10.067429 -4.500000
      vertex 11.400000 13.100000 -4.500000
    endloop
  endfacet
  facet normal 0.000000 0.000000 1.000000
    outer loop
      vertex -54.866667 13.100000 -4.500000
      vertex -44.795995 9.810822 -4.500000
      vertex -43.011260 10.067429 -4.500000
    endloop
  endfacet
  facet normal 0.000000 -0.000000 1.000000
    outer loop
      vertex -40.396289 5.998456 -4.500000
      vertex -41.371113 4.481601 -4.500000
      vertex 11.400000 13.100000 -4.500000
    endloop
  endfacet
  facet normal 0.000000 -0.000000 1.000000
    outer loop
      vertex -43.011260 3.732571 -4.500000
      vertex -49.466667 0.700000 -4.500000
      vertex -41.371113 4.481601 -4.500000
    endloop
  endfacet
  facet normal 0.000000 -0.000000 1.000000
    outer loop
      vertex -46.158678 5.169949 -4.500000
      vertex -49.466667 0.700000 -4.500000
      vertex -44.795995 3.989178 -4.500000
    endloop
  endfacet
  facet normal 0.000000 -0.000000 1.000000
    outer loop
      vertex -46.666667 6.900000 -4.500000
      vertex -49.466667 0.700000 -4.500000
      vertex -46.158678 5.169949 -4.500000
    endloop
  endfacet
  facet normal -0.000000 0.000000 1.000000
    outer loop
      vertex -0.455407 3.732571 -4.500000
      vertex -2.095554 4.481601 -4.500000
      vertex -6.000000 0.700000 -4.500000
    endloop
  endfacet
  facet normal 0.000000 0.000000 1.000000
    outer loop
      vertex -0.455407 10.067429 -4.500000
      vertex -37.466667 0.700000 -4.500000
      vertex -2.095554 9.318399 -4.500000
    endloop
  endfacet
  facet normal 0.000000 0.000000 1.000000
    outer loop
      vertex 1.329328 9.810822 -4.500000
      vertex 2.692011 8.630051 -4.500000
      vertex 11.400000 13.100000 -4.500000
    endloop
  endfacet
  facet normal 0.000000 0.000000 1.000000
    outer loop
      vertex 11.400000 13.100000 -4.500000
      vertex -37.466667 0.700000 -4.500000
      vertex -0.455407 10.067429 -4.500000
    endloop
  endfacet
  facet normal 0.000000 0.000000 1.000000
    outer loop
      vertex 2.692011 8.630051 -4.500000
      vertex 3.200000 6.900000 -4.500000
      vertex 11.400000 13.100000 -4.500000
    endloop
  endfacet
  facet normal 0.000000 0.000000 1.000000
    outer loop
      vertex -0.455407 10.067429 -4.500000
      vertex 1.329328 9.810822 -4.500000
      vertex 11.400000 13.100000 -4.500000
    endloop
  endfacet
  facet normal 0.000000 0.000000 1.000000
    outer loop
      vertex 1.329328 3.989178 -4.500000
      vertex -0.455407 3.732571 -4.500000
      vertex -6.000000 0.700000 -4.500000
    endloop
  endfacet
  facet normal 0.000000 0.000000 1.000000
    outer loop
      vertex 11.400000 13.100000 -4.500000
      vertex 3.200000 6.900000 -4.500000
      vertex 6.000000 0.700000 -4.500000
    endloop
  endfacet
  facet normal 0.000000 -0.000000 1.000000
    outer loop
      vertex 3.200000 6.900000 -4.500000
      vertex 2.692011 5.169949 -4.500000
      vertex 6.000000 0.700000 -4.500000
    endloop
  endfacet
  facet normal 0.000000 -0.000000 1.000000
    outer loop
      vertex 2.692011 5.169949 -4.500000
      vertex 1.329328 3.989178 -4.500000
      vertex 6.000000 0.700000 -4.500000
    endloop
  endfacet
  facet normal 0.000000 -0.000000 1.000000
    outer loop
      vertex -3.070378 5.998456 -4.500000
      vertex -16.533333 0.700000 -4.500000
      vertex -2.095554 4.481601 -4.500000
    endloop
  endfacet
  facet normal -0.000000 0.000000 1.000000
    outer loop
      vertex -3.070378 7.801544 -4.500000
      vertex -2.095554 9.318399 -4.500000
      vertex -26.933333 0.700000 -4.500000
    endloop
  endfacet
  facet normal 0.000000 0.000000 1.000000
    outer loop
      vertex -54.866667 0.700000 -4.500000
      vertex -49.466667 0.700000 -4.500000
      vertex -54.866667 13.100000 -4.500000
    endloop
  endfacet
  facet normal -0.000000 0.000000 1.000000
    outer loop
      vertex -3.070378 5.998456 -4.500000
      vertex -3.070378 7.801544 -4.500000
      vertex -16.533333 0.700000 -4.500000
    endloop
  endfacet
  facet normal -0.433884 0.000000 -0.900969
    outer loop
      vertex -47.946638 13.100000 -8.328322
      vertex -47.946638 0.700000 -8.328322
      vertex -49.666667 13.100000 -7.500000
    endloop
  endfacet
  facet normal -0.433884 0.000000 -0.900969
    outer loop
      vertex -49.666667 13.100000 -7.500000
      vertex -47.946638 0.700000 -8.328322
      vertex -49.466667 0.700000 -7.596315
    endloop
  endfacet
  facet normal -0.433884 -0.000000 -0.900969
    outer loop
      vertex -49.666667 0.700000 -7.500000
      vertex -49.666667 13.100000 -7.500000
      vertex -49.466667 0.700000 -7.596315
    endloop
  endfacet
  facet normal 0.433884 0.000000 -0.900969
    outer loop
      vertex -49.666667 13.100000 -7.500000
      vertex -49.666667 0.700000 -7.500000
      vertex -51.386696 13.100000 -8.328322
    endloop
  endfacet
  facet normal 0.433884 0.000000 -0.900969
    outer loop
      vertex -51.386696 13.100000 -8.328322
      vertex -49.666667 0.700000 -7.500000
      vertex -51.386696 0.700000 -8.328322
    endloop
  endfacet
  facet normal 0.974928 0.000000 -0.222521
    outer loop
      vertex -51.811508 13.100000 -10.189546
      vertex -51.386696 13.100000 -8.328322
      vertex -51.386696 0.700000 -8.328322
    endloop
  endfacet
  facet normal 0.974928 0.000000 -0.222521
    outer loop
      vertex -51.811508 0.700000 -10.189546
      vertex -51.811508 13.100000 -10.189546
      vertex -51.386696 0.700000 -8.328322
    endloop
  endfacet
  facet normal 0.781832 -0.000000 0.623490
    outer loop
      vertex -50.621211 0.700000 -11.682132
      vertex -50.621211 13.100000 -11.682132
      vertex -51.811508 13.100000 -10.189546
    endloop
  endfacet
  facet normal 0.781832 0.000000 0.623490
    outer loop
      vertex -51.811508 0.700000 -10.189546
      vertex -50.621211 0.700000 -11.682132
      vertex -51.811508 13.100000 -10.189546
    endloop
  endfacet
  facet normal 0.000000 -0.000000 1.000000
    outer loop
      vertex -50.621211 13.100000 -11.682132
      vertex -49.466667 0.700000 -11.682132
      vertex -48.712123 13.100000 -11.682132
    endloop
  endfacet
  facet normal 0.000000 -0.000000 1.000000
    outer loop
      vertex -48.712123 13.100000 -11.682132
      vertex -49.466667 0.700000 -11.682132
      vertex -48.712123 0.700000 -11.682132
    endloop
  endfacet
  facet normal 0.000000 -0.000000 1.000000
    outer loop
      vertex -50.621211 0.700000 -11.682132
      vertex -49.466667 0.700000 -11.682132
      vertex -50.621211 13.100000 -11.682132
    endloop
  endfacet
  facet normal 0.000000 1.000000 -0.000000
    outer loop
      vertex -50.621211 13.100000 -11.682132
      vertex 11.400000 13.100000 -14.900000
      vertex -54.866667 13.100000 -14.900000
    endloop
  endfacet
  facet normal 0.000000 1.000000 0.000000
    outer loop
      vertex -51.386696 13.100000 -8.328322
      vertex -54.866667 13.100000 -4.500000
      vertex -49.666667 13.100000 -7.500000
    endloop
  endfacet
  facet normal 0.000000 1.000000 -0.000000
    outer loop
      vertex -54.866667 13.100000 -4.500000
      vertex -51.811508 13.100000 -10.189546
      vertex -54.866667 13.100000 -14.900000
    endloop
  endfacet
  facet normal 0.000000 1.000000 -0.000000
    outer loop
      vertex -48.712123 13.100000 -11.682132
      vertex 11.400000 13.100000 -14.900000
      vertex -50.621211 13.100000 -11.682132
    endloop
  endfacet
  facet normal 0.000000 1.000000 -0.000000
    outer loop
      vertex -51.811508 13.100000 -10.189546
      vertex -50.621211 13.100000 -11.682132
      vertex -54.866667 13.100000 -14.900000
    endloop
  endfacet
  facet normal -0.000000 1.000000 -0.000000
    outer loop
      vertex -22.687877 13.100000 -11.682132
      vertex 11.400000 13.100000 -14.900000
      vertex -47.521826 13.100000 -10.189546
    endloop
  endfacet
  facet normal 0.000000 1.000000 0.000000
    outer loop
      vertex -54.866667 13.100000 -4.500000
      vertex -47.946638 13.100000 -8.328322
      vertex -49.666667 13.100000 -7.500000
    endloop
  endfacet
  facet normal 0.000000 1.000000 0.000000
    outer loop
      vertex -23.878174 13.100000 -10.189546
      vertex -54.866667 13.100000 -4.500000
      vertex -23.453362 13.100000 -8.328322
    endloop
  endfacet
  facet normal 0.000000 1.000000 0.000000
    outer loop
      vertex -54.866667 13.100000 -4.500000
      vertex -51.386696 13.100000 -8.328322
      vertex -51.811508 13.100000 -10.189546
    endloop
  endfacet
  facet normal 0.000000 1.000000 0.000000
    outer loop
      vertex -20.013304 13.100000 -8.328322
      vertex 11.400000 13.100000 -14.900000
      vertex -19.588492 13.100000 -10.189546
    endloop
  endfacet
  facet normal 0.000000 1.000000 0.000000
    outer loop
      vertex -54.866667 13.100000 -4.500000
      vertex -23.878174 13.100000 -10.189546
      vertex -47.946638 13.100000 -8.328322
    endloop
  endfacet
  facet normal 0.000000 1.000000 -0.000000
    outer loop
      vertex -21.733333 13.100000 -11.682132
      vertex 11.400000 13.100000 -14.900000
      vertex -22.687877 13.100000 -11.682132
    endloop
  endfacet
  facet normal 0.000000 1.000000 0.000000
    outer loop
      vertex -47.946638 13.100000 -8.328322
      vertex -22.687877 13.100000 -11.682132
      vertex -47.521826 13.100000 -10.189546
    endloop
  endfacet
  facet normal 0.000000 1.000000 -0.000000
    outer loop
      vertex -20.778789 13.100000 -11.682132
      vertex 11.400000 13.100000 -14.900000
      vertex -21.733333 13.100000 -11.682132
    endloop
  endfacet
  facet normal 0.000000 1.000000 -0.000000
    outer loop
      vertex -19.588492 13.100000 -10.189546
      vertex 11.400000 13.100000 -14.900000
      vertex -20.778789 13.100000 -11.682132
    endloop
  endfacet
  facet normal 0.000000 1.000000 0.000000
    outer loop
      vertex -22.687877 13.100000 -11.682132
      vertex -47.946638 13.100000 -8.328322
      vertex -23.878174 13.100000 -10.189546
    endloop
  endfacet
  facet normal -0.000000 1.000000 -0.000000
    outer loop
      vertex 5.245456 13.100000 -11.682132
      vertex 11.400000 13.100000 -14.900000
      vertex -20.013304 13.100000 -8.328322
    endloop
  endfacet
  facet normal 0.000000 1.000000 0.000000
    outer loop
      vertex 11.400000 13.100000 -4.500000
      vertex -20.013304 13.100000 -8.328322
      vertex -21.733333 13.100000 -7.500000
    endloop
  endfacet
  facet normal 0.000000 1.000000 0.000000
    outer loop
      vertex 11.400000 13.100000 -4.500000
      vertex -21.733333 13.100000 -7.500000
      vertex -54.866667 13.100000 -4.500000
    endloop
  endfacet
  facet normal 0.000000 1.000000 0.000000
    outer loop
      vertex -23.453362 13.100000 -8.328322
      vertex -54.866667 13.100000 -4.500000
      vertex -21.733333 13.100000 -7.500000
    endloop
  endfacet
  facet normal 0.000000 1.000000 -0.000000
    outer loop
      vertex 7.154544 13.100000 -11.682132
      vertex 11.400000 13.100000 -14.900000
      vertex 5.245456 13.100000 -11.682132
    endloop
  endfacet
  facet normal 0.000000 1.000000 0.000000
    outer loop
      vertex 7.920029 13.100000 -8.328322
      vertex 11.400000 13.100000 -4.500000
      vertex 8.344841 13.100000 -10.189546
    endloop
  endfacet
  facet normal 0.000000 1.000000 0.000000
    outer loop
      vertex 4.479971 13.100000 -8.328322
      vertex 4.055159 13.100000 -10.189546
      vertex -20.013304 13.100000 -8.328322
    endloop
  endfacet
  facet normal -0.000000 1.000000 -0.000000
    outer loop
      vertex 4.055159 13.100000 -10.189546
      vertex 5.245456 13.100000 -11.682132
      vertex -20.013304 13.100000 -8.328322
    endloop
  endfacet
  facet normal 0.000000 1.000000 -0.000000
    outer loop
      vertex 8.344841 13.100000 -10.189546
      vertex 11.400000 13.100000 -14.900000
      vertex 7.154544 13.100000 -11.682132
    endloop
  endfacet
  facet normal 0.000000 1.000000 0.000000
    outer loop
      vertex 11.400000 13.100000 -4.500000
      vertex 11.400000 13.100000 -14.900000
      vertex 8.344841 13.100000 -10.189546
    endloop
  endfacet
  facet normal 0.000000 1.000000 0.000000
    outer loop
      vertex 6.200000 13.100000 -7.500000
      vertex 11.400000 13.100000 -4.500000
      vertex 7.920029 13.100000 -8.328322
    endloop
  endfacet
  facet normal 0.000000 1.000000 0.000000
    outer loop
      vertex 11.400000 13.100000 -4.500000
      vertex 6.200000 13.100000 -7.500000
      vertex -20.013304 13.100000 -8.328322
    endloop
  endfacet
  facet normal 0.000000 1.000000 0.000000
    outer loop
      vertex 6.200000 13.100000 -7.500000
      vertex 4.479971 13.100000 -8.328322
      vertex -20.013304 13.100000 -8.328322
    endloop
  endfacet
  facet normal 0.000000 1.000000 -0.000000
    outer loop
      vertex -47.521826 13.100000 -10.189546
      vertex 11.400000 13.100000 -14.900000
      vertex -48.712123 13.100000 -11.682132
    endloop
  endfacet
  facet normal 0.000000 -1.000000 0.000000
    outer loop
      vertex -49.466667 0.700000 -11.682132
      vertex -49.466667 0.700000 -14.900000
      vertex -37.466667 0.700000 -14.900000
    endloop
  endfacet
  facet normal 0.000000 -1.000000 0.000000
    outer loop
      vertex -48.712123 0.700000 -11.682132
      vertex -49.466667 0.700000 -11.682132
      vertex -37.466667 0.700000 -14.900000
    endloop
  endfacet
  facet normal 0.000000 -1.000000 0.000000
    outer loop
      vertex -49.466667 0.700000 -4.500000
      vertex -49.466667 0.700000 -7.596315
      vertex -37.466667 0.700000 -4.500000
    endloop
  endfacet
  facet normal -0.000000 -1.000000 0.000000
    outer loop
      vertex -49.466667 0.700000 -7.596315
      vertex -47.946638 0.700000 -8.328322
      vertex -37.466667 0.700000 -4.500000
    endloop
  endfacet
  facet normal -0.000000 -1.000000 0.000000
    outer loop
      vertex -47.946638 0.700000 -8.328322
      vertex -47.521826 0.700000 -10.189546
      vertex -37.466667 0.700000 -4.500000
    endloop
  endfacet
  facet normal 0.000000 -1.000000 0.000000
    outer loop
      vertex -37.466667 0.700000 -4.500000
      vertex -48.712123 0.700000 -11.682132
      vertex -37.466667 0.700000 -14.900000
    endloop
  endfacet
  facet normal -0.000000 -1.000000 0.000000
    outer loop
      vertex -47.521826 0.700000 -10.189546
      vertex -48.712123 0.700000 -11.682132
      vertex -37.466667 0.700000 -4.500000
    endloop
  endfacet
  facet normal 0.000000 -1.000000 0.000000
    outer loop
      vertex -26.933333 0.700000 -14.900000
      vertex -26.933333 0.700000 -4.500000
      vertex -37.466667 0.700000 -4.500000
    endloop
  endfacet
  facet normal -0.000000 -1.000000 -0.000000
    outer loop
      vertex -37.466667 0.700000 -14.900000
      vertex -26.933333 0.700000 -14.900000
      vertex -37.466667 0.700000 -4.500000
    endloop
  endfacet
  facet normal -1.000000 0.000000 0.000000
    outer loop
      vertex -26.933333 0.700000 -4.500000
      vertex -26.933333 0.700000 -14.900000
      vertex -26.933333 0.000000 -4.500000
    endloop
  endfacet
  facet normal -1.000000 0.000000 0.000000
    outer loop
      vertex -26.933333 0.000000 -4.500000
      vertex -26.933333 0.700000 -14.900000
      vertex -26.933333 0.000000 -14.900000
    endloop
  endfacet
  facet normal 0.000000 -1.000000 -0.000000
    outer loop
      vertex -21.733333 0.000000 -7.500000
      vertex -16.533333 0.000000 -4.500000
      vertex -26.933333 0.000000 -4.500000
    endloop
  endfacet
  facet normal 0.000000 -1.000000 -0.000000
    outer loop
      vertex -26.933333 0.000000 -14.900000
      vertex -23.453362 0.000000 -8.328322
      vertex -26.933333 0.000000 -4.500000
    endloop
  endfacet
  facet normal 0.000000 -1.000000 -0.000000
    outer loop
      vertex -20.013304 0.000000 -8.328322
      vertex -16.533333 0.000000 -4.500000
      vertex -21.733333 0.000000 -7.500000
    endloop
  endfacet
  facet normal 0.000000 -1.000000 0.000000
    outer loop
      vertex -16.533333 0.000000 -14.900000
      vertex -16.533333 0.000000 -4.500000
      vertex -20.013304 0.000000 -8.328322
    endloop
  endfacet
  facet normal 0.000000 -1.000000 0.000000
    outer loop
      vertex -16.533333 0.000000 -14.900000
      vertex -20.013304 0.000000 -8.328322
      vertex -19.588492 0.000000 -10.189546
    endloop
  endfacet
  facet normal -0.000000 -1.000000 0.000000
    outer loop
      vertex -26.933333 0.000000 -14.900000
      vertex -16.533333 0.000000 -14.900000
      vertex -20.778789 0.000000 -11.682132
    endloop
  endfacet
  facet normal 0.000000 -1.000000 0.000000
    outer loop
      vertex -26.933333 0.000000 -14.900000
      vertex -20.778789 0.000000 -11.682132
      vertex -21.733333 0.000000 -11.682132
    endloop
  endfacet
  facet normal 0.000000 -1.000000 0.000000
    outer loop
      vertex -26.933333 0.000000 -14.900000
      vertex -21.733333 0.000000 -11.682132
      vertex -22.687877 0.000000 -11.682132
    endloop
  endfacet
  facet normal 0.000000 -1.000000 0.000000
    outer loop
      vertex -26.933333 0.000000 -14.900000
      vertex -23.878174 0.000000 -10.189546
      vertex -23.453362 0.000000 -8.328322
    endloop
  endfacet
  facet normal 0.000000 -1.000000 0.000000
    outer loop
      vertex -26.933333 0.000000 -14.900000
      vertex -22.687877 0.000000 -11.682132
      vertex -23.878174 0.000000 -10.189546
    endloop
  endfacet
  facet normal 0.000000 -1.000000 -0.000000
    outer loop
      vertex -23.453362 0.000000 -8.328322
      vertex -21.733333 0.000000 -7.500000
      vertex -26.933333 0.000000 -4.500000
    endloop
  endfacet
  facet normal 0.000000 -1.000000 0.000000
    outer loop
      vertex -19.588492 0.000000 -10.189546
      vertex -20.778789 0.000000 -11.682132
      vertex -16.533333 0.000000 -14.900000
    endloop
  endfacet
  facet normal 1.000000 0.000000 0.000000
    outer loop
      vertex -16.533333 0.700000 -14.900000
      vertex -16.533333 0.700000 -4.500000
      vertex -16.533333 0.000000 -4.500000
    endloop
  endfacet
  facet normal 1.000000 0.000000 0.000000
    outer loop
      vertex -16.533333 0.000000 -14.900000
      vertex -16.533333 0.700000 -14.900000
      vertex -16.533333 0.000000 -4.500000
    endloop
  endfacet
  facet normal 0.000000 -1.000000 0.000000
    outer loop
      vertex -6.000000 0.700000 -14.900000
      vertex -6.000000 0.700000 -4.500000
      vertex -16.533333 0.700000 -4.500000
    endloop
  endfacet
  facet normal -0.000000 -1.000000 -0.000000
    outer loop
      vertex -16.533333 0.700000 -14.900000
      vertex -6.000000 0.700000 -14.900000
      vertex -16.533333 0.700000 -4.500000
    endloop
  endfacet
  facet normal 0.000000 -1.000000 0.000000
    outer loop
      vertex 4.055159 0.700000 -10.189546
      vertex -6.000000 0.700000 -4.500000
      vertex 6.000000 0.700000 -14.900000
    endloop
  endfacet
  facet normal 0.000000 -1.000000 0.000000
    outer loop
      vertex 6.000000 0.700000 -14.900000
      vertex 6.000000 0.700000 -11.682132
      vertex 5.245456 0.700000 -11.682132
    endloop
  endfacet
  facet normal 0.000000 -1.000000 0.000000
    outer loop
      vertex 4.479971 0.700000 -8.328322
      vertex -6.000000 0.700000 -4.500000
      vertex 4.055159 0.700000 -10.189546
    endloop
  endfacet
  facet normal 0.000000 -1.000000 0.000000
    outer loop
      vertex 4.055159 0.700000 -10.189546
      vertex 6.000000 0.700000 -14.900000
      vertex 5.245456 0.700000 -11.682132
    endloop
  endfacet
  facet normal 0.000000 -1.000000 0.000000
    outer loop
      vertex 6.000000 0.700000 -7.596315
      vertex 6.000000 0.700000 -4.500000
      vertex 4.479971 0.700000 -8.328322
    endloop
  endfacet
  facet normal 0.000000 -1.000000 0.000000
    outer loop
      vertex 6.000000 0.700000 -4.500000
      vertex -6.000000 0.700000 -4.500000
      vertex 4.479971 0.700000 -8.328322
    endloop
  endfacet
  facet normal 0.000000 -1.000000 0.000000
    outer loop
      vertex -6.000000 0.700000 -4.500000
      vertex -6.000000 0.700000 -14.900000
      vertex 6.000000 0.700000 -14.900000
    endloop
  endfacet
  facet normal 0.000000 -1.000000 0.000000
    outer loop
      vertex 11.400000 0.700000 -14.900000
      vertex 11.400000 0.700000 -4.500000
      vertex 6.000000 0.700000 -4.500000
    endloop
  endfacet
  facet normal -0.000000 -1.000000 -0.000000
    outer loop
      vertex 7.920029 0.700000 -8.328322
      vertex 11.400000 0.700000 -14.900000
      vertex 6.000000 0.700000 -4.500000
    endloop
  endfacet
  facet normal 0.000000 -1.000000 -0.000000
    outer loop
      vertex 6.000000 0.700000 -7.596315
      vertex 6.200000 0.700000 -7.500000
      vertex 6.000000 0.700000 -4.500000
    endloop
  endfacet
  facet normal -0.000000 -1.000000 -0.000000
    outer loop
      vertex 6.200000 0.700000 -7.500000
      vertex 7.920029 0.700000 -8.328322
      vertex 6.000000 0.700000 -4.500000
    endloop
  endfacet
  facet normal -0.000000 -1.000000 -0.000000
    outer loop
      vertex 8.344841 0.700000 -10.189546
      vertex 11.400000 0.700000 -14.900000
      vertex 7.920029 0.700000 -8.328322
    endloop
  endfacet
  facet normal 0.000000 -1.000000 0.000000
    outer loop
      vertex 6.000000 0.700000 -11.682132
      vertex 11.400000 0.700000 -14.900000
      vertex 7.154544 0.700000 -11.682132
    endloop
  endfacet
  facet normal -0.000000 -1.000000 -0.000000
    outer loop
      vertex 6.000000 0.700000 -14.900000
      vertex 11.400000 0.700000 -14.900000
      vertex 6.000000 0.700000 -11.682132
    endloop
  endfacet
  facet normal 0.000000 -1.000000 0.000000
    outer loop
      vertex 8.344841 0.700000 -10.189546
      vertex 7.154544 0.700000 -11.682132
      vertex 11.400000 0.700000 -14.900000
    endloop
  endfacet
  facet normal 1.000000 0.000000 0.000000
    outer loop
      vertex 11.400000 13.100000 -14.900000
      vertex 11.400000 13.100000 -4.500000
      vertex 11.400000 0.700000 -4.500000
    endloop
  endfacet
  facet normal 1.000000 0.000000 0.000000
    outer loop
      vertex 11.400000 0.700000 -14.900000
      vertex 11.400000 13.100000 -14.900000
      vertex 11.400000 0.700000 -4.500000
    endloop
  endfacet
  facet normal 0.959493 0.281733 0.000000
    outer loop
      vertex -46.666667 6.900000 -4.500000
      vertex -46.158678 5.169949 -4.500000
      vertex -46.158678 5.169949 -14.900000
    endloop
  endfacet
  facet normal 0.959493 0.281733 0.000000
    outer loop
      vertex -46.666667 6.900000 -14.900000
      vertex -46.666667 6.900000 -4.500000
      vertex -46.158678 5.169949 -14.900000
    endloop
  endfacet
  facet normal 0.654861 0.755750 -0.000000
    outer loop
      vertex -44.795995 3.989178 -4.500000
      vertex -44.795995 3.989178 -14.900000
      vertex -46.158678 5.169949 -4.500000
    endloop
  endfacet
  facet normal 0.654861 0.755750 -0.000000
    outer loop
      vertex -46.158678 5.169949 -4.500000
      vertex -44.795995 3.989178 -14.900000
      vertex -46.158678 5.169949 -14.900000
    endloop
  endfacet
  facet normal 0.959493 -0.281733 0.000000
    outer loop
      vertex -46.158678 8.630051 -14.900000
      vertex -46.158678 8.630051 -4.500000
      vertex -46.666667 6.900000 -4.500000
    endloop
  endfacet
  facet normal 0.959493 -0.281733 0.000000
    outer loop
      vertex -46.666667 6.900000 -14.900000
      vertex -46.158678 8.630051 -14.900000
      vertex -46.666667 6.900000 -4.500000
    endloop
  endfacet
  facet normal 0.654861 -0.755750 0.000000
    outer loop
      vertex -44.795995 9.810822 -14.900000
      vertex -44.795995 9.810822 -4.500000
      vertex -46.158678 8.630051 -4.500000
    endloop
  endfacet
  facet normal 0.654861 -0.755750 0.000000
    outer loop
      vertex -46.158678 8.630051 -14.900000
      vertex -44.795995 9.810822 -14.900000
      vertex -46.158678 8.630051 -4.500000
    endloop
  endfacet
  facet normal 0.142315 -0.989821 0.000000
    outer loop
      vertex -43.011260 10.067429 -14.900000
      vertex -43.011260 10.067429 -4.500000
      vertex -44.795995 9.810822 -4.500000
    endloop
  endfacet
  facet normal 0.142315 -0.989821 0.000000
    outer loop
      vertex -44.795995 9.810822 -14.900000
      vertex -43.011260 10.067429 -14.900000
      vertex -44.795995 9.810822 -4.500000
    endloop
  endfacet
  facet normal -0.415415 -0.909632 -0.000000
    outer loop
      vertex -41.371113 9.318399 -14.900000
      vertex -41.371113 9.318399 -4.500000
      vertex -43.011260 10.067429 -4.500000
    endloop
  endfacet
  facet normal -0.415415 -0.909632 -0.000000
    outer loop
      vertex -43.011260 10.067429 -14.900000
      vertex -41.371113 9.318399 -14.900000
      vertex -43.011260 10.067429 -4.500000
    endloop
  endfacet
  facet normal -0.841253 -0.540641 0.000000
    outer loop
      vertex -40.396289 7.801544 -4.500000
      vertex -41.371113 9.318399 -4.500000
      vertex -40.396289 7.801544 -14.900000
    endloop
  endfacet
  facet normal -0.841253 -0.540641 0.000000
    outer loop
      vertex -40.396289 7.801544 -14.900000
      vertex -41.371113 9.318399 -4.500000
      vertex -41.371113 9.318399 -14.900000
    endloop
  endfacet
  facet normal -1.000000 0.000000 0.000000
    outer loop
      vertex -40.396289 7.801544 -4.500000
      vertex -40.396289 7.801544 -14.900000
      vertex -40.396289 5.998456 -4.500000
    endloop
  endfacet
  facet normal -1.000000 0.000000 0.000000
    outer loop
      vertex -40.396289 5.998456 -4.500000
      vertex -40.396289 7.801544 -14.900000
      vertex -40.396289 5.998456 -14.900000
    endloop
  endfacet
  facet normal -0.841253 0.540641 0.000000
    outer loop
      vertex -40.396289 5.998456 -4.500000
      vertex -40.396289 5.998456 -14.900000
      vertex -41.371113 4.481601 -4.500000
    endloop
  endfacet
  facet normal -0.841253 0.540641 0.000000
    outer loop
      vertex -41.371113 4.481601 -4.500000
      vertex -40.396289 5.998456 -14.900000
      vertex -41.371113 4.481601 -14.900000
    endloop
  endfacet
  facet normal -0.415415 0.909632 0.000000
    outer loop
      vertex -41.371113 4.481601 -4.500000
      vertex -41.371113 4.481601 -14.900000
      vertex -43.011260 3.732571 -4.500000
    endloop
  endfacet
  facet normal -0.415415 0.909632 0.000000
    outer loop
      vertex -43.011260 3.732571 -4.500000
      vertex -41.371113 4.481601 -14.900000
      vertex -43.011260 3.732571 -14.900000
    endloop
  endfacet
  facet normal 0.142315 0.989821 -0.000000
    outer loop
      vertex -43.011260 3.732571 -4.500000
      vertex -43.011260 3.732571 -14.900000
      vertex -44.795995 3.989178 -4.500000
    endloop
  endfacet
  facet normal 0.142315 0.989821 -0.000000
    outer loop
      vertex -44.795995 3.989178 -4.500000
      vertex -43.011260 3.732571 -14.900000
      vertex -44.795995 3.989178 -14.900000
    endloop
  endfacet
  facet normal 0.841253 0.540641 0.000000
    outer loop
      vertex -2.095554 4.481601 -14.900000
      vertex -3.070378 5.998456 -14.900000
      vertex -3.070378 5.998456 -4.500000
    endloop
  endfacet
  facet normal 0.841253 0.540641 -0.000000
    outer loop
      vertex -2.095554 4.481601 -4.500000
      vertex -2.095554 4.481601 -14.900000
      vertex -3.070378 5.998456 -4.500000
    endloop
  endfacet
  facet normal 1.000000 0.000000 -0.000000
    outer loop
      vertex -3.070378 5.998456 -4.500000
      vertex -3.070378 5.998456 -14.900000
      vertex -3.070378 7.801544 -14.900000
    endloop
  endfacet
  facet normal 1.000000 0.000000 0.000000
    outer loop
      vertex -3.070378 7.801544 -4.500000
      vertex -3.070378 5.998456 -4.500000
      vertex -3.070378 7.801544 -14.900000
    endloop
  endfacet
  facet normal 0.841253 -0.540641 0.000000
    outer loop
      vertex -3.070378 7.801544 -4.500000
      vertex -3.070378 7.801544 -14.900000
      vertex -2.095554 9.318399 -14.900000
    endloop
  endfacet
  facet normal 0.841253 -0.540641 0.000000
    outer loop
      vertex -2.095554 9.318399 -4.500000
      vertex -3.070378 7.801544 -4.500000
      vertex -2.095554 9.318399 -14.900000
    endloop
  endfacet
  facet normal 0.415415 -0.909632 0.000000
    outer loop
      vertex -2.095554 9.318399 -4.500000
      vertex -2.095554 9.318399 -14.900000
      vertex -0.455407 10.067429 -14.900000
    endloop
  endfacet
  facet normal 0.415415 -0.909632 0.000000
    outer loop
      vertex -0.455407 10.067429 -4.500000
      vertex -2.095554 9.318399 -4.500000
      vertex -0.455407 10.067429 -14.900000
    endloop
  endfacet
  facet normal -0.142315 -0.989821 0.000000
    outer loop
      vertex -0.455407 10.067429 -4.500000
      vertex -0.455407 10.067429 -14.900000
      vertex 1.329328 9.810822 -14.900000
    endloop
  endfacet
  facet normal -0.142315 -0.989821 0.000000
    outer loop
      vertex 1.329328 9.810822 -4.500000
      vertex -0.455407 10.067429 -4.500000
      vertex 1.329328 9.810822 -14.900000
    endloop
  endfacet
  facet normal -0.654861 -0.755750 0.000000
    outer loop
      vertex 1.329328 9.810822 -4.500000
      vertex 1.329328 9.810822 -14.900000
      vertex 2.692011 8.630051 -14.900000
    endloop
  endfacet
  facet normal -0.654861 -0.755750 0.000000
    outer loop
      vertex 2.692011 8.630051 -4.500000
      vertex 1.329328 9.810822 -4.500000
      vertex 2.692011 8.630051 -14.900000
    endloop
  endfacet
  facet normal -0.959493 -0.281733 -0.000000
    outer loop
      vertex 2.692011 8.630051 -14.900000
      vertex 3.200000 6.900000 -14.900000
      vertex 2.692011 8.630051 -4.500000
    endloop
  endfacet
  facet normal -0.959493 -0.281733 0.000000
    outer loop
      vertex 2.692011 8.630051 -4.500000
      vertex 3.200000 6.900000 -14.900000
      vertex 3.200000 6.900000 -4.500000
    endloop
  endfacet
  facet normal -0.959493 0.281733 0.000000
    outer loop
      vertex 2.692011 5.169949 -14.900000
      vertex 2.692011 5.169949 -4.500000
      vertex 3.200000 6.900000 -14.900000
    endloop
  endfacet
  facet normal -0.959493 0.281733 0.000000
    outer loop
      vertex 3.200000 6.900000 -14.900000
      vertex 2.692011 5.169949 -4.500000
      vertex 3.200000 6.900000 -4.500000
    endloop
  endfacet
  facet normal -0.654861 0.755750 0.000000
    outer loop
      vertex 1.329328 3.989178 -14.900000
      vertex 1.329328 3.989178 -4.500000
      vertex 2.692011 5.169949 -14.900000
    endloop
  endfacet
  facet normal -0.654861 0.755750 0.000000
    outer loop
      vertex 2.692011 5.169949 -14.900000
      vertex 1.329328 3.989178 -4.500000
      vertex 2.692011 5.169949 -4.500000
    endloop
  endfacet
  facet normal -0.142315 0.989821 0.000000
    outer loop
      vertex -0.455407 3.732571 -14.900000
      vertex -0.455407 3.732571 -4.500000
      vertex 1.329328 3.989178 -14.900000
    endloop
  endfacet
  facet normal -0.142315 0.989821 0.000000
    outer loop
      vertex 1.329328 3.989178 -14.900000
      vertex -0.455407 3.732571 -4.500000
      vertex 1.329328 3.989178 -4.500000
    endloop
  endfacet
  facet normal 0.415415 0.909632 0.000000
    outer loop
      vertex -2.095554 4.481601 -14.900000
      vertex -2.095554 4.481601 -4.500000
      vertex -0.455407 3.732571 -14.900000
    endloop
  endfacet
  facet normal 0.415415 0.909632 0.000000
    outer loop
      vertex -0.455407 3.732571 -14.900000
      vertex -2.095554 4.481601 -4.500000
      vertex -0.455407 3.732571 -4.500000
    endloop
  endfacet
  facet normal -0.974928 0.000000 -0.222521
    outer loop
      vertex -47.521826 13.100000 -10.189546
      vertex -47.521826 0.700000 -10.189546
      vertex -47.946638 13.100000 -8.328322
    endloop
  endfacet
  facet normal -0.974928 0.000000 -0.222521
    outer loop
      vertex -47.946638 13.100000 -8.328322
      vertex -47.521826 0.700000 -10.189546
      vertex -47.946638 0.700000 -8.328322
    endloop
  endfacet
  facet normal -0.781832 0.000000 0.623490
    outer loop
      vertex -47.521826 13.100000 -10.189546
      vertex -48.712123 13.100000 -11.682132
      vertex -47.521826 0.700000 -10.189546
    endloop
  endfacet
  facet normal -0.781832 -0.000000 0.623490
    outer loop
      vertex -47.521826 0.700000 -10.189546
      vertex -48.712123 13.100000 -11.682132
      vertex -48.712123 0.700000 -11.682132
    endloop
  endfacet
  facet normal 0.974928 0.000000 -0.222521
    outer loop
      vertex -23.878174 13.100000 -10.189546
      vertex -23.453362 13.100000 -8.328322
      vertex -23.453362 0.000000 -8.328322
    endloop
  endfacet
  facet normal 0.974928 -0.000000 -0.222521
    outer loop
      vertex -23.878174 0.000000 -10.189546
      vertex -23.878174 13.100000 -10.189546
      vertex -23.453362 0.000000 -8.328322
    endloop
  endfacet
  facet normal 0.781832 0.000000 0.623490
    outer loop
      vertex -22.687877 0.000000 -11.682132
      vertex -22.687877 13.100000 -11.682132
      vertex -23.878174 13.100000 -10.189546
    endloop
  endfacet
  facet normal 0.781832 -0.000000 0.623490
    outer loop
      vertex -23.878174 0.000000 -10.189546
      vertex -22.687877 0.000000 -11.682132
      vertex -23.878174 13.100000 -10.189546
    endloop
  endfacet
  facet normal 0.433884 0.000000 -0.900969
    outer loop
      vertex -21.733333 13.100000 -7.500000
      vertex -21.733333 0.000000 -7.500000
      vertex -23.453362 13.100000 -8.328322
    endloop
  endfacet
  facet normal 0.433884 0.000000 -0.900969
    outer loop
      vertex -23.453362 13.100000 -8.328322
      vertex -21.733333 0.000000 -7.500000
      vertex -23.453362 0.000000 -8.328322
    endloop
  endfacet
  facet normal -0.433884 -0.000000 -0.900969
    outer loop
      vertex -21.733333 0.000000 -7.500000
      vertex -21.733333 13.100000 -7.500000
      vertex -20.013304 0.000000 -8.328322
    endloop
  endfacet
  facet normal -0.433884 -0.000000 -0.900969
    outer loop
      vertex -20.013304 0.000000 -8.328322
      vertex -21.733333 13.100000 -7.500000
      vertex -20.013304 13.100000 -8.328322
    endloop
  endfacet
  facet normal -0.974928 0.000000 -0.222521
    outer loop
      vertex -20.013304 13.100000 -8.328322
      vertex -19.588492 13.100000 -10.189546
      vertex -20.013304 0.000000 -8.328322
    endloop
  endfacet
  facet normal -0.974928 -0.000000 -0.222521
    outer loop
      vertex -20.013304 0.000000 -8.328322
      vertex -19.588492 13.100000 -10.189546
      vertex -19.588492 0.000000 -10.189546
    endloop
  endfacet
  facet normal -0.781832 0.000000 0.623490
    outer loop
      vertex -20.778789 13.100000 -11.682132
      vertex -20.778789 0.000000 -11.682132
      vertex -19.588492 13.100000 -10.189546
    endloop
  endfacet
  facet normal -0.781832 -0.000000 0.623490
    outer loop
      vertex -19.588492 13.100000 -10.189546
      vertex -20.778789 0.000000 -11.682132
      vertex -19.588492 0.000000 -10.189546
    endloop
  endfacet
  facet normal 0.000000 0.000000 1.000000
    outer loop
      vertex -20.778789 0.000000 -11.682132
      vertex -20.778789 13.100000 -11.682132
      vertex -21.733333 13.100000 -11.682132
    endloop
  endfacet
  facet normal 0.000000 0.000000 1.000000
    outer loop
      vertex -21.733333 0.000000 -11.682132
      vertex -20.778789 0.000000 -11.682132
      vertex -21.733333 13.100000 -11.682132
    endloop
  endfacet
  facet normal 0.000000 -0.000000 1.000000
    outer loop
      vertex -22.687877 13.100000 -11.682132
      vertex -22.687877 0.000000 -11.682132
      vertex -21.733333 0.000000 -11.682132
    endloop
  endfacet
  facet normal 0.000000 0.000000 1.000000
    outer loop
      vertex -21.733333 13.100000 -11.682132
      vertex -22.687877 13.100000 -11.682132
      vertex -21.733333 0.000000 -11.682132
    endloop
  endfacet
  facet normal 0.781832 0.000000 0.623490
    outer loop
      vertex 5.245456 13.100000 -11.682132
      vertex 4.055159 13.100000 -10.189546
      vertex 4.055159 0.700000 -10.189546
    endloop
  endfacet
  facet normal 0.781832 -0.000000 0.623490
    outer loop
      vertex 5.245456 0.700000 -11.682132
      vertex 5.245456 13.100000 -11.682132
      vertex 4.055159 0.700000 -10.189546
    endloop
  endfacet
  facet normal 0.974928 0.000000 -0.222521
    outer loop
      vertex 4.055159 0.700000 -10.189546
      vertex 4.055159 13.100000 -10.189546
      vertex 4.479971 13.100000 -8.328322
    endloop
  endfacet
  facet normal 0.974928 0.000000 -0.222521
    outer loop
      vertex 4.479971 0.700000 -8.328322
      vertex 4.055159 0.700000 -10.189546
      vertex 4.479971 13.100000 -8.328322
    endloop
  endfacet
  facet normal 0.433884 0.000000 -0.900969
    outer loop
      vertex 4.479971 13.100000 -8.328322
      vertex 6.200000 13.100000 -7.500000
      vertex 4.479971 0.700000 -8.328322
    endloop
  endfacet
  facet normal 0.433884 0.000000 -0.900969
    outer loop
      vertex 6.000000 0.700000 -7.596315
      vertex 6.200000 13.100000 -7.500000
      vertex 6.200000 0.700000 -7.500000
    endloop
  endfacet
  facet normal 0.433884 0.000000 -0.900969
    outer loop
      vertex 4.479971 0.700000 -8.328322
      vertex 6.200000 13.100000 -7.500000
      vertex 6.000000 0.700000 -7.596315
    endloop
  endfacet
  facet normal -0.433884 -0.000000 -0.900969
    outer loop
      vertex 6.200000 13.100000 -7.500000
      vertex 7.920029 13.100000 -8.328322
      vertex 6.200000 0.700000 -7.500000
    endloop
  endfacet
  facet normal -0.433884 -0.000000 -0.900969
    outer loop
      vertex 6.200000 0.700000 -7.500000
      vertex 7.920029 13.100000 -8.328322
      vertex 7.920029 0.700000 -8.328322
    endloop
  endfacet
  facet normal -0.974928 -0.000000 -0.222521
    outer loop
      vertex 7.920029 13.100000 -8.328322
      vertex 8.344841 13.100000 -10.189546
      vertex 7.920029 0.700000 -8.328322
    endloop
  endfacet
  facet normal -0.974928 0.000000 -0.222521
    outer loop
      vertex 7.920029 0.700000 -8.328322
      vertex 8.344841 13.100000 -10.189546
      vertex 8.344841 0.700000 -10.189546
    endloop
  endfacet
  facet normal -0.781832 -0.000000 0.623490
    outer loop
      vertex 7.154544 13.100000 -11.682132
      vertex 7.154544 0.700000 -11.682132
      vertex 8.344841 13.100000 -10.189546
    endloop
  endfacet
  facet normal -0.781832 0.000000 0.623490
    outer loop
      vertex 8.344841 13.100000 -10.189546
      vertex 7.154544 0.700000 -11.682132
      vertex 8.344841 0.700000 -10.189546
    endloop
  endfacet
  facet normal 0.000000 -0.000000 1.000000
    outer loop
      vertex 7.154544 13.100000 -11.682132
      vertex 5.245456 13.100000 -11.682132
      vertex 5.245456 0.700000 -11.682132
    endloop
  endfacet
  facet normal 0.000000 -0.000000 1.000000
    outer loop
      vertex 6.000000 0.700000 -11.682132
      vertex 7.154544 13.100000 -11.682132
      vertex 5.245456 0.700000 -11.682132
    endloop
  endfacet
  facet normal 0.000000 -0.000000 1.000000
    outer loop
      vertex 6.000000 0.700000 -11.682132
      vertex 7.154544 0.700000 -11.682132
      vertex 7.154544 13.100000 -11.682132
    endloop
  endfacet
endsolid OpenSCAD_Model
