solid OpenSCAD_Model
  facet normal -1.000000 0.000000 0.000000
    outer loop
      vertex -26.933334 0.700000 -4.500000
      vertex -26.933334 13.100000 -4.500000
      vertex -26.933334 0.700000 -14.900000
    endloop
  endfacet
  facet normal -1.000000 -0.000000 0.000000
    outer loop
      vertex -26.933334 0.700000 -14.900000
      vertex -26.933334 13.100000 -4.500000
      vertex -26.933334 13.100000 -14.900000
    endloop
  endfacet
  facet normal 0.000000 0.000000 -1.000000
    outer loop
      vertex -26.933334 13.100000 -14.900000
      vertex -16.413226 13.100000 -14.900000
      vertex -26.933334 0.700000 -14.900000
    endloop
  endfacet
  facet normal 0.000000 0.000000 -1.000000
    outer loop
      vertex -26.933334 0.700000 -14.900000
      vertex -16.413226 13.100000 -14.900000
      vertex -16.413226 12.110829 -14.900000
    endloop
  endfacet
  facet normal 0.000000 0.000000 -1.000000
    outer loop
      vertex -26.933334 0.700000 -14.900000
      vertex -16.413226 12.110829 -14.900000
      vertex -15.493844 10.359093 -14.900000
    endloop
  endfacet
  facet normal 0.000000 0.000000 -1.000000
    outer loop
      vertex -15.493844 10.359093 -14.900000
      vertex -13.865700 9.235266 -14.900000
      vertex -26.933334 0.700000 -14.900000
    endloop
  endfacet
  facet normal 0.000000 0.000000 -1.000000
    outer loop
      vertex -13.865700 9.235266 -14.900000
      vertex -11.901782 8.996803 -14.900000
      vertex -26.933334 0.700000 -14.900000
    endloop
  endfacet
  facet normal -0.000000 0.000000 -1.000000
    outer loop
      vertex -11.901782 8.996803 -14.900000
      vertex -10.051999 9.698333 -14.900000
      vertex -26.933334 0.700000 -14.900000
    endloop
  endfacet
  facet normal 0.000000 -0.000000 -1.000000
    outer loop
      vertex -3.070378 7.801544 -14.900000
      vertex -26.933334 0.700000 -14.900000
      vertex -2.095554 9.318399 -14.900000
    endloop
  endfacet
  facet normal 0.000000 0.000000 -1.000000
    outer loop
      vertex -8.740115 11.179144 -14.900000
      vertex -8.266667 13.100000 -14.900000
      vertex 11.400000 13.100000 -14.900000
    endloop
  endfacet
  facet normal -0.000000 0.000000 -1.000000
    outer loop
      vertex -8.740115 11.179144 -14.900000
      vertex 11.400000 13.100000 -14.900000
      vertex -10.051999 9.698333 -14.900000
    endloop
  endfacet
  facet normal -0.000000 0.000000 -1.000000
    outer loop
      vertex 6.000000 0.700000 -14.900000
      vertex 11.400000 13.100000 -14.900000
      vertex 11.400000 0.700000 -14.900000
    endloop
  endfacet
  facet normal 0.000000 -0.000000 -1.000000
    outer loop
      vertex -15.493844 3.440907 -14.900000
      vertex -26.933334 0.700000 -14.900000
      vertex -13.865700 4.564734 -14.900000
    endloop
  endfacet
  facet normal 0.000000 0.000000 -1.000000
    outer loop
      vertex -0.455407 3.732571 -14.900000
      vertex -6.000000 0.700000 -14.900000
      vertex -2.095554 4.481601 -14.900000
    endloop
  endfacet
  facet normal 0.000000 0.000000 -1.000000
    outer loop
      vertex -2.095554 4.481601 -14.900000
      vertex -8.740115 2.620856 -14.900000
      vertex -3.070378 5.998456 -14.900000
    endloop
  endfacet
  facet normal 0.000000 0.000000 -1.000000
    outer loop
      vertex -16.533333 0.000000 -14.900000
      vertex -26.933333 0.700000 -14.900000
      vertex -16.533333 0.700000 -14.900000
    endloop
  endfacet
  facet normal -0.000000 0.000000 -1.000000
    outer loop
      vertex -0.455407 10.067429 -14.900000
      vertex 11.400000 13.100000 -14.900000
      vertex 1.329328 9.810822 -14.900000
    endloop
  endfacet
  facet normal 0.000000 -0.000000 -1.000000
    outer loop
      vertex -16.413226 1.689171 -14.900000
      vertex -26.933334 0.700000 -14.900000
      vertex -15.493844 3.440907 -14.900000
    endloop
  endfacet
  facet normal 0.000000 0.000000 -1.000000
    outer loop
      vertex -3.070378 5.998456 -14.900000
      vertex -10.051999 4.101667 -14.900000
      vertex -3.070378 7.801544 -14.900000
    endloop
  endfacet
  facet normal -0.000000 0.000000 -0.000000
    outer loop
      vertex -26.933334 0.700000 -14.900000
      vertex -16.413226 1.689171 -14.900000
      vertex -26.933333 0.700000 -14.900000
    endloop
  endfacet
  facet normal 0.000000 0.000000 -1.000000
    outer loop
      vertex -16.413226 0.700000 -14.900000
      vertex -16.533333 0.700000 -14.900000
      vertex -16.413226 1.689171 -14.900000
    endloop
  endfacet
  facet normal 0.000000 0.000000 -1.000000
    outer loop
      vertex -26.933333 0.700000 -14.900000
      vertex -16.533333 0.000000 -14.900000
      vertex -26.933333 0.000000 -14.900000
    endloop
  endfacet
  facet normal 0.000000 -0.000000 -1.000000
    outer loop
      vertex -16.533333 0.700000 -14.900000
      vertex -26.933333 0.700000 -14.900000
      vertex -16.413226 1.689171 -14.900000
    endloop
  endfacet
  facet normal 0.000000 0.000000 -1.000000
    outer loop
      vertex -2.095554 4.481601 -14.900000
      vertex -8.266667 0.700000 -14.900000
      vertex -8.740115 2.620856 -14.900000
    endloop
  endfacet
  facet normal -0.000000 0.000000 -1.000000
    outer loop
      vertex -10.051999 4.101667 -14.900000
      vertex -3.070378 5.998456 -14.900000
      vertex -8.740115 2.620856 -14.900000
    endloop
  endfacet
  facet normal 0.000000 -0.000000 -1.000000
    outer loop
      vertex -6.000000 0.700000 -14.900000
      vertex -8.266667 0.700000 -14.900000
      vertex -2.095554 4.481601 -14.900000
    endloop
  endfacet
  facet normal 0.000000 0.000000 -1.000000
    outer loop
      vertex 6.000000 0.700000 -14.900000
      vertex -6.000000 0.700000 -14.900000
      vertex -0.455407 3.732571 -14.900000
    endloop
  endfacet
  facet normal 0.000000 0.000000 -1.000000
    outer loop
      vertex 6.000000 0.700000 -14.900000
      vertex -0.455407 3.732571 -14.900000
      vertex 1.329328 3.989178 -14.900000
    endloop
  endfacet
  facet normal 0.000000 0.000000 -1.000000
    outer loop
      vertex -3.070378 7.801544 -14.900000
      vertex -11.901782 4.803197 -14.900000
      vertex -13.865700 4.564734 -14.900000
    endloop
  endfacet
  facet normal 0.000000 0.000000 -1.000000
    outer loop
      vertex 6.000000 0.700000 -14.900000
      vertex 1.329328 3.989178 -14.900000
      vertex 2.692011 5.169949 -14.900000
    endloop
  endfacet
  facet normal 0.000000 -0.000000 -1.000000
    outer loop
      vertex 6.000000 0.700000 -14.900000
      vertex 2.692011 5.169949 -14.900000
      vertex 11.400000 13.100000 -14.900000
    endloop
  endfacet
  facet normal -0.000000 0.000000 -1.000000
    outer loop
      vertex 3.200000 6.900000 -14.900000
      vertex 11.400000 13.100000 -14.900000
      vertex 2.692011 5.169949 -14.900000
    endloop
  endfacet
  facet normal -0.000000 0.000000 -1.000000
    outer loop
      vertex 2.692011 8.630051 -14.900000
      vertex 11.400000 13.100000 -14.900000
      vertex 3.200000 6.900000 -14.900000
    endloop
  endfacet
  facet normal 0.000000 0.000000 -1.000000
    outer loop
      vertex -10.051999 9.698333 -14.900000
      vertex 11.400000 13.100000 -14.900000
      vertex -0.455407 10.067429 -14.900000
    endloop
  endfacet
  facet normal -0.000000 0.000000 -1.000000
    outer loop
      vertex -10.051999 9.698333 -14.900000
      vertex -0.455407 10.067429 -14.900000
      vertex -26.933334 0.700000 -14.900000
    endloop
  endfacet
  facet normal 0.000000 0.000000 -1.000000
    outer loop
      vertex -3.070378 7.801544 -14.900000
      vertex -13.865700 4.564734 -14.900000
      vertex -26.933334 0.700000 -14.900000
    endloop
  endfacet
  facet normal 0.000000 0.000000 -1.000000
    outer loop
      vertex -0.455407 10.067429 -14.900000
      vertex -2.095554 9.318399 -14.900000
      vertex -26.933334 0.700000 -14.900000
    endloop
  endfacet
  facet normal -0.000000 0.000000 -1.000000
    outer loop
      vertex -11.901782 4.803197 -14.900000
      vertex -3.070378 7.801544 -14.900000
      vertex -10.051999 4.101667 -14.900000
    endloop
  endfacet
  facet normal -0.000000 0.000000 -1.000000
    outer loop
      vertex 1.329328 9.810822 -14.900000
      vertex 11.400000 13.100000 -14.900000
      vertex 2.692011 8.630051 -14.900000
    endloop
  endfacet
  facet normal 0.000000 1.000000 0.000000
    outer loop
      vertex -19.588492 13.100000 -10.189546
      vertex -16.413226 13.100000 -4.500000
      vertex -16.413226 13.100000 -14.900000
    endloop
  endfacet
  facet normal 0.000000 1.000000 -0.000000
    outer loop
      vertex -26.933334 13.100000 -4.500000
      vertex -23.878174 13.100000 -10.189546
      vertex -26.933334 13.100000 -14.900000
    endloop
  endfacet
  facet normal 0.000000 1.000000 0.000000
    outer loop
      vertex -21.733333 13.100000 -7.500000
      vertex -16.413226 13.100000 -4.500000
      vertex -20.013304 13.100000 -8.328322
    endloop
  endfacet
  facet normal 0.000000 1.000000 0.000000
    outer loop
      vertex -26.933334 13.100000 -14.900000
      vertex -22.687877 13.100000 -11.682132
      vertex -16.413226 13.100000 -14.900000
    endloop
  endfacet
  facet normal 0.000000 1.000000 0.000000
    outer loop
      vertex -22.687877 13.100000 -11.682132
      vertex -20.778789 13.100000 -11.682132
      vertex -16.413226 13.100000 -14.900000
    endloop
  endfacet
  facet normal 0.000000 1.000000 0.000000
    outer loop
      vertex -20.778789 13.100000 -11.682132
      vertex -19.588492 13.100000 -10.189546
      vertex -16.413226 13.100000 -14.900000
    endloop
  endfacet
  facet normal 0.000000 1.000000 0.000000
    outer loop
      vertex -20.013304 13.100000 -8.328322
      vertex -16.413226 13.100000 -4.500000
      vertex -19.588492 13.100000 -10.189546
    endloop
  endfacet
  facet normal 0.000000 1.000000 0.000000
    outer loop
      vertex -26.933334 13.100000 -4.500000
      vertex -16.413226 13.100000 -4.500000
      vertex -21.733333 13.100000 -7.500000
    endloop
  endfacet
  facet normal 0.000000 1.000000 0.000000
    outer loop
      vertex -26.933334 13.100000 -4.500000
      vertex -21.733333 13.100000 -7.500000
      vertex -23.453362 13.100000 -8.328322
    endloop
  endfacet
  facet normal 0.000000 1.000000 0.000000
    outer loop
      vertex -26.933334 13.100000 -4.500000
      vertex -23.453362 13.100000 -8.328322
      vertex -23.878174 13.100000 -10.189546
    endloop
  endfacet
  facet normal -0.000000 1.000000 0.000000
    outer loop
      vertex -22.687877 13.100000 -11.682132
      vertex -26.933334 13.100000 -14.900000
      vertex -23.878174 13.100000 -10.189546
    endloop
  endfacet
  facet normal -0.000000 -1.000000 0.000000
    outer loop
      vertex -26.933334 0.700000 -14.900000
      vertex -26.933333 0.700000 -14.900000
      vertex -26.933333 0.700000 -4.500000
    endloop
  endfacet
  facet normal 0.000000 -1.000000 0.000000
    outer loop
      vertex -26.933334 0.700000 -4.500000
      vertex -26.933334 0.700000 -14.900000
      vertex -26.933333 0.700000 -4.500000
    endloop
  endfacet
  facet normal -0.000000 0.000000 1.000000
    outer loop
      vertex -16.533333 0.000000 -4.500000
      vertex -26.933333 0.700000 -4.500000
      vertex -26.933333 0.000000 -4.500000
    endloop
  endfacet
  facet normal 0.000000 0.000000 1.000000
    outer loop
      vertex -16.533333 0.700000 -4.500000
      vertex -26.933333 0.700000 -4.500000
      vertex -16.533333 0.000000 -4.500000
    endloop
  endfacet
  facet normal 0.000000 0.000000 0.000000
    outer loop
      vertex -26.933334 0.700000 -4.500000
      vertex -26.933333 0.700000 -4.500000
      vertex -16.413226 1.689171 -4.500000
    endloop
  endfacet
  facet normal 0.000000 0.000000 1.000000
    outer loop
      vertex -16.413226 1.689171 -4.500000
      vertex -26.933333 0.700000 -4.500000
      vertex -16.533333 0.700000 -4.500000
    endloop
  endfacet
  facet normal 0.000000 0.000000 1.000000
    outer loop
      vertex -16.413226 1.689171 -4.500000
      vertex -16.533333 0.700000 -4.500000
      vertex -16.413226 0.700000 -4.500000
    endloop
  endfacet
  facet normal 0.000000 0.000000 1.000000
    outer loop
      vertex -15.493844 3.440907 -4.500000
      vertex -26.933334 0.700000 -4.500000
      vertex -16.413226 1.689171 -4.500000
    endloop
  endfacet
  facet normal 0.000000 0.000000 1.000000
    outer loop
      vertex -13.865700 4.564734 -4.500000
      vertex -26.933334 0.700000 -4.500000
      vertex -15.493844 3.440907 -4.500000
    endloop
  endfacet
  facet normal 0.000000 0.000000 1.000000
    outer loop
      vertex 1.329328 9.810822 -4.500000
      vertex 2.692011 8.630051 -4.500000
      vertex 11.400000 13.100000 -4.500000
    endloop
  endfacet
  facet normal 0.000000 0.000000 1.000000
    outer loop
      vertex 6.000000 0.700000 -4.500000
      vertex -11.901782 4.803197 -4.500000
      vertex -10.051999 4.101667 -4.500000
    endloop
  endfacet
  facet normal 0.000000 0.000000 1.000000
    outer loop
      vertex -6.000000 0.700000 -4.500000
      vertex -10.051999 4.101667 -4.500000
      vertex -8.740115 2.620856 -4.500000
    endloop
  endfacet
  facet normal -0.000000 0.000000 1.000000
    outer loop
      vertex -6.000000 0.700000 -4.500000
      vertex -8.740115 2.620856 -4.500000
      vertex -8.266667 0.700000 -4.500000
    endloop
  endfacet
  facet normal 0.000000 0.000000 1.000000
    outer loop
      vertex 6.000000 0.700000 -4.500000
      vertex -10.051999 4.101667 -4.500000
      vertex -6.000000 0.700000 -4.500000
    endloop
  endfacet
  facet normal -0.000000 0.000000 1.000000
    outer loop
      vertex 11.400000 0.700000 -4.500000
      vertex -11.901782 4.803197 -4.500000
      vertex 6.000000 0.700000 -4.500000
    endloop
  endfacet
  facet normal -0.000000 -0.000000 1.000000
    outer loop
      vertex -0.455407 3.732571 -4.500000
      vertex -11.901782 4.803197 -4.500000
      vertex 11.400000 0.700000 -4.500000
    endloop
  endfacet
  facet normal 0.000000 -0.000000 1.000000
    outer loop
      vertex -8.266667 13.100000 -4.500000
      vertex -8.740115 11.179144 -4.500000
      vertex 11.400000 13.100000 -4.500000
    endloop
  endfacet
  facet normal 0.000000 -0.000000 1.000000
    outer loop
      vertex -8.740115 11.179144 -4.500000
      vertex -10.051999 9.698333 -4.500000
      vertex 11.400000 13.100000 -4.500000
    endloop
  endfacet
  facet normal 0.000000 -0.000000 1.000000
    outer loop
      vertex -11.901782 8.996803 -4.500000
      vertex -26.933334 0.700000 -4.500000
      vertex -10.051999 9.698333 -4.500000
    endloop
  endfacet
  facet normal -0.000000 0.000000 1.000000
    outer loop
      vertex -13.865700 9.235266 -4.500000
      vertex -15.493844 10.359093 -4.500000
      vertex -26.933334 0.700000 -4.500000
    endloop
  endfacet
  facet normal 0.000000 -0.000000 1.000000
    outer loop
      vertex -16.413226 12.110829 -4.500000
      vertex -26.933334 0.700000 -4.500000
      vertex -15.493844 10.359093 -4.500000
    endloop
  endfacet
  facet normal 0.000000 0.000000 1.000000
    outer loop
      vertex -16.413226 13.100000 -4.500000
      vertex -26.933334 0.700000 -4.500000
      vertex -16.413226 12.110829 -4.500000
    endloop
  endfacet
  facet normal 0.000000 -0.000000 1.000000
    outer loop
      vertex -26.933334 13.100000 -4.500000
      vertex -26.933334 0.700000 -4.500000
      vertex -16.413226 13.100000 -4.500000
    endloop
  endfacet
  facet normal 0.000000 0.000000 1.000000
    outer loop
      vertex -0.455407 3.732571 -4.500000
      vertex -2.095554 4.481601 -4.500000
      vertex -11.901782 4.803197 -4.500000
    endloop
  endfacet
  facet normal 0.000000 0.000000 1.000000
    outer loop
      vertex -3.070378 7.801544 -4.500000
      vertex -11.901782 4.803197 -4.500000
      vertex -3.070378 5.998456 -4.500000
    endloop
  endfacet
  facet normal 0.000000 -0.000000 1.000000
    outer loop
      vertex 2.692011 5.169949 -4.500000
      vertex 1.329328 3.989178 -4.500000
      vertex 11.400000 0.700000 -4.500000
    endloop
  endfacet
  facet normal 0.000000 -0.000000 1.000000
    outer loop
      vertex -10.051999 9.698333 -4.500000
      vertex -26.933334 0.700000 -4.500000
      vertex -2.095554 9.318399 -4.500000
    endloop
  endfacet
  facet normal 0.000000 0.000000 1.000000
    outer loop
      vertex -10.051999 9.698333 -4.500000
      vertex -0.455407 10.067429 -4.500000
      vertex 11.400000 13.100000 -4.500000
    endloop
  endfacet
  facet normal 0.000000 0.000000 1.000000
    outer loop
      vertex -10.051999 9.698333 -4.500000
      vertex -2.095554 9.318399 -4.500000
      vertex -0.455407 10.067429 -4.500000
    endloop
  endfacet
  facet normal 0.000000 0.000000 1.000000
    outer loop
      vertex -0.455407 10.067429 -4.500000
      vertex 1.329328 9.810822 -4.500000
      vertex 11.400000 13.100000 -4.500000
    endloop
  endfacet
  facet normal 0.000000 0.000000 1.000000
    outer loop
      vertex 11.400000 13.100000 -4.500000
      vertex 2.692011 8.630051 -4.500000
      vertex 11.400000 0.700000 -4.500000
    endloop
  endfacet
  facet normal 0.000000 0.000000 1.000000
    outer loop
      vertex 2.692011 8.630051 -4.500000
      vertex 3.200000 6.900000 -4.500000
      vertex 11.400000 0.700000 -4.500000
    endloop
  endfacet
  facet normal 0.000000 -0.000000 1.000000
    outer loop
      vertex 3.200000 6.900000 -4.500000
      vertex 2.692011 5.169949 -4.500000
      vertex 11.400000 0.700000 -4.500000
    endloop
  endfacet
  facet normal 0.000000 -0.000000 1.000000
    outer loop
      vertex 1.329328 3.989178 -4.500000
      vertex -0.455407 3.732571 -4.500000
      vertex 11.400000 0.700000 -4.500000
    endloop
  endfacet
  facet normal 0.000000 -0.000000 1.000000
    outer loop
      vertex -3.070378 5.998456 -4.500000
      vertex -11.901782 4.803197 -4.500000
      vertex -2.095554 4.481601 -4.500000
    endloop
  endfacet
  facet normal -0.000000 0.000000 1.000000
    outer loop
      vertex -11.901782 8.996803 -4.500000
      vertex -13.865700 9.235266 -4.500000
      vertex -26.933334 0.700000 -4.500000
    endloop
  endfacet
  facet normal 0.000000 0.000000 1.000000
    outer loop
      vertex -3.070378 7.801544 -4.500000
      vertex -13.865700 4.564734 -4.500000
      vertex -11.901782 4.803197 -4.500000
    endloop
  endfacet
  facet normal 0.000000 0.000000 1.000000
    outer loop
      vertex -3.070378 7.801544 -4.500000
      vertex -26.933334 0.700000 -4.500000
      vertex -13.865700 4.564734 -4.500000
    endloop
  endfacet
  facet normal -0.000000 0.000000 1.000000
    outer loop
      vertex -3.070378 7.801544 -4.500000
      vertex -2.095554 9.318399 -4.500000
      vertex -26.933334 0.700000 -4.500000
    endloop
  endfacet
  facet normal -1.000000 0.000000 0.000000
    outer loop
      vertex -26.933333 0.000000 -4.500000
      vertex -26.933333 0.700000 -4.500000
      vertex -26.933333 0.000000 -14.900000
    endloop
  endfacet
  facet normal -1.000000 -0.000000 0.000000
    outer loop
      vertex -26.933333 0.000000 -14.900000
      vertex -26.933333 0.700000 -4.500000
      vertex -26.933333 0.700000 -14.900000
    endloop
  endfacet
  facet normal -0.000000 -1.000000 0.000000
    outer loop
      vertex -20.013304 0.000000 -8.328322
      vertex -16.533333 0.000000 -14.900000
      vertex -16.533333 0.000000 -4.500000
    endloop
  endfacet
  facet normal 0.000000 -1.000000 0.000000
    outer loop
      vertex -20.778789 0.000000 -11.682132
      vertex -22.687877 0.000000 -11.682132
      vertex -26.933333 0.000000 -14.900000
    endloop
  endfacet
  facet normal 0.000000 -1.000000 0.000000
    outer loop
      vertex -26.933333 0.000000 -4.500000
      vertex -26.933333 0.000000 -14.900000
      vertex -23.878174 0.000000 -10.189546
    endloop
  endfacet
  facet normal 0.000000 -1.000000 0.000000
    outer loop
      vertex -26.933333 0.000000 -4.500000
      vertex -23.453362 0.000000 -8.328322
      vertex -16.533333 0.000000 -4.500000
    endloop
  endfacet
  facet normal 0.000000 -1.000000 0.000000
    outer loop
      vertex -26.933333 0.000000 -4.500000
      vertex -23.878174 0.000000 -10.189546
      vertex -23.453362 0.000000 -8.328322
    endloop
  endfacet
  facet normal 0.000000 -1.000000 0.000000
    outer loop
      vertex -23.453362 0.000000 -8.328322
      vertex -21.733333 0.000000 -7.500000
      vertex -16.533333 0.000000 -4.500000
    endloop
  endfacet
  facet normal -0.000000 -1.000000 0.000000
    outer loop
      vertex -21.733333 0.000000 -7.500000
      vertex -20.013304 0.000000 -8.328322
      vertex -16.533333 0.000000 -4.500000
    endloop
  endfacet
  facet normal -0.000000 -1.000000 -0.000000
    outer loop
      vertex -19.588492 0.000000 -10.189546
      vertex -16.533333 0.000000 -14.900000
      vertex -20.013304 0.000000 -8.328322
    endloop
  endfacet
  facet normal -0.000000 -1.000000 0.000000
    outer loop
      vertex -20.778789 0.000000 -11.682132
      vertex -16.533333 0.000000 -14.900000
      vertex -19.588492 0.000000 -10.189546
    endloop
  endfacet
  facet normal -0.000000 -1.000000 0.000000
    outer loop
      vertex -26.933333 0.000000 -14.900000
      vertex -16.533333 0.000000 -14.900000
      vertex -20.778789 0.000000 -11.682132
    endloop
  endfacet
  facet normal 0.000000 -1.000000 0.000000
    outer loop
      vertex -22.687877 0.000000 -11.682132
      vertex -23.878174 0.000000 -10.189546
      vertex -26.933333 0.000000 -14.900000
    endloop
  endfacet
  facet normal 1.000000 0.000000 0.000000
    outer loop
      vertex -16.533333 0.000000 -14.900000
      vertex -16.533333 0.700000 -14.900000
      vertex -16.533333 0.700000 -4.500000
    endloop
  endfacet
  facet normal 1.000000 0.000000 -0.000000
    outer loop
      vertex -16.533333 0.000000 -4.500000
      vertex -16.533333 0.000000 -14.900000
      vertex -16.533333 0.700000 -4.500000
    endloop
  endfacet
  facet normal -0.000000 -1.000000 0.000000
    outer loop
      vertex -16.533333 0.700000 -14.900000
      vertex -16.413226 0.700000 -14.900000
      vertex -16.413226 0.700000 -4.500000
    endloop
  endfacet
  facet normal 0.000000 -1.000000 0.000000
    outer loop
      vertex -16.533333 0.700000 -4.500000
      vertex -16.533333 0.700000 -14.900000
      vertex -16.413226 0.700000 -4.500000
    endloop
  endfacet
  facet normal 1.000000 0.000000 0.000000
    outer loop
      vertex -16.413226 0.700000 -14.900000
      vertex -16.413226 1.689171 -14.900000
      vertex -16.413226 1.689171 -4.500000
    endloop
  endfacet
  facet normal 1.000000 0.000000 -0.000000
    outer loop
      vertex -16.413226 0.700000 -4.500000
      vertex -16.413226 0.700000 -14.900000
      vertex -16.413226 1.689171 -4.500000
    endloop
  endfacet
  facet normal 0.885456 -0.464723 0.000000
    outer loop
      vertex -16.413226 1.689171 -14.900000
      vertex -15.493844 3.440907 -14.900000
      vertex -15.493844 3.440907 -4.500000
    endloop
  endfacet
  facet normal 0.885456 -0.464723 0.000000
    outer loop
      vertex -16.413226 1.689171 -4.500000
      vertex -16.413226 1.689171 -14.900000
      vertex -15.493844 3.440907 -4.500000
    endloop
  endfacet
  facet normal 0.568065 -0.822984 0.000000
    outer loop
      vertex -15.493844 3.440907 -14.900000
      vertex -13.865700 4.564734 -14.900000
      vertex -13.865700 4.564734 -4.500000
    endloop
  endfacet
  facet normal 0.568065 -0.822984 0.000000
    outer loop
      vertex -15.493844 3.440907 -4.500000
      vertex -15.493844 3.440907 -14.900000
      vertex -13.865700 4.564734 -4.500000
    endloop
  endfacet
  facet normal 0.120537 -0.992709 0.000000
    outer loop
      vertex -13.865700 4.564734 -14.900000
      vertex -11.901782 4.803197 -14.900000
      vertex -11.901782 4.803197 -4.500000
    endloop
  endfacet
  facet normal 0.120537 -0.992709 0.000000
    outer loop
      vertex -13.865700 4.564734 -4.500000
      vertex -13.865700 4.564734 -14.900000
      vertex -11.901782 4.803197 -4.500000
    endloop
  endfacet
  facet normal -0.354605 -0.935016 0.000000
    outer loop
      vertex -11.901782 4.803197 -14.900000
      vertex -10.051999 4.101667 -14.900000
      vertex -10.051999 4.101667 -4.500000
    endloop
  endfacet
  facet normal -0.354605 -0.935016 0.000000
    outer loop
      vertex -11.901782 4.803197 -4.500000
      vertex -11.901782 4.803197 -14.900000
      vertex -10.051999 4.101667 -4.500000
    endloop
  endfacet
  facet normal -0.748511 -0.663123 -0.000000
    outer loop
      vertex -8.740115 2.620856 -14.900000
      vertex -8.740115 2.620856 -4.500000
      vertex -10.051999 4.101667 -14.900000
    endloop
  endfacet
  facet normal -0.748511 -0.663123 -0.000000
    outer loop
      vertex -10.051999 4.101667 -14.900000
      vertex -8.740115 2.620856 -4.500000
      vertex -10.051999 4.101667 -4.500000
    endloop
  endfacet
  facet normal -0.970942 -0.239315 -0.000000
    outer loop
      vertex -8.266667 0.700000 -14.900000
      vertex -8.266667 0.700000 -4.500000
      vertex -8.740115 2.620856 -14.900000
    endloop
  endfacet
  facet normal -0.970942 -0.239315 -0.000000
    outer loop
      vertex -8.740115 2.620856 -14.900000
      vertex -8.266667 0.700000 -4.500000
      vertex -8.740115 2.620856 -4.500000
    endloop
  endfacet
  facet normal -0.000000 -1.000000 0.000000
    outer loop
      vertex -8.266667 0.700000 -14.900000
      vertex -6.000000 0.700000 -14.900000
      vertex -6.000000 0.700000 -4.500000
    endloop
  endfacet
  facet normal 0.000000 -1.000000 0.000000
    outer loop
      vertex -8.266667 0.700000 -4.500000
      vertex -8.266667 0.700000 -14.900000
      vertex -6.000000 0.700000 -4.500000
    endloop
  endfacet
  facet normal -0.000000 -1.000000 0.000000
    outer loop
      vertex -6.000000 0.700000 -14.900000
      vertex 6.000000 0.700000 -14.900000
      vertex 6.000000 0.700000 -11.682132
    endloop
  endfacet
  facet normal 0.000000 -1.000000 0.000000
    outer loop
      vertex 4.055159 0.700000 -10.189546
      vertex -6.000000 0.700000 -14.900000
      vertex 5.245456 0.700000 -11.682132
    endloop
  endfacet
  facet normal 0.000000 -1.000000 0.000000
    outer loop
      vertex 5.245456 0.700000 -11.682132
      vertex -6.000000 0.700000 -14.900000
      vertex 6.000000 0.700000 -11.682132
    endloop
  endfacet
  facet normal 0.000000 -1.000000 0.000000
    outer loop
      vertex 4.479971 0.700000 -8.328322
      vertex -6.000000 0.700000 -14.900000
      vertex 4.055159 0.700000 -10.189546
    endloop
  endfacet
  facet normal 0.000000 -1.000000 0.000000
    outer loop
      vertex 6.000000 0.700000 -4.500000
      vertex -6.000000 0.700000 -14.900000
      vertex 4.479971 0.700000 -8.328322
    endloop
  endfacet
  facet normal 0.000000 -1.000000 0.000000
    outer loop
      vertex 6.000000 0.700000 -4.500000
      vertex 4.479971 0.700000 -8.328322
      vertex 6.000000 0.700000 -7.596315
    endloop
  endfacet
  facet normal 0.000000 -1.000000 0.000000
    outer loop
      vertex -6.000000 0.700000 -4.500000
      vertex -6.000000 0.700000 -14.900000
      vertex 6.000000 0.700000 -4.500000
    endloop
  endfacet
  facet normal -0.000000 -1.000000 0.000000
    outer loop
      vertex 6.000000 0.700000 -14.900000
      vertex 11.400000 0.700000 -14.900000
      vertex 11.400000 0.700000 -4.500000
    endloop
  endfacet
  facet normal -0.000000 -1.000000 0.000000
    outer loop
      vertex 8.344841 0.700000 -10.189546
      vertex 6.000000 0.700000 -14.900000
      vertex 11.400000 0.700000 -4.500000
    endloop
  endfacet
  facet normal 0.000000 -1.000000 0.000000
    outer loop
      vertex 6.000000 0.700000 -4.500000
      vertex 6.000000 0.700000 -7.596315
      vertex 11.400000 0.700000 -4.500000
    endloop
  endfacet
  facet normal 0.000000 -1.000000 0.000000
    outer loop
      vertex 6.000000 0.700000 -7.596315
      vertex 6.200000 0.700000 -7.500000
      vertex 11.400000 0.700000 -4.500000
    endloop
  endfacet
  facet normal -0.000000 -1.000000 0.000000
    outer loop
      vertex 6.200000 0.700000 -7.500000
      vertex 7.920029 0.700000 -8.328322
      vertex 11.400000 0.700000 -4.500000
    endloop
  endfacet
  facet normal -0.000000 -1.000000 0.000000
    outer loop
      vertex 7.920029 0.700000 -8.328322
      vertex 8.344841 0.700000 -10.189546
      vertex 11.400000 0.700000 -4.500000
    endloop
  endfacet
  facet normal -0.000000 -1.000000 0.000000
    outer loop
      vertex 7.154544 0.700000 -11.682132
      vertex 6.000000 0.700000 -14.900000
      vertex 8.344841 0.700000 -10.189546
    endloop
  endfacet
  facet normal 0.000000 -1.000000 0.000000
    outer loop
      vertex 7.154544 0.700000 -11.682132
      vertex 6.000000 0.700000 -11.682132
      vertex 6.000000 0.700000 -14.900000
    endloop
  endfacet
  facet normal 1.000000 0.000000 0.000000
    outer loop
      vertex 11.400000 0.700000 -14.900000
      vertex 11.400000 13.100000 -14.900000
      vertex 11.400000 13.100000 -4.500000
    endloop
  endfacet
  facet normal 1.000000 0.000000 -0.000000
    outer loop
      vertex 11.400000 0.700000 -4.500000
      vertex 11.400000 0.700000 -14.900000
      vertex 11.400000 13.100000 -4.500000
    endloop
  endfacet
  facet normal 0.000000 1.000000 -0.000000
    outer loop
      vertex -8.266667 13.100000 -4.500000
      vertex 11.400000 13.100000 -4.500000
      vertex -8.266667 13.100000 -14.900000
    endloop
  endfacet
  facet normal 0.000000 1.000000 0.000000
    outer loop
      vertex 8.344841 13.100000 -10.189546
      vertex 11.400000 13.100000 -4.500000
      vertex 11.400000 13.100000 -14.900000
    endloop
  endfacet
  facet normal 0.000000 1.000000 0.000000
    outer loop
      vertex -8.266667 13.100000 -14.900000
      vertex 4.055159 13.100000 -10.189546
      vertex 5.245456 13.100000 -11.682132
    endloop
  endfacet
  facet normal 0.000000 1.000000 0.000000
    outer loop
      vertex -8.266667 13.100000 -14.900000
      vertex 5.245456 13.100000 -11.682132
      vertex 11.400000 13.100000 -14.900000
    endloop
  endfacet
  facet normal 0.000000 1.000000 0.000000
    outer loop
      vertex 6.200000 13.100000 -7.500000
      vertex 11.400000 13.100000 -4.500000
      vertex 7.920029 13.100000 -8.328322
    endloop
  endfacet
  facet normal 0.000000 1.000000 0.000000
    outer loop
      vertex 7.920029 13.100000 -8.328322
      vertex 11.400000 13.100000 -4.500000
      vertex 8.344841 13.100000 -10.189546
    endloop
  endfacet
  facet normal 0.000000 1.000000 0.000000
    outer loop
      vertex 7.154544 13.100000 -11.682132
      vertex 8.344841 13.100000 -10.189546
      vertex 11.400000 13.100000 -14.900000
    endloop
  endfacet
  facet normal 0.000000 1.000000 0.000000
    outer loop
      vertex 4.479971 13.100000 -8.328322
      vertex 11.400000 13.100000 -4.500000
      vertex 6.200000 13.100000 -7.500000
    endloop
  endfacet
  facet normal 0.000000 1.000000 -0.000000
    outer loop
      vertex 7.154544 13.100000 -11.682132
      vertex 11.400000 13.100000 -14.900000
      vertex 5.245456 13.100000 -11.682132
    endloop
  endfacet
  facet normal 0.000000 1.000000 0.000000
    outer loop
      vertex -8.266667 13.100000 -14.900000
      vertex 11.400000 13.100000 -4.500000
      vertex 4.479971 13.100000 -8.328322
    endloop
  endfacet
  facet normal -0.000000 1.000000 0.000000
    outer loop
      vertex 4.055159 13.100000 -10.189546
      vertex -8.266667 13.100000 -14.900000
      vertex 4.479971 13.100000 -8.328322
    endloop
  endfacet
  facet normal -0.970942 0.239315 0.000000
    outer loop
      vertex -8.740115 11.179144 -4.500000
      vertex -8.266667 13.100000 -4.500000
      vertex -8.740115 11.179144 -14.900000
    endloop
  endfacet
  facet normal -0.970942 0.239315 0.000000
    outer loop
      vertex -8.740115 11.179144 -14.900000
      vertex -8.266667 13.100000 -4.500000
      vertex -8.266667 13.100000 -14.900000
    endloop
  endfacet
  facet normal -0.748511 0.663123 0.000000
    outer loop
      vertex -10.051999 9.698333 -4.500000
      vertex -8.740115 11.179144 -4.500000
      vertex -10.051999 9.698333 -14.900000
    endloop
  endfacet
  facet normal -0.748511 0.663123 0.000000
    outer loop
      vertex -10.051999 9.698333 -14.900000
      vertex -8.740115 11.179144 -4.500000
      vertex -8.740115 11.179144 -14.900000
    endloop
  endfacet
  facet normal -0.354605 0.935016 0.000000
    outer loop
      vertex -11.901782 8.996803 -4.500000
      vertex -10.051999 9.698333 -4.500000
      vertex -11.901782 8.996803 -14.900000
    endloop
  endfacet
  facet normal -0.354605 0.935016 0.000000
    outer loop
      vertex -11.901782 8.996803 -14.900000
      vertex -10.051999 9.698333 -4.500000
      vertex -10.051999 9.698333 -14.900000
    endloop
  endfacet
  facet normal 0.120537 0.992709 -0.000000
    outer loop
      vertex -13.865700 9.235266 -4.500000
      vertex -11.901782 8.996803 -4.500000
      vertex -13.865700 9.235266 -14.900000
    endloop
  endfacet
  facet normal 0.120537 0.992709 0.000000
    outer loop
      vertex -13.865700 9.235266 -14.900000
      vertex -11.901782 8.996803 -4.500000
      vertex -11.901782 8.996803 -14.900000
    endloop
  endfacet
  facet normal 0.568065 0.822984 -0.000000
    outer loop
      vertex -15.493844 10.359093 -4.500000
      vertex -13.865700 9.235266 -4.500000
      vertex -15.493844 10.359093 -14.900000
    endloop
  endfacet
  facet normal 0.568065 0.822984 0.000000
    outer loop
      vertex -15.493844 10.359093 -14.900000
      vertex -13.865700 9.235266 -4.500000
      vertex -13.865700 9.235266 -14.900000
    endloop
  endfacet
  facet normal 0.885456 0.464723 0.000000
    outer loop
      vertex -16.413226 12.110829 -14.900000
      vertex -16.413226 12.110829 -4.500000
      vertex -15.493844 10.359093 -4.500000
    endloop
  endfacet
  facet normal 0.885456 0.464723 0.000000
    outer loop
      vertex -15.493844 10.359093 -14.900000
      vertex -16.413226 12.110829 -14.900000
      vertex -15.493844 10.359093 -4.500000
    endloop
  endfacet
  facet normal 1.000000 0.000000 0.000000
    outer loop
      vertex -16.413226 12.110829 -14.900000
      vertex -16.413226 13.100000 -14.900000
      vertex -16.413226 13.100000 -4.500000
    endloop
  endfacet
  facet normal 1.000000 0.000000 -0.000000
    outer loop
      vertex -16.413226 12.110829 -4.500000
      vertex -16.413226 12.110829 -14.900000
      vertex -16.413226 13.100000 -4.500000
    endloop
  endfacet
  facet normal 0.841253 0.540641 0.000000
    outer loop
      vertex -3.070378 5.998456 -14.900000
      vertex -3.070378 5.998456 -4.500000
      vertex -2.095554 4.481601 -4.500000
    endloop
  endfacet
  facet normal 0.841253 0.540641 0.000000
    outer loop
      vertex -2.095554 4.481601 -14.900000
      vertex -3.070378 5.998456 -14.900000
      vertex -2.095554 4.481601 -4.500000
    endloop
  endfacet
  facet normal 1.000000 0.000000 0.000000
    outer loop
      vertex -3.070378 5.998456 -14.900000
      vertex -3.070378 7.801544 -14.900000
      vertex -3.070378 7.801544 -4.500000
    endloop
  endfacet
  facet normal 1.000000 0.000000 -0.000000
    outer loop
      vertex -3.070378 5.998456 -4.500000
      vertex -3.070378 5.998456 -14.900000
      vertex -3.070378 7.801544 -4.500000
    endloop
  endfacet
  facet normal 0.841253 -0.540641 0.000000
    outer loop
      vertex -3.070378 7.801544 -14.900000
      vertex -2.095554 9.318399 -14.900000
      vertex -2.095554 9.318399 -4.500000
    endloop
  endfacet
  facet normal 0.841253 -0.540641 0.000000
    outer loop
      vertex -3.070378 7.801544 -4.500000
      vertex -3.070378 7.801544 -14.900000
      vertex -2.095554 9.318399 -4.500000
    endloop
  endfacet
  facet normal 0.415415 -0.909632 0.000000
    outer loop
      vertex -2.095554 9.318399 -14.900000
      vertex -0.455407 10.067429 -14.900000
      vertex -0.455407 10.067429 -4.500000
    endloop
  endfacet
  facet normal 0.415415 -0.909632 0.000000
    outer loop
      vertex -2.095554 9.318399 -4.500000
      vertex -2.095554 9.318399 -14.900000
      vertex -0.455407 10.067429 -4.500000
    endloop
  endfacet
  facet normal -0.142315 -0.989821 0.000000
    outer loop
      vertex -0.455407 10.067429 -14.900000
      vertex 1.329328 9.810822 -14.900000
      vertex 1.329328 9.810822 -4.500000
    endloop
  endfacet
  facet normal -0.142315 -0.989821 0.000000
    outer loop
      vertex -0.455407 10.067429 -4.500000
      vertex -0.455407 10.067429 -14.900000
      vertex 1.329328 9.810822 -4.500000
    endloop
  endfacet
  facet normal -0.654861 -0.755750 0.000000
    outer loop
      vertex 1.329328 9.810822 -14.900000
      vertex 2.692011 8.630051 -14.900000
      vertex 2.692011 8.630051 -4.500000
    endloop
  endfacet
  facet normal -0.654861 -0.755750 0.000000
    outer loop
      vertex 1.329328 9.810822 -4.500000
      vertex 1.329328 9.810822 -14.900000
      vertex 2.692011 8.630051 -4.500000
    endloop
  endfacet
  facet normal -0.959493 -0.281733 -0.000000
    outer loop
      vertex 3.200000 6.900000 -14.900000
      vertex 3.200000 6.900000 -4.500000
      vertex 2.692011 8.630051 -14.900000
    endloop
  endfacet
  facet normal -0.959493 -0.281733 -0.000000
    outer loop
      vertex 2.692011 8.630051 -14.900000
      vertex 3.200000 6.900000 -4.500000
      vertex 2.692011 8.630051 -4.500000
    endloop
  endfacet
  facet normal -0.959493 0.281733 0.000000
    outer loop
      vertex 2.692011 5.169949 -4.500000
      vertex 3.200000 6.900000 -4.500000
      vertex 2.692011 5.169949 -14.900000
    endloop
  endfacet
  facet normal -0.959493 0.281733 0.000000
    outer loop
      vertex 2.692011 5.169949 -14.900000
      vertex 3.200000 6.900000 -4.500000
      vertex 3.200000 6.900000 -14.900000
    endloop
  endfacet
  facet normal -0.654861 0.755750 0.000000
    outer loop
      vertex 1.329328 3.989178 -4.500000
      vertex 2.692011 5.169949 -4.500000
      vertex 1.329328 3.989178 -14.900000
    endloop
  endfacet
  facet normal -0.654861 0.755750 0.000000
    outer loop
      vertex 1.329328 3.989178 -14.900000
      vertex 2.692011 5.169949 -4.500000
      vertex 2.692011 5.169949 -14.900000
    endloop
  endfacet
  facet normal -0.142315 0.989821 0.000000
    outer loop
      vertex -0.455407 3.732571 -4.500000
      vertex 1.329328 3.989178 -4.500000
      vertex -0.455407 3.732571 -14.900000
    endloop
  endfacet
  facet normal -0.142315 0.989821 0.000000
    outer loop
      vertex -0.455407 3.732571 -14.900000
      vertex 1.329328 3.989178 -4.500000
      vertex 1.329328 3.989178 -14.900000
    endloop
  endfacet
  facet normal 0.415415 0.909632 -0.000000
    outer loop
      vertex -2.095554 4.481601 -4.500000
      vertex -0.455407 3.732571 -4.500000
      vertex -2.095554 4.481601 -14.900000
    endloop
  endfacet
  facet normal 0.415415 0.909632 0.000000
    outer loop
      vertex -2.095554 4.481601 -14.900000
      vertex -0.455407 3.732571 -4.500000
      vertex -0.455407 3.732571 -14.900000
    endloop
  endfacet
  facet normal 0.781832 -0.000000 0.623490
    outer loop
      vertex -23.878174 13.100000 -10.189546
      vertex -23.878174 0.000000 -10.189546
      vertex -22.687877 0.000000 -11.682132
    endloop
  endfacet
  facet normal 0.781832 -0.000000 0.623490
    outer loop
      vertex -22.687877 13.100000 -11.682132
      vertex -23.878174 13.100000 -10.189546
      vertex -22.687877 0.000000 -11.682132
    endloop
  endfacet
  facet normal 0.974928 0.000000 -0.222521
    outer loop
      vertex -23.878174 13.100000 -10.189546
      vertex -23.453362 13.100000 -8.328322
      vertex -23.453362 0.000000 -8.328322
    endloop
  endfacet
  facet normal 0.974928 0.000000 -0.222521
    outer loop
      vertex -23.878174 0.000000 -10.189546
      vertex -23.878174 13.100000 -10.189546
      vertex -23.453362 0.000000 -8.328322
    endloop
  endfacet
  facet normal 0.433884 0.000000 -0.900969
    outer loop
      vertex -21.733333 13.100000 -7.500000
      vertex -21.733333 0.000000 -7.500000
      vertex -23.453362 13.100000 -8.328322
    endloop
  endfacet
  facet normal 0.433884 0.000000 -0.900969
    outer loop
      vertex -23.453362 13.100000 -8.328322
      vertex -21.733333 0.000000 -7.500000
      vertex -23.453362 0.000000 -8.328322
    endloop
  endfacet
  facet normal -0.433884 0.000000 -0.900969
    outer loop
      vertex -20.013304 13.100000 -8.328322
      vertex -20.013304 0.000000 -8.328322
      vertex -21.733333 13.100000 -7.500000
    endloop
  endfacet
  facet normal -0.433884 0.000000 -0.900969
    outer loop
      vertex -21.733333 13.100000 -7.500000
      vertex -20.013304 0.000000 -8.328322
      vertex -21.733333 0.000000 -7.500000
    endloop
  endfacet
  facet normal -0.974928 -0.000000 -0.222521
    outer loop
      vertex -19.588492 13.100000 -10.189546
      vertex -19.588492 0.000000 -10.189546
      vertex -20.013304 13.100000 -8.328322
    endloop
  endfacet
  facet normal -0.974928 0.000000 -0.222521
    outer loop
      vertex -20.013304 13.100000 -8.328322
      vertex -19.588492 0.000000 -10.189546
      vertex -20.013304 0.000000 -8.328322
    endloop
  endfacet
  facet normal -0.781832 0.000000 0.623490
    outer loop
      vertex -20.778789 0.000000 -11.682132
      vertex -19.588492 0.000000 -10.189546
      vertex -20.778789 13.100000 -11.682132
    endloop
  endfacet
  facet normal -0.781832 -0.000000 0.623490
    outer loop
      vertex -20.778789 13.100000 -11.682132
      vertex -19.588492 0.000000 -10.189546
      vertex -19.588492 13.100000 -10.189546
    endloop
  endfacet
  facet normal 0.000000 -0.000000 1.000000
    outer loop
      vertex -22.687877 13.100000 -11.682132
      vertex -22.687877 0.000000 -11.682132
      vertex -20.778789 0.000000 -11.682132
    endloop
  endfacet
  facet normal 0.000000 0.000000 1.000000
    outer loop
      vertex -20.778789 13.100000 -11.682132
      vertex -22.687877 13.100000 -11.682132
      vertex -20.778789 0.000000 -11.682132
    endloop
  endfacet
  facet normal 0.433884 0.000000 -0.900969
    outer loop
      vertex 6.200000 13.100000 -7.500000
      vertex 6.200000 0.700000 -7.500000
      vertex 4.479971 13.100000 -8.328322
    endloop
  endfacet
  facet normal 0.433884 0.000000 -0.900969
    outer loop
      vertex 4.479971 13.100000 -8.328322
      vertex 6.200000 0.700000 -7.500000
      vertex 6.000000 0.700000 -7.596315
    endloop
  endfacet
  facet normal 0.433884 0.000000 -0.900969
    outer loop
      vertex 4.479971 13.100000 -8.328322
      vertex 6.000000 0.700000 -7.596315
      vertex 4.479971 0.700000 -8.328322
    endloop
  endfacet
  facet normal 0.974928 0.000000 -0.222521
    outer loop
      vertex 4.055159 13.100000 -10.189546
      vertex 4.479971 13.100000 -8.328322
      vertex 4.479971 0.700000 -8.328322
    endloop
  endfacet
  facet normal 0.974928 0.000000 -0.222521
    outer loop
      vertex 4.055159 0.700000 -10.189546
      vertex 4.055159 13.100000 -10.189546
      vertex 4.479971 0.700000 -8.328322
    endloop
  endfacet
  facet normal 0.781832 -0.000000 0.623490
    outer loop
      vertex 4.055159 13.100000 -10.189546
      vertex 4.055159 0.700000 -10.189546
      vertex 5.245456 0.700000 -11.682132
    endloop
  endfacet
  facet normal 0.781832 -0.000000 0.623490
    outer loop
      vertex 5.245456 13.100000 -11.682132
      vertex 4.055159 13.100000 -10.189546
      vertex 5.245456 0.700000 -11.682132
    endloop
  endfacet
  facet normal 0.000000 -0.000000 1.000000
    outer loop
      vertex 5.245456 13.100000 -11.682132
      vertex 5.245456 0.700000 -11.682132
      vertex 6.000000 0.700000 -11.682132
    endloop
  endfacet
  facet normal 0.000000 -0.000000 1.000000
    outer loop
      vertex 7.154544 0.700000 -11.682132
      vertex 5.245456 13.100000 -11.682132
      vertex 6.000000 0.700000 -11.682132
    endloop
  endfacet
  facet normal 0.000000 -0.000000 1.000000
    outer loop
      vertex 7.154544 13.100000 -11.682132
      vertex 5.245456 13.100000 -11.682132
      vertex 7.154544 0.700000 -11.682132
    endloop
  endfacet
  facet normal -0.781832 -0.000000 0.623490
    outer loop
      vertex 7.154544 0.700000 -11.682132
      vertex 8.344841 0.700000 -10.189546
      vertex 7.154544 13.100000 -11.682132
    endloop
  endfacet
  facet normal -0.781832 0.000000 0.623490
    outer loop
      vertex 7.154544 13.100000 -11.682132
      vertex 8.344841 0.700000 -10.189546
      vertex 8.344841 13.100000 -10.189546
    endloop
  endfacet
  facet normal -0.974928 0.000000 -0.222521
    outer loop
      vertex 8.344841 13.100000 -10.189546
      vertex 8.344841 0.700000 -10.189546
      vertex 7.920029 13.100000 -8.328322
    endloop
  endfacet
  facet normal -0.974928 -0.000000 -0.222521
    outer loop
      vertex 7.920029 13.100000 -8.328322
      vertex 8.344841 0.700000 -10.189546
      vertex 7.920029 0.700000 -8.328322
    endloop
  endfacet
  facet normal -0.433884 -0.000000 -0.900969
    outer loop
      vertex 7.920029 13.100000 -8.328322
      vertex 7.920029 0.700000 -8.328322
      vertex 6.200000 13.100000 -7.500000
    endloop
  endfacet
  facet normal -0.433884 -0.000000 -0.900969
    outer loop
      vertex 6.200000 13.100000 -7.500000
      vertex 7.920029 0.700000 -8.328322
      vertex 6.200000 0.700000 -7.500000
    endloop
  endfacet
endsolid OpenSCAD_Model
